<?xml version="1.0" encoding="UTF-8"?>
<svg id="_レイヤー_2" data-name="レイヤー 2" xmlns="http://www.w3.org/2000/svg" xmlns:xlink="http://www.w3.org/1999/xlink" viewBox="0 0 310.83 287.4">
  <defs>
    <style>
      .cls-1 {
        fill: #bdbdbd;
      }

      .cls-1, .cls-2, .cls-3, .cls-4, .cls-5, .cls-6, .cls-7, .cls-8, .cls-9, .cls-10, .cls-11, .cls-12, .cls-13, .cls-14 {
        stroke-width: 0px;
      }

      .cls-15 {
        stroke-width: 5px;
      }

      .cls-15, .cls-4, .cls-16 {
        fill: none;
      }

      .cls-15, .cls-16 {
        stroke: #f60;
        stroke-miterlimit: 10;
      }

      .cls-2 {
        fill: #231815;
      }

      .cls-17 {
        clip-path: url(#clippath-2);
      }

      .cls-3 {
        fill: #e5f0fa;
      }

      .cls-5 {
        fill: #9cc3eb;
      }

      .cls-18 {
        clip-path: url(#clippath-1);
      }

      .cls-6 {
        fill: #7a7473;
      }

      .cls-7 {
        fill: #fff;
      }

      .cls-8 {
        fill: #f60;
      }

      .cls-9 {
        fill: #ffebcc;
      }

      .cls-16 {
        stroke-linecap: round;
        stroke-width: 3px;
      }

      .cls-19 {
        clip-path: url(#clippath);
      }

      .cls-20 {
        clip-path: url(#clippath-3);
      }

      .cls-10 {
        fill: #fff5e5;
      }

      .cls-11 {
        fill: #c6c6c6;
      }

      .cls-12 {
        fill: #69a5e1;
      }

      .cls-13 {
        fill: #211715;
      }

      .cls-14 {
        fill: #645d5c;
      }
    </style>
    <clipPath id="clippath">
      <circle class="cls-4" cx="259.33" cy="121.23" r="45.37"/>
    </clipPath>
    <clipPath id="clippath-1">
      <circle class="cls-4" cx="226.91" cy="30.92" r="30.92"/>
    </clipPath>
    <clipPath id="clippath-2">
      <circle class="cls-4" cx="56.6" cy="99.85" r="45.37"/>
    </clipPath>
    <clipPath id="clippath-3">
      <circle class="cls-4" cx="37.08" cy="193.48" r="30.92"/>
    </clipPath>
  </defs>
  <g id="layer">
    <polyline class="cls-15" points="48.1 106.15 142.57 213.56 259.33 124.66"/>
    <path class="cls-7" d="m129.81,151.11c.68-.23,5.56-2.78,5.79-2.87,3.56-1.29,3.37-4.17,3.83-6.72-3.61-1.82-6.94-4.61-9.93-8.2-3.69-4.41-5.77-9.32-6.99-13.64-.86-.13-1.38-.21-1.38-.21-1.56-.24-3.03-.95-4.22-1.9-1.56-1.26-2.68-2.92-3.54-4.65-1.77-3.55-2.54-7.53-2.2-11.43.09-.99.25-2,.75-2.89.71-1.27,2.11-2.2,3.66-2.43s3.2.26,4.31,1.26c0,0-1.87-34.33,36.18-34.33s36.14,34.33,36.14,34.33c1.11-1.01,2.77-1.49,4.31-1.26s2.95,1.16,3.66,2.43c.5.89.66,1.9.75,2.89.34,3.9-.43,7.87-2.2,11.43-.86,1.73-1.98,3.39-3.54,4.65-1.2.96-2.67,1.66-4.22,1.9,0,0-.26.04-.72.11-.35,1.3-.74,2.39-.93,2.97-1.24,3.37-8.25,15.11-17.03,19.23.54,2.67.2,5.13,3.88,6.46.23.08,6.64,3.17,7,3.32,0,0-5.91,21.92-27.52,21.92s-25.85-22.38-25.85-22.38Z"/>
    <path class="cls-11" d="m135.3,68.66c-7.94,4.4-11.43,17.46-11.93,24.18l-3.48,4.59c-1.11-1.01-2.77-1.49-4.31-1.26-.08.01-.17.03-.25.05-3.79-6.42-3.87-19.02-1.35-29.85,1.91-8.2,6.92-14.08,14.8-18.85.49-.13,1.99-.87,2.45-1.09.93-.44,2.32-1.7,3.45-2.53,9.22-6.81,22.18-6.63,28.36-5.33,15.59,3.26,24.8,12.42,28.49,18.98,5.97,10.6,9.88,22.82,4.97,38.63-1.54-.23-3.19.26-4.3,1.26l-2.69-4.59c.02-4.8-4.17-21.21-17.07-26.03,0,0-7.94-3.95-20.19-2.35-10.82,1.41-16.96,4.2-16.96,4.2Z"/>
    <path class="cls-1" d="m100.81,277.46c-8.48-5.76-16.96-11.52-25.43-17.28-2.95-2-6.05-4.2-7.38-7.51-1.38-3.45-1.63-8.1-.73-11.7,4.52-18.09,8.55-33.99,14.49-51.66,1.93-5.74,4.07-11.67,8.39-15.9,2.87-2.81,8.81-5.92,12.39-7.73,9.97-5.07,19.94-10.14,29.91-15.22,1.4,5.19,3.56,13.85,6.57,22.49,5.74,16.45,13.61,34.81,17.85,43.96,0,0,.16.35.46.99,4.99-12.02,11.61-30.68,16.19-46.05,2.78-9.33,4.5-18.08,5.24-22.18,10.49,5.35,20.98,10.68,31.47,16.01,3.58,1.82,9.52,4.93,12.39,7.73,4.33,4.23,6.47,10.16,8.39,15.9,5.94,17.67,9.97,33.57,14.49,51.66.9,3.6.66,8.25-.73,11.7-1.33,3.31-4.43,5.5-7.38,7.51-8.48,5.76-16.96,11.52-25.43,17.28"/>
    <path class="cls-13" d="m101.82,275.74c-4.92-3.35-9.85-6.69-14.77-10.04-2.39-1.63-4.79-3.25-7.18-4.88-2.13-1.45-4.36-2.82-6.36-4.45-1.65-1.34-3.15-2.89-3.84-4.94-.76-2.26-1.02-4.63-.89-7,.14-2.59.97-5.11,1.6-7.61.67-2.66,1.34-5.32,2.02-7.98,2.72-10.64,5.61-21.24,8.92-31.72,2.79-8.83,5.15-19.26,13.34-24.7,4.48-2.97,9.39-5.27,14.17-7.7,5.84-2.96,11.68-5.93,17.52-8.91,2.29-1.17.27-4.62-2.02-3.45-5.47,2.79-10.95,5.57-16.42,8.35-4.53,2.3-9.14,4.49-13.48,7.13s-7.61,5.64-10.06,9.98c-2.57,4.56-4.12,9.67-5.74,14.62-3.53,10.84-6.59,21.83-9.44,32.87-.72,2.79-1.43,5.58-2.13,8.38s-1.55,5.46-1.99,8.24c-.76,4.76-.26,10.39,2.75,14.34,1.69,2.22,3.97,3.86,6.25,5.43,2.83,1.95,5.68,3.86,8.52,5.79,5.74,3.9,11.49,7.8,17.23,11.71,2.13,1.45,4.14-2.01,2.02-3.45h0Z"/>
    <path class="cls-7" d="m158.76,152.74c-.16.11-.29.24-.34.42-.09.28.04.57.17.83h-5.91c.13-.26.26-.55.17-.83-.1-.32-.44-.49-.74-.63-5.14-2.33-10.52-6-14.73-10.27-2.22,2.04-3.95,4.61-5.23,7.12,1.39,5,3.63,14.3,6.87,23.57,5.74,16.45,13.61,34.81,17.85,43.96l.46.99c4.99-12.02,11.61-30.68,16.19-46.05,2.96-9.93,4.71-19.19,5.38-22.91-1.25-2.36-2.91-4.75-4.99-6.67-4.21,4.27-9.59,7.94-14.73,10.27-.13.06-.28.13-.4.21Z"/>
    <path class="cls-13" d="m182.93,154.03c10.07,5.13,20.31,10.01,30.23,15.44,3.85,2.11,7.74,4.34,10.32,8,2.91,4.13,4.49,9,6.07,13.75,3.51,10.56,6.56,21.27,9.38,32.03,1.47,5.6,2.88,11.21,4.28,16.83,1.08,4.33,1.48,9.7-1.25,13.56-1.47,2.08-3.72,3.54-5.79,4.95-2.8,1.91-5.61,3.81-8.41,5.72-5.61,3.81-11.22,7.62-16.82,11.43-2.12,1.44-.12,4.91,2.02,3.45,5.2-3.53,10.39-7.06,15.59-10.59,2.6-1.77,5.2-3.53,7.8-5.3,2.2-1.5,4.47-2.95,6.47-4.72,8.98-7.99,3.96-20.83,1.47-30.58-2.9-11.33-5.98-22.61-9.55-33.75-1.66-5.18-3.24-10.52-5.75-15.37-2.28-4.42-5.47-7.77-9.65-10.43-4.96-3.15-10.34-5.64-15.56-8.29-6.28-3.19-12.56-6.39-18.83-9.58-2.29-1.17-4.32,2.28-2.02,3.45h0Z"/>
    <path class="cls-13" d="m138.14,145.28c-.08,1.86-.26,3.71-.55,5.55-.19,1.18-.3,2.43-.64,3.58-.03.11-.07.22-.11.34-.05.17.11-.19-.03.07-.07.13-.13.25-.2.37-.02.03-.28.38-.09.15-.42.51-.68.68-1.31.97-.94.45-1.94.8-2.9,1.21-.8.34-.97,1.51-.57,2.19.48.82,1.39.91,2.19.57.15-.07.23-.1.03-.01.14-.06.28-.12.42-.18.28-.12.57-.24.85-.35.66-.27,1.33-.5,1.95-.85,1.34-.76,2.28-1.92,2.78-3.37.42-1.22.52-2.58.73-3.85.34-2.12.58-4.25.67-6.4.04-.86-.76-1.6-1.6-1.6-.9,0-1.56.73-1.6,1.6h0Z"/>
    <path class="cls-13" d="m169.36,145.21c.09,2.25.34,4.5.71,6.72.22,1.31.31,2.69.81,3.93.64,1.58,1.82,2.71,3.37,3.39.55.24,1.12.44,1.67.67.3.12.6.24.89.36.16.06.32.13.48.2.4.16-.14-.06.06.03.79.34,1.72.23,2.19-.57.4-.68.22-1.84-.57-2.19-1-.43-2.01-.84-3.03-1.22-.53-.2-1.15-.54-1.42-.8-.09-.09-.19-.18-.28-.28-.24-.27.06.12-.11-.15-.08-.12-.15-.25-.22-.38-.21-.4.08.28-.06-.15-.41-1.17-.51-2.44-.71-3.66-.32-1.94-.52-3.9-.6-5.87-.04-.86-.71-1.6-1.6-1.6-.84,0-1.64.73-1.6,1.6h0Z"/>
    <path class="cls-12" d="m150.76,162.26c.07.3.14.59.22.89.16.65.33,1.3.32,1.97,0,.71-4.39,36.29-5.21,43.11,2.02,2.79,8.25,11.57,11.19,14.24,2.57-2.48,8.04-10.54,10.3-14.13-.63-5.54-6.26-41.89-6.25-43,.02-1.2.4-2.36.77-3.5,1-3.06,1.2-5.2,2.21-8.26-2.98,0-13.22.02-15.38.02.73,2.88,1.16,5.77,1.83,8.65Z"/>
    <path class="cls-13" d="m151.4,167.05c3.31,0,6.62-.07,9.93-.07,1.05,0,2.05-.92,2-2s-.88-2-2-2c-3.31,0-6.62.07-9.93.07-1.05,0-2.05.92-2,2s.88,2,2,2h0Z"/>
    <path class="cls-13" d="m148.83,162.79c.33,1.37.48,2.29.33,3.62s-.32,2.75-.49,4.12c-.54,4.53-1.09,9.06-1.65,13.59-.61,4.99-1.22,9.97-1.83,14.96-.24,1.97-.48,3.94-.72,5.91-.17,1.42-.74,3.28.08,4.54,1.63,2.51,3.54,4.91,5.35,7.29s3.7,5,5.95,7.08c.8.74,2.03.78,2.83,0,2.12-2.09,3.86-4.63,5.58-7.05.98-1.38,1.94-2.77,2.88-4.18.74-1.11,1.78-2.3,2.26-3.55.52-1.33-.17-3.4-.36-4.76-.28-2.03-.58-4.05-.88-6.08-1.44-9.82-2.96-19.64-4.38-29.47-.11-.79-.22-1.58-.33-2.36-.07-.5.04.31,0,.02-.01-.12-.03-.23-.05-.35-.02-.18-.05-.36-.06-.54-.09-1.47.62-2.93,1.02-4.31.69-2.37,1.11-4.8,1.87-7.15.4-1.25-.67-2.53-1.93-2.53-5.13,0-10.25.02-15.38.02-1.33,0-2.24,1.28-1.93,2.53.71,2.86,1.17,5.78,1.83,8.65.57,2.51,4.43,1.45,3.86-1.06-.66-2.87-1.12-5.79-1.83-8.65l-1.93,2.53c5.13,0,10.25-.02,15.38-.02l-1.93-2.53c-.52,1.62-.89,3.26-1.29,4.91-.44,1.85-1.16,3.65-1.54,5.52-.22,1.08-.23,1.94-.1,2.98.37,2.84.8,5.68,1.22,8.52,1.23,8.27,2.48,16.54,3.7,24.82.27,1.82.53,3.63.79,5.45.05.37.1.75.16,1.12.02.15.04.29.06.44.08.59-.03-.21.02.13.06.47.12.94.18,1.41l.27-1.01c-1.58,2.49-3.23,4.94-4.94,7.34-1.56,2.2-3.12,4.49-5.05,6.38h2.83c-2.17-2-3.96-4.46-5.73-6.8s-3.45-4.68-5.15-7.04l.27,1.01c1.58-13.13,3.23-26.24,4.79-39.37.12-.98.23-1.97.34-2.95.16-1.44-.2-2.78-.53-4.18-.6-2.5-4.45-1.44-3.86,1.06Z"/>
    <path class="cls-7" d="m143.57,165.28c-4.73-4.7-7.83-10.4-11.32-16.08,1.27-2.45,2.97-4.95,5.13-6.94,4.21,4.27,9.59,7.94,14.73,10.27.3.14.65.31.74.63.09.28-.04.57-.17.83-.44.91-6.66,8.27-9.12,11.29Z"/>
    <path class="cls-7" d="m167.71,165.28c4.73-4.7,7.83-10.4,11.32-16.08-1.27-2.45-2.97-4.95-5.13-6.94-4.21,4.27-9.59,7.94-14.73,10.27-.3.14-.65.31-.74.63-.09.28.04.57.17.83.44.91,6.66,8.27,9.12,11.29Z"/>
    <path class="cls-13" d="m144.99,163.86c-4.55-4.57-7.67-10.22-11.01-15.68v2.02c1.28-2.43,2.81-4.65,4.82-6.53h-2.83c2.32,2.33,4.88,4.43,7.59,6.29,1.33.91,2.69,1.76,4.1,2.55.63.35,1.26.68,1.9,1,.34.17.69.34,1.03.5.17.08.34.16.52.24.3.18.31.15.03-.09l-.27-1.01c-.02-.26.18-.17,0,0-.1.09-.17.25-.25.36-.39.54-.22.31-.64.83-.82,1.04-1.66,2.07-2.51,3.09-1.77,2.15-3.56,4.28-5.31,6.44-.68.84-.82,2.01,0,2.83.7.7,2.14.84,2.83,0,1.66-2.05,3.36-4.07,5.04-6.1,1.42-1.73,3.1-3.46,4.26-5.38.9-1.49.73-3.27-.82-4.23s-3.38-1.66-4.99-2.62c-3.53-2.1-6.78-4.61-9.67-7.52-.78-.78-2.04-.74-2.83,0-1.86,1.74-3.43,3.8-4.71,6-.33.56-.77,1.19-.94,1.82-.24.86.2,1.54.63,2.24.67,1.1,1.33,2.2,2,3.3,2.69,4.43,5.54,8.8,9.22,12.5,1.82,1.83,4.65-1,2.83-2.83Z"/>
    <path class="cls-13" d="m169.12,166.69c3.67-3.69,6.52-8.06,9.22-12.5.67-1.1,1.33-2.2,2-3.3.38-.63.75-1.2.66-1.97-.08-.66-.55-1.34-.88-1.91-1.3-2.26-2.9-4.38-4.81-6.17-.79-.74-2.05-.79-2.83,0-2.85,2.86-6.04,5.34-9.5,7.41-1.64.98-3.41,1.7-5.06,2.65s-1.87,2.76-.93,4.3c1.14,1.88,2.78,3.58,4.17,5.27,1.71,2.07,3.43,4.13,5.13,6.22.68.84,2.12.71,2.83,0,.83-.83.68-1.99,0-2.83-1.76-2.16-3.55-4.29-5.31-6.44-.84-1.02-1.68-2.05-2.51-3.09-.41-.52-.25-.29-.64-.83-.08-.11-.15-.27-.25-.36-.18-.17.02-.25,0,0l-.27,1.01c-.28.24-.28.27.03.09l.34-.16c.35-.16.69-.33,1.03-.5.7-.35,1.39-.71,2.07-1.09,1.41-.78,2.77-1.64,4.1-2.55,2.71-1.86,5.27-3.96,7.59-6.29h-2.83c2.01,1.88,3.54,4.1,4.82,6.53v-2.02c-3.34,5.46-6.46,11.11-11.01,15.68-1.82,1.83,1.01,4.66,2.83,2.83Z"/>
    <path class="cls-1" d="m156.87,216.9c-4.24-9.15-12.1-27.51-17.85-43.96-3.57-10.21-5.92-20.47-7.26-24.96-2.45.12-12.95,13.99-14.66,18.42-.11.29,5.02,4.92,7.35,7.01-1.24,1.12-5.51,6.12-5.59,6.63-.06.4,27.42,34.06,35.29,44.07"/>
    <path class="cls-1" d="m152.08,233.14c.27-2.43.95-4.79,1.62-7.14,4.87-9.78,13.99-34.62,19.81-54.16,3.25-10.92,5.05-21.04,5.54-23.86,2.53.29,12.92,14.01,14.61,18.42.11.29-5.02,4.92-7.35,7.01,1.24,1.11,5.51,6.12,5.59,6.63.06.4-20.4,32.22-31.27,48.6"/>
    <path class="cls-13" d="m155.56,222.69c-5.85-7.44-11.84-14.77-17.79-22.14-5.5-6.81-11.05-13.58-16.44-20.48-.2-.26.28.37,0,0-.07-.09-.14-.18-.21-.28-.11-.14-.2-.3-.32-.43-.05-.06-.11-.23-.18-.26-.33-.16.26,1.75,0,1.83.06-.02.27-.41.3-.46,1.18-1.74,3.17-4.03,4.94-5.66.76-.7.78-2.13,0-2.83-1.46-1.31-2.92-2.63-4.36-3.97-.64-.6-1.28-1.19-1.9-1.81-.23-.23-.46-.47-.69-.7-.42-.43-.02.04-.08-.1l.27,1.01c0,.31-.25.74,0,.36.09-.14.15-.31.23-.46.19-.38.4-.76.61-1.13.47-.83.98-1.64,1.51-2.44,1.28-1.96,2.65-3.86,4.08-5.71s2.78-3.48,4.32-5.08c.57-.59,1.16-1.17,1.79-1.7.4-.34-.32.21.08-.06.11-.07.22-.14.33-.22.09-.06.22-.09.29-.16-.33.13-.4.17-.22.1.21-.05.1-.03-.31.04,2.56-.14,2.58-4.14,0-4-1.88.1-3.4,1.73-4.64,3-1.96,2.01-3.71,4.23-5.41,6.46s-3.36,4.56-4.82,6.98c-.5.83-.99,1.68-1.39,2.57-.59,1.31-.45,2.24.49,3.3,2.11,2.37,4.65,4.42,7,6.53v-2.83c-1.79,1.65-3.37,3.62-4.86,5.54-.95,1.22-1.78,2.43-.79,3.9,1.67,2.47,3.71,4.76,5.58,7.08,6.82,8.52,13.7,16.99,20.55,25.48,3.09,3.83,6.18,7.66,9.22,11.53.67.85,2.13.7,2.83,0,.84-.84.67-1.98,0-2.83h0Z"/>
    <path class="cls-13" d="m129.8,148.43c1.16,3.89,2.11,7.85,3.19,11.77,1.51,5.45,3.21,10.84,5.12,16.17,3.56,9.92,7.5,19.7,11.64,29.38,1.74,4.08,3.52,8.14,5.38,12.16.45.98,1.87,1.23,2.74.72,1.01-.59,1.17-1.75.72-2.74-3.64-7.88-7.03-15.88-10.27-23.94-4.08-10.15-7.95-20.39-10.94-30.92-1.29-4.54-2.38-9.14-3.73-13.67-.73-2.46-4.59-1.41-3.86,1.06h0Z"/>
    <path class="cls-13" d="m177.14,147.37c-1.99,11.52-5.05,22.75-8.64,33.86-3.84,11.87-7.99,23.68-12.73,35.22-.93,2.27-1.89,4.52-2.93,6.74-1.48,3.16-2.33,6.48-2.76,9.95-.13,1.07,1.01,2,2,2,1.19,0,1.87-.92,2-2,.35-2.83,1.12-5.58,2.32-8.15.97-2.08,1.87-4.19,2.75-6.31,2.17-5.2,4.17-10.46,6.1-15.75,4.55-12.44,8.96-25.06,12.22-37.91,1.39-5.48,2.57-11.01,3.53-16.58.18-1.06-.28-2.15-1.4-2.46-.96-.26-2.28.33-2.46,1.4h0Z"/>
    <path class="cls-13" d="m178.97,149.98c-.41-.07-.51-.08-.31-.04.13.04.11.03-.07-.04,0,.02-.2-.15.09.06.12.09.25.16.38.24.34.22-.29-.25.08.06.6.51,1.17,1.05,1.71,1.62,1.57,1.62,3.01,3.38,4.39,5.16s2.75,3.68,4.01,5.6c.55.83,1.08,1.68,1.58,2.55.2.34.39.69.57,1.05.08.16.15.31.23.47.25.5.02.06.03-.29l.27-1.01c-.09.22.35-.33-.03.04-.22.22-.43.46-.66.68-.65.64-1.32,1.27-1.98,1.89-1.44,1.34-2.9,2.66-4.36,3.97-.78.7-.76,2.13,0,2.83,1.54,1.41,2.88,3.09,4.2,4.7.31.38.47.58.64.82.08.11.16.28.26.37.04.04.06.16.11.18.07.03-.16-1.29-.14-1.37.1-.6.17-.39-.08.03-1.33,2.32-2.82,4.56-4.25,6.82-5.65,8.9-11.37,17.75-17.12,26.58-3.19,4.9-6.39,9.79-9.62,14.66-1.43,2.15,2.04,4.16,3.45,2.02,6.22-9.37,12.34-18.82,18.43-28.27,2.74-4.25,5.47-8.5,8.17-12.77,1.49-2.34,3.06-4.66,4.41-7.08.88-1.58.23-2.67-.8-3.99-1.49-1.92-3.07-3.89-4.86-5.54v2.83c2.17-1.94,4.36-3.87,6.42-5.93.81-.81,1.78-1.75,1.44-3.02-.25-.92-.83-1.86-1.31-2.68-2.75-4.79-6.22-9.38-9.96-13.44-1.37-1.49-3.17-3.64-5.36-3.76-2.57-.14-2.57,3.86,0,4h0Z"/>
    <path class="cls-13" d="m193.62,98.85c1.39-1.16,3.74-.92,4.74.62.6.93.61,2.22.64,3.28.03,1.29-.04,2.58-.27,3.85-.84,4.58-3.22,10.04-8.3,10.95-1.06.19-1.66,1.49-1.4,2.46.31,1.12,1.39,1.59,2.46,1.4,7.37-1.32,10.88-9.67,11.44-16.35.28-3.36.07-7.28-2.84-9.47s-6.63-1.79-9.3.44c-.83.69-.72,2.11,0,2.83.82.82,2,.7,2.83,0h0Z"/>
    <path class="cls-13" d="m188.91,115.47c-.08,1.96-.62,3.85-1.24,5.7-.13.4-.27.81-.42,1.21.21-.55-.05.1-.1.2-.1.21-.2.42-.31.63-1.13,2.24-2.5,4.36-3.97,6.39-3.53,4.84-8.32,9.98-14.37,11.39-2.51.59-1.45,4.44,1.06,3.86,5.45-1.27,10.01-5.16,13.62-9.27,2.92-3.34,5.68-7.12,7.52-11.19,1.25-2.77,2.09-5.88,2.21-8.91.1-2.57-3.9-2.57-4,0h0Z"/>
    <path class="cls-13" d="m121.3,96.02c-2.67-2.23-6.45-2.57-9.3-.44s-3.12,6.12-2.84,9.47c.55,6.68,4.07,15.03,11.44,16.35,1.06.19,2.16-.29,2.46-1.4.27-.97-.33-2.27-1.4-2.46-5.08-.91-7.46-6.37-8.3-10.95-.22-1.2-.29-2.42-.27-3.64.02-1.08.02-2.37.55-3.35.92-1.68,3.41-1.96,4.83-.77.83.69,2.02.81,2.83,0,.71-.71.83-2.13,0-2.83h0Z"/>
    <path class="cls-13" d="m119.42,115.05c1.26,7.25,4.02,14.19,8.8,19.86s11.52,10.18,19.25,11c1.08.11,2-1,2-2,0-1.18-.92-1.89-2-2-6.8-.72-12.48-5.03-16.71-10.17s-6.38-11.38-7.49-17.76c-.19-1.06-1.49-1.66-2.46-1.4-1.12.31-1.58,1.39-1.4,2.46h0Z"/>
    <path class="cls-13" d="m149.58,129.24c2.2,1.16,4.57,1.65,7.06,1.64s5.11-.53,7.16-2.13c.83-.65.73-2.16,0-2.83-.88-.81-1.94-.69-2.83,0,.62-.48.18-.14.02-.04-.14.09-.28.17-.43.25-.08.04-.15.08-.23.11-.16.08-.32.05.12-.04-.2.04-.4.15-.59.22-.54.17-1.1.29-1.66.38.3-.05.06,0-.11,0s-.33.03-.49.04c-.39.03-.79.04-1.18.03-.35,0-.71-.01-1.06-.04-.16-.01-.32-.02-.48-.04-.06,0-.65-.1-.18-.02-.52-.1-1.04-.19-1.55-.34-.22-.07-.43-.14-.64-.22-.49-.17.34.17-.11-.04-.27-.13-.53-.26-.79-.39-.92-.49-2.22-.27-2.74.72-.49.92-.27,2.21.72,2.74h0Z"/>
    <path class="cls-13" d="m155.53,112.73c.3,1.16.59,2.33.77,3.52l-.07-.53c.02.16.03.32.01.49l.07-.53c-.01.08-.03.15-.05.22l.2-.48c-.02.05-.05.09-.08.14l.31-.4s-.07.08-.11.11l.4-.31c-.09.06-.18.1-.28.15l.48-.2c-.15.06-.31.11-.47.14l.53-.07c-.15.02-.29.02-.44,0l.53.07c-.17-.02-.33-.06-.5-.09-.27-.08-.53-.1-.8-.04-.27.01-.51.09-.74.24-.41.24-.81.72-.92,1.2-.12.51-.09,1.09.2,1.54.26.4.7.85,1.2.92.4.05.78.15,1.18.17.63.03,1.21-.17,1.76-.42.69-.32,1.24-.95,1.42-1.7.16-.63.09-1.18-.02-1.81-.19-1.13-.45-2.26-.74-3.37-.13-.48-.49-.94-.92-1.2s-1.06-.36-1.54-.2c-1.04.34-1.68,1.38-1.4,2.46h0Z"/>
    <path class="cls-13" d="m137.12,102.72c-.59,1.91-.2,6.3,3.41,6.67,4.78-.03,5.03-5.34,3.42-7.83-1.32-2.04-5.19-2.89-6.84,1.16Z"/>
    <path class="cls-13" d="m175.39,102.72c.59,1.91.2,6.3-3.41,6.67-4.78-.03-5.03-5.34-3.42-7.83,1.32-2.04,5.19-2.89,6.84,1.16Z"/>
    <path class="cls-13" d="m169.06,123.08c.32.29.61.61.88.95l-.31-.4c.38.5.7,1.04.94,1.62l-.2-.48c.14.34.26.7.35,1.06.12.48.5.95.92,1.2s1.06.36,1.54.2.95-.46,1.2-.92.33-1,.2-1.54c-.21-.86-.56-1.7-1.01-2.46s-1.02-1.47-1.67-2.06c-.39-.36-.88-.59-1.41-.59-.49,0-1.08.22-1.41.59s-.61.88-.59,1.41.19,1.06.59,1.41h0Z"/>
    <path class="cls-13" d="m93.57,233.09c-3.19,1.72-6.17,3.8-8.93,6.16-.8.68-.75,2.14,0,2.83.85.78,1.98.73,2.83,0,.31-.27.63-.53.95-.79.18-.15.36-.29.54-.43.08-.06.16-.13.24-.19.23-.18-.27.2-.04.03.68-.51,1.36-1.01,2.07-1.49,1.4-.96,2.86-1.84,4.36-2.65.92-.5,1.29-1.85.72-2.74-.6-.94-1.75-1.25-2.74-.72h0Z"/>
    <path class="cls-13" d="m217.18,236.54c1.5.81,2.95,1.69,4.36,2.65.68.47,1.35.95,2.01,1.45.18.14.09.06-.04-.03.08.06.16.13.24.19.18.14.36.29.54.43.34.28.68.56,1.01.84.8.68,2.06.84,2.83,0,.69-.75.85-2.1,0-2.83-2.76-2.35-5.74-4.43-8.93-6.16-.92-.5-2.22-.26-2.74.72s-.27,2.21.72,2.74h0Z"/>
    <path class="cls-7" d="m156.38,193.48c-26.21.19-52.29.34-61.55.37-1.47,0-2.66,1.2-2.65,2.67.05,15.05.78,67.12,1.33,86.26.04,1.46,1.25,2.61,2.71,2.59,8.37-.13,34.29-.05,60.16.04,25.87-.09,51.79-.17,60.16-.04,1.46.02,2.67-1.13,2.71-2.59.55-19.14,1.28-71.21,1.33-86.26,0-1.47-1.18-2.67-2.65-2.67-9.26-.03-35.34-.18-61.55-.37Z"/>
    <path class="cls-13" d="m156.38,191.48c-18.38.13-36.76.26-55.14.35-1.34,0-2.68.01-4.02.02s-2.85-.15-4.13.36c-3.14,1.27-2.92,4.46-2.91,7.27.03,5.18.09,10.35.15,15.53.16,13.83.36,27.65.61,41.48.11,6.21.22,12.42.36,18.63.05,2.37.11,4.75.18,7.12.05,1.89.71,3.65,2.47,4.59,1.3.7,2.76.55,4.18.54,16.76-.16,33.53-.02,50.3.04,19.29.06,38.58-.11,57.87-.08,2.84,0,5.68.01,8.51.04,1.48.01,2.93.11,4.25-.7,1.67-1.03,2.15-2.78,2.2-4.62.15-5.32.26-10.64.36-15.96.27-13.92.48-27.84.67-41.75.08-6.05.15-12.1.21-18.16.02-2.29.04-4.58.06-6.87,0-.87.04-1.75.01-2.62-.05-2.09-1.24-3.99-3.31-4.62-1.23-.37-2.68-.21-3.96-.21-1.36,0-2.72-.01-4.08-.02-3.59-.02-7.19-.04-10.78-.06-9.52-.05-19.03-.11-28.55-.18-5.18-.03-10.35-.07-15.53-.11-2.57-.02-2.58,3.98,0,4,17.9.13,35.8.25,53.7.34,2.52.01,5.07-.09,7.58.03,1.09.05.92.87.92,1.74,0,.94-.01,1.88-.02,2.82-.04,5.1-.09,10.2-.15,15.3-.16,13.38-.35,26.75-.59,40.12-.1,6.05-.22,12.09-.35,18.14-.05,2.39-.11,4.78-.17,7.17-.02.79.26,2.07-.76,2.22-.95.14-2.04-.03-3-.03-16.57-.13-33.15,0-49.72.05-18.69.06-37.39-.1-56.08-.08-2.88,0-5.76.01-8.65.03-.88,0-2.15.26-3.01.03-.92-.25-.62-1.68-.64-2.42-.14-5.25-.25-10.5-.35-15.75-.26-13.42-.46-26.83-.64-40.25-.08-5.98-.15-11.96-.21-17.94-.02-2.26-.04-4.53-.06-6.79,0-.93-.01-1.86-.02-2.79,0-.99-.04-1.57,1.1-1.58,15.35-.21,30.71-.16,46.06-.27,5.01-.03,10.03-.07,15.04-.11,2.57-.02,2.58-4.02,0-4Z"/>
    <path class="cls-13" d="m104.82,275.61c28.18-.17,56.37.02,84.55-.02,6.19,0,12.39-.02,18.58.02,2.57.02,2.58-3.98,0-4-28.18-.17-56.37.02-84.55-.02-6.19,0-12.39-.02-18.58.02-2.57.02-2.58,4.02,0,4h0Z"/>
    <path class="cls-13" d="m156.38,230.04c-1.91.02-3.83.04-5.74.05-1.08,0-2,.92-2,2,0,2.01-.01,4.02,0,6.02,0,1.18,0,2.36.01,3.54,0,.42,0,.85.02,1.27.06,1.3.88,2.16,2.2,2.16,3.44,0,6.88-.02,10.32,0,.67,0,1.3.07,1.92-.26.93-.49.99-1.51,1-2.42.02-1.1.02-2.21.02-3.31,0-2.33,0-4.66,0-7,0-1.08-.91-2-2-2-1.91,0-3.83-.03-5.74-.05-1.05,0-2.05.93-2,2s.88,1.99,2,2c1.91.02,3.83.04,5.74.05l-2-2c.01,3.67.06,7.34-.03,11l.27-1.01h0c.58-.33,1.15-.66,1.73-.99-.63-.06-1.28-.02-1.91-.02-1.27,0-2.53.01-3.8.01s-2.47-.01-3.71-.01c-.66,0-1.34-.04-2,.02l1.73.99h0c.09.34.18.67.27,1.01-.09-3.67-.04-7.34-.03-11l-2,2c1.91,0,3.83-.03,5.74-.05,1.05,0,2.05-.91,2-2s-.88-2.01-2-2Z"/>
    <path class="cls-13" d="m125.37,92.84c.31-4.01,1.41-8.29,2.98-12.14s4.09-8.12,7.96-10.32c2.24-1.27.22-4.73-2.02-3.45-4.59,2.61-7.52,7.28-9.51,12.03-1.85,4.4-3.04,9.12-3.41,13.88-.2,2.57,3.8,2.55,4,0h0Z"/>
    <path class="cls-13" d="m171.91,68.75c5.62,2.15,9.63,6.96,12.25,12.23,1.11,2.23,1.96,4.58,2.58,6.99.25.98.46,1.98.63,2.98.09.53,0-.15.03.23.02.21.05.41.06.62.03.35.05.7.05,1.05,0,2.57,4.01,2.58,4,0-.01-3.47-1.07-7.07-2.32-10.28-1.83-4.72-4.47-9.22-8.2-12.7-2.34-2.18-5.03-3.84-8.02-4.98-1.01-.39-2.19.43-2.46,1.4-.31,1.13.38,2.07,1.4,2.46h0Z"/>
    <path class="cls-13" d="m146.86,66.15c.09-.39.19-.77.32-1.14.07-.2.16-.39.22-.58-.04.14-.18.41-.05.11.04-.09.08-.17.12-.26.17-.36.36-.71.57-1.04.1-.16.2-.32.31-.47.1-.14.55-.65.12-.19.53-.57,1-1.16,1.6-1.67.07-.06.15-.12.22-.18.32-.27-.38.28-.05.04.15-.11.31-.22.46-.33.35-.23.7-.44,1.07-.63.93-.48,1.28-1.86.72-2.74-.61-.95-1.74-1.23-2.74-.72-3.36,1.74-5.92,5.05-6.76,8.73-.23,1.02.31,2.21,1.4,2.46,1.02.23,2.21-.31,2.46-1.4h0Z"/>
    <path class="cls-13" d="m156.81,65.95c.37-.34.74-.66,1.13-.97-.26.2.25-.18.34-.24.2-.14.41-.28.62-.42.86-.56,1.77-1.03,2.7-1.46.29-.13-.26.1.04-.01.12-.04.23-.09.35-.14.23-.09.47-.17.7-.25.47-.16.95-.3,1.43-.42s.97-.22,1.46-.3c.04,0,.42-.07.19-.03s.16-.02.2-.02c.28-.03.56-.06.83-.08,1.04-.07,2.05-.87,2-2-.05-1.02-.88-2.08-2-2-4.78.34-9.29,2.26-12.82,5.51-.77.71-.77,2.12,0,2.83.83.76,2.01.76,2.83,0h0Z"/>
    <path class="cls-13" d="m199,94.75c1.71-6.44,2.19-13.06,1.15-19.64-.9-5.73-3-11.21-5.67-16.33-4.35-8.34-11.45-14.68-20-18.56-9.75-4.42-20.72-5.74-31.09-2.71-2.83.83-5.61,2-8.11,3.57-2.2,1.38-4.01,3.21-6.4,4.27-4.78,2.11-9.12,6.07-12.19,10.27-3.96,5.41-5.31,12.01-6.03,18.56s-.78,14.06,1.69,20.41c.39,1.01,1.34,1.7,2.46,1.4.96-.26,1.79-1.45,1.4-2.46-2-5.14-2.16-10.86-1.82-16.3s1.14-11.47,3.76-16.41c2.37-4.47,6.1-7.98,10.31-10.72,1.85-1.2,3.92-1.86,5.7-3.24,2.16-1.68,4.35-3.19,6.88-4.28,8.99-3.84,19.29-3.39,28.32-.15,7.97,2.86,15.68,8.18,20.09,15.5,2.93,4.86,5.2,10.24,6.4,15.8,1.44,6.64,1.04,13.44-.69,19.98-.66,2.49,3.2,3.55,3.86,1.06h0Z"/>
    <g>
      <circle class="cls-7" cx="259.33" cy="121.23" r="45.37"/>
      <circle class="cls-10" cx="259.33" cy="121.23" r="45.37"/>
      <g class="cls-19">
        <g>
          <g>
            <path class="cls-7" d="m244.5,105.78c-.46-.41-1.14-.61-1.77-.52s-1.21.48-1.51,1c-.21.37-.27.78-.31,1.19-.14,1.6.18,3.24.9,4.7.35.71.82,1.39,1.46,1.91.49.39,1.1.68,1.74.78l.3.05c.14.53.3.98.38,1.22.51,1.39,3.39,6.22,7.01,7.91-.22,1.1-.08,2.11-1.6,2.66-.1.03-.85,9.27,8.62,9.27,9.46,0,8.18-9.23,8.08-9.27-1.46-.53-1.39-1.72-1.58-2.77,1.49-.75,2.85-1.9,4.09-3.37,1.52-1.81,2.37-3.83,2.88-5.61l.57-.09c.64-.1,1.25-.39,1.74-.78.64-.52,1.1-1.2,1.46-1.91.73-1.46,1.04-3.1.9-4.7-.04-.41-.1-.82-.31-1.19-.29-.52-.87-.91-1.51-1s-1.32.11-1.77.52c0,0-1.73-12.32-14.89-12.32-15.05,0-14.87,12.32-14.87,12.32Z"/>
            <path class="cls-2" d="m243.88,106.4c-.68-.55-1.74-.28-2.01.56-.3.92-.13,2.13.08,3.05.46,1.93,1.49,3.74,3.58,4.06.29.04.53.34.61.61.44,1.56,1.2,2.91,2.24,4.33,1.26,1.72,2.81,3.35,4.75,4.29.37.18.47.62.4.98-.15.82-.2,1.64-.75,2.31-.26.32-.64.64-1.03.78-.48.17.09-.28.17-.4-.06.09.02-.13.02-.13.04.18-.03.45-.03.63,0,.36.02.72.06,1.07.02.17.02.2.07.47.04.24.09.47.15.71.12.47.27.96.47,1.39.46,1.02,1.14,1.95,2.06,2.61,1.22.88,2.71,1.27,4.19,1.36,1.63.1,3.39-.05,4.86-.83,1.94-1.02,2.97-3.1,3.2-5.06.05-.44.07-.89.07-1.34,0-.17,0-.33-.02-.5,0-.09-.01-.46-.02-.29-.01.18.02-.05-.02-.1-.05-.06-.71-.92.19.24.39.5,0,.19-.2.07-.22-.13-.44-.29-.62-.47-.72-.72-.8-1.69-.96-2.64-.06-.37.04-.8.4-.98,3.32-1.72,5.54-4.93,6.56-8.46.08-.27.32-.56.61-.61.93-.14,1.7-.36,2.37-1.07.71-.76,1.16-1.79,1.42-2.79s.41-2.07.2-3.05c-.2-.95-1.26-1.46-2.07-.8-.44.36-1.35.34-1.46-.38-.63-4.46-3.73-8.75-7.94-10.54-2.07-.88-4.32-1.17-6.55-1.13s-4.53.36-6.62,1.23c-2.7,1.13-4.83,3.21-5.98,5.9-.37.88-.68,2.04-.85,3.09-.05.3,0,0-.02.15-.01.09-.02.19-.03.28-.01.14-.02.28-.03.41,0,.12-.01.25-.01.38.01,1.12-1.73,1.12-1.74,0-.06-4.58,2.8-9.11,6.78-11.23,1.99-1.06,4.19-1.6,6.42-1.83,2.53-.26,5.16-.16,7.62.55,3.58,1.04,6.57,3.41,8.49,6.6,1.02,1.7,1.88,3.7,2.16,5.68l-1.46-.38c1.13-.91,2.68-1.09,3.88-.19,1.29.97,1.33,2.78,1.16,4.25-.18,1.55-.69,3.13-1.62,4.4s-2.13,1.92-3.66,2.16l.61-.61c-1.14,3.95-3.65,7.58-7.36,9.5l.4-.98c.15.88.11,1.7.97,2.16.38.21.57.4.65.82.14.71.12,1.49.06,2.2-.21,2.52-1.23,4.92-3.34,6.41-2.88,2.03-7.37,2.03-10.48.55-2.42-1.15-3.97-3.52-4.5-6.1-.18-.89-.3-1.83-.23-2.73.02-.34.04-.68.29-.93.36-.36.88-.33,1.1-.84.19-.43.19-.97.27-1.43l.4.98c-2.16-1.04-3.86-2.86-5.27-4.76-1.12-1.51-2.02-3.08-2.52-4.89l.61.61c-3.21-.49-4.77-3.81-5.03-6.76-.13-1.41-.04-3.08,1.19-4s2.76-.73,3.88.19c.87.71-.37,1.93-1.23,1.23Z"/>
          </g>
          <g>
            <path class="cls-6" d="m247.61,102.46c1.55-1.77,3.44-3.25,5.54-4.31l3.05-.72c1.89.87,5.31,2.73,5.61,2.61.2-.09.58-.95.84-1.77.16-.49.28-.97.3-1.26,3.94,3.28,6.35,5.4,10.76,9.78.13-1.06,1.28-1.68,2.31-1.53.18.03.35.07.51.14,1.15-4.74.86-8.76-.1-11.58-.87-2.56-2.84-5.47-5.32-6.76.84-.4,1.8-.86,1.8-.86-3.73-3.75-8.64-4.62-12.9-4.49-4.55.14-8.1,1.93-10.23,4.85l-2.45,2.03c-2.01,1.04-3.89,3.18-4.87,5.92-1.39,3.89-1.23,8-.13,10.83.13-.04.25-.08.39-.1.91-.14,1.92.34,2.22,1.18.71-1.44,1.61-2.78,2.67-3.98Z"/>
            <path class="cls-2" d="m247,101.85c1.54-1.74,3.41-3.29,5.5-4.34.96-.49,2.16-.62,3.21-.86.64-.15,1.11.1,1.69.38.86.42,1.71.85,2.57,1.28.58.29,1.2.52,1.76.82.05.02.1.03.14.05.27.06.08.11-.59.15-.01-.05.26-.53.27-.57.23-.54.46-1.17.53-1.76.09-.77.87-1.13,1.49-.62,3.74,3.11,7.31,6.36,10.76,9.78l-1.46.38c.32-1.76,2.32-2.54,3.89-1.99l-1.07.61c.77-3.27,1.05-6.78.21-10.07-.74-2.9-2.54-5.83-5.23-7.28-.55-.29-.59-1.22,0-1.5s1.2-.57,1.8-.86l-.18,1.37c-2.38-2.36-5.48-3.69-8.79-4.09-3.06-.37-6.37-.21-9.17,1.17-1.27.63-2.4,1.47-3.34,2.53-.28.32-.5.66-.82.93-.35.3-.71.59-1.07.88-.71.59-1.41,1.08-2.17,1.6-1.31.89-2.33,2.19-3.06,3.59-1.81,3.46-2.09,8.03-.71,11.68l-1.07-.61c1.36-.4,3,.12,3.59,1.49h-1.5c.76-1.5,1.71-2.88,2.81-4.16.73-.85,1.96.39,1.23,1.23-1,1.16-1.84,2.43-2.53,3.8-.27.54-1.25.6-1.5,0-.29-.68-.94-.89-1.62-.69-.48.14-.91-.17-1.07-.61-1.37-3.62-1.16-7.93.21-11.52.65-1.7,1.62-3.27,2.92-4.54.84-.82,1.79-1.29,2.63-1.98.65-.54,1.5-1.13,2.01-1.72,1.06-1.23,2.15-2.29,3.57-3.1,2.97-1.69,6.48-2.08,9.84-1.82,4.07.32,7.92,1.78,10.85,4.68.37.37.34,1.12-.18,1.37-.6.29-1.2.57-1.8.86v-1.5c3.01,1.62,5.11,4.9,5.98,8.14.98,3.64.7,7.54-.16,11.18-.1.44-.64.76-1.07.61-.74-.26-1.59-.09-1.75.78-.12.66-1.02.81-1.46.38-3.45-3.42-7.03-6.68-10.76-9.78l1.49-.62c-.14,1.1-.49,2.4-1.13,3.33-.49.71-1.13.61-1.83.32-1.75-.73-3.39-1.68-5.11-2.48l.67.09c-.97.23-2.05.35-2.98.71s-1.79,1.02-2.55,1.6c-.98.74-1.86,1.59-2.68,2.51-.75.84-1.97-.4-1.23-1.23Z"/>
          </g>
          <path class="cls-2" d="m247.78,89.36c-5.13,2.74-6.44,10.07-4.8,15.22.34,1.07-1.34,1.53-1.68.46-1.87-5.87-.2-14.09,5.6-17.19.99-.53,1.87.98.88,1.5h0Z"/>
          <path class="cls-2" d="m270.59,85.9c3.38,1.3,5.75,4.67,6.8,8.04,1.17,3.76.89,7.88,0,11.67-.26,1.09-1.94.63-1.68-.46.8-3.38,1.06-7.02.11-10.4-.81-2.85-2.8-6.06-5.68-7.17-1.04-.4-.59-2.08.46-1.68h0Z"/>
          <path class="cls-2" d="m249.04,86.14c2.77-3.72,7.16-5.28,11.69-5.29s9.39,1.37,12.81,4.75c.8.79-.43,2.02-1.23,1.23-3.05-3.01-7.16-4.22-11.38-4.24-3.92-.02-7.96,1.16-10.39,4.43-.66.89-2.17.02-1.5-.88h0Z"/>
          <path class="cls-2" d="m256.64,96.68c1.36.63,2.68,1.33,4.03,1.99.27.13.53.26.81.38.09.04.35.08.41.15.24.05.04.1-.62.14.05-.08.09-.17.13-.25.07-.23.19-.45.28-.67.16-.44.34-.93.4-1.4.09-.77.87-1.13,1.49-.62,3.78,3.14,7.39,6.44,10.89,9.9.8.79-.43,2.02-1.23,1.23-3.49-3.46-7.1-6.76-10.89-9.9l1.49-.62c-.14,1.1-.49,2.4-1.13,3.33-.49.71-1.13.61-1.83.32-1.75-.73-3.39-1.68-5.11-2.48-1.02-.47-.13-1.97.88-1.5h0Z"/>
          <path class="cls-2" d="m253.59,98.9c-3.61,1.85-6.48,4.86-8.16,8.54-.2.43-.81.53-1.19.31-.44-.26-.51-.76-.31-1.19,1.79-3.93,4.95-7.2,8.79-9.17,1-.51,1.88.99.88,1.5h0Z"/>
          <path class="cls-2" d="m243.88,106.4c-.55-.46-1.48-.36-1.88.25-.24.37-.24.9-.26,1.33-.01.53.02,1.05.11,1.57.34,1.87,1.31,4.1,3.38,4.47.46.08.72.65.61,1.07-.13.49-.61.69-1.07.61-3.06-.55-4.51-4.01-4.74-6.77-.12-1.4-.02-3.03,1.19-3.94s2.77-.74,3.88.19c.36.3.31.92,0,1.23-.36.36-.87.3-1.23,0h0Z"/>
          <path class="cls-2" d="m245.9,113.2c.03.79.25,1.54.49,2.29.04.13.09.27.13.4.02.05.09.21,0,0,.07.16.14.31.22.47.46.92,1.03,1.8,1.64,2.63,1.44,1.98,3.4,4.08,5.88,4.66,1.09.26.63,1.94-.46,1.68-2.89-.68-5.14-3.05-6.84-5.35-1.47-1.99-2.7-4.25-2.8-6.78-.05-1.12,1.7-1.12,1.74,0h0Z"/>
          <path class="cls-2" d="m273.64,105.17c1.11-.93,2.69-1.08,3.88-.19s1.31,2.54,1.19,3.94c-.23,2.77-1.69,6.23-4.74,6.77-.46.08-.94-.13-1.07-.61-.12-.42.14-.99.61-1.07,2.07-.37,3.04-2.6,3.38-4.47.09-.49.12-.99.11-1.49,0-.44,0-.96-.22-1.35-.36-.66-1.35-.78-1.91-.31-.36.3-.88.35-1.23,0-.31-.31-.36-.93,0-1.23h0Z"/>
          <path class="cls-2" d="m274.49,113.04c-.52,3-1.67,5.86-3.64,8.2-2.05,2.42-4.75,4.19-7.95,4.53-.47.05-.87-.44-.87-.87,0-.51.41-.82.87-.87,2.79-.3,5.12-2.07,6.85-4.18s2.6-4.66,3.06-7.27c.19-1.1,1.87-.64,1.68.46h0Z"/>
          <path class="cls-2" d="m262.06,118.91c-.91.48-1.9.69-2.93.68s-2.13-.23-2.98-.89c-.36-.28-.32-.94,0-1.23.38-.35.85-.3,1.23,0-.27-.21-.09-.07-.02-.02.06.04.12.07.18.1.08.04.28.09.03.02.08.02.16.06.24.09.22.07.45.12.68.16-.13-.02-.05,0,.03,0,.07,0,.13.01.2.02.16.01.32.01.49.01.15,0,.29,0,.44-.02.07,0,.13,0,.2-.02.03,0,.28-.05.06,0,.22-.04.43-.08.64-.14.09-.03.18-.06.26-.09.21-.07-.16.08.03-.01.11-.05.22-.11.32-.16.4-.21.97-.12,1.19.31.21.4.12.96-.31,1.19h0Z"/>
          <path class="cls-2" d="m259.63,112.09c-.12.48-.24.96-.32,1.45l.03-.23c0,.07-.01.13,0,.2l-.03-.23s.01.06.02.09l-.09-.21s.02.04.03.06l-.14-.18s.03.03.05.05l-.18-.14s.08.04.11.06l-.21-.09c.06.03.13.05.19.06l-.23-.03c.06,0,.12,0,.18,0l-.23.03c.07,0,.14-.03.2-.04.12-.04.23-.04.35-.02.12,0,.22.04.32.1.18.11.35.31.4.52.05.22.04.47-.09.67-.11.18-.3.37-.52.4-.17.02-.33.06-.5.07-.27.01-.51-.07-.75-.18-.3-.14-.53-.41-.61-.73-.07-.27-.04-.5,0-.77.08-.47.19-.93.31-1.39.06-.21.21-.41.4-.52s.46-.16.67-.09c.45.15.73.6.61,1.07h0Z"/>
          <path class="cls-13" d="m267.16,107.96c.24.79.08,2.59-1.4,2.75-1.97-.01-2.07-2.2-1.41-3.22.54-.84,2.14-1.19,2.81.48Z"/>
          <path class="cls-13" d="m251.42,107.96c-.24.79-.08,2.59,1.4,2.75,1.97-.01,2.07-2.2,1.41-3.22-.54-.84-2.14-1.19-2.81.48Z"/>
          <g>
            <path class="cls-9" d="m281.55,179.1c3.39-2.3,6.78-4.61,10.17-6.91,1.18-.8,2.42-1.68,2.95-3,.55-1.38.65-3.24.29-4.68-1.81-7.23-3.42-13.59-5.79-20.65-.77-2.29-1.63-4.67-3.36-6.36-1.15-1.12-3.52-2.37-4.95-3.09l-10.89-5.53c.05-.1.08-.17.08-.2.02-.35-1.48-3.11-1.96-4.36-.03-.08-.08-.18-.16-.2-.09-.03-.19.04-.26.1-.83.71-5.39,4.43-5.88,5.03-.17.57-.46,1.32-.95,2.85-.39.94-1.1,2.68-1.48,3.5-.55-1.14-1.26-2.83-1.82-4.19-.27-.83-.49-1.76-.61-2.16-.49-.6-5.05-4.31-5.88-5.03-.07-.06-.17-.13-.26-.1-.09.03-.13.12-.16.2-.49,1.25-1.98,4.02-1.96,4.36l.16.14c-3.67,1.87-7.34,3.73-11.01,5.6-1.43.73-3.81,1.97-4.95,3.09-1.73,1.69-2.58,4.06-3.36,6.36-2.38,7.06-3.99,13.42-5.79,20.65-.36,1.44-.26,3.3.29,4.68.53,1.32,1.77,2.2,2.95,3,3.39,2.3,6.78,4.61,10.17,6.91h44.44Z"/>
            <path class="cls-2" d="m281.11,178.35c1.97-1.34,3.94-2.68,5.91-4.02,1.84-1.25,3.85-2.4,5.55-3.84,1.51-1.28,1.94-3.2,1.68-5.12-.14-1.03-.48-2.06-.74-3.07-.29-1.14-.58-2.29-.87-3.43-1.12-4.34-2.32-8.66-3.69-12.92-.63-1.95-1.22-3.98-2.22-5.79-.94-1.7-2.26-2.76-3.92-3.72-2.01-1.17-4.12-2.16-6.18-3.21-2.36-1.2-4.73-2.4-7.09-3.6-.45-.23-.49-.78-.31-1.19-.21.49.07.44-.1.16-.06-.1-.1-.24-.15-.35-.19-.41-.39-.81-.58-1.21-.21-.44-.43-.87-.63-1.31-.09-.19-.18-.39-.27-.59-.05-.11-.1-.23-.14-.34-.05-.15-.07-.17-.04-.06l.62.26c.53-.07.32-.18.21-.02-.05.06-.14.11-.2.17-.19.16-.38.32-.57.47-.46.38-.93.77-1.39,1.15-.97.8-1.94,1.61-2.88,2.44-.15.13-.3.27-.45.41-.05.04-.1.11-.15.15-.27.19.37-.14.09-.17-.05,0-.56,1.67-.6,1.79-.53,1.59-1.19,3.14-1.88,4.67-.26.57-1.24.56-1.5,0-.77-1.64-1.62-3.34-2.12-5.09-.1-.36-.25-.75-.3-1.12-.04-.31-.08-.2.1,0-.04-.04-.08-.09-.12-.12-.3-.26-.59-.54-.89-.8-.9-.78-1.82-1.55-2.73-2.31-.42-.35-.83-.69-1.25-1.04-.17-.14-.35-.29-.52-.43-.06-.05-.15-.1-.2-.17-.12-.16-.33-.04.21.02l.62-.26c.03-.11.02-.09-.04.06-.05.11-.1.23-.14.34-.09.2-.18.39-.27.59-.2.44-.42.88-.63,1.31-.2.4-.4.81-.58,1.21-.05.12-.1.24-.15.35-.04.09-.07.38-.06.08l-.26-.62.16.14c.41.36.3,1.12-.18,1.37-2.99,1.52-5.97,3.04-8.96,4.55-1.25.64-2.52,1.26-3.75,1.93-1.07.59-2.2,1.21-3.08,2.06-2.03,1.97-2.81,4.96-3.66,7.57-.97,2.99-1.86,6.01-2.69,9.05-.82,3.01-1.58,6.03-2.34,9.05-.35,1.38-.57,2.7-.27,4.12s1.09,2.28,2.21,3.08c2.61,1.88,5.32,3.63,7.98,5.44.71.48,1.42.96,2.13,1.45.11.08.71.48.27.36,0,0,.02,0,.03,0,.1.02.22,0,.32,0,4.19,0,8.38,0,12.57,0h19.53c3.93,0,7.89-.11,11.82,0,.06,0,.12,0,.18,0,1.12,0,1.12,1.74,0,1.74-3.43,0-6.85,0-10.28,0-6.68,0-13.36,0-20.04,0h-13.59c-.15,0-.3,0-.45,0-.57-.03-1.02-.45-1.47-.76-2.8-1.9-5.6-3.8-8.4-5.71-1.16-.79-2.43-1.55-3.33-2.65-.85-1.04-1.21-2.31-1.34-3.63-.15-1.49.18-2.87.54-4.31.4-1.59.8-3.18,1.21-4.77.8-3.1,1.64-6.2,2.57-9.27s1.71-5.98,3.03-8.76c.57-1.21,1.31-2.37,2.29-3.3s2.06-1.55,3.17-2.17c2.71-1.51,5.53-2.85,8.29-4.26l4.61-2.34-.18,1.37c-.5-.44-.44-.94-.21-1.49.3-.72.65-1.42.99-2.12.32-.65.55-1.47.95-2.07.54-.81,1.34-.47,1.94.03,1.02.85,2.04,1.69,3.05,2.54.85.72,1.88,1.41,2.59,2.28.29.35.36.8.47,1.23.16.61.33,1.2.57,1.78.5,1.19,1,2.38,1.55,3.54h-1.5c.8-1.73,1.45-3.5,2.07-5.3.19-.54.31-1.04.73-1.45s.86-.77,1.29-1.14c1.16-.99,2.33-1.96,3.5-2.93.37-.31.81-.81,1.27-.99,1.05-.41,1.39.61,1.74,1.35.39.86.82,1.69,1.22,2.55.34.73.66,1.3.31,2.09l-.31-1.19c4.23,2.15,8.54,4.18,12.68,6.48,1.71.95,3.29,2,4.45,3.6,1.22,1.69,1.9,3.73,2.55,5.69,1.51,4.53,2.81,9.12,4.02,13.73.6,2.31,1.29,4.63,1.76,6.97.37,1.87.24,4.2-.87,5.81-.64.94-1.54,1.63-2.47,2.28-1.14.79-2.3,1.56-3.45,2.35-2.36,1.61-4.73,3.21-7.09,4.82-.93.63-1.8-.88-.88-1.5Z"/>
          </g>
          <path class="cls-2" d="m283.82,176.51c1.87-1.27,3.73-2.53,5.6-3.8,1.48-1,3.64-2.03,4.41-3.75.82-1.82.41-3.74-.05-5.57-.53-2.11-1.06-4.22-1.62-6.33-1.08-4.09-2.24-8.15-3.57-12.16-.6-1.83-1.19-3.69-2.23-5.33-.98-1.53-2.4-2.47-3.95-3.35-4.19-2.36-8.59-4.41-12.88-6.59-1-.51-.12-2.01.88-1.5,4.1,2.08,8.25,4.08,12.29,6.27,1.61.87,3.26,1.82,4.42,3.27,1.25,1.56,2.01,3.42,2.65,5.3,1.47,4.27,2.73,8.62,3.89,12.99.59,2.23,1.16,4.46,1.72,6.7.51,2.04.91,3.97.36,6.05-.6,2.26-2.45,3.48-4.29,4.73-2.25,1.53-4.51,3.06-6.76,4.59-.93.63-1.8-.88-.88-1.5h0Z"/>
          <path class="cls-2" d="m249.16,129.62c-3.92,1.99-7.87,3.93-11.76,5.98-1.49.78-3.11,1.6-4.26,2.86-1.27,1.39-1.98,3.22-2.58,4.97-1.38,3.98-2.56,8.02-3.65,12.09-.56,2.08-1.1,4.17-1.62,6.26-.49,1.94-1.18,3.89-.82,5.91.18.99.56,1.81,1.29,2.51.83.8,1.85,1.4,2.79,2.04,2.1,1.43,4.2,2.85,6.3,4.28.92.63.05,2.14-.88,1.5-1.98-1.35-3.97-2.69-5.95-4.04-1.62-1.1-3.63-2.16-4.59-3.94-.9-1.66-1-3.83-.59-5.65.51-2.26,1.13-4.51,1.71-6.76,1.14-4.39,2.37-8.76,3.79-13.07.64-1.93,1.26-3.93,2.33-5.68,1-1.65,2.38-2.79,4.01-3.77,2.01-1.2,4.15-2.2,6.23-3.27,2.45-1.25,4.91-2.49,7.36-3.74,1-.51,1.88,1,.88,1.5h0Z"/>
          <path class="cls-2" d="m258.6,135.15c.57-1.23,1.13-2.49,1.55-3.78.2-.6.4-1.2.61-1.79.14-.4.23-.77.53-1.09,1.36-1.42,3.02-2.62,4.53-3.87.61-.5,1.58-1.65,2.43-1.3.59.24.76,1.01,1,1.53.26.56.54,1.12.81,1.67.32.67,1.03,1.68.8,2.46-.26.87-.9,1.73-1.37,2.49-.41.67-.84,1.33-1.28,1.98-.39.57-.79,1.29-1.31,1.74-.38.32-.92.39-1.36.14s-.6-.74-.82-1.15c-.44-.86-.89-1.72-1.34-2.58-.52-.99.98-1.87,1.5-.88.29.55.58,1.11.87,1.67.13.25.25.49.38.74.07.14.28.7.34.73l-.44-.12c-.35-.02-.31.27-.16,0,.07-.12.17-.23.26-.35.18-.25.36-.5.53-.75.36-.52.7-1.05,1.04-1.59.51-.81,1-1.63,1.44-2.47.02-.05.05-.09.07-.14.08-.16-.03.17-.02.05-.02.36.05.45-.07.14-.1-.28-.32-.72-.51-1.1-.25-.52-.5-1.03-.75-1.55-.1-.22-.21-.44-.31-.66-.06-.12-.11-.25-.16-.38-.03-.07-.06-.14-.09-.21-.05-.13-.05-.13-.01,0l.62.26-.14.02.44-.12c-.69.49-1.53,1.27-2.26,1.87-.97.81-1.94,1.61-2.88,2.45-.16.14-.31.28-.46.42-.04.04-.09.1-.14.14-.22.17.24.02.11-.21.05.09-.21.65-.25.75-.12.36-.25.73-.37,1.09-.53,1.58-1.18,3.12-1.87,4.64-.2.43-.81.53-1.19.31-.44-.25-.51-.77-.31-1.19h0Z"/>
          <path class="cls-2" d="m258.6,136.03c-.79-1.66-1.64-3.4-2.14-5.17-.1-.36-.29-.79-.31-1.16-.06-.16-.04-.16.05.01.1.14.12.17.06.1-.05-.02-.1-.1-.14-.14-.28-.28-.58-.54-.88-.8-.89-.77-1.8-1.53-2.7-2.28-.66-.55-1.43-1.27-2.06-1.71l.44.12-.14-.02.62-.26c.12-.1,0,0-.06.11-.06.14-.12.28-.18.42-.11.24-.22.48-.33.72-.25.52-.5,1.03-.75,1.55-.17.35-.4.81-.49,1.06-.11.3-.03.36-.08-.11.02.14-.09-.15-.03-.07.04.05.05.11.08.17.45.84.94,1.66,1.44,2.47.34.54.68,1.07,1.04,1.59.16.23.32.46.48.69.08.12.17.23.26.35.02.03.05.06.07.1.16.17.09.16-.19-.04l-.44.12s.24-.54.29-.64c.14-.28.28-.55.43-.83.29-.56.58-1.11.87-1.67.52-.99,2.03-.11,1.5.88-.38.72-.76,1.44-1.13,2.16s-.66,1.71-1.59,1.72c-.76,0-1.14-.67-1.54-1.22s-.75-1.06-1.1-1.61c-.63-.96-1.24-1.94-1.78-2.95-.13-.24-.3-.52-.36-.79-.11-.44.11-.85.28-1.24.44-1.02.97-2,1.43-3.01.25-.55.43-1.31,1.14-1.41.55-.08.92.29,1.31.61,1.51,1.27,3.05,2.51,4.54,3.81.3.26.61.52.88.8.41.43.49.99.64,1.55.48,1.77,1.29,3.47,2.07,5.13.48,1.01-1.02,1.89-1.5.88h0Z"/>
          <path class="cls-2" d="m260.23,135.59c0,3.36-.01,6.73-.03,10.09,0,1.12-1.75,1.12-1.74,0,.02-3.36.03-6.73.03-10.09,0-1.12,1.74-1.12,1.74,0h0Z"/>
        </g>
      </g>
    </g>
    <g>
      <circle class="cls-7" cx="226.91" cy="30.92" r="30.92"/>
      <circle class="cls-3" cx="226.91" cy="30.92" r="30.92"/>
      <g class="cls-18">
        <path class="cls-5" d="m202.08,63.23c-.24-.9-.25-1.89-.08-2.75.32-1.59.79-3.18,1.2-4.75.05-.18.1-.36.15-.54.05-.2.1-.4.15-.6.16-.6.34-1.19.5-1.79.19-.7.38-1.41.59-2.1.26-.88.54-1.75.82-2.63.18-.57.34-1.14.53-1.7.17-.51.35-1.03.55-1.54,0-.02.02-.05.03-.07.11-.29.24-.57.37-.86.01-.03.03-.06.04-.09.12-.25.26-.5.4-.74.05-.08.09-.15.14-.23.07-.11.13-.24.21-.35.05-.06.1-.11.15-.18.05-.06.09-.13.14-.2.08-.1.18-.19.28-.29.05-.05.09-.1.14-.15.21-.21.43-.4.66-.58,0,0,.02-.01.03-.02.23-.18.48-.35.73-.5.05-.03.1-.06.14-.09.19-.12.38-.23.58-.34.07-.04.13-.08.2-.12.05-.03.1-.05.15-.08.04-.02.08-.04.12-.07.31-.17.63-.32.95-.49,2.34-1.25,4.74-2.42,7.11-3.62.08-.44.39-.91.56-1.25.05-.11.11-.22.16-.34.14-.28.27-.55.4-.83.14-.3.25-.69.51-.9-.33-.25-.64-.52-.93-.8-.05-.05-.11-.1-.16-.16-.11-.12-.22-.24-.33-.37-.06-.07-.12-.13-.18-.2-.04-.04-.06-.09-.09-.13-.24-.3-.47-.62-.68-.95-.09-.15-.18-.29-.27-.44-.17-.3-.33-.6-.47-.91-.06-.13-.12-.26-.17-.39-.13-.31-.25-.63-.35-.96-.03,0-.06,0-.09,0-.63-.11-1.14-.42-1.58-.82-.02-.02-.03-.03-.05-.05-.15-.15-.3-.31-.43-.48-.02-.02-.04-.04-.05-.06-.02-.03-.04-.07-.06-.1-.1-.15-.2-.31-.29-.47-.05-.09-.09-.17-.14-.26-.06-.13-.12-.27-.17-.4-.05-.12-.09-.24-.13-.37-.04-.12-.07-.24-.11-.37-.03-.13-.07-.25-.09-.38-.03-.14-.05-.28-.07-.42-.01-.08-.03-.15-.04-.23,0-.06-.01-.11-.02-.17,0-.01,0-.03,0-.04,0,0,0-.02,0-.03-.02-.22-.03-.45-.02-.68,0-.02,0-.03,0-.05,0-.23.03-.46.08-.68,0-.02.01-.04.02-.07.05-.22.13-.43.24-.62,0-.02.02-.03.03-.04.12-.19.27-.37.46-.52,0,0,0,0,0,0-.04-.17-.08-.34-.11-.51-.03-.15-.05-.3-.08-.45-.03-.17-.06-.34-.08-.51-.03-.19-.04-.38-.07-.57-.01-.13-.03-.26-.04-.4-.02-.22-.03-.44-.04-.66,0-.1-.01-.2-.01-.3,0-.24,0-.47,0-.71,0-.09,0-.17,0-.26,0-.24.03-.47.05-.71,0-.09.01-.18.02-.26.02-.22.06-.44.09-.66.02-.11.03-.22.06-.33.04-.18.08-.37.12-.55.02-.09.04-.19.06-.28.02-.06.04-.12.06-.19.02-.06.03-.12.05-.17.02-.07.05-.14.08-.21.05-.16.11-.32.17-.47.05-.12.09-.23.14-.35.07-.17.15-.33.23-.5.05-.11.11-.21.17-.32.09-.17.19-.33.28-.49.06-.1.12-.2.19-.3.11-.16.22-.31.34-.47.07-.09.14-.18.21-.27.13-.15.26-.3.4-.44.07-.07.14-.15.21-.22.16-.16.33-.3.5-.44.05-.04.1-.09.16-.13-.11-.05-.22-.1-.33-.15-.18-.09-.27-.27-.28-.46-.02-.16.01-.33.16-.47.27-.27.56-.52.86-.75.09-.07.18-.13.27-.2.22-.16.43-.31.66-.46.1-.06.2-.12.31-.18.23-.13.46-.26.7-.38.1-.05.19-.09.29-.14.26-.12.53-.23.8-.33.08-.03.15-.06.23-.09.32-.11.65-.21.98-.29.03,0,.06-.02.09-.02.72-.18,1.46-.3,2.21-.36.04,0,.08,0,.12,0,.01,0,.03,0,.04,0,.36-.02.72-.04,1.07-.04.03,0,.07,0,.1,0,.03,0,.05,0,.08,0,1.84.02,3.69.37,5.3,1.28.61.35,1.13.77,1.62,1.25.14.13.27.27.4.41.14.15.27.3.41.45.34.4.93.8,1.37,1.17.14.11.28.22.43.32.5.29.96.63,1.36,1.03,0,0,0,0,0,0,0,0,0,0,0,0,1.8,1.73,2.69,4.35,2.76,6.92,0,.06,0,.12,0,.19,0,.2,0,.41-.01.61,0,.15,0,.29-.02.44,0,.08-.02.15-.02.23-.04.38-.09.76-.17,1.13-.02.12-.05.24-.07.35-.03.12-.06.23-.1.35-.03.1-.05.2-.08.3.01,0,.02,0,.03.02.03.02.05.06.08.09.16.14.31.29.41.47.04.07.05.15.09.22.07.15.14.3.17.46.03.12.03.24.04.36.01.13.04.25.04.38,0,.15,0,.3-.01.45,0,.09,0,.19,0,.28,0,0,0,.01,0,.02,0,0,0,.02,0,.02,0,.1-.03.19-.04.29-.02.14-.03.28-.06.43-.02.12-.06.24-.09.35-.03.13-.06.27-.1.4-.03.09-.06.18-.1.27-.06.17-.12.33-.19.49-.01.03-.03.06-.05.09-.51,1.08-1.33,1.97-2.51,2.23-.07.2-.13.4-.21.59-.08.19-.17.37-.26.55-.09.17-.18.35-.27.51-.08.14-.15.27-.24.41-.18.28-.36.56-.56.83-.02.02-.03.04-.04.07,0,0,0,.01-.01.02,0,0,0,0,0,0,0,0-.01.02-.02.03-.21.29-.44.57-.68.85-.03.04-.06.07-.09.11-.26.3-.53.58-.81.85,0,0,0,0,0,0-.19.18-.38.35-.58.51.03.03.06.07.09.1.03.03.06.04.09.08.26.39.42.9.62,1.34.22.44.44.89.63,1.34.06.14.13.29.17.45.93.47,1.85.94,2.78,1.41,1.16.59,2.33,1.17,3.5,1.77.43.21.85.44,1.27.67.29.16.59.3.89.47.12.07.24.14.36.21.06.03.12.06.18.1.05.03.1.07.16.1.22.13.43.27.64.42,0,0,0,0,0,0,.28.2.57.4.82.63.13.12.22.27.34.41.12.14.24.28.36.42.1.13.2.26.29.4.04.06.09.11.12.17.17.27.31.55.45.84,0,0,0,0,0,0h0c.19.39.35.78.5,1.18.62,1.56,1.08,3.2,1.56,4.79.1.32.18.65.28.97.12.41.24.83.36,1.24.29,1.02.57,2.04.83,3.06.06.23.13.46.19.7.4,1.53.82,3.06,1.17,4.61.18.82.2,1.73.02,2.59,0,0,0,0,0,0-.04.2-.09.39-.16.59-.03.08-.06.15-.09.23-.06.14-.1.3-.17.43-.05.09-.12.16-.18.24-.07.11-.13.21-.21.31-.03.04-.07.07-.1.1-.11.13-.22.25-.35.36-.06.06-.13.11-.19.17-.65.57-1.42,1.03-2.1,1.5-1.34.91-2.67,1.81-4.01,2.72-.42.28-.83.56-1.25.85-.31.21-.61.5-1,.52-.1,0-.21,0-.31,0h-9.26c-4.55,0-9.1,0-13.66,0-2.28,0-4.57,0-6.85,0-.11.03-.23.02-.36-.04-.03,0-.05-.02-.08-.03,0,0-.01,0-.02,0-.82-.56-1.63-1.11-2.45-1.67-1.33-.91-2.67-1.81-4-2.72-.09-.06-.17-.12-.25-.18-.16-.11-.32-.21-.48-.32-.04-.02-.07-.05-.1-.08-.07-.05-.13-.1-.19-.15-.52-.38-1.02-.79-1.39-1.33-.23-.34-.39-.74-.5-1.15,0,0,0,0,0-.01,0-.02,0-.03,0-.05Z"/>
      </g>
    </g>
    <g>
      <circle class="cls-10" cx="56.6" cy="99.85" r="45.37"/>
      <g class="cls-17">
        <g>
          <path class="cls-7" d="m58.88,73.12c2.56,2.65,5.36,5.16,8.16,7.66.51.46,1.03.92,1.54,1.38.03.03.06.05.09.08l1.18.36c.45-.43,1.04-.59,1.56-.57,1.12.04,1.59.64,1.8,1,.61,1.06.58,3.01.17,4.22-.29.85-.77,2.16-1.91,3.1-.51.42-1.27.68-1.98.5-.52,1.76-1.46,3.89-3.11,5.87-1.36,1.62-2.78,2.81-4.39,3.51.05.55.12,1.07.22,1.63.17.93.12,1.77,1.31,2.27-.16.78-.35,1.68-.56,2.64-2.18,1.04-4.7,1.43-6.83,1.43-2.42,0-5.06-.42-6.99-1.37-.11-.5-.22-.97-.31-1.43.17-.21.34-.44.5-.68.8-1.22,1.26-2.99.99-4.41-3.59-1.41-6.5-6.4-7-7.75-.09-.19-.22-.5-.34-.86.05-.44.06-.72.06-.72-.31-4.54.14-8.86,2.81-12.7,2.44-3.51,6.4-5.97,10.78-5.4l2.28.24Z"/>
          <path class="cls-13" d="m68.08,107.15c-.42-.15-.83-.36-1.24-.55-.64-.29-1.27-.59-1.91-.88-.5-.23-1-.46-1.5-.69-.05-.02-.1-.05-.16-.07-.04-.02-.12-.05.07.03.23.1.01,0-.05-.01-.12-.05-.23-.09-.34-.15-.47-.23-.9-.6-1.15-1.06-.24-.44-.32-.9-.39-1.39-.11-.72-.23-1.43-.3-2.15-.04-.47.43-.87.87-.87.51,0,.83.4.87.87.08.89.22,1.79.45,2.65.03.11-.08-.11,0-.03.03.03.04.08.07.12.1.17-.05-.02.05.07.04.03.07.07.11.1-.11-.1-.02-.01.01,0,.09.06.24.14.3.17.11.05.33.13.48.2,1.06.49,2.12.99,3.19,1.48.28.13.55.25.83.38.09.04.18.08.26.12.21.09-.21-.08-.04-.02.44.16.74.6.61,1.07-.12.43-.63.76-1.07.61h0Z"/>
          <path class="cls-7" d="m53.33,120.54c-1.03-2.82-2.07-5.95-3.01-9.11-.45-1.51-.85-3.13-1.19-4.6,1.92.94,4.56,1.36,6.99,1.36,2.13,0,4.64-.39,6.83-1.43-.34,1.49-.75,3.13-1.21,4.66-1.61,5.39-3.51,10.69-5.12,14.52-.22.53-.96.53-1.18,0-.66-1.58-1.38-3.42-2.11-5.41Z"/>
          <path class="cls-14" d="m61.89,260.13c-1.4-.98-2.64-1.84-3.04-2.09-2.55-1.59-2.27-3.76-2.21-5.25.02-.57.08-1.79.2-2.9.35.42.71.86.71.86,1.15,1.22,4.17,3.8,6.7,5.47,1.41.93,3.19,1.22,4.78.64,1.47-.54,2.78-1.62,2.6-3.42l-.13-1.25c.12.12.24.25.24.25,1.65,1.7,3.48,3.37,5.13,5.01,1.07,1.07,1.92,2.49,1.88,4.05-.03,1.07-.77,1.98-1.65,2.6s-1.93.91-2.99,1.05c-2.42.32-4.93-.23-7.03-1.44-.39-.22-2.99-2.05-5.19-3.58Z"/>
          <path class="cls-7" d="m55.07,216.08c.36,0,.72,0,1.09,0,3.36.07,8.4.13,12.03.13-.6,9.82-1.21,19.38-1.41,28.03-.02.96.48,2.81,1.35,3.89.9,1.37,2.07,2.73,3.36,4.06.07.63.13,1.26.13,1.26.19,1.8-1.12,2.88-2.6,3.42-1.59.58-3.37.3-4.78-.64-2.53-1.68-5.55-4.25-6.7-5.47,0,0-.26-.32-.56-.68-.84,0-1.75,0-1.75,0-.4.42-.65.68-.65.68-1.15,1.22-4.17,3.8-6.7,5.47-1.41.93-3.19,1.22-4.78.64-1.47-.54-2.78-1.62-2.6-3.42l.13-1.25c1.29-1.34,2.46-2.69,3.36-4.07.88-1.08,1.38-2.93,1.35-3.89-.2-8.73-.82-18.37-1.42-28.28,3.65.1,7,.12,11.14.12Z"/>
          <path class="cls-14" d="m50.23,260.13c1.4-.98,2.64-1.84,3.04-2.09,2.55-1.59,2.27-3.76,2.21-5.25-.02-.57-.1-1.7-.26-2.72-.4.42-.65.68-.65.68-1.15,1.22-4.17,3.8-6.7,5.47-1.41.93-3.19,1.22-4.78.64-1.47-.54-2.78-1.62-2.6-3.42l.13-1.25c-.12.12-.24.25-.24.25-1.65,1.7-3.48,3.37-5.13,5.01-1.07,1.07-1.92,2.49-1.88,4.05.03,1.07.77,1.98,1.65,2.6.87.61,1.93.91,2.99,1.05,2.42.32,4.93-.23,7.03-1.44.39-.22,2.99-2.05,5.19-3.58Z"/>
          <path class="cls-13" d="m49.8,259.38c.92-.64,1.84-1.29,2.78-1.91.77-.51,1.48-1.04,1.82-1.92.28-.71.27-1.47.24-2.22-.04-1.01-.11-2.02-.25-3.02l1.46.38c-1.12,1.19-2.31,2.28-3.57,3.32-1.61,1.33-3.36,2.92-5.34,3.65-1.87.69-4.06.4-5.67-.79-.69-.51-1.24-1.19-1.5-2.02s-.1-1.78,0-2.66l1.49.62c-.98,1.01-1.99,1.99-3.01,2.96s-2.14,1.88-2.98,2.98c-.66.87-1.34,2.23-.88,3.33s1.69,1.73,2.77,2.01c2.47.64,5.32.15,7.5-1.17,1.78-1.08,3.44-2.37,5.14-3.56.92-.64,1.79.87.88,1.5-1.65,1.15-3.27,2.35-4.95,3.43-1.81,1.17-4.05,1.77-6.2,1.8-2.26.03-4.76-.57-6.2-2.44s-.75-4.26.57-5.97c.84-1.09,1.92-2.01,2.91-2.96,1.08-1.04,2.16-2.08,3.21-3.16.49-.5,1.57-.16,1.49.62-.07.66-.26,1.45-.08,2.11s.69,1.1,1.26,1.43c1.57.89,3.38.66,4.85-.31,2.57-1.69,4.97-3.72,7.08-5.96.41-.44,1.36-.27,1.46.38.28,1.95.7,4.42-.05,6.32-.45,1.14-1.29,1.96-2.3,2.63s-2.03,1.38-3.04,2.09c-.92.64-1.79-.87-.88-1.5Z"/>
          <path class="cls-13" d="m44.53,211.54c.39,6.5.81,13,1.16,19.5.16,3.03.3,6.06.41,9.09.09,2.54.42,5.05-.72,7.41-.63,1.31-1.67,2.51-2.61,3.61-1.2,1.38-2.5,2.67-3.82,3.94-.81.78-2.04-.45-1.23-1.23,2.08-2.02,4.13-4.07,5.76-6.49,1.4-2.08.98-4.62.89-6.98-.21-6.05-.56-12.09-.92-18.13-.22-3.58-.44-7.15-.65-10.73-.07-1.12,1.68-1.12,1.74,0h0Z"/>
          <path class="cls-13" d="m56.93,216.44c0,8.18,0,16.35,0,24.53,0,1.59,0,3.19,0,4.78,0,1.12-1.74,1.12-1.74,0,0-7.69,0-15.38,0-23.06,0-2.08,0-4.16,0-6.24,0-1.12,1.74-1.12,1.74,0h0Z"/>
          <path class="cls-13" d="m61.45,260.88c-1-.69-1.99-1.4-3-2.06s-1.87-1.5-2.33-2.65c-.34-.86-.4-1.79-.37-2.7.04-1.19.11-2.38.23-3.57.07-.67.96-1.26,1.49-.62,1.99,2.39,4.55,4.43,7.14,6.13,1.47.97,3.28,1.2,4.85.31.54-.31,1.03-.73,1.24-1.34.22-.67.02-1.52-.06-2.2-.08-.77.99-1.12,1.49-.62,1.8,1.85,3.76,3.55,5.53,5.42,1.44,1.52,2.6,3.89,1.61,5.95-1.01,2.11-3.48,2.94-5.65,3.12-2.38.2-4.92-.39-6.97-1.62-1.79-1.07-3.47-2.39-5.19-3.58-.91-.64-.04-2.15.88-1.5,1.7,1.19,3.37,2.48,5.14,3.56,2.18,1.32,5.02,1.81,7.5,1.17,1.09-.28,2.31-.91,2.77-2.01.46-1.1-.21-2.47-.88-3.33-.84-1.1-1.98-2.03-2.98-2.98s-2.02-1.96-3.01-2.96l1.49-.62c.09.88.26,1.79,0,2.66-.25.8-.77,1.46-1.43,1.97-1.61,1.23-3.84,1.55-5.74.85s-3.67-2.28-5.25-3.58c-1.34-1.1-2.61-2.24-3.72-3.57l1.49-.62c-.11,1.1-.17,2.19-.21,3.29-.03.74-.05,1.48.18,2.19.31.92.99,1.5,1.78,2.01.97.64,1.92,1.32,2.88,1.98s.04,2.15-.88,1.5Z"/>
          <path class="cls-13" d="m69.34,211.54c-.37,6.23-.78,12.45-1.11,18.68-.16,3-.31,6-.42,9-.05,1.42-.1,2.84-.14,4.26-.03,1.1.08,2.08.54,3.09.59,1.3,1.62,2.48,2.56,3.55,1.15,1.31,2.39,2.53,3.64,3.74.81.78-.43,2.01-1.23,1.23-2.18-2.11-4.22-4.27-5.97-6.76-1.51-2.15-1.29-4.68-1.21-7.16.2-6.16.55-12.32.92-18.48.22-3.72.46-7.43.68-11.15.07-1.11,1.81-1.12,1.74,0h0Z"/>
          <path class="cls-7" d="m39.37,156.06c-2.39,6.85-2.02,14.31-1.61,21.55,1.23,21.54,2.17,48.16,3.79,69.72.02.21.15.38.35.44,4.47,1.34,9.86,1.36,14.2.05,4.34,1.31,9.73,1.28,14.19-.05.2-.06.34-.24.35-.44,1.53-22.54,3.02-47.22,3.8-69.72.25-7.25.77-14.7-1.61-21.55l-3.04-3.96h-28.68s-1.74,3.96-1.74,3.96Z"/>
          <path class="cls-13" d="m73.67,155.83c2.22,6.49,1.95,13.42,1.7,20.17-.26,7.02-.53,14.04-.88,21.05-.7,14.23-1.58,28.45-2.53,42.66-.14,2.03-.27,4.05-.41,6.08-.06.83-.17,1.5-1.03,1.83s-1.79.47-2.68.63c-3.58.62-7.28.56-10.82-.26-1.09-.25-.63-1.93.46-1.68,3.06.71,6.29.82,9.39.34.71-.11,1.41-.25,2.1-.42.2-.05.4-.12.6-.16.03,0,.32-.15.2-.01.17-.19.08-1.11.09-1.38.11-1.66.22-3.32.33-4.98.46-6.86.9-13.71,1.31-20.57.82-13.6,1.53-27.22,2.01-40.84.26-7.34.87-14.93-1.56-22.01-.36-1.06,1.32-1.52,1.68-.46h0Z"/>
          <path class="cls-13" d="m57.12,174.23c0,4.11,0,8.21-.02,12.32-.01,5.82-.02,11.64-.04,17.46-.01,6.23-.03,12.47-.05,18.7-.01,5.37-.03,10.74-.04,16.11,0,3.15-.02,6.31-.02,9.46,0,.17,0,.35,0,.52,0,1.12-1.74,1.12-1.74,0,0-2.79,0-5.59.02-8.38.01-5.14.02-10.29.04-15.43.02-6.19.03-12.39.05-18.58.01-5.97.03-11.94.04-17.91,0-4.39.02-8.78.02-13.17,0-.37,0-.74,0-1.11,0-1.12,1.74-1.12,1.74,0h0Z"/>
          <path class="cls-13" d="m40.21,156.29c-2.26,6.6-2.01,13.65-1.63,20.52.36,6.52.7,13.03,1.02,19.55.67,13.51,1.29,27.02,2.16,40.51.12,1.84.24,3.69.37,5.53.06.86.12,1.73.19,2.59.02.2.03.41.05.61,0,.12.02.24.03.37.02.15.01.16-.02.03.24.2.9.24,1.2.31,3.63.83,7.5.83,11.13-.01,1.09-.25,1.56,1.43.46,1.68-3.3.77-6.72.87-10.07.38-.83-.12-1.66-.28-2.48-.48-.74-.19-1.56-.32-1.86-1.12-.26-.7-.18-1.64-.23-2.38-.06-.82-.12-1.65-.18-2.47-.48-6.88-.88-13.76-1.25-20.65-.74-13.9-1.34-27.8-2.12-41.69-.44-7.92-1.09-16.1,1.53-23.74.36-1.05,2.04-.6,1.68.46h0Z"/>
          <path class="cls-9" d="m75.23,107.72c-1.93-1-3.95-1.75-7.49-2.86-1.5-1.64-3.25-3.22-3.76-3.22-.17.99-1.04,5.74-2.24,9.79-1.61,5.39-3.51,10.69-5.12,14.52-.22.53-.96.53-1.18,0-1.61-3.82-3.51-9.12-5.12-14.52-1.21-4.05-2.07-8.8-2.24-9.79-.53,0-2.39,1.69-3.91,3.38-2.5.73-4.95,1.62-7.15,2.93-1.24.73-2.27,1.44-3.24,2.53-.92,1.03-1.7,2.19-2.34,3.42-1.95,3.74-2.48,7.94-2.95,12.1-.46,4.09-.55,8.23-.36,12.35.15,3.21.54,5.25,1.91,7.72,1.09,1.97,4.24,3.84,7.05,4.22-.09,1.24-.17,2.41-.26,3.37-.41,3.97-.71,7.27-.94,10.36-.02.29.19.55.48.57,2.93.23,8.37.57,11.22.09,1.99-.33,3.34-.71,4.61-1.79,1.29-1.11,2.16-2.33,2.66-3.94.18-.61.6-2.5.88-4.3.03-.17.17-.33.31-.32.14,0,.28.15.31.32.29,1.81.69,3.69.88,4.3.49,1.61,1.36,2.83,2.65,3.94,1.27,1.08,2.62,1.46,4.61,1.79,2.85.47,8.29.13,11.22-.09.29-.02.5-.28.48-.57-.23-3.09-.54-6.39-.94-10.36-.06-.65-.12-1.4-.18-2.2,2.14-.14,5.11-.75,6.66-2.37,1.8-1.88,2.71-4.21,3-6.12.59-4,.49-7.35.35-10.02-.34-6.64-1.41-11.18-3.25-17.89-1.08-2.68-2.31-4.56-4.35-5.99-.74-.51-1.46-.95-2.23-1.35Z"/>
          <path class="cls-13" d="m37.97,150.18c-.21,3.01-.54,6-.81,9-.13,1.39-.25,2.79-.35,4.18-.01.14,0,.32-.03.44v.11c0,.23-.08.17-.25-.18.04-.06.57.04.67.05.57.04,1.14.08,1.71.11,2.44.14,4.9.26,7.34.07s4.64-.78,6.29-2.63c.8-.9,1.32-1.97,1.61-3.13.14-.55.25-1.11.37-1.67.15-.73.16-1.59.44-2.28.22-.56.78-.92,1.38-.75.75.21.85.93.96,1.59.21,1.21.41,2.45.77,3.62.73,2.39,2.66,4.2,5.06,4.81s4.69.57,7.05.5c1.39-.04,2.78-.11,4.16-.21.27-.02.53-.04.8-.06.05,0,.39-.06.41-.03-.01-.02-.22.58-.26-.04-.05-.72-.11-1.43-.17-2.15-.29-3.41-.68-6.8-.94-10.21-.09-1.12,1.66-1.11,1.74,0,.25,3.25.62,6.5.9,9.75.06.68.11,1.37.17,2.05.05.68.19,1.42-.37,1.95-.43.41-1.01.39-1.57.43-.59.04-1.19.08-1.79.12-2.59.15-5.22.29-7.8.05s-5.15-.95-7.02-2.95-2.4-4.64-2.86-7.31c-.09-.55-.27-.54.44-.54s.54,0,.44.54c-.07.4-.14.8-.22,1.2-.13.69-.27,1.37-.44,2.05-.31,1.24-.85,2.39-1.64,3.4-1.74,2.22-4.07,3.14-6.79,3.52-2.52.35-5.12.22-7.66.09-.73-.04-1.46-.08-2.18-.13-.56-.04-1.28.02-1.78-.25-.77-.4-.76-1.2-.7-1.95s.12-1.52.19-2.28c.31-3.64.73-7.26.98-10.9.08-1.11,1.82-1.12,1.74,0h0Z"/>
          <path class="cls-13" d="m38.34,143.31c-1.12,0-1.12-1.74,0-1.74s1.12,1.74,0,1.74h0Z"/>
          <path class="cls-13" d="m67.98,104.02c3.5,1.11,7.09,2.23,10.09,4.42,1.57,1.14,2.78,2.64,3.67,4.36,1.1,2.14,1.6,4.51,2.15,6.84,1.05,4.47,1.63,8.99,1.87,13.58.11,2.07.23,4.14.15,6.22-.09,2.17-.24,4.5-1.08,6.53-.9,2.16-2.49,3.87-4.68,4.7-2,.76-4.37,1.07-6.5.92-1.11-.07-1.12-1.82,0-1.74,1.77.12,3.65-.11,5.35-.63,1.84-.56,3.13-1.73,4.01-3.45s1.03-3.89,1.13-5.82c.11-2.02.03-4.03-.08-6.05-.23-4.17-.64-8.27-1.52-12.36-.84-3.9-1.58-8.3-4.71-11.09-2.83-2.53-6.78-3.65-10.31-4.76-1.07-.34-.61-2.02.46-1.68h0Z"/>
          <path class="cls-13" d="m44.4,105.86c-2.45.71-4.85,1.57-7.05,2.87-2.09,1.23-3.64,2.86-4.85,4.96-2.55,4.43-3.04,9.94-3.4,14.95-.2,2.75-.24,5.5-.14,8.26.08,2.26.21,4.54,1.03,6.67.34.89.78,1.82,1.44,2.53.74.8,1.66,1.4,2.63,1.89,2.2,1.11,4.64,1.21,7.06,1.29,2.84.1,5.68-.05,8.52-.21,3.03-.16,6.07-.37,9.09-.78.47-.06.93.11,1.07.61.12.41-.14,1.01-.61,1.07-2.9.39-5.81.62-8.72.79-2.68.15-5.36.31-8.05.28s-5.48-.03-7.97-1c-2.04-.79-4.11-2.08-5.21-4.04s-1.66-4.2-1.87-6.48c-.26-2.9-.25-5.85-.12-8.76s.42-5.71.83-8.54c.4-2.72,1.01-5.4,2.16-7.91,1.19-2.6,2.96-4.96,5.36-6.54,2.55-1.67,5.44-2.75,8.36-3.59,1.08-.31,1.54,1.37.46,1.68h0Z"/>
          <path class="cls-13" d="m60.2,125.17c2.2-3.34,4.45-6.66,6.67-9.99.31-.46.61-.92.91-1.38.11-.17.24-.5.39-.63-1.07.92.27.97-.1.68-.07-.05-.12-.16-.18-.22-.21-.26-.43-.52-.66-.77-.38-.43-.76-.88-1.18-1.27-.33-.31-.34-.93,0-1.23.91-.82,1.85-1.61,2.75-2.45.14-.13.3-.35.46-.44l.05-.05c.22-.26.17,0-.12.79-.05-.03-.07-.16-.11-.21-.28-.39-.52-.81-.82-1.19-.8-1-1.68-1.94-2.6-2.83-.41-.39-.82-.78-1.27-1.12-.12-.09-.25-.17-.37-.26-.25-.16-.27-.1-.05-.08l.84-.64c-1.31,7.53-3.62,14.84-6.41,21.95-.28.72-.57,1.44-.87,2.16s-.8,1.29-1.65,1.21-1.16-.71-1.45-1.4c-.35-.83-.68-1.67-1-2.51-1.46-3.77-2.76-7.61-3.91-11.48-.97-3.25-1.7-6.58-2.28-9.92l.84.64c.2-.01.2-.08-.01.06-.14.09-.28.18-.41.28-.45.34-.86.73-1.27,1.12-.92.89-1.81,1.83-2.6,2.83-.29.37-.52.77-.8,1.15-.04.05-.09.22-.13.25-.29-.78-.34-1.05-.14-.81.02.02.04.05.07.07.17.1.32.31.46.44.9.83,1.84,1.63,2.75,2.45.34.31.33.93,0,1.23-.42.39-.8.83-1.18,1.27-.21.24-.41.47-.61.72-.23.28-.29.6-.31,0-.02-.7-.05-.37.1-.2.1.11.17.27.25.39.31.48.63.95.94,1.42,2.22,3.33,4.47,6.65,6.67,9.99.62.94-.89,1.81-1.5.88-2.33-3.53-4.71-7.04-7.05-10.56-.42-.63-1.33-1.56-.92-2.36.25-.5.73-.96,1.1-1.37.41-.48.83-.96,1.29-1.39v1.23c-1.03-.92-2.11-1.79-3.09-2.77-.45-.45-.61-.88-.32-1.49.25-.53.62-1,.98-1.46.92-1.19,1.96-2.31,3.06-3.34.72-.67,1.65-1.68,2.69-1.76.35-.03.78.29.84.64,1.09,6.29,2.9,12.38,5.06,18.37.56,1.56,1.14,3.11,1.76,4.64.11.27.34.62.37.91l.08.19c-.11-.07-.22-.07-.34,0-.01-.02.14-.33.16-.39.32-.77.62-1.54.92-2.32,1.34-3.47,2.54-6.99,3.63-10.54,1.09-3.56,1.93-7.2,2.57-10.86.06-.35.49-.66.84-.64,1.04.08,1.97,1.09,2.69,1.76,1.1,1.03,2.14,2.14,3.06,3.34.36.46.72.93.98,1.46.3.62.13,1.04-.32,1.49-.98.97-2.06,1.85-3.09,2.77v-1.23c.46.43.88.92,1.29,1.39.36.42.85.87,1.1,1.37.4.8-.51,1.74-.92,2.36-2.34,3.53-4.72,7.03-7.05,10.56-.61.93-2.12.06-1.5-.88h0Z"/>
          <path class="cls-4" d="m48.99,131.09c-.66,3.29-1.25,7.54-1.78,10.85"/>
          <path class="cls-13" d="m50.45,100.14c-.06.67-.16,1.34-.27,2.01-.06.35-.09.71-.2,1.05-.13.43-.36.85-.7,1.15-.19.17-.4.32-.62.44-.15.07-.3.14-.46.2-.31.12.2-.1.08-.04-.94.49-1.93.91-2.89,1.36-.45.21-.9.43-1.35.63-.43.18-.96-.2-1.07-.61-.14-.5.17-.89.61-1.07-.44.18,0,0,.1-.06.21-.1.41-.19.62-.29.56-.26,1.11-.53,1.67-.79.43-.2.86-.41,1.29-.61.05-.02.09-.04.14-.06.01,0,.02-.01.04-.02.06-.03.15-.06.21-.09,0,0,.16-.07.06-.02.09-.04.17-.09.26-.14.02-.01.16-.11.07-.04-.08.06.01-.01.02-.02.05-.05.2-.23.09-.07.05-.08.09-.16.14-.24s-.02.06-.03.07c.02-.06.04-.12.06-.17.02-.08.04-.16.06-.24.04-.19.07-.39.1-.58.09-.59.18-1.15.24-1.75.04-.47.37-.87.87-.87.44,0,.91.4.87.87h0Z"/>
          <path class="cls-13" d="m63.38,107.51c-2.31,1.07-4.84,1.57-7.38,1.55-1.27,0-2.55-.13-3.8-.36-.61-.11-1.21-.26-1.8-.44-.28-.09-.56-.19-.83-.3-.14-.05-.27-.11-.41-.17-.19-.08-.49-.1-.04-.1-1.12,0-1.12-1.74,0-1.74.46,0,.99.37,1.43.52.5.17,1.02.31,1.54.43,1.17.26,2.36.38,3.56.41,2.34.05,4.73-.32,6.86-1.31,1.01-.47,1.9,1.03.88,1.5h0Z"/>
          <path class="cls-13" d="m58.71,94.39c-.87.46-1.81.66-2.79.65s-2.03-.22-2.85-.85c-.36-.28-.32-.94,0-1.23.38-.35.85-.3,1.23,0-.3-.23.04.02.14.07.08.04.28.1.02.02.08.02.15.06.23.08.1.03.2.06.3.08.08.02.27.09.35.07h-.09s.07,0,.11,0c.06,0,.13.01.19.02.15,0,.31.01.46.01.14,0,.27,0,.41-.01.06,0,.13,0,.19-.02.06,0,.25,0,.05,0,.19.01.43-.08.6-.13.08-.03.17-.06.25-.08.21-.07-.17.08.02,0,.1-.05.21-.1.31-.15.4-.21.97-.12,1.19.31.21.4.12.96-.31,1.19h0Z"/>
          <path class="cls-13" d="m56.44,87.92c-.12.45-.23.91-.3,1.37l.03-.23c0,.06-.01.13,0,.19l-.03-.23s.01.06.02.08l-.09-.21s.02.04.03.05l-.14-.18s.03.03.04.04l-.18-.14s.07.04.11.06l-.21-.09c.06.02.12.04.18.05l-.23-.03c.06,0,.11,0,.17,0l-.23.03c.06,0,.13-.02.19-.03.12-.04.23-.04.35-.02.12,0,.22.04.32.1.18.11.35.31.4.52.05.22.04.47-.09.67-.11.18-.3.37-.52.4-.16.02-.32.06-.48.07-.26.01-.5-.07-.73-.18-.29-.13-.52-.4-.6-.72-.07-.27-.04-.49,0-.75.07-.44.18-.88.29-1.31.06-.21.21-.41.4-.52s.46-.16.67-.09c.45.15.73.6.61,1.07h0Z"/>
          <path class="cls-13" d="m63.5,84c.23.74.08,2.45-1.33,2.59-1.86-.01-1.96-2.07-1.33-3.04.51-.79,2.02-1.12,2.66.45Z"/>
          <path class="cls-13" d="m48.62,84c-.23.74-.08,2.45,1.33,2.59,1.86-.01,1.96-2.07,1.33-3.04-.51-.79-2.02-1.12-2.66.45Z"/>
          <path class="cls-14" d="m68.67,82.31l1.2.28c.44-.42,1.03-.57,1.54-.55.83.03,1.31.37,1.59.69,2.22-7.85-.26-13.93-3.92-17.43-2.19-2.1-7.14-4.96-12.7-4.96-3.14,0-5.42.53-7.55,1.34-3.87,2.03-3.79,1.99-5.56,3.7-2.78,2.68-4.71,7.5-5.02,11.82-.09,1.25-.08,4.48.12,6.73,0,2.54-1.29,5.84-1.94,7.35-1.93,4.43-1.31,9.52,1.97,13.13,1.04,1.14,2.35,2.24,2.52,3.75.08.72-.13,1.46-.57,2.04,2.07-.26,4.78-1.24,6.22-2.56,1.07-.98,1.97-1.7,2.76-2.91s1.26-2.98.99-4.41c-3.59-1.41-6.5-6.4-7-7.75l-.34-.91c.04-.41.05-.67.05-.67-.31-4.54.14-8.86,2.81-12.7,2.44-3.51,6.4-5.97,10.78-5.4l2.28.24c2.56,2.65,5.36,5.16,8.16,7.66.51.46,1.03.92,1.54,1.38.03.03.06.05.09.08"/>
          <path class="cls-4" d="m42.28,82.6c-.45-.43-1.04-.59-1.56-.57-1.12.04-1.59.64-1.8,1-.61,1.06-.58,3.01-.17,4.22.29.85.77,2.16,1.91,3.1.47.39,1.17.64,1.83.53"/>
          <path class="cls-4" d="m65.28,63.33c-2.54-1.66-5.49-2.7-9.2-2.7-3.89,0-7.19,1.17-9.83,3.14-3.07,2.28-6.54,6.35-6.82,12.92-.07,1.57.13,3.37.61,5.2"/>
          <path class="cls-4" d="m72.13,81.89c.48-1.92.68-3.4.6-5.2-.23-5.54-2.64-9.3-5.31-11.71"/>
          <path class="cls-13" d="m69.23,81.99c.96-.86,2.32-1.06,3.5-.52.85.39,1.37,1.19,1.61,2.06.56,2.04.03,4.43-1.14,6.17-.79,1.18-2.04,2.24-3.56,2.05-.47-.06-.87-.36-.87-.87,0-.42.4-.93.87-.87,1.12.15,1.87-.78,2.36-1.68.4-.75.71-1.6.79-2.45s.07-1.85-.43-2.56c.11.16-.03-.03-.05-.05,0,0-.18-.16-.09-.09-.15-.12-.3-.18-.48-.22-.44-.1-.91-.03-1.26.27-.83.74-2.07-.48-1.23-1.23h0Z"/>
          <path class="cls-13" d="m70.6,90.02c-1.18,5.19-5.08,10.85-10.69,11.69-.46.07-.94-.12-1.07-.61-.11-.41.14-1,.61-1.07,5.05-.76,8.41-5.82,9.47-10.48.25-1.09,1.93-.63,1.68.46h0Z"/>
          <path class="cls-13" d="m50.9,101.41c-1.87-.43-3.47-1.7-4.76-3.07-1.19-1.27-2.24-2.71-3.07-4.24-.15-.27-.28-.54-.41-.82-.05-.11-.09-.22-.14-.32-.01-.03-.08-.18-.03-.08.05.12-.03-.05-.03-.06-.05-.11-.09-.21-.14-.32-.07-.18-.14-.37-.21-.55-.16-.44.18-.95.61-1.07.48-.13.91.16,1.07.61.11.3.24.59.36.89.08.21-.07-.14,0,0,.02.05.04.1.07.15.15.32.31.63.49.93.47.83,1.01,1.65,1.6,2.4,1.29,1.66,2.98,3.38,5.06,3.87,1.09.25.63,1.93-.46,1.68h0Z"/>
          <path class="cls-13" d="m46.27,64.04c-2.85,1.71-4.81,4.67-5.94,7.74-1.15,3.12-1.33,6.25-1.23,9.53.05,1.71.21,3.33-.13,5.02-.32,1.59-.85,3.13-1.47,4.62s-1.16,3.02-1.27,4.67.13,3.37.76,4.94c.35.89.84,1.75,1.42,2.51s1.33,1.44,1.97,2.19c1.32,1.55,1.99,3.55.71,5.37l-.75-1.31c2.18-.29,4.34-1.16,5.98-2.65,1.75-1.58,3.55-3.5,3.16-6.08-.17-1.1,1.51-1.57,1.68-.46.22,1.46-.02,2.91-.65,4.24s-1.7,2.39-2.78,3.37c-2.09,1.89-4.6,2.94-7.39,3.32-.64.09-1.1-.81-.75-1.31,1.27-1.81-.5-3.31-1.66-4.57s-2.09-2.73-2.69-4.36c-1.23-3.33-.86-6.89.5-10.11.6-1.42,1.12-2.88,1.46-4.39.4-1.73.21-3.36.16-5.12-.09-3.31.1-6.51,1.22-9.66,1.27-3.59,3.5-7.01,6.82-9,.96-.58,1.84.93.88,1.5h0Z"/>
          <path class="cls-13" d="m48.08,61.04c5.67-2.28,11.98-2.04,17.43.75,4.35,2.23,7.52,6.02,8.69,10.81.82,3.37.58,6.89-.32,10.22-.29,1.08-1.97.62-1.68-.46,1.35-5.01.96-10.45-2.2-14.72-2.82-3.79-7.84-6.07-12.47-6.4-3.08-.21-6.12.33-8.98,1.47-1.04.42-1.49-1.27-.46-1.68h0Z"/>
          <path class="cls-13" d="m59.49,72.51c3.11,3.21,6.47,6.15,9.79,9.12.84.75-.4,1.98-1.23,1.23-3.32-2.98-6.68-5.92-9.79-9.12-.78-.81.45-2.04,1.23-1.23h0Z"/>
          <path class="cls-13" d="m56.6,73.75c-4.24-.5-8.06,1.9-10.31,5.39-1.27,1.96-2.03,4.2-2.32,6.51-.14,1.11-.18,2.24-.17,3.36,0,.75.11,1.5.06,2.25-.1,1.6-.42,3.53-1.62,4.69-.81.78-2.04-.45-1.23-1.23.88-.85,1.11-2.5,1.12-3.67.01-1-.1-2-.07-3,.02-1.15.13-2.3.32-3.44.74-4.46,3.26-8.71,7.2-11.04,2.11-1.25,4.58-1.84,7.02-1.55,1.1.13,1.11,1.87,0,1.74h0Z"/>
          <path class="cls-7" d="m71.44,90.4c-1.14,0-1.93.8-1.93,1.75,0,1.05.81,1.78,1.93,1.78s1.93-.73,1.93-1.78c0-.95-.79-1.75-1.93-1.75Z"/>
          <path class="cls-13" d="m71.44,91.27c-.06,0-.12,0-.17,0-.15,0,.04,0,.06-.01-.05.04-.2.04-.27.06-.05.01-.1.03-.15.05-.14.04.05-.02.06-.03-.04.05-.2.11-.26.15-.02.01-.16.1-.03.02s0,0-.02.03c-.06.05-.1.13-.16.17.14-.12.08-.12.04-.04-.02.03-.04.07-.06.1s-.03.07-.05.1c-.03.06-.02.03.04-.1-.01.03-.02.06-.03.09-.02.07-.02.17-.06.23,0-.01.02-.23.01-.09,0,.05,0,.1,0,.14,0,.03,0,.07,0,.1,0,.11.06.16-.01-.03.03.08.04.18.06.26.01.04.03.07.04.11-.04-.2-.06-.13-.02-.06.04.07.08.13.12.2.05.1-.15-.17-.04-.05.02.02.04.05.06.07.03.03.07.06.1.1.12.12-.17-.11-.03-.02.07.04.13.09.2.12l.04.02c.08.04.06.03-.07-.03.03,0,.07.03.09.03.08.03.16.05.25.07h.05c.09.03.07.02-.07,0,.04-.01.12.01.16.01.09,0,.19,0,.28,0,.01,0,.09-.02.11,0l-.12.02s.07-.01.1-.02c.08-.02.17-.04.25-.06.02,0,.07-.03.09-.03-.13.06-.16.07-.07.03.03-.01.06-.03.09-.04.06-.03.13-.1.2-.12-.01,0-.17.14-.07.05.03-.03.07-.06.1-.09.02-.02.04-.04.06-.07.11-.11-.09.15-.04.05.04-.07.09-.14.13-.21.05-.1,0-.13-.01.04,0-.03.02-.06.03-.09.02-.08.04-.15.06-.23.04-.18-.01.22,0,.04,0-.03,0-.07,0-.1,0-.05,0-.1,0-.15,0-.12-.06-.11,0,.04-.03-.08-.05-.19-.07-.27-.04-.13.02.07.03.08-.04-.04-.06-.12-.09-.17-.02-.03-.03-.05-.05-.08-.08-.14.15.15,0,0-.05-.05-.15-.12-.19-.18l.1.08s-.05-.04-.08-.06c-.04-.03-.08-.05-.13-.08-.04-.02-.08-.03-.11-.06-.06-.03-.03-.02.09.04-.03-.01-.06-.02-.1-.04-.1-.03-.21-.06-.31-.08-.13-.03.04.04.07,0-.01.01-.2-.01-.23-.01-.46,0-.89-.4-.87-.87s.38-.88.87-.87c1.2.01,2.26.68,2.68,1.82.18.49.17,1.09.02,1.58-.17.56-.51,1-.97,1.35-.88.66-2.19.65-3.14.18-1.04-.52-1.52-1.7-1.33-2.81.22-1.31,1.5-2.11,2.75-2.12.46,0,.89.4.87.87s-.38.87-.87.87Z"/>
        </g>
      </g>
    </g>
    <g>
      <g>
        <rect class="cls-8" y="77.44" width="24.77" height="21.45" rx="3.83" ry="3.83"/>
        <rect class="cls-16" x="7.79" y="67.56" width="9.19" height="21.83" rx="2.74" ry="2.74"/>
      </g>
      <g>
        <circle class="cls-7" cx="12.38" cy="84.71" r="3.45"/>
        <rect class="cls-7" x="11" y="85.91" width="2.77" height="9.44"/>
      </g>
    </g>
    <g>
      <g>
        <rect class="cls-8" x="286.06" y="89.56" width="24.77" height="21.45" rx="3.83" ry="3.83"/>
        <rect class="cls-16" x="293.85" y="79.68" width="9.19" height="21.83" rx="2.74" ry="2.74"/>
      </g>
      <g>
        <circle class="cls-7" cx="298.45" cy="96.84" r="3.45"/>
        <rect class="cls-7" x="297.06" y="98.03" width="2.77" height="9.44"/>
      </g>
    </g>
    <g>
      <circle class="cls-7" cx="37.08" cy="193.48" r="30.92"/>
      <circle class="cls-3" cx="37.08" cy="193.48" r="30.92"/>
      <g class="cls-20">
        <path class="cls-5" d="m12.25,225.79c-.24-.9-.25-1.89-.08-2.75.32-1.59.79-3.18,1.2-4.75.05-.18.1-.36.15-.54.05-.2.1-.4.15-.6.16-.6.34-1.19.5-1.79.19-.7.38-1.41.59-2.1.26-.88.54-1.75.82-2.63.18-.57.34-1.14.53-1.7.17-.51.35-1.03.55-1.54,0-.02.02-.05.03-.07.11-.29.24-.57.37-.86.01-.03.03-.06.04-.09.12-.25.26-.5.4-.74.05-.08.09-.15.14-.23.07-.11.13-.24.21-.35.05-.06.1-.11.15-.18.05-.06.09-.13.14-.2.08-.1.18-.19.28-.29.05-.05.09-.1.14-.15.21-.21.43-.4.66-.58,0,0,.02-.01.03-.02.23-.18.48-.35.73-.5.05-.03.1-.06.14-.09.19-.12.38-.23.58-.34.07-.04.13-.08.2-.12.05-.03.1-.05.15-.08.04-.02.08-.04.12-.07.31-.17.63-.32.95-.49,2.34-1.25,4.74-2.42,7.11-3.62.08-.44.39-.91.56-1.25.05-.11.11-.22.16-.34.14-.28.27-.55.4-.83.14-.3.25-.69.51-.9-.33-.25-.64-.52-.93-.8-.05-.05-.11-.1-.16-.16-.11-.12-.22-.24-.33-.37-.06-.07-.12-.13-.18-.2-.04-.04-.06-.09-.09-.13-.24-.3-.47-.62-.68-.95-.09-.15-.18-.29-.27-.44-.17-.3-.33-.6-.47-.91-.06-.13-.12-.26-.17-.39-.13-.31-.25-.63-.35-.96-.03,0-.06,0-.09,0-.63-.11-1.14-.42-1.58-.82-.02-.02-.03-.03-.05-.05-.15-.15-.3-.31-.43-.48-.02-.02-.04-.04-.05-.06-.02-.03-.04-.07-.06-.1-.1-.15-.2-.31-.29-.47-.05-.09-.09-.17-.14-.26-.06-.13-.12-.27-.17-.4-.05-.12-.09-.24-.13-.37-.04-.12-.07-.24-.11-.37-.03-.13-.07-.25-.09-.38-.03-.14-.05-.28-.07-.42-.01-.08-.03-.15-.04-.23,0-.06-.01-.11-.02-.17,0-.01,0-.03,0-.04,0,0,0-.02,0-.03-.02-.22-.03-.45-.02-.68,0-.02,0-.03,0-.05,0-.23.03-.46.08-.68,0-.02.01-.04.02-.07.05-.22.13-.43.24-.62,0-.02.02-.03.03-.04.12-.19.27-.37.46-.52,0,0,0,0,0,0-.04-.17-.08-.34-.11-.51-.03-.15-.05-.3-.08-.45-.03-.17-.06-.34-.08-.51-.03-.19-.04-.38-.07-.57-.01-.13-.03-.26-.04-.4-.02-.22-.03-.44-.04-.66,0-.1-.01-.2-.01-.3,0-.24,0-.47,0-.71,0-.09,0-.17,0-.26,0-.24.03-.47.05-.71,0-.09.01-.18.02-.26.02-.22.06-.44.09-.66.02-.11.03-.22.06-.33.04-.18.08-.37.12-.55.02-.09.04-.19.06-.28.02-.06.04-.12.06-.19.02-.06.03-.12.05-.17.02-.07.05-.14.08-.21.05-.16.11-.32.17-.47.05-.12.09-.23.14-.35.07-.17.15-.33.23-.5.05-.11.11-.21.17-.32.09-.17.19-.33.28-.49.06-.1.12-.2.19-.3.11-.16.22-.31.34-.47.07-.09.14-.18.21-.27.13-.15.26-.3.4-.44.07-.07.14-.15.21-.22.16-.16.33-.3.5-.44.05-.04.1-.09.16-.13-.11-.05-.22-.1-.33-.15-.18-.09-.27-.27-.28-.46-.02-.16.01-.33.16-.47.27-.27.56-.52.86-.75.09-.07.18-.13.27-.2.22-.16.43-.31.66-.46.1-.06.2-.12.31-.18.23-.13.46-.26.7-.38.1-.05.19-.09.29-.14.26-.12.53-.23.8-.33.08-.03.15-.06.23-.09.32-.11.65-.21.98-.29.03,0,.06-.02.09-.02.72-.18,1.46-.3,2.21-.36.04,0,.08,0,.12,0,.01,0,.03,0,.04,0,.36-.02.72-.04,1.07-.04.03,0,.07,0,.1,0,.03,0,.05,0,.08,0,1.84.02,3.69.37,5.3,1.28.61.35,1.13.77,1.62,1.25.14.13.27.27.4.41.14.15.27.3.41.45.34.4.93.8,1.37,1.17.14.11.28.22.43.32.5.29.96.63,1.36,1.03,0,0,0,0,0,0,0,0,0,0,0,0,1.8,1.73,2.69,4.35,2.76,6.92,0,.06,0,.12,0,.19,0,.2,0,.41-.01.61,0,.15,0,.29-.02.44,0,.08-.02.15-.02.23-.04.38-.09.76-.17,1.13-.02.12-.05.24-.07.35-.03.12-.06.23-.1.35-.03.1-.05.2-.08.3.01,0,.02,0,.03.02.03.02.05.06.08.09.16.14.31.29.41.47.04.07.05.15.09.22.07.15.14.3.17.46.03.12.03.24.04.36.01.13.04.25.04.38,0,.15,0,.3-.01.45,0,.09,0,.19,0,.28,0,0,0,.01,0,.02,0,0,0,.02,0,.02,0,.1-.03.19-.04.29-.02.14-.03.28-.06.43-.02.12-.06.24-.09.35-.03.13-.06.27-.1.4-.03.09-.06.18-.1.27-.06.17-.12.33-.19.49-.01.03-.03.06-.05.09-.51,1.08-1.33,1.97-2.51,2.23-.07.2-.13.4-.21.59-.08.19-.17.37-.26.55-.09.17-.18.35-.27.51-.08.14-.15.27-.24.41-.18.28-.36.56-.56.83-.02.02-.03.04-.04.07,0,0,0,.01-.01.02,0,0,0,0,0,0,0,0-.01.02-.02.03-.21.29-.44.57-.68.85-.03.04-.06.07-.09.11-.26.3-.53.58-.81.85,0,0,0,0,0,0-.19.18-.38.35-.58.51.03.03.06.07.09.1.03.03.06.04.09.08.26.39.42.9.62,1.34.22.44.44.89.63,1.34.06.14.13.29.17.45.93.47,1.85.94,2.78,1.41,1.16.59,2.33,1.17,3.5,1.77.43.21.85.44,1.27.67.29.16.59.3.89.47.12.07.24.14.36.21.06.03.12.06.18.1.05.03.1.07.16.1.22.13.43.27.64.42,0,0,0,0,0,0,.28.2.57.4.82.63.13.12.22.27.34.41.12.14.24.28.36.42.1.13.2.26.29.4.04.06.09.11.12.17.17.27.31.55.45.84,0,0,0,0,0,0h0c.19.39.35.78.5,1.18.62,1.56,1.08,3.2,1.56,4.79.1.32.18.65.28.97.12.41.24.83.36,1.24.29,1.02.57,2.04.83,3.06.06.23.13.46.19.7.4,1.53.82,3.06,1.17,4.61.18.82.2,1.73.02,2.59,0,0,0,0,0,0-.04.2-.09.39-.16.59-.03.08-.06.15-.09.23-.06.14-.1.3-.17.43-.05.09-.12.16-.18.24-.07.11-.13.21-.21.31-.03.04-.07.07-.1.1-.11.13-.22.25-.35.36-.06.06-.13.11-.19.17-.65.57-1.42,1.03-2.1,1.5-1.34.91-2.67,1.81-4.01,2.72-.42.28-.83.56-1.25.85-.31.21-.61.5-1,.52-.1,0-.21,0-.31,0h-9.26c-4.55,0-9.1,0-13.66,0-2.28,0-4.57,0-6.85,0-.11.03-.23.02-.36-.04-.03,0-.05-.02-.08-.03,0,0-.01,0-.02,0-.82-.56-1.63-1.11-2.45-1.67-1.33-.91-2.67-1.81-4-2.72-.09-.06-.17-.12-.25-.18-.16-.11-.32-.21-.48-.32-.04-.02-.07-.05-.1-.08-.07-.05-.13-.1-.19-.15-.52-.38-1.02-.79-1.39-1.33-.23-.34-.39-.74-.5-1.15,0,0,0,0,0-.01,0-.02,0-.03,0-.05Z"/>
      </g>
    </g>
  </g>
</svg>