<svg id="グループ_125" data-name="グループ 125" xmlns="http://www.w3.org/2000/svg" xmlns:xlink="http://www.w3.org/1999/xlink" width="278" height="263.513" viewBox="0 0 278 263.513">
  <defs>
    <clipPath id="clip-path">
      <rect id="長方形_66" data-name="長方形 66" width="278" height="263.513" fill="none"/>
    </clipPath>
  </defs>
  <g id="グループ_124" data-name="グループ 124" clip-path="url(#clip-path)">
    <path id="パス_897" data-name="パス 897" d="M196.746,64.068a5.734,5.734,0,0,1,4.14-.922,5.177,5.177,0,0,1,4.307,2.954c1.258,2.756.645,7.487-.744,10.3a15,15,0,0,1-5.657,6.693,10.92,10.92,0,0,1-5.9,1.231c-.266.555-.436.912-.436.912-.646,1.357-2.177,3.733-2.177,3.733a48.047,48.047,0,0,1-5.325,6.691,46.341,46.341,0,0,1-10.727,7.721,52.926,52.926,0,0,1-10.85,3.731,39.585,39.585,0,0,1-3.954.557,29.059,29.059,0,0,1-22.186-6.852c-6.343-5.163-9.118-13.325-10.133-22.354-.585-5.206-1.1-10.867-1.856-16.521,0,0-6.62-29.656,28.024-29.656,51.558,0,43.478,31.78,43.478,31.78" transform="translate(-19.337 -5.007)" fill="#fff"/>
    <path id="パス_898" data-name="パス 898" d="M174.862,180.749c-.755,1.762-1.4,3.247-1.91,4.378l-1.791.346c-2.476-6.252-3.725-9.294-5.889-15.167-4.166-11.305-11.018-41.342-11.847-50.747,0,0-.058-.654-.145-1.662a30.557,30.557,0,0,0,10.564.76,39.614,39.614,0,0,0,3.954-.557,52.918,52.918,0,0,0,10.849-3.731,46.34,46.34,0,0,0,10.727-7.721c.948-.983,2.221-2.493,3.032-3.507,3.3,2.946,5.895,5.644,5.895,5.644s.828.619,2,1.474c-.581,2.368-1.272,5.054-1.636,6.343-1.708,6.05-3.777,11.6-5.561,17.042-4.55,13.892-13.494,36-18.242,47.1" transform="translate(-23.762 -15.994)" fill="#fff"/>
    <path id="パス_899" data-name="パス 899" d="M190.008,117.9c.581-2.061,1.121-4.179,1.594-6.372,2.433,1.772,6.4,4.591,7.536,4.971,5.6,1.868,12.76,4.459,18.378,6.489,6.569,2.375,12.087,5.331,16.909,10.385,4.333,4.542,8.66,13.974,11.844,23.964,6.806,21.357,11.256,44.029,11.254,54.226a49.217,49.217,0,0,1-1.561,10.88c-1.409,4.155-2.944,8.541-8.661,12.815-8.1,6.056-21.124,11.125-28.213,13.472H124.22l-25.6-54.154a30.42,30.42,0,0,1-.713-13.952c1.872-11.167,5.8-25.214,9.328-36.651a55.446,55.446,0,0,1,4.222-9.378,21.921,21.921,0,0,1,6.636-6.379c6.62-4.2,18.972-8.848,26.347-11.206.181,2.151.33,3.851.33,3.851.826,9.4,7.68,39.441,11.844,50.742,2.162,5.87,3.414,8.911,5.895,15.164l1.789-.346c3.71-8.258,14.879-35.379,20.153-51.476,1.783-5.444,3.851-10.993,5.559-17.046" transform="translate(-15.105 -17.295)" fill="#b3b3b3"/>
    <path id="パス_900" data-name="パス 900" d="M178.865,179.728c1.258-3.015,2.666-6.443,4.131-10.077-.748-3.009-1.406-5.653-1.406-5.653-.82-3.3-3.439-18.969-3.473-20.008.87-3.135,1.867-6.793,2.883-9.919-3.3-2.252-7.1-4.543-9.28-5.964-2.229,1.937-3.981,3.524-5.949,5.549l.193.542c.845,2.378,2.376,6.279,3.275,8.425-.534,2.742-1.191,5.749-1.533,8.3a145.411,145.411,0,0,0-1.671,19.808c.408,1.278.8,2.435,1.172,3.443,2.163,5.869,3.414,8.911,5.9,15.163l1.789-.346c.928-2.066,2.322-5.31,3.974-9.268" transform="translate(-25.699 -19.865)" fill="#61a0df"/>
    <path id="パス_901" data-name="パス 901" d="M163.668,135.483c1.013,2.836,2.115,5.645,3.275,8.424v-1.078a165.373,165.373,0,0,0-3.125,24.652c-.113,2.61,3.943,2.6,4.056,0a148.788,148.788,0,0,1,1.575-16.156c.245-1.588.557-3.166.872-4.743.166-.828.349-1.655.5-2.487a3.527,3.527,0,0,0-.353-2.21c-1.011-2.473-1.986-4.964-2.885-7.48a2.08,2.08,0,0,0-2.5-1.416,2.045,2.045,0,0,0-1.416,2.494" transform="translate(-25.358 -20.611)" fill="#211715"/>
    <path id="パス_902" data-name="パス 902" d="M180.937,134.269c-.549,1.705-1.058,3.423-1.548,5.145a34.013,34.013,0,0,0-1.37,5.044,14.048,14.048,0,0,0,.43,3.606q.953,6.09,2.069,12.154c.308,1.689.6,3.389,1.01,5.057.622,2.534,4.534,1.461,3.911-1.078-.828-3.371-1.343-6.838-1.93-10.257q-.5-2.93-.977-5.866-.18-1.123-.351-2.249c-.04-.263-.076-.527-.116-.79-.058-.388.03.258.022.165a1.57,1.57,0,0,1-.034-.28c.007-.052-.018-.109-.014-.161-.026.361.272-.74.321-.917q.387-1.393.777-2.784c.541-1.912,1.1-3.819,1.709-5.711.8-2.49-3.113-3.556-3.911-1.078" transform="translate(-27.593 -20.602)" fill="#211715"/>
    <path id="パス_903" data-name="パス 903" d="M170.055,147.761c2.347-.092,4.7-.19,7.045-.232a2.028,2.028,0,1,0,0-4.056c-2.348.041-4.7.139-7.045.232a2.028,2.028,0,1,0,0,4.056" transform="translate(-26.048 -22.248)" fill="#211715"/>
    <path id="パス_904" data-name="パス 904" d="M164.678,136.656a96.946,96.946,0,0,1,7.775-7.488l-2.457.318c3.715,2.418,7.542,4.664,11.134,7.269a2.044,2.044,0,0,0,2.775-.727,2.074,2.074,0,0,0-.728-2.775c-3.592-2.6-7.419-4.85-11.134-7.269a2.071,2.071,0,0,0-2.458.317,96.806,96.806,0,0,0-7.775,7.488c-1.764,1.918,1.1,4.793,2.868,2.868" transform="translate(-24.999 -19.493)" fill="#211715"/>
    <path id="パス_905" data-name="パス 905" d="M217.828,271.854l-40.118-1.823c3.268,10.409,6.362,20.278,8.5,27.1a4.762,4.762,0,0,1-2.354,5.653l-.478.248.683-.285c10.21-4.26,43.269-18.948,49.537-21.827l-3.859-11.161a27.381,27.381,0,0,1-11.907,2.09" transform="translate(-27.55 -41.832)" fill="#fff"/>
    <path id="パス_906" data-name="パス 906" d="M209.887,274.064c-3.509,2.821-6.16,6.649-9.794,10.436-.522.544-2.662,1.97-4.312.7a3.748,3.748,0,0,1-.849-3.8c2.136-4.668,3.011-6.082,4.6-9.353-1.934,2.039-3.443,3.746-5.734,6.062l-2.335,2.36-2.934,2.965s-2.073,2.213-4.321,4.616c-2.39-7.634-5.461-17.422-8.561-27.3,2.8-3.517,5.273-7.484,8.7-10.492a15.471,15.471,0,0,1,8.647-4.067,21.174,21.174,0,0,1,4.012.136q3.809.389,7.59.992c4.582.73,9.714,1.587,13.381-1.514,4.75,4.2,9.06,12.5,11.44,20.237a18.9,18.9,0,0,0-2.462,1.437c-.53.362-2.234,1.872-2.8,2.179a38.884,38.884,0,0,1-13.983,4.321" transform="translate(-27.229 -38.118)" fill="#fff"/>
    <path id="パス_907" data-name="パス 907" d="M281.272,253.344q6.385,0,12.77-.02l20.183-.033q2.558,0,5.117-.008c2.609,0,2.614-4.056,0-4.056q-6.6,0-13.2.02l-20.063.033q-2.4,0-4.808.008c-2.61,0-2.614,4.057,0,4.056" transform="translate(-43.301 -38.647)" fill="#211715"/>
    <path id="パス_908" data-name="パス 908" d="M1.959,253.35c6.829,0,13.657-.04,20.486-.058,1.161,0,2.323-.008,3.484-.008,2.609,0,2.614-4.057,0-4.056-6.944,0-13.888.038-20.833.058-1.045,0-2.091.008-3.137.008-2.609,0-2.614,4.057,0,4.056" transform="translate(0 -38.647)" fill="#211715"/>
    <path id="パス_909" data-name="パス 909" d="M236.173,250.049a143.746,143.746,0,0,0,17.22-6.951c6.154-2.973,12.719-6.475,16.9-12.042,3.523-4.69,4.886-10.541,5.528-16.257a59.593,59.593,0,0,0-.7-14.949,264.718,264.718,0,0,0-10.41-43.88c-2.307-7.195-5.091-14.577-9.331-20.882A36.8,36.8,0,0,0,239.9,122.549c-3.309-1.512-6.756-2.684-10.175-3.914-3.594-1.293-7.192-2.576-10.8-3.816-.8-.273-1.589-.553-2.39-.811-.474-.153-.342-.163-.119-.021-.154-.1-.337-.171-.5-.259-.842-.468-1.644-1.011-2.442-1.55-1.783-1.2-3.527-2.466-5.259-3.742q-.5-.369-1-.741a2.042,2.042,0,0,0-2.775.727,2.077,2.077,0,0,0,.728,2.775,87.779,87.779,0,0,0,8.508,5.922,16.562,16.562,0,0,0,3.035,1.223q2.512.854,5.015,1.737,5.126,1.8,10.232,3.659c6.379,2.3,12.4,5.144,17.213,10.049a31.344,31.344,0,0,1,4.984,7.135,81.228,81.228,0,0,1,4.474,9.908,217.124,217.124,0,0,1,6.985,22.926c1.808,7,3.4,14.066,4.648,21.191,1.726,9.845,3.132,20.242-.957,29.726-2.6,6.029-7.955,9.593-13.523,12.645a122.172,122.172,0,0,1-17.243,7.625q-1.712.62-3.441,1.193c-2.465.819-1.409,4.738,1.078,3.911" transform="translate(-31.65 -16.654)" fill="#211715"/>
    <path id="パス_910" data-name="パス 910" d="M227.409,236.741c4.163-1.765,8.163-3.822,12.229-5.792a2.039,2.039,0,0,0,.728-2.775,2.081,2.081,0,0,0-2.774-.727c-4.066,1.97-8.067,4.027-12.23,5.792a2.033,2.033,0,0,0-.728,2.775,2.093,2.093,0,0,0,2.775.727" transform="translate(-34.782 -35.231)" fill="#211715"/>
    <path id="パス_911" data-name="パス 911" d="M142.341,116.139a173.924,173.924,0,0,0-17.993,7c-5.666,2.6-11.6,5.686-15.023,11.136-3.248,5.179-4.893,11.259-6.592,17.064-2.081,7.108-4.019,14.266-5.606,21.5-1.627,7.418-3.4,15.55-.842,22.978.845,2.453,4.764,1.4,3.911-1.079-2.111-6.127-.856-12.748.431-18.9,1.434-6.861,3.219-13.647,5.14-20.386,1.672-5.865,3.235-11.771,6.01-17.23,2.663-5.239,7.442-8.121,12.564-10.611a153.793,153.793,0,0,1,19.079-7.559c2.467-.815,1.41-4.732-1.078-3.911" transform="translate(-14.727 -17.992)" fill="#211715"/>
    <path id="パス_912" data-name="パス 912" d="M231.136,192.814q3.091,11.317,6.184,22.632c.687,2.515,4.6,1.447,3.911-1.078l-6.183-22.632c-.688-2.515-4.6-1.447-3.911,1.078" transform="translate(-35.819 -29.51)" fill="#211715"/>
    <path id="パス_913" data-name="パス 913" d="M216.233,244.339c-2.881,1.839-6.456,1.429-9.677.937a89.387,89.387,0,0,0-12.1-1.46c-8.237-.114-13.645,6.454-18.12,12.477a2.042,2.042,0,0,0,.728,2.775,2.077,2.077,0,0,0,2.775-.727c2.113-2.845,4.305-5.856,7.227-7.931a13.973,13.973,0,0,1,4.487-2.2,14.767,14.767,0,0,1,5.312-.173c3.763.373,7.473,1.08,11.226,1.512,3.488.4,7.146.238,10.188-1.7,2.194-1.4.161-4.912-2.047-3.5" transform="translate(-27.291 -37.808)" fill="#211715"/>
    <path id="パス_914" data-name="パス 914" d="M185.3,261.8l-6.2,6.148a2.028,2.028,0,0,0,2.868,2.869l6.2-6.149A2.028,2.028,0,0,0,185.3,261.8" transform="translate(-27.675 -40.508)" fill="#211715"/>
    <path id="パス_915" data-name="パス 915" d="M186.6,280.245c3.13-3.654,6.554-7.053,9.974-10.433a2.028,2.028,0,0,0-2.868-2.868c-3.42,3.38-6.844,6.779-9.974,10.433a2.028,2.028,0,0,0,2.868,2.868" transform="translate(-28.393 -41.305)" fill="#211715"/>
    <path id="パス_916" data-name="パス 916" d="M191.956,288.965c2.3-2.329,4.636-4.632,6.9-7,2-2.095,3.932-4.245,5.965-6.3a2.028,2.028,0,0,0-2.868-2.868c-2.033,2.06-3.969,4.21-5.966,6.3-2.259,2.37-4.592,4.673-6.9,7a2.028,2.028,0,0,0,2.868,2.868" transform="translate(-29.224 -42.211)" fill="#211715"/>
    <path id="パス_917" data-name="パス 917" d="M216.133,279.36A44.3,44.3,0,0,0,228.17,276.2a18.683,18.683,0,0,0,4.512-2.6c.278-.225.553-.454.831-.68.136-.112.271-.222.409-.332.261-.208-.227.161-.033.026a21.766,21.766,0,0,1,2.526-1.48,2.028,2.028,0,1,0-2.047-3.5,21.076,21.076,0,0,0-3.9,2.567,14.577,14.577,0,0,1-1.207.954,18.677,18.677,0,0,1-2.476,1.251,37.491,37.491,0,0,1-10.65,2.9,2.093,2.093,0,0,0-2.028,2.028,2.04,2.04,0,0,0,2.028,2.028" transform="translate(-33.192 -41.463)" fill="#211715"/>
    <path id="パス_918" data-name="パス 918" d="M222.986,246.085c3.268,2.438,5.646,6.345,7.539,9.941a57.846,57.846,0,0,1,5.072,13.523c.605,2.537,4.517,1.463,3.911-1.078a62.061,62.061,0,0,0-5.639-14.791c-2.231-4.176-5-8.24-8.835-11.1a2.043,2.043,0,0,0-2.775.727,2.077,2.077,0,0,0,.728,2.775" transform="translate(-34.413 -37.571)" fill="#211715"/>
    <path id="パス_919" data-name="パス 919" d="M200.3,276.932c-.829,1.655-1.692,3.293-2.5,4.956a34.572,34.572,0,0,0-1.717,3.7,5.884,5.884,0,0,0-.027,3.294,4.631,4.631,0,0,0,6.335,3.134c2.437-.969,4.042-3.321,5.7-5.246a51.586,51.586,0,0,1,6.359-6.6,2.042,2.042,0,0,0,0-2.868,2.075,2.075,0,0,0-2.868,0c-3.737,3.038-6.463,7.06-9.828,10.47-.052.053-.342.275-.115.11.243-.177-.264.155-.321.188-.095.053-.482.227-.185.112-.118.046-.6.185-.493.166a.494.494,0,0,1-.515-.092c.2.115-.113-.193.068.08a3.2,3.2,0,0,1-.179-.313c.095.187.039.129,0-.032-.042-.183-.1-.362-.13-.548.066.384.014-.144.008-.274,0-.085.017-.172.009-.255,0,.044-.1.335-.022.15.026-.063.026-.144.048-.21.1-.3-.092.182.063-.15.449-.955.891-1.912,1.354-2.861.8-1.632,1.643-3.239,2.456-4.863a2.078,2.078,0,0,0-.728-2.775,2.048,2.048,0,0,0-2.775.728" transform="translate(-30.359 -42.79)" fill="#211715"/>
    <path id="パス_920" data-name="パス 920" d="M185.388,306.389c6.616-2.763,13.175-5.664,19.737-8.551q11.365-5,22.7-10.065c2.531-1.131,5.063-2.259,7.582-3.416a2.044,2.044,0,0,0,.728-2.775,2.075,2.075,0,0,0-2.774-.727c-13.224,6.072-26.572,11.891-39.913,17.7q-2.681,1.166-5.366,2.322-1.123.483-2.247.961c-.167.071-1.148.485-.643.273l-.884.37a2.1,2.1,0,0,0-1.416,2.5,2.04,2.04,0,0,0,2.494,1.416" transform="translate(-28.341 -43.514)" fill="#211715"/>
    <path id="パス_921" data-name="パス 921" d="M26.66,213.324c26.016.433,85.4.567,106.609.709a7.426,7.426,0,0,1,7.037,5.188c5.046,15.957,16.392,52.083,21.732,69.163a4.759,4.759,0,0,1-4.562,6.182c-22.979-.082-84.889-.3-108.691-.787a4.749,4.749,0,0,1-4.448-3.348c-4.694-15.177-16.747-53.426-22.3-70.9a4.764,4.764,0,0,1,4.623-6.208" transform="translate(-3.381 -33.08)" fill="#fff"/>
    <path id="パス_922" data-name="パス 922" d="M26.291,214.98c12.151.2,24.3.279,36.455.357q21.292.137,42.585.217,8.957.039,17.914.081,3.5.016,7,.037c2.592.015,5.257-.142,6.971,2.215a12.669,12.669,0,0,1,1.481,3.753l1.194,3.784q1.425,4.517,2.847,9.034,3.3,10.5,6.6,21,3.248,10.346,6.494,20.693,1.368,4.364,2.733,8.727c.657,2.1,2.58,5.732-.274,7.037a7.929,7.929,0,0,1-3.235.244l-3.358-.012-7.749-.029q-9.264-.037-18.527-.079-21.075-.1-42.149-.25c-11.4-.089-22.8-.174-34.2-.4a3.051,3.051,0,0,1-3.056-1.6,27.107,27.107,0,0,1-1.011-3.229q-1.222-3.932-2.45-7.86-3.069-9.816-6.156-19.625-6.062-19.28-12.17-38.546c-.356-1.121-1.017-2.417-.653-3.583a2.778,2.778,0,0,1,2.713-1.972c2.608-.034,2.615-4.089,0-4.056a6.873,6.873,0,0,0-6.722,8.21,39.784,39.784,0,0,0,1.2,3.9q.664,2.094,1.327,4.188,3.172,10.016,6.33,20.037,6.257,19.85,12.461,39.718c.932,3,1.563,6.307,4.7,7.783,2.372,1.117,5.527.725,8.1.766q8.676.136,17.353.21,21.435.207,42.871.3,18.984.1,37.97.164l3.423.012a11.155,11.155,0,0,0,4.292-.475,6.877,6.877,0,0,0,4.038-4.391,8.624,8.624,0,0,0-.446-5.248q-2.929-9.365-5.868-18.726-6.609-21.068-13.244-42.127a66.425,66.425,0,0,0-2.717-8.261c-1.717-3.658-5.362-5.334-9.236-5.359q-7.578-.048-15.155-.078-21.037-.1-42.076-.2c-13.681-.074-27.363-.155-41.044-.322q-3.782-.047-7.564-.107c-2.611-.043-2.612,4.013,0,4.056" transform="translate(-3.012 -32.708)" fill="#211715"/>
    <path id="パス_923" data-name="パス 923" d="M200.192,18.146c6.422,6.615,9.309,13.232,8.978,27.455-.13,5.577-1.919,10.912-4.111,15.865a5.179,5.179,0,0,0-4.306-2.951,5.734,5.734,0,0,0-4.14.922L188.6,57.98l-.444-1.764a30.34,30.34,0,0,0-3.089-7.964,20.774,20.774,0,0,0-10.1-8.9s-1.87-.814-2.764-1.088c-4.125-1.267-14.888-1.948-14.888-1.948a119.087,119.087,0,0,0-14.748-.215,9.4,9.4,0,0,0-5.257,1.524c-1.977,1.492-2.776,4.074-4,6.255-2.128,3.784-6.734,5.555-7.7,9.866l-1.017.092a66.717,66.717,0,0,1-.689-9.813c-.179-10.332,3.937-20.7,9-25.41a39.393,39.393,0,0,1,7.813-7.734,45.093,45.093,0,0,1,27.5-8.446c9.768.113,19.653,2.462,27.016,10.633Z" transform="translate(-19.206 -0.377)" fill="#645d5c"/>
    <path id="パス_924" data-name="パス 924" d="M168.435,76.787c-.5-1.843,0-6.027,3.466-6.273,4.568.175,4.647,5.256,3.033,7.593-1.322,1.912-5.05,2.6-6.5-1.32" transform="translate(-26.086 -10.935)" fill="#211715"/>
    <path id="パス_925" data-name="パス 925" d="M136.307,76.755c-.461-1.849,0-6.046,3.175-6.293,4.183.175,4.255,5.272,2.777,7.616-1.211,1.919-4.625,2.614-5.951-1.323" transform="translate(-21.108 -10.926)" fill="#211715"/>
    <path id="パス_926" data-name="パス 926" d="M152.405,82.6c-.589,1-1.154,2.011-1.654,3.055a4.566,4.566,0,0,0-.542,1.8,2.633,2.633,0,0,0,.887,2.074,3.97,3.97,0,0,0,1.636.929,9.342,9.342,0,0,0,1.2.158l-.539-.073.045.007a1.531,1.531,0,0,0,.809.035,1.509,1.509,0,0,0,.754-.24,2.028,2.028,0,0,0,.728-2.775,1.951,1.951,0,0,0-1.212-.932c-.341-.049-.683-.079-1.023-.123l.539.073a2.032,2.032,0,0,1-.451-.12l.485.2a2.118,2.118,0,0,1-.376-.221l.41.317a2.308,2.308,0,0,1-.313-.29l.317.41a.515.515,0,0,1-.065-.11q.1.242.2.484a.857.857,0,0,1-.048-.184c.024.18.048.36.073.539a1.3,1.3,0,0,1,0-.2c-.024.179-.048.359-.072.539a2.078,2.078,0,0,1,.14-.482q-.1.242-.2.484a31.281,31.281,0,0,1,1.777-3.314,2.028,2.028,0,0,0-3.5-2.047" transform="translate(-23.286 -12.655)" fill="#211715"/>
    <path id="パス_927" data-name="パス 927" d="M209.539,71.1a4.141,4.141,0,0,1,3.852-.416,2.728,2.728,0,0,1,1.7,1.477c1.079,2.179.507,5.346-.252,7.572a13.671,13.671,0,0,1-4.3,6.213,6.943,6.943,0,0,1-3.085,1.439,6.031,6.031,0,0,1-3.76-.073,2.089,2.089,0,0,0-2.775.727,2.044,2.044,0,0,0,.728,2.774,11.219,11.219,0,0,0,9.186-.312,14.63,14.63,0,0,0,6.254-6.127,18.727,18.727,0,0,0,2.547-8.178c.185-2.636-.232-5.556-2.107-7.551A8.149,8.149,0,0,0,207.492,67.6c-2.159,1.444-.13,4.959,2.047,3.5" transform="translate(-31.108 -10.287)" fill="#211715"/>
    <path id="パス_928" data-name="パス 928" d="M155.6,103.464c.144-.082.293-.154.44-.232.384-.2-.309.113-.066.022.084-.031.167-.066.252-.1a9.917,9.917,0,0,1,1.15-.341c.192-.045.384-.085.577-.121.1-.018.2-.033.294-.05.488-.085-.307.027-.019,0,.427-.039.85-.079,1.279-.086a11.712,11.712,0,0,1,1.18.038c.072.006.487.067.157.009l.078.014c.179.03.357.065.534.106a17.623,17.623,0,0,1,2.516.881,2.033,2.033,0,0,0,2.494-1.416,2.089,2.089,0,0,0-1.416-2.494,16.467,16.467,0,0,0-2.647-.911,13.514,13.514,0,0,0-8.852,1.173,2.028,2.028,0,1,0,2.047,3.5" transform="translate(-23.649 -15.275)" fill="#211715"/>
    <path id="パス_929" data-name="パス 929" d="M183.95,114.483a46.269,46.269,0,0,0,10.969-7.871,44.076,44.076,0,0,0,4.8-5.8,36.937,36.937,0,0,0,3.191-5.2,2.081,2.081,0,0,0-.728-2.775,2.047,2.047,0,0,0-2.775.727,39.512,39.512,0,0,1-17.5,17.417c-2.312,1.213-.264,4.715,2.047,3.5" transform="translate(-28.042 -14.355)" fill="#211715"/>
    <path id="パス_930" data-name="パス 930" d="M122.933,67.015c.848,6.352,1.269,12.761,2.192,19.1a39.773,39.773,0,0,0,4.749,14.537c5.366,9.09,16.077,14.4,26.484,14.263a45.775,45.775,0,0,0,18.606-4.711,2.045,2.045,0,0,0,.728-2.775,2.076,2.076,0,0,0-2.775-.727c-8.838,4.082-19.3,6.058-28.415,1.65a25.762,25.762,0,0,1-10.561-8.835,34.565,34.565,0,0,1-4.694-13.139c-1.086-6.4-1.4-12.933-2.258-19.364a2.1,2.1,0,0,0-2.028-2.028c-.983,0-2.174.934-2.028,2.028" transform="translate(-19.056 -10.077)" fill="#211715"/>
    <path id="パス_931" data-name="パス 931" d="M196.29,11.259A34.064,34.064,0,0,0,177.256.93a52.529,52.529,0,0,0-22.321.569,44.437,44.437,0,0,0-19.141,10.146,38.5,38.5,0,0,0-3.964,4.194c-1.038,1.294-2.208,2.457-3.21,3.791a34.313,34.313,0,0,0-4.866,9.661c-2.995,8.872-2.683,18.452-1.027,27.561a2.047,2.047,0,0,0,2.5,1.416,2.072,2.072,0,0,0,1.416-2.494c-1.351-7.435-1.721-15.3.206-22.659a34.668,34.668,0,0,1,3.943-9.477,19.791,19.791,0,0,1,2.435-3.234c1.209-1.278,2.257-2.693,3.478-3.969,9.492-9.917,23.679-13.646,37.183-11.959a31.153,31.153,0,0,1,19.538,9.651c1.762,1.933,4.624-.941,2.868-2.868" transform="translate(-18.833 0)" fill="#211715"/>
    <path id="パス_932" data-name="パス 932" d="M221.736,61.917a44.2,44.2,0,0,0,2.9-11.058,52.634,52.634,0,0,0,0-10.523,33.681,33.681,0,0,0-4.376-14.8,36.441,36.441,0,0,0-5-6.315c-1.817-1.88-4.683.989-2.868,2.869a27.548,27.548,0,0,1,6.657,10.443A45.276,45.276,0,0,1,220.73,49.1a38.462,38.462,0,0,1-2.906,11.744,2.042,2.042,0,0,0,1.417,2.494,2.076,2.076,0,0,0,2.494-1.417" transform="translate(-32.836 -2.885)" fill="#211715"/>
    <path id="パス_933" data-name="パス 933" d="M157.257,40.061a87.7,87.7,0,0,0-14.672-.22c-3.634.188-6.766,1.308-8.812,4.463-.831,1.282-1.4,2.711-2.123,4.05a12.21,12.21,0,0,1-2.356,2.949c-2.346,2.27-4.885,4.358-5.7,7.677-.625,2.534,3.285,3.615,3.911,1.078.586-2.372,2.543-3.89,4.248-5.494a20.24,20.24,0,0,0,2.712-3.041,29.02,29.02,0,0,0,1.965-3.675,7.672,7.672,0,0,1,2.133-2.9,7.544,7.544,0,0,1,4.025-1.05c2.156-.112,4.32-.127,6.479-.123a71.087,71.087,0,0,1,8.193.342,2.04,2.04,0,0,0,2.028-2.028,2.077,2.077,0,0,0-2.028-2.028" transform="translate(-19.149 -6.147)" fill="#211715"/>
    <path id="パス_934" data-name="パス 934" d="M182.945,47.517a19.549,19.549,0,0,1,7.841,5.917,26.423,26.423,0,0,1,4.412,9.732c.646,2.527,4.559,1.457,3.911-1.078a30,30,0,0,0-5.138-11.113,23.142,23.142,0,0,0-8.98-6.961,2.091,2.091,0,0,0-2.775.727,2.044,2.044,0,0,0,.728,2.775" transform="translate(-28.208 -6.789)" fill="#211715"/>
    <path id="パス_935" data-name="パス 935" d="M175.454,42.48a10.335,10.335,0,0,0-3.322-5.627A15.347,15.347,0,0,0,163.42,33a2.031,2.031,0,0,0-2.028,2.028,2.091,2.091,0,0,0,2.028,2.028c-.542-.068.165.03.264.047.155.028.31.057.465.09q.525.11,1.038.26.492.144.972.324l.265.1c-.267-.115-.3-.128-.1-.041.126.058.252.114.376.173a12.35,12.35,0,0,1,1.594.92c.138.094.272.193.407.291.339.244-.316-.264-.025-.016.226.193.453.383.668.586a14.658,14.658,0,0,1,1.049,1.148c.091.106-.311-.422-.034-.035.069.1.137.193.2.292.126.189.245.384.357.581s.2.378.295.572.109.472-.048-.127c.025.093.072.184.1.274a5.521,5.521,0,0,1,.268,1.052,2.035,2.035,0,0,0,2.5,1.417,2.091,2.091,0,0,0,1.416-2.5" transform="translate(-25.02 -5.116)" fill="#211715"/>
    <path id="パス_936" data-name="パス 936" d="M214.155,125.707a25.8,25.8,0,0,1,2.242,3.941,9.958,9.958,0,0,1,.964,2.64V131.21q.837-1.15.428-.777.482-.361.216-.178a1.868,1.868,0,0,0-.29.178c-.323.193-.657.368-.99.543-.908.478-1.828.932-2.75,1.382-1.886.923-3.786,1.816-5.677,2.73a2.048,2.048,0,0,0-.411,3.185c1.719,1.849,3.45,3.686,5.125,5.574.5.561,1.688,1.487,1.725,2.3.023.5-.55,1.094-.82,1.506-1.718,2.618-3.4,5.259-5.08,7.9-4.4,6.923-8.781,13.865-13.235,20.757-2.489,3.853-5,7.691-7.572,11.49-1.467,2.167,2.046,4.2,3.5,2.047,9.018-13.325,17.3-27.123,26.154-40.555a5.258,5.258,0,0,0,1.078-3.457,6.68,6.68,0,0,0-1.959-3.8c-1.96-2.262-4.013-4.439-6.05-6.631q-.205,1.593-.41,3.185c3.1-1.5,6.318-2.858,9.3-4.589a3.642,3.642,0,0,0,1.408-1.194,3.1,3.1,0,0,0-.08-2.651,27.3,27.3,0,0,0-3.317-6.5,2.084,2.084,0,0,0-2.775-.727,2.045,2.045,0,0,0-.728,2.775" transform="translate(-29.095 -19.021)" fill="#211715"/>
    <path id="パス_937" data-name="パス 937" d="M151.052,122.206c.712,7.918,2.6,15.806,4.363,23.541a264.5,264.5,0,0,0,6.907,25.9c1.94,5.75,4.3,11.365,6.542,17a2.09,2.09,0,0,0,2.494,1.416,2.041,2.041,0,0,0,1.416-2.494c-2.083-5.249-4.232-10.48-6.125-15.8-1.276-3.583-2.314-7.255-3.311-10.923q-3.735-13.737-6.468-27.737c-.417-2.135-.812-4.275-1.161-6.421-.143-.88-.278-1.763-.4-2.646.056.411,0-.028-.023-.191q-.033-.267-.065-.535c-.042-.37-.081-.74-.114-1.111a2.082,2.082,0,0,0-2.028-2.028,2.043,2.043,0,0,0-2.028,2.028" transform="translate(-23.416 -18.636)" fill="#211715"/>
    <path id="パス_938" data-name="パス 938" d="M201.286,112.081c-1.528,6.559-3.753,12.9-5.915,19.273-1.619,4.771-3.22,9.542-4.964,14.271-3.6,9.764-7.454,19.439-11.439,29.053-1.492,3.6-2.889,6.952-4.519,10.585a2.09,2.09,0,0,0,.728,2.774,2.043,2.043,0,0,0,2.774-.727c3.44-7.668,6.584-15.477,9.694-23.283,3.842-9.641,7.576-19.335,10.832-29.191,2.374-7.19,5-14.289,6.721-21.677.591-2.539-3.319-3.623-3.911-1.078" transform="translate(-27.007 -17.155)" fill="#211715"/>
    <path id="パス_939" data-name="パス 939" d="M130.542,129.762c.849-1.249,3.052-4.753,3.958-5.948,1.638-2.171,2.34-4.452,4.886-5.729,2.132-1.071,6.749-1.31,9.066-1.528,2.345-.218,4.159-.251,5.864.733a3.791,3.791,0,0,1,1.888,2.044,3.177,3.177,0,0,1-2.113,3.773c-2.376.727-4.684,1.05-7.108,1.6a7.414,7.414,0,0,0-3.618,1.461c-.9.854-1.583,3.092-2.162,4.827" transform="translate(-20.237 -18.055)" fill="#fff"/>
    <path id="パス_940" data-name="パス 940" d="M131.907,130.415c1.54-2.28,3.087-4.567,4.6-6.863.837-1.272,1.527-2.777,2.81-3.673a9.5,9.5,0,0,1,4.087-1.21c1.477-.209,2.969-.3,4.455-.434,1.536-.136,3.3-.4,4.749.268.956.443,1.83,1.282.89,2.09a5.791,5.791,0,0,1-2.3.714c-1.173.275-2.357.5-3.539.734-2.161.438-4.674.785-6.261,2.476-1.379,1.47-1.917,3.705-2.536,5.567-.826,2.482,3.09,3.547,3.911,1.078.488-1.468.846-3.717,2.32-4.339a15.842,15.842,0,0,1,2.848-.709c1.313-.278,2.635-.513,3.943-.808,2.226-.5,4.484-1.085,5.519-3.336a4.91,4.91,0,0,0-1.2-5.9c-3.186-2.773-7.536-2.013-11.389-1.62a25.31,25.31,0,0,0-5.507.966,9.541,9.541,0,0,0-4.76,3.686c-2.151,3.01-4.073,6.2-6.145,9.267-1.464,2.169,2.048,4.2,3.5,2.047" transform="translate(-19.852 -17.685)" fill="#211715"/>
    <path id="パス_941" data-name="パス 941" d="M133.814,131.207a44.044,44.044,0,0,1,20.316-.41,5.508,5.508,0,0,1,2.646,1.162,4.481,4.481,0,0,1,.628,1.775,5.046,5.046,0,0,1-.978,3.321L155,138.639a4.584,4.584,0,0,1,2.685,2.133,4.419,4.419,0,0,1-.249,4.217l-1.42,1.82a5.76,5.76,0,0,1,1.148,1.278,4.959,4.959,0,0,1,.279,3.914c-.583,1.969-1,3.386-1.653,5.313a17.451,17.451,0,0,1-1.6,3.572,4.573,4.573,0,0,1-2.911,2.166,3.267,3.267,0,0,1-3.645-3.257l-.327-.057c-.679,2.347-1.373,4.712-1.877,6.2-.417,1.221-1.161,3.254-1.676,4.446-.08.192-.368.851-.669,1.521-4.993-2.221-11.516-4.933-16.388-6.925.246-1.267.464-2.387.464-2.387a61.535,61.535,0,0,0,.558-7.316q.293-8.584.589-17.146a7.322,7.322,0,0,1,1.044-3.908,8.1,8.1,0,0,1,4.455-3.019" transform="translate(-19.642 -20.129)" fill="#fff"/>
    <path id="パス_942" data-name="パス 942" d="M124.381,171.513a42.748,42.748,0,0,0,8.292,4.452,94.257,94.257,0,0,0,10.738,4.015c2.5.755,3.575-3.158,1.078-3.91a86.119,86.119,0,0,1-10.037-3.724,41.989,41.989,0,0,1-8.024-4.335,2.043,2.043,0,0,0-2.775.727,2.075,2.075,0,0,0,.728,2.775" transform="translate(-19.127 -26.007)" fill="#211715"/>
    <path id="パス_943" data-name="パス 943" d="M135.293,132.8a42.49,42.49,0,0,1,14.07-1.15,23.807,23.807,0,0,1,6.333,1.06c.1.04.585.337.428.146a4.256,4.256,0,0,1,.223.815,3.909,3.909,0,0,1-.415,1.588,2.091,2.091,0,0,0,0,2.868,2.043,2.043,0,0,0,2.869,0,6.624,6.624,0,0,0,.8-7.351c-1.309-2.242-4.716-2.474-6.993-2.8a47.675,47.675,0,0,0-18.391.91c-2.532.629-1.459,4.542,1.078,3.911" transform="translate(-20.583 -19.769)" fill="#211715"/>
    <path id="パス_944" data-name="パス 944" d="M141.612,140.511a50.022,50.022,0,0,1,12.276.485,7.409,7.409,0,0,1,3.588,1.187,2.2,2.2,0,0,1,.209,2.782,2.046,2.046,0,0,0,.728,2.775,2.071,2.071,0,0,0,2.774-.727,6.331,6.331,0,0,0,.249-6.264,7.356,7.356,0,0,0-4.993-3.388,48.671,48.671,0,0,0-6.98-.907,39.251,39.251,0,0,0-7.851,0,2.089,2.089,0,0,0-2.029,2.028,2.042,2.042,0,0,0,2.029,2.028" transform="translate(-21.639 -21.129)" fill="#211715"/>
    <path id="パス_945" data-name="パス 945" d="M142.768,148.655c3.115.226,6.229.473,9.334.82,1.814.2,5.437.2,5.747,2.661.161,1.285-.481,2.64-.845,3.844a42.214,42.214,0,0,1-1.558,4.612c-.4.925-.962,2.23-1.971,2.648a1.2,1.2,0,0,1-1.628-1.153,2.08,2.08,0,0,0-2.028-2.028,2.043,2.043,0,0,0-2.028,2.028,5.5,5.5,0,0,0,2.131,4.247,5.127,5.127,0,0,0,4.763.764c3.328-1.237,4.555-4.843,5.568-7.931.946-2.887,2.509-6.389,1.086-9.36a7.233,7.233,0,0,0-3.049-3.089,13.007,13.007,0,0,0-4.725-1.128c-3.589-.432-7.19-.729-10.8-.99a2.046,2.046,0,0,0-2.028,2.028,2.067,2.067,0,0,0,2.028,2.028" transform="translate(-21.818 -22.422)" fill="#211715"/>
    <path id="パス_946" data-name="パス 946" d="M147.61,176.633a48.554,48.554,0,0,0,3.4-9.14c.886-2.968,1.7-5.958,2.607-8.919.766-2.5-3.148-3.571-3.911-1.078-.883,2.885-1.679,5.8-2.539,8.688-.379,1.278-.764,2.555-1.2,3.813a32.425,32.425,0,0,1-1.851,4.589c-1.236,2.3,2.264,4.349,3.5,2.047" transform="translate(-22.3 -24.203)" fill="#211715"/>
    <path id="パス_947" data-name="パス 947" d="M132.995,129.133a9.742,9.742,0,0,0-6.009,4.534c-1.4,2.709-1.041,6.2-1.142,9.155q-.165,4.81-.332,9.619a82.531,82.531,0,0,1-.579,9.5,2.093,2.093,0,0,0,1.417,2.494,2.043,2.043,0,0,0,2.494-1.416c.88-5.821.766-11.813.968-17.686q.077-2.2.151-4.389a31.467,31.467,0,0,1,.19-4.024,5.01,5.01,0,0,1,3.918-3.873c2.506-.715,1.441-4.629-1.077-3.911" transform="translate(-19.363 -20.011)" fill="#211715"/>
    <path id="パス_948" data-name="パス 948" d="M178.16,63.009l2.248,2.07a2.127,2.127,0,0,0,1.434.594,2.246,2.246,0,0,0,1.434-.594,2.028,2.028,0,0,0,0-2.868l-2.248-2.07a2.125,2.125,0,0,0-1.434-.594,2.258,2.258,0,0,0-1.434.594,2.028,2.028,0,0,0,0,2.868" transform="translate(-27.527 -9.234)" fill="#211715"/>
    <path id="パス_949" data-name="パス 949" d="M68.326,177.949a10.377,10.377,0,0,0,4.26-3.548,7.343,7.343,0,0,0,.96-6.453c-2.112-5.795-9.5-3.653-13.548-1.449a9.323,9.323,0,0,0-3.131,2.341,3.05,3.05,0,0,0,.208,3.984c1.857,1.8,4.668.956,6.788.22,4.756-1.652,10.1-4.534,12.024-9.484a6.785,6.785,0,0,0-1.082-6.893,8.748,8.748,0,0,0-6.671-2.783,31.075,31.075,0,0,0-8.107,1.491,35.168,35.168,0,0,0-5.92,2.113,24.44,24.44,0,0,0-5.214,3.417c-1.774,1.485-4.525,3.711-3.14,6.311,1.135,2.131,3.886,2.2,5.951,1.812a53.3,53.3,0,0,0,6.752-1.7,48.45,48.45,0,0,0,12.36-6.246c2.072-1.421,4.139-2.857,5.4-5.1a7.79,7.79,0,0,0,.292-7.544c-2.346-4.317-8.457-4.182-12.615-3.589a60.558,60.558,0,0,0-15.4,4.549,29.532,29.532,0,0,0-6.392,3.661,9.069,9.069,0,0,0-3.509,4.629,3.767,3.767,0,0,0,1.548,4.394,5.632,5.632,0,0,0,3.3.434,34.166,34.166,0,0,0,9.434-2.99,115.6,115.6,0,0,0,11.049-5.544q2.766-1.559,5.453-3.25a30.165,30.165,0,0,0,4.95-3.462c2.8-2.708,4.826-8.475,1.252-11.424a10.721,10.721,0,0,0-5.788-1.941,21.191,21.191,0,0,0-5.946.22,62.646,62.646,0,0,0-14.874,4.6A37.231,37.231,0,0,0,43,142.122a2.081,2.081,0,0,0-.728,2.775,2.045,2.045,0,0,0,2.774.727c5.048-3.537,10.886-5.493,16.834-6.913a22,22,0,0,1,7.77-.761,9.9,9.9,0,0,1,2.771.662,4.152,4.152,0,0,1,.539.308c-.33-.23.281.293.113.093-.129-.154.179.312.2.357a2.4,2.4,0,0,1,.13.578c.225,2.176-1.387,4.166-3.071,5.316-2.047,1.4-4.152,2.712-6.289,3.969a112.471,112.471,0,0,1-13.689,6.993,36.773,36.773,0,0,1-6.24,2.1c-.221.048-.444.09-.668.131-.079.015-.158.025-.237.039-.295.05.5-.039.01,0-.335.024-.662.039-1,.035-.513,0,.03.028.035.019a1.466,1.466,0,0,1-.385-.1c.161.133.409.221.127.035.121.079.33.325.085.023l.521.9c-.013-.037-.244-.646-.1-.217-.018-.055.02-.66-.038-.222a1.528,1.528,0,0,1,.212-.662,6.528,6.528,0,0,1,1.639-1.844,24.951,24.951,0,0,1,6.227-3.551,65.61,65.61,0,0,1,7.479-2.569,45.6,45.6,0,0,1,7.05-1.581c2.933-.372,9.875-.357,7.962,4.543-.846,2.166-2.986,3.432-4.823,4.667a50.811,50.811,0,0,1-5.985,3.5,38.511,38.511,0,0,1-5.889,2.279c-1.094.329-2.2.616-3.313.872a14.691,14.691,0,0,1-3.178.577,3.667,3.667,0,0,1-.7-.121l-.093-.052a.651.651,0,0,1,.351.45c.244.809-.292.613.229.28a10.456,10.456,0,0,0,1.2-1.152c.454-.416.919-.825,1.4-1.2a20.109,20.109,0,0,1,4.8-2.787,42.119,42.119,0,0,1,5.912-1.785c2.307-.561,5.088-1.459,7.406-.486a2.915,2.915,0,0,1,1.575,4.227,11.246,11.246,0,0,1-4.751,4.528,24.384,24.384,0,0,1-4.039,1.921q-1.046.38-2.12.673a4.711,4.711,0,0,1-.772.191c.184-.018-.615.068-.422-.039.034-.019.094.166.123.123q-.284,1.848.248,1.206.3-.212.6-.412a17.943,17.943,0,0,1,1.9-1.085,15.779,15.779,0,0,1,3.993-1.316c.914-.175,2.216-.327,2.828.482a2.723,2.723,0,0,1,.277,2,5.3,5.3,0,0,1-1.281,2.276c-.03.035-.487.445-.135.169a4.328,4.328,0,0,1-.471.307c-.526.313-1.082.578-1.624.862-2.312,1.214-.264,4.716,2.047,3.5" transform="translate(-5.958 -20.747)" fill="#211715"/>
    <path id="パス_950" data-name="パス 950" d="M23.442,8.353c0,10.7-.008,24.566-.01,35.349A3.563,3.563,0,0,0,27,47.267c12.4,0,38.794.016,51.756.018a3.563,3.563,0,0,0,3.567-3.565c0-10.78,0-24.643.01-35.346a3.561,3.561,0,0,0-3.563-3.567L27.01,4.789a3.563,3.563,0,0,0-3.567,3.564" transform="translate(-3.633 -0.743)" fill="#fff"/>
    <path id="パス_951" data-name="パス 951" d="M21.208,8.073,21.2,32.52q0,3.063,0,6.127a31.677,31.677,0,0,0,.117,5.707,5.588,5.588,0,0,0,3.536,4.11,12,12,0,0,0,4.236.352q19.527.005,39.053.014l8.508,0c1.619,0,3.2.035,4.621-.884a5.719,5.719,0,0,0,2.569-4.691c.147-3.991,0-8.016,0-12.01q0-6.243,0-12.486l0-6.105A27.389,27.389,0,0,0,83.7,6.84,5.611,5.611,0,0,0,80.2,2.868a10.711,10.711,0,0,0-3.82-.352L59.838,2.511,40.293,2.5l-8.508,0c-2.471,0-5.7-.517-7.893.806a5.724,5.724,0,0,0-2.684,4.766c-.106,2.61,3.95,2.6,4.056,0,.045-1.1.894-1.512,1.88-1.517,1.028-.007,2.058,0,3.087,0l7.63,0,17.924.006,16.787.006h3.238a14.015,14.015,0,0,1,2.782.032c1.322.289,1.2,1.577,1.2,2.643l0,5.349q-.006,11.6-.008,23.191c0,1.768.025,3.539,0,5.307a1.59,1.59,0,0,1-1.728,1.684c-2.527.025-5.056,0-7.584,0q-18.529-.005-37.058-.014H29.652a12.428,12.428,0,0,1-3.328-.071c-1.27-.391-1.071-1.716-1.071-2.778q0-2.786,0-5.57,0-11.5.007-23.006,0-2.631,0-5.263c0-2.61-4.055-2.614-4.056,0" transform="translate(-3.275 -0.372)" fill="#211715"/>
    <path id="パス_952" data-name="パス 952" d="M28.436,14.316q9.213,8.152,18.741,15.94,1.071.873,2.147,1.74a13.839,13.839,0,0,0,2.452,1.837c2.211,1.065,3.9-.248,5.579-1.571q5.128-4.049,10.107-8.284,5.673-4.8,11.215-9.761c1.953-1.741-.924-4.6-2.868-2.869C69.744,16.75,63.6,22.062,57.279,27.164q-1.082.875-2.173,1.74c-.412.326-.82.657-1.238.978-.126.1-.248.2-.379.285-.192.13-.02-.019.121.04a7.7,7.7,0,0,1-1.561-1.192q-1.15-.928-2.294-1.862-4.449-3.632-8.823-7.356Q36.077,15.67,31.3,11.448c-1.949-1.725-4.827,1.134-2.868,2.868" transform="translate(-4.307 -1.676)" fill="#211715"/>
    <path id="パス_953" data-name="パス 953" d="M256.748,8.353c0,10.7-.008,24.566-.01,35.349a3.563,3.563,0,0,0,3.566,3.566c12.4,0,38.794.016,51.756.018a3.563,3.563,0,0,0,3.567-3.565c0-10.78,0-24.643.01-35.346a3.561,3.561,0,0,0-3.563-3.567l-51.758-.018a3.563,3.563,0,0,0-3.567,3.564" transform="translate(-39.801 -0.743)" fill="#fff"/>
    <path id="パス_954" data-name="パス 954" d="M254.514,8.073q0,12.224-.008,24.447,0,3.063,0,6.127a31.678,31.678,0,0,0,.117,5.707,5.588,5.588,0,0,0,3.536,4.11,12,12,0,0,0,4.236.352q19.527.005,39.053.014l8.508,0c1.619,0,3.2.035,4.621-.884a5.719,5.719,0,0,0,2.569-4.691c.147-3.991,0-8.016,0-12.01q0-6.243,0-12.486l0-6.105a27.39,27.39,0,0,0-.144-5.817A5.611,5.611,0,0,0,313.5,2.868a10.71,10.71,0,0,0-3.82-.352l-16.539-.005L273.6,2.5l-8.508,0c-2.471,0-5.7-.517-7.893.806a5.724,5.724,0,0,0-2.684,4.766c-.106,2.61,3.95,2.6,4.056,0,.045-1.1.894-1.512,1.88-1.517,1.028-.007,2.058,0,3.087,0l7.63,0,17.924.006,16.787.006h3.238A14.015,14.015,0,0,1,311.9,6.6c1.322.289,1.2,1.577,1.2,2.643l0,5.349q-.006,11.6-.008,23.191c0,1.768.025,3.539,0,5.307a1.59,1.59,0,0,1-1.728,1.684c-2.527.025-5.056,0-7.584,0q-18.529-.005-37.058-.014h-3.762a12.428,12.428,0,0,1-3.328-.071c-1.27-.391-1.071-1.716-1.071-2.778q0-2.786,0-5.57,0-11.5.007-23.006,0-2.631,0-5.263c0-2.61-4.055-2.614-4.056,0" transform="translate(-39.443 -0.372)" fill="#211715"/>
    <path id="パス_955" data-name="パス 955" d="M261.742,14.316q9.213,8.152,18.741,15.94,1.071.873,2.147,1.74a13.838,13.838,0,0,0,2.452,1.837c2.211,1.065,3.9-.248,5.579-1.571q5.128-4.049,10.107-8.284,5.673-4.8,11.215-9.761c1.953-1.741-.924-4.6-2.868-2.869-6.064,5.4-12.209,10.715-18.529,15.816q-1.082.875-2.173,1.74c-.411.326-.82.657-1.238.978-.126.1-.248.2-.379.285-.192.13-.02-.019.121.04a7.7,7.7,0,0,1-1.561-1.192q-1.15-.928-2.294-1.862-4.449-3.632-8.823-7.356-4.856-4.125-9.628-8.347c-1.949-1.725-4.827,1.134-2.868,2.868" transform="translate(-40.475 -1.676)" fill="#211715"/>
    <path id="パス_956" data-name="パス 956" d="M49.663,61.888c4.223,4.721,8.72,10.091,14.176,13.693a.524.524,0,0,1-.345.96l-5.829-.628a.529.529,0,0,0-.559.7c4.614,13.091,16.748,28.116,28.226,38.4a.644.644,0,0,1-.745,1.041,81.651,81.651,0,0,1-19.854-15.2c-6.282-6.5-11.186-12.321-13.92-20.269a.5.5,0,0,0-.8-.226c-1.3,1.109-3.181,2.574-4.936,4.007a.524.524,0,0,1-.852-.473,210.649,210.649,0,0,1,4.547-21.781.521.521,0,0,1,.892-.218" transform="translate(-6.855 -9.57)" fill="#f60"/>
    <path id="パス_957" data-name="パス 957" d="M293.062,61.888c-4.223,4.721-8.72,10.091-14.176,13.693a.524.524,0,0,0,.345.96l5.829-.628a.529.529,0,0,1,.559.7c-4.614,13.091-16.748,28.116-28.226,38.4a.644.644,0,0,0,.745,1.041,81.652,81.652,0,0,0,19.854-15.2c6.282-6.5,11.186-12.321,13.92-20.269a.5.5,0,0,1,.8-.226c1.3,1.109,3.181,2.574,4.936,4.007a.524.524,0,0,0,.852-.473,210.654,210.654,0,0,0-4.547-21.781.521.521,0,0,0-.892-.218" transform="translate(-39.868 -9.57)" fill="#06c"/>
  </g>
</svg>
