<svg id="グループ_211" data-name="グループ 211" xmlns="http://www.w3.org/2000/svg" xmlns:xlink="http://www.w3.org/1999/xlink" width="311.214" height="257.187" viewBox="0 0 311.214 257.187">
  <defs>
    <clipPath id="clip-path">
      <rect id="長方形_102" data-name="長方形 102" width="311.214" height="257.186" fill="none"/>
    </clipPath>
  </defs>
  <g id="グループ_210" data-name="グループ 210" clip-path="url(#clip-path)">
    <path id="パス_1904" data-name="パス 1904" d="M110.59,153.15a39.215,39.215,0,0,0-3.92-3.052c-.092-.067-.183-.13-.283-.2a28.18,28.18,0,0,0-6.092-3.081,36.878,36.878,0,0,0-13.834-2.533,32.551,32.551,0,0,0-21.414,7.683C57.14,158.95,52.4,168.66,53.614,184.516c1.7,11.905-2.1,24.74-1.208,34.556a12.5,12.5,0,0,0,5.8,9.289,95.13,95.13,0,0,0,28.115,4.652c14.914,0,30.132-5.514,30.132-5.514,6.357-2.357,6.462-6.357,6.512-8.685a24.537,24.537,0,0,0-1.252-8.436c-1.126-3.731-3.189-11.305-2.925-24.7h0a83.665,83.665,0,0,0,.212-11.639c-.3-7.484-3.466-15.94-8.264-20.747-.045-.045-.1-.093-.152-.141" transform="translate(-20.571 -56.786)" fill="#e0f0b2"/>
    <path id="パス_1905" data-name="パス 1905" d="M70.956,190.126c1.737-1.561,3.452-3.142,5.11-4.69-.129,1.887-.331,3.7-.637,5.6a.645.645,0,0,0,.836.722c7.078-2.408,13.592-6.542,17.822-11.768a78.767,78.767,0,0,0,3.594,8.365c1.7,3.347,5.973,9.137,9.729,10.132.984.371,2.265.737,3.249,1.107a5.154,5.154,0,0,1,6.385-.283,7.122,7.122,0,0,1,2.74,6.066,11.761,11.761,0,0,1-2.464,6.377,16.971,16.971,0,0,1-7.121,5.455,32.946,32.946,0,0,1-6.536,8.182,26.617,26.617,0,0,1-10.289,6.228,24.564,24.564,0,0,1-13.666.273,24.248,24.248,0,0,1-6.836-2.966,23.457,23.457,0,0,1-6.211-6.092,31.836,31.836,0,0,1-4.751-9.419,44.086,44.086,0,0,1-1.962-9.437c-.21-1.822-.295-3.36-.329-4.473.66-.486,1.5-1.152,2.255-1.684,2.961-2.312,6.054-4.972,9.083-7.694" transform="translate(-23.463 -70.836)" fill="#fff"/>
    <path id="パス_1906" data-name="パス 1906" d="M77.216,268.037c.275-.278.521-.572.792-.888A15.041,15.041,0,0,0,81,261.664a15.658,15.658,0,0,0,2.283.693,34.129,34.129,0,0,0,5.483.73,30.384,30.384,0,0,0,5.976-.509c1.128-.233,2.218-.5,3.277-.824a19.337,19.337,0,0,0,8.771-5.425,25.7,25.7,0,0,0,2.466,7.955c1.2,2.429,6.391,5.4,9.261,6.97-10.212,4.468-20.942,7.49-33.265,6.259-4.275-.427-10.289-2.7-13.228-6.591a26.411,26.411,0,0,0,4.306-2.141,5.855,5.855,0,0,0,.886-.744" transform="translate(-28.346 -100.881)" fill="#fff"/>
    <path id="パス_1907" data-name="パス 1907" d="M126.924,257.494a28.131,28.131,0,0,0,2.049,6.4,9.973,9.973,0,0,0,2.822,3.622,49.945,49.945,0,0,0,8.2,5.223c1.92,1.046,3.636-1.885,1.714-2.932-1.181-.643-2.358-1.294-3.513-1.984-.722-.432-1.437-.878-2.135-1.347-.629-.422-1.26-.87-1.722-1.247a12.568,12.568,0,0,1-1.516-1.425c-.032-.036-.324-.417-.1-.1-.078-.108-.155-.217-.226-.331a9.921,9.921,0,0,1-.54-1.08,24.673,24.673,0,0,1-1.756-5.7,1.714,1.714,0,0,0-2.089-1.186,1.733,1.733,0,0,0-1.186,2.089" transform="translate(-49.937 -100.496)" fill="#06c"/>
    <path id="パス_1908" data-name="パス 1908" d="M73.049,274.663a13.744,13.744,0,0,0,5.334-3.428,17.761,17.761,0,0,0,3.539-6.106,1.712,1.712,0,0,0-1.186-2.089,1.736,1.736,0,0,0-2.089,1.186c-.075.231-.155.46-.241.687-.015.039-.2.485-.051.138-.049.112-.1.224-.15.336a15.069,15.069,0,0,1-.727,1.373q-.378.635-.814,1.234c-.024.033-.263.354-.132.181s-.113.141-.138.172c-.163.2-.332.4-.5.59a10.474,10.474,0,0,1-.95.956c-.132.118.2-.125-.069.044-.137.088-.27.181-.408.267q-.319.2-.651.384a27.282,27.282,0,0,1-2.48,1.143,1.7,1.7,0,0,0-.609,2.323,1.752,1.752,0,0,0,2.323.609" transform="translate(-27.746 -103.503)" fill="#06c"/>
    <path id="パス_1909" data-name="パス 1909" d="M143.61,211.6a3.46,3.46,0,0,1,4.338-.011,5.658,5.658,0,0,1,1.853,5.134c-.557,4.643-4.659,8.058-8.679,9.813a1.709,1.709,0,0,0-.609,2.323,1.741,1.741,0,0,0,2.323.609,17.633,17.633,0,0,0,9.722-9.837c1.59-4.352.238-9.977-4.423-11.746a6.752,6.752,0,0,0-6.927,1.314c-1.606,1.49.8,3.887,2.4,2.4" transform="translate(-55.215 -81.645)" fill="#06c"/>
    <path id="パス_1910" data-name="パス 1910" d="M56.819,211.278A50.948,50.948,0,0,0,59.8,227.335a30.809,30.809,0,0,0,9.328,13.436,26.305,26.305,0,0,0,29.962,1.178,35.955,35.955,0,0,0,11.484-12.235c1.087-1.9-1.846-3.613-2.932-1.714a31.9,31.9,0,0,1-4.775,6.4,36.213,36.213,0,0,1-4.058,3.616A23.186,23.186,0,0,1,84.821,242.7a22.857,22.857,0,0,1-12.153-3.545,21.836,21.836,0,0,1-5.172-4.885,31.841,31.841,0,0,1-3.946-6.642,45.508,45.508,0,0,1-3.335-16.351c-.079-2.179-3.476-2.189-3.4,0" transform="translate(-22.361 -82.506)" fill="#06c"/>
    <path id="パス_1911" data-name="パス 1911" d="M106.425,147.529A33.784,33.784,0,0,0,94.2,142.422a40.082,40.082,0,0,0-14.591-.488,33.626,33.626,0,0,0-19.738,10.551,35.732,35.732,0,0,0-8.857,19.8,49.611,49.611,0,0,0-.391,6.573c.01,2.485.31,4.915.495,7.386a84.242,84.242,0,0,1-.589,15.093,117.407,117.407,0,0,0-1.056,14.017,18.792,18.792,0,0,0,.747,5.714,14.331,14.331,0,0,0,3.175,5.253,18.119,18.119,0,0,0,2.854,2.4,1.713,1.713,0,0,0,2.323-.609,1.732,1.732,0,0,0-.609-2.323,12.291,12.291,0,0,1-3.871-4.249,10.769,10.769,0,0,1-1.151-4.355,76.147,76.147,0,0,1,.685-13.06,125.14,125.14,0,0,0,1.026-14.476c-.022-2.414-.358-4.778-.509-7.178a57.53,57.53,0,0,1-.052-6.651A38.091,38.091,0,0,1,56.208,164.9a28.075,28.075,0,0,1,1.967-4.312q.6-1.073,1.278-2.1.3-.45.613-.89.183-.256.37-.508c.134-.18.195-.258.224-.3a34.029,34.029,0,0,1,3.234-3.57,27.191,27.191,0,0,1,3.22-2.7,30.941,30.941,0,0,1,9.785-4.553,35.148,35.148,0,0,1,24.833,2.708,26.427,26.427,0,0,1,2.979,1.785,1.712,1.712,0,0,0,2.323-.609,1.735,1.735,0,0,0-.609-2.323" transform="translate(-19.469 -55.683)" fill="#06c"/>
    <path id="パス_1912" data-name="パス 1912" d="M153.633,233.8c3.169-1.2,6.012-3.118,7.192-6.424.942-2.639.669-5.909.253-8.6-.4-2.562-1.3-5.006-1.914-7.518a65.045,65.045,0,0,1-1.358-7.514,98.206,98.206,0,0,1-.592-13.406l-1.246,1.637h0a1.791,1.791,0,0,0,1.247-1.637,65.831,65.831,0,0,0,.143-12.8,37.552,37.552,0,0,0-4.146-14.448,24.18,24.18,0,0,0-4.7-6.477c-1.6-1.487-4.006.909-2.4,2.4,3.19,2.967,5.2,7.305,6.453,11.408a42.525,42.525,0,0,1,1.566,12.219,60.017,60.017,0,0,1-.313,7.7l1.246-1.637h0a1.757,1.757,0,0,0-1.247,1.637A87.973,87.973,0,0,0,155.55,210.7c.415,1.9.968,3.755,1.5,5.625a23.246,23.246,0,0,1,.948,5.767c.018.659.008,1.321-.018,1.981-.007.177-.016.355-.029.532-.008.112-.019.223-.029.335-.04.494.052-.177-.015.129a12.361,12.361,0,0,1-.426,1.6c.124-.346.025-.052-.019.037-.075.149-.146.3-.228.444q-.109.194-.23.38c-.033.051-.4.532-.194.285a9.209,9.209,0,0,1-4.079,2.717,1.746,1.746,0,0,0-1.186,2.089,1.711,1.711,0,0,0,2.089,1.186" transform="translate(-57.297 -61.454)" fill="#06c"/>
    <path id="パス_1913" data-name="パス 1913" d="M113.8,179.613a49.821,49.821,0,0,0,5.118,10.966c2.092,3.1,4.827,6.511,8.3,8.127a1.747,1.747,0,0,0,2.323-.609,1.712,1.712,0,0,0-.609-2.323c-3-1.4-5.373-4.339-7.192-7.079a46.642,46.642,0,0,1-4.663-9.984,1.742,1.742,0,0,0-2.089-1.186,1.712,1.712,0,0,0-1.186,2.089" transform="translate(-44.757 -69.842)" fill="#06c"/>
    <path id="パス_1914" data-name="パス 1914" d="M92.381,177.7a32.882,32.882,0,0,1-7.6,6.738,42.7,42.7,0,0,1-4.638,2.61c-.792.384-1.594.748-2.411,1.078a13.729,13.729,0,0,1-2.609.931h.9q.539,1.689.616.885c.016-.1.03-.2.044-.3q.055-.368.106-.738c.074-.541.145-1.083.207-1.625.114-.979.2-1.959.269-2.942.109-1.542-1.891-2.141-2.9-1.2a197.371,197.371,0,0,1-15.177,13.108,1.754,1.754,0,0,0-.609,2.323,1.71,1.71,0,0,0,2.324.609,206.012,206.012,0,0,0,15.864-13.638l-2.9-1.2c-.107,1.522-.254,3.041-.482,4.55a3.39,3.39,0,0,0,.129,2.284,2.386,2.386,0,0,0,2.055,1.217,5.678,5.678,0,0,0,1.86-.527c.643-.239,1.281-.494,1.914-.76,1.238-.52,2.459-1.078,3.65-1.7a37.545,37.545,0,0,0,11.787-9.3,1.749,1.749,0,0,0,0-2.4,1.711,1.711,0,0,0-2.4,0" transform="translate(-22.965 -69.743)" fill="#06c"/>
    <path id="パス_1915" data-name="パス 1915" d="M15.531,326.131a7.947,7.947,0,0,0-3.28,3.864c.223,3.537,4.843,15.043,6.3,18.582a28.932,28.932,0,0,0,4.1,6.872,8.454,8.454,0,0,0,6.351,3.22c3.6-.056,8.534-4.245,9.584-7.519l.477-1.486c-.377,5.1-1.187,11.667-1.906,15.864h64.81l3.754-.668c4.834-.859,8.5-7.22,8.97-8.889,2.919-10.454,3.048-19.67,2.9-31.081-.09-2.724-.2-5.446-.306-8.163-.286-7.2-.848-15.886-4.28-22.219-3.194-5.894-12.122-11.849-17.291-14.422-10.428,4.642-21.373,7.838-33.987,6.579-4.453-.445-10.793-2.892-13.578-7.084-4.073,1.907-10.67,4.681-14.341,8.86Z" transform="translate(-4.822 -110.032)" fill="#ffd1b2"/>
    <path id="パス_1916" data-name="パス 1916" d="M13.58,353.75a10.089,10.089,0,0,0-2.606,2.31,5.567,5.567,0,0,0-1.5,3.2,16.546,16.546,0,0,0,.861,3.973c.994,3.376,2.244,6.68,3.517,9.958A57.637,57.637,0,0,0,18,382.418a17.1,17.1,0,0,0,4.622,5.335A8.866,8.866,0,0,0,29.3,389.29a13.388,13.388,0,0,0,5.972-3.234,12.716,12.716,0,0,0,3.859-5.371,1.7,1.7,0,1,0-3.275-.9c-.024.069-.163.437-.066.208-.068.16-.149.317-.231.47a9.865,9.865,0,0,1-.642,1.03,12.486,12.486,0,0,1-1.569,1.735,11.541,11.541,0,0,1-4.063,2.56,3.859,3.859,0,0,1-2.093.241,6.07,6.07,0,0,1-2.363-.881,12.165,12.165,0,0,1-3.77-4.224,47.7,47.7,0,0,1-3.647-7.892c-1.161-2.962-2.287-5.944-3.269-8.97a38.507,38.507,0,0,1-1.169-4.183c-.031-.153-.058-.307-.087-.461a1.3,1.3,0,0,0-.025-.162c-.051-.157-.019.29.019.147.116-.432-.226.063-.081.11,0,0,.346-.659.381-.717a6.393,6.393,0,0,1,2.108-2.112c1.847-1.159.144-4.1-1.714-2.932" transform="translate(-3.728 -139.116)" fill="#06c"/>
    <path id="パス_1917" data-name="パス 1917" d="M141.618,343.644c-.088,3.657-.075,7.317-.162,10.974a1.714,1.714,0,0,0,1.7,1.7,1.732,1.732,0,0,0,1.7-1.7c.087-3.657.073-7.317.161-10.974a1.7,1.7,0,1,0-3.4,0" transform="translate(-55.671 -134.576)" fill="#06c"/>
    <path id="パス_1918" data-name="パス 1918" d="M47.715,340.377a19.976,19.976,0,0,0-1.423,6.05,18.487,18.487,0,0,0,.995,6.178,114.34,114.34,0,0,1,3.064,11.069q.278,1.388.517,2.784c.146.85.01-.3.052.343.014.207.031.414.039.622.044,1.041.008,2.087-.04,3.128-.132,2.868-.407,5.73-.722,8.583-.357,3.235-.733,6.17-1.28,9.378A1.748,1.748,0,0,0,50.1,390.6a1.711,1.711,0,0,0,2.089-1.186,165.908,165.908,0,0,0,2.056-17.642,27.657,27.657,0,0,0-.156-6.506,77.749,77.749,0,0,0-2.709-11.053,27.216,27.216,0,0,1-1.671-6.4,15.376,15.376,0,0,1,1.278-6.532A1.713,1.713,0,0,0,49.8,339.19a1.735,1.735,0,0,0-2.089,1.186" transform="translate(-18.214 -133.467)" fill="#06c"/>
    <path id="パス_1919" data-name="パス 1919" d="M148.7,339.77c.377,9.5.756,19.09-.438,28.548-.277,2.193-.673,4.377-1.156,6.534q-.373,1.664-.822,3.309c-.071.259-.163.511-.236.767s.159-.321.02-.044c-.06.118-.112.241-.17.36a14.33,14.33,0,0,1-5.5,6.291,11.046,11.046,0,0,1-4.774,1.037,16.746,16.746,0,0,1-5.3-.552,22.584,22.584,0,0,1-9.25-5.674,180.815,180.815,0,0,1-12.729-13.59c-1.981-2.283-3.936-4.591-5.815-6.958q-.294-.369-.585-.742c-.081-.1-.254-.329-.072-.091q-.141-.183-.28-.366c-.31-.408-.617-.818-.915-1.233-.238-.332-.472-.667-.693-1.01-.056-.086-.224-.411-.187-.288.067.218,0-.193.008-.253a2.2,2.2,0,0,1,.116-.529,8.516,8.516,0,0,1,1.292-2.169,1.71,1.71,0,0,0-.609-2.323,1.734,1.734,0,0,0-2.323.609c-1.237,1.728-2.6,4.121-1.485,6.256a16.785,16.785,0,0,0,1.486,2.156c1.746,2.34,3.609,4.593,5.495,6.821,4.351,5.138,8.842,10.207,13.653,14.922a31.66,31.66,0,0,0,8.95,6.619,21.539,21.539,0,0,0,12.553,1.426c3.688-.608,6.53-3.448,8.568-6.411a15.257,15.257,0,0,0,1.846-3.441,42.257,42.257,0,0,0,1.512-6.34c1.846-9.724,1.765-19.732,1.39-29.583q-.077-2.029-.159-4.057c-.087-2.178-3.483-2.189-3.4,0" transform="translate(-37.934 -133.075)" fill="#06c"/>
    <path id="パス_1920" data-name="パス 1920" d="M47.929,288.556c3.682-4.132,9.09-6.3,14-8.594l-2.323-.609c3.525,5.192,10.163,7.549,16.177,8.027a60.817,60.817,0,0,0,22.251-2.568,97.407,97.407,0,0,0,11.459-4.345h-1.714a50.652,50.652,0,0,1,13.2,9.34,19.681,19.681,0,0,1,4.415,6.407,37.777,37.777,0,0,1,2.312,9.07,99.6,99.6,0,0,1,.805,10.358c.087,2.178,3.483,2.189,3.4,0-.265-6.617-.629-13.527-3.02-19.775a23.273,23.273,0,0,0-4.739-7.662,46.322,46.322,0,0,0-7.123-6.087,57.46,57.46,0,0,0-7.011-4.321,3.626,3.626,0,0,0-1.15-.465,2.82,2.82,0,0,0-1.554.41q-1.211.533-2.435,1.035-2.379.971-4.807,1.812a60.983,60.983,0,0,1-20.385,3.566,27.857,27.857,0,0,1-10-1.507c-2.7-1-5.551-2.663-7.145-5.01a1.755,1.755,0,0,0-2.323-.609c-5.177,2.42-10.8,4.766-14.684,9.126-1.45,1.627.944,4.037,2.4,2.4" transform="translate(-17.741 -108.947)" fill="#06c"/>
    <path id="パス_1921" data-name="パス 1921" d="M85.262,311.111q-.984-1.637-2.058-3.223a12.9,12.9,0,0,0-2.414-2.87,16.923,16.923,0,0,0-3.009-1.7c-4.473-2.281-9.444-4.553-13.6-6.224-2.035-.819-3.662-1.5-5.282-1.135a2.392,2.392,0,0,0-1.782,1.921,2.421,2.421,0,0,0,1.026,2.083,10.805,10.805,0,0,0,2.129,1.381c2.846,1.537,7.1,3.777,9.891,5.542q-2.767,2.052-5.336,4.354A4.455,4.455,0,0,0,63.02,314c-.14,1.5.517,2.6,2.184,3.585l1.111.658a2.421,2.421,0,0,0,.187,2.14c.6.991,1.594,1.616,3.526,1.755a4.441,4.441,0,0,0,.77,2.737c1.712,2.661,3.81,4.368,6.953,4.386a2.046,2.046,0,0,0,1.06-.239l.326.181c.876.488,1.784,1,2.322,1.256a4.693,4.693,0,0,1,1.237.75,5.206,5.206,0,0,1,.823,1.176,23.218,23.218,0,0,0,3.578,4.3l.307.259c.365-.3.632-.579.846-.774a43.049,43.049,0,0,0,5.027-5.477,31.766,31.766,0,0,0,2.585-3.8l-.365-.154a8.783,8.783,0,0,1-3.685-3.4,46.114,46.114,0,0,1-3.471-6.549q-1.412-2.911-3.08-5.687" transform="translate(-22.472 -116.437)" fill="#fff"/>
    <path id="パス_1922" data-name="パス 1922" d="M91.494,351.221c.807.45,1.608.912,2.441,1.312a6.911,6.911,0,0,1,.643.339c.056.034.112.07.166.107l-.134-.106a1.434,1.434,0,0,1,.278.278l-.1-.138c.038.053.075.107.111.163.06.091.117.185.173.279.128.213.25.429.382.639a29.323,29.323,0,0,0,3.66,4.346,1.712,1.712,0,0,0,2.4,0,1.733,1.733,0,0,0,0-2.4c-.64-.683-1.3-1.346-1.923-2.049q-.2-.225-.39-.455a1.706,1.706,0,0,0-.228-.284c.113.032.181.24,0,0a14.144,14.144,0,0,1-.807-1.226,7.368,7.368,0,0,0-.964-1.371,5.013,5.013,0,0,0-1.434-.995c-.871-.426-1.714-.9-2.561-1.369a1.7,1.7,0,1,0-1.714,2.932" transform="translate(-35.684 -136.987)" fill="#06c"/>
    <path id="パス_1923" data-name="パス 1923" d="M69.451,304.022c-1.767-1.085-3.582-2.09-5.4-3.081-1.731-.942-3.559-1.788-5.216-2.855-.464-.3-1.291-.861-1.052-1.251s.853-.416,1.374-.357a12.42,12.42,0,0,1,3.083,1q1.481.593,2.95,1.219,3.167,1.359,6.277,2.843c2.1,1,4.257,1.975,6.282,3.124,1.853,1.053,2.945,2.993,4.057,4.744q1.864,2.935,3.435,6.042c2.119,4.184,3.845,9.43,8.322,11.678a1.74,1.74,0,0,0,2.323-.609,1.715,1.715,0,0,0-.609-2.323,9.757,9.757,0,0,1-3.962-4.174c-1.28-2.18-2.236-4.536-3.394-6.78a71.462,71.462,0,0,0-3.864-6.6,24.642,24.642,0,0,0-2.243-3.043,10.4,10.4,0,0,0-3.058-2.242c-4.531-2.3-9.123-4.471-13.815-6.422-2.239-.931-4.639-2.147-7.131-1.776a3.912,3.912,0,0,0-3,5.631,7.549,7.549,0,0,0,3.081,2.687c1.038.579,2.093,1.127,3.138,1.691,2.261,1.22,4.523,2.446,6.713,3.79,1.867,1.147,3.576-1.79,1.714-2.932" transform="translate(-21.392 -115.348)" fill="#06c"/>
    <path id="パス_1924" data-name="パス 1924" d="M72.222,311.215c-1.371,1.016-2.717,2.069-4.024,3.166a18.445,18.445,0,0,0-3.3,3.184,4.853,4.853,0,0,0-.669,4.17A6.04,6.04,0,0,0,67.072,325a1.7,1.7,0,1,0,1.714-2.932c-.129-.078-.257-.157-.383-.241-.076-.051-.317-.23-.129-.081a5.454,5.454,0,0,1-.546-.518c-.2-.215.021.112-.029-.038a1.941,1.941,0,0,0-.169-.284c-.1-.177-.014-.073.015.05-.029-.122-.073-.251-.107-.372-.056-.2,0-.067,0,.061,0-.113-.014-.227-.013-.341a2.77,2.77,0,0,1,.018-.355c-.035.244.022.013.052-.1.044-.169-.113.156.04-.1.067-.113.132-.226.2-.337.149-.23-.25.267.075-.1.09-.1.181-.2.276-.3a47.627,47.627,0,0,1,5.846-4.862,1.74,1.74,0,0,0,.609-2.323,1.716,1.716,0,0,0-2.323-.609" transform="translate(-25.197 -122.383)" fill="#06c"/>
    <path id="パス_1925" data-name="パス 1925" d="M77.121,319.241a24.231,24.231,0,0,0-4.084,2.96,21.489,21.489,0,0,0-1.694,1.7,9.413,9.413,0,0,0-1.531,2.049,5.612,5.612,0,0,0-.571,2.548,4.309,4.309,0,0,0,1.1,2.586,6.026,6.026,0,0,0,4.132,1.843,1.7,1.7,0,0,0,1.7-1.7,1.749,1.749,0,0,0-1.7-1.7c.278.033-.229-.042-.237-.044q-.193-.039-.383-.092c-.141-.039-.277-.091-.417-.135-.193-.061.238.146-.024-.019-.1-.065-.218-.13-.324-.192-.26-.152.123.15.014.01-.058-.074-.144-.133-.209-.2-.113-.121-.182-.331-.023-.015-.059-.117-.15-.237-.215-.351.108.19.019,0-.028-.1-.081-.175,0,.284,0-.031,0-.434-.09.33.006-.133.029-.138.058-.277.092-.415.018-.083.04-.166.065-.247q-.1.186-.015.025a3.186,3.186,0,0,1,.2-.359c0-.007.309-.42.131-.193a19.934,19.934,0,0,1,2.722-2.782c.225-.192.454-.381.687-.562-.19.147.231-.17.223-.164q.179-.132.361-.259c.558-.392,1.134-.754,1.725-1.093a1.7,1.7,0,1,0-1.714-2.932" transform="translate(-27.249 -125.552)" fill="#06c"/>
    <path id="パス_1926" data-name="パス 1926" d="M82.715,325.65l-3.068,2.676a26.318,26.318,0,0,0-2.757,2.487c-1.83,2.128-1.415,4.8.1,6.977a10.9,10.9,0,0,0,4.4,3.922c2.007.882,5.024,1.434,6.565-.546a3.744,3.744,0,0,0,.27-3.939,5.478,5.478,0,0,0-1.16-1.494c-.238-.232-.487-.452-.724-.685-.079-.078-.159-.157-.236-.238s-.159-.173-.234-.263q-.224-.291.069.258-.116.428-.232.857a3.509,3.509,0,0,1,.592-.51l.785-.687a1.7,1.7,0,0,0-2.4-2.4c-.928.813-2.18,1.588-2.155,2.969.022,1.229,1.151,2.167,1.971,2.947a3.535,3.535,0,0,1,.711.8c.048.108,0,.417.022.449-.031-.047.095-.167.1-.165-.049-.119.263.241-.026.018-.015-.012-.155.036-.028.019a3.5,3.5,0,0,1-.622-.007,3.118,3.118,0,0,1-.529-.055,5.81,5.81,0,0,1-3.54-2.124c-.759-.856-2.153-2.562-1.29-3.7a19.012,19.012,0,0,1,2.757-2.487l3.068-2.676a1.714,1.714,0,0,0,0-2.4,1.732,1.732,0,0,0-2.4,0" transform="translate(-29.784 -127.972)" fill="#06c"/>
    <path id="パス_1927" data-name="パス 1927" d="M134.6,361.042c-4.894-4.712-9.4-9.8-14.154-14.647-.984-1-1.979-2-3.006-2.955q-.689-.644-1.4-1.264a5.085,5.085,0,0,0-1.919-1.3,2.378,2.378,0,0,0-2.563.942c-.478.733-.806,1.583-1.266,2.336a35.02,35.02,0,0,1-3.006,4.133,46.828,46.828,0,0,1-4.053,4.251,9.574,9.574,0,0,1-4,2.361,1.7,1.7,0,0,0,.9,3.275c3.328-.93,5.791-3.325,8.074-5.8a50.488,50.488,0,0,0,3.458-4.216c.548-.742,1.074-1.5,1.555-2.289.458-.751.78-1.611,1.266-2.336l-.609.609c-.359.275-1.334-.485-.669.076q.214.181.426.365c.346.3.686.606,1.023.915.736.677,1.454,1.372,2.163,2.076,1.612,1.6,3.176,3.249,4.735,4.9,3.5,3.7,6.966,7.439,10.638,10.974,1.575,1.516,3.979-.882,2.4-2.4" transform="translate(-38.583 -134.125)" fill="#06c"/>
    <path id="パス_1928" data-name="パス 1928" d="M25.493,307.008c1.6-.528,7.45-2.479,11.108-3.758a3.209,3.209,0,0,0,2-4.02c-2.352-7.267-7.527-23.468-9.79-30.647a3.206,3.206,0,0,0-3.907-2.129c-4.579,1.251-11.468,3.149-16.225,4.5a3.209,3.209,0,0,0-2.2,4c.864,2.9,1.89,6.211,2.945,9.326l8.154,24.924Z" transform="translate(-2.497 -104.821)" fill="#a0a0a0"/>
    <path id="パス_1929" data-name="パス 1929" d="M9.973,282.755Q9.107,280.19,8.3,277.6q-.394-1.259-.776-2.522a9,9,0,0,1-.57-2.129,1.442,1.442,0,0,1,.432-1.05,2.911,2.911,0,0,1,1.371-.595q2.21-.627,4.424-1.243,4.507-1.258,9.022-2.493c.622-.17,1.242-.344,1.865-.511a1.572,1.572,0,0,1,1.27.052,1.455,1.455,0,0,1,.743.838c.173.441.288.914.431,1.366q4.506,14.251,9.1,28.474a4.4,4.4,0,0,1,.354,1.455,1.645,1.645,0,0,1-.608,1.114,7.515,7.515,0,0,1-1.633.632q-1.154.4-2.309.791-3.726,1.267-7.463,2.5a1.736,1.736,0,0,0-1.186,2.089,1.715,1.715,0,0,0,2.089,1.186q3.63-1.2,7.247-2.431a45.922,45.922,0,0,0,4.462-1.574,4.922,4.922,0,0,0,2.776-4.016,9.264,9.264,0,0,0-.782-3.674q-.549-1.7-1.1-3.408-1.309-4.073-2.611-8.149-2.54-7.945-5.061-15.9a7.414,7.414,0,0,0-1.817-3.566,5.066,5.066,0,0,0-4.8-1.062c-3.235.855-6.456,1.771-9.679,2.667q-2.713.755-5.421,1.52a7.4,7.4,0,0,0-2.437,1,5.012,5.012,0,0,0-1.819,2.45c-.659,1.933.235,3.908.8,5.748q1,3.257,2.087,6.489a1.738,1.738,0,0,0,2.089,1.186,1.715,1.715,0,0,0,1.186-2.089" transform="translate(-1.408 -103.738)" fill="#06c"/>
    <path id="パス_1930" data-name="パス 1930" d="M15.428,281.239c1.036-.306,2.075-.6,3.112-.9a1.766,1.766,0,0,0,1.015-.78,1.733,1.733,0,0,0,.171-1.308,1.715,1.715,0,0,0-.78-1.015,1.752,1.752,0,0,0-1.308-.172q-1.557.449-3.113.9a1.769,1.769,0,0,0-1.015.78,1.7,1.7,0,0,0,1.918,2.494" transform="translate(-5.226 -109.017)" fill="#06c"/>
    <path id="パス_1931" data-name="パス 1931" d="M18.264,332.982a8.667,8.667,0,0,1-3.848.371,2.914,2.914,0,0,1-1.637-.679c-.7-.7-.662-1.819-.7-2.81-.189-5.02-3.294-7.846-6.023-12.068-.545-1.07-2.663-3.417-3.158-5.917a31.87,31.87,0,0,1,.139-5.562,11.886,11.886,0,0,1,.457-2.972,13.488,13.488,0,0,1,.975-1.805,67.91,67.91,0,0,1,7.711-9.68,3.736,3.736,0,0,1,2.571-1.114,2.068,2.068,0,0,1,1.942,2.014A4.633,4.633,0,0,1,15.933,295c-2.352,3.479-4.791,7.161-6.974,10.252,4.012-2.512,9.266-5.605,13.545-8.14,1.369-.811,2.511-1.488,4.08-1.23a2.417,2.417,0,0,1,1.845,1.565c.73,2.517-1.705,2.959-1.865,3.449,2.2-.581,3.423-.035,3.878,1.526a2.85,2.85,0,0,1-.95,2.907l-3.308,2.612.764-.161c1.128-.238,1.854-.112,2.4.92a2.635,2.635,0,0,1-.356,2.819,40.055,40.055,0,0,1-5.489,5.516,17.463,17.463,0,0,1,1,11.03,3.064,3.064,0,0,1-.515,1.377,13.651,13.651,0,0,1-5.727,3.543" transform="translate(-1.114 -114.425)" fill="#fff"/>
    <path id="パス_1932" data-name="パス 1932" d="M14.132,308.371c4.407-2.724,8.844-5.446,13.356-7.992.672-.379,1.68-.9,2.387-.6a.62.62,0,0,1,.441.551c.008.06-.05.528,0,.3-.037.168-.118.16-.012.075-.06.049-.5.434-.19.207-.1.076-.215.146-.324.216-.607.392-1.223.772-1.828,1.168-1.17.765-2.326,1.551-3.477,2.344-2.66,1.833-5.3,3.694-8.043,5.411-1.848,1.157-.146,4.1,1.714,2.932,2.781-1.741,5.46-3.633,8.161-5.492,1.352-.931,2.711-1.853,4.093-2.739a8.089,8.089,0,0,0,2.744-2.229,4.138,4.138,0,0,0,.04-4.118,4.358,4.358,0,0,0-3.9-2.084A8.91,8.91,0,0,0,25,297.9q-1.908,1.13-3.817,2.26c-2.933,1.74-5.864,3.485-8.764,5.278-1.856,1.147-.153,4.086,1.714,2.932" transform="translate(-4.572 -116.619)" fill="#06c"/>
    <path id="パス_1933" data-name="パス 1933" d="M36.143,307.726a3.83,3.83,0,0,1,.731-.006c-.33-.039.13.052.17.065q-.265-.124-.009.008.241.158-.005-.014l.1.1q-.167-.242,0,0a.97.97,0,0,1,.184.737,1.453,1.453,0,0,1-.342.683c.2-.253-.065.038-.119.086-.166.15-.352.282-.528.42.129-.1-.274.21-.264.2q-.315.24-.631.478-1.114.838-2.244,1.654c-2.652,1.922-5.377,3.747-8,5.708a1.752,1.752,0,0,0-.609,2.323,1.71,1.71,0,0,0,2.323.609c2.371-1.771,4.828-3.426,7.232-5.154,1.44-1.035,2.869-2.086,4.273-3.17a5.986,5.986,0,0,0,1.683-1.722,4.525,4.525,0,0,0,.517-3.206,4.078,4.078,0,0,0-4.459-3.2,1.74,1.74,0,0,0-1.7,1.7,1.713,1.713,0,0,0,1.7,1.7" transform="translate(-9.581 -119.767)" fill="#06c"/>
    <path id="パス_1934" data-name="パス 1934" d="M38.54,319.3c.1-.021.509-.025.126-.03a1.753,1.753,0,0,1,.385-.008c0,.006-.377-.164-.049.007.123.038.074.015-.145-.068.124.078.13.076.019-.007s-.1-.084.011.02l.086.093c-.249-.249,0,.03.053.132-.087-.181.071.282.072.287-.038-.309-.019.193-.014-.038,0-.213-.036.156-.051.209-.055.19-.164.335-.021.087-.1.172-.189.344-.3.506-.032.046-.207.276-.1.141s-.156.192-.179.22q-.331.4-.683.787c-1.879,2.062-4.056,3.827-6.114,5.7a1.7,1.7,0,0,0,2.4,2.4c2.54-2.317,5.279-4.475,7.376-7.225a4.374,4.374,0,0,0,.638-4.617,3.537,3.537,0,0,0-1.98-1.853,4.511,4.511,0,0,0-2.427-.024,1.708,1.708,0,0,0-1.186,2.089A1.741,1.741,0,0,0,38.54,319.3" transform="translate(-12.255 -124.315)" fill="#06c"/>
    <path id="パス_1935" data-name="パス 1935" d="M9.75,304.4q3.29-4.709,6.456-9.511c.958-1.452,1.508-3.442.574-5.041a3.855,3.855,0,0,0-4.685-1.626c-1.751.568-2.862,2-4.041,3.334q-1.689,1.9-3.231,3.927C3.8,296.819,2.8,298.189,1.89,299.6a9.41,9.41,0,0,0-1.54,4.224c-.139,1.215-.235,2.448-.3,3.669a12.046,12.046,0,0,0,.463,4.986,20.37,20.37,0,0,0,2.332,4.1c.781,1.135,1.505,2.3,2.312,3.42,1.712,2.372,3.583,4.787,4.023,7.762.227,1.536-.072,3.175.875,4.526,1.042,1.488,3.037,1.839,4.743,1.745a13.357,13.357,0,0,0,5.486-1.624c1.5-.794,3.411-1.985,4.249-3.511a8.988,8.988,0,0,0,.759-3.093,22.378,22.378,0,0,0,.255-2.895,18.827,18.827,0,0,0-.965-5.834c-.656-2.077-3.936-1.19-3.275.9a16.628,16.628,0,0,1,.495,8.263,2.1,2.1,0,0,1-.662,1.441,10.685,10.685,0,0,1-1.549,1.2,11.662,11.662,0,0,1-3.464,1.537,7.007,7.007,0,0,1-1.657.23,2.739,2.739,0,0,1-1.6-.255c-.14-.116-.161-.5-.178-.746-.049-.7-.052-1.4-.141-2.1A16.92,16.92,0,0,0,9.319,320c-1.42-2.028-2.834-4.047-4.208-6.106a8.876,8.876,0,0,1-1.642-3.352,18.134,18.134,0,0,1,.038-3.915c.07-.913.138-2.109.246-2.846a7.483,7.483,0,0,1,1.521-3.132,65.775,65.775,0,0,1,5.181-6.688c.591-.665,1.172-1.363,1.814-1.98a1.984,1.984,0,0,1,1.371-.617c-.16,0,.054.01.152.122a.325.325,0,0,1,.089.264c0,.24.053-.248-.01.054a3.9,3.9,0,0,1-.175.63,4.777,4.777,0,0,1-.5.864q-3.137,4.728-6.375,9.392a1.713,1.713,0,0,0,.609,2.323A1.734,1.734,0,0,0,9.75,304.4" transform="translate(0 -113.343)" fill="#06c"/>
    <path id="パス_1936" data-name="パス 1936" d="M92.64,228a14.5,14.5,0,0,0-.522,1.526c-.281.956-.571,2.112.226,2.916a2.662,2.662,0,0,0,.583.424,2.822,2.822,0,0,0,.686.269,4.7,4.7,0,0,0,.961.07,1.748,1.748,0,0,0,1.2-.5,1.7,1.7,0,0,0,0-2.4,1.776,1.776,0,0,0-1.2-.5,3.846,3.846,0,0,1-.473,0l.451.061a1.2,1.2,0,0,1-.233-.065l.406.171a1.584,1.584,0,0,1-.312-.187l.344.265a.047.047,0,0,1-.011-.011l.266.344a.106.106,0,0,1-.013-.023l.171.406a.281.281,0,0,1-.013-.055c.02.15.041.3.061.452a.994.994,0,0,1,.009-.229c-.02.15-.041.3-.061.451a8.182,8.182,0,0,1,.354-1.365c.12-.376.242-.755.4-1.118a1.288,1.288,0,0,0,.03-.677,1.27,1.27,0,0,0-.2-.631,1.7,1.7,0,0,0-2.323-.609l-.344.265a1.7,1.7,0,0,0-.437.75" transform="translate(-36.139 -89.242)" fill="#06c"/>
    <path id="パス_1937" data-name="パス 1937" d="M75.475,217.135c-.412,1.292-.228,4.286,2.127,4.587,3.121.041,3.366-3.57,2.353-5.29-.829-1.408-3.345-2.036-4.48.7" transform="translate(-29.636 -84.705)" fill="#06c"/>
    <path id="パス_1938" data-name="パス 1938" d="M116.156,217.194c.39,1.366.053,4.483-2.525,4.7-3.4-.091-3.5-3.87-2.32-5.622.967-1.434,3.734-1.981,4.845.926" transform="translate(-43.539 -84.655)" fill="#06c"/>
    <path id="パス_1939" data-name="パス 1939" d="M90.458,247.87a10.945,10.945,0,0,0,4.52.416,12.877,12.877,0,0,0,4.9-1.395,1.713,1.713,0,0,0,.609-2.323,1.735,1.735,0,0,0-2.323-.609c-.133.072-.267.141-.4.206-.021.01-.364.173-.115.056.223-.1-.022.007-.07.025-.319.123-.645.23-.975.321s-.682.171-1.027.235c-.082.015-.164.029-.246.042-.048.008-.331.045-.083.016s-.036,0-.084.009c-.1.012-.206.022-.31.032a11.835,11.835,0,0,1-1.994.016c-.1-.008-.192-.018-.287-.027-.234-.022.03,0,.115.018-.141-.035-.29-.045-.433-.074a7.016,7.016,0,0,1-.894-.24,1.71,1.71,0,0,0-2.089,1.186,1.739,1.739,0,0,0,1.186,2.089" transform="translate(-35.114 -95.926)" fill="#06c"/>
    <path id="パス_1940" data-name="パス 1940" d="M433.825,183.737c2.36-.07,4.422-.126,6.075-.166a2.533,2.533,0,0,1,2.558,2.963c-2.327,13.619-4.788,27.846-7.907,45.749a2.539,2.539,0,0,1-2.285,2.1c-12.348,1.053-53.708,2.8-63.317,3.047a4.036,4.036,0,0,1-2.181-.574c-4.178-2.5-20.566-11.88-28.988-17.361,0,0,.508-3.016.737-3.9.459.223.945.445,1.446.653a7.709,7.709,0,0,0,5.93-.025,43.248,43.248,0,0,0,5.409,5.064c.361.29,1.561,1.172,2.539.343a2,2,0,0,0,.175-2.277c-1.526-2.34-2.175-4.075-3.863-6.232,2.8,1.739,5.492,3.775,8.282,5.542a3.692,3.692,0,0,0,2.72.887,1.944,1.944,0,0,0,1.635-2.024,3.013,3.013,0,0,0-.539-1.42,9.255,9.255,0,0,0,2.467.927,1.677,1.677,0,0,0,2.073-1.839,2.455,2.455,0,0,0-.624-1.573l-.45-.571.585.124a2.2,2.2,0,0,0,2.306-.859,2.417,2.417,0,0,0-.031-2.072,6.021,6.021,0,0,0-1.132-1.381c-.513-.508-2.738-2.21-3.317-2.631q-.4-.294-.812-.58c.375-2.377.965-5.886,1.295-8.136.228-1.579,1.074-6.386,2.048-12l.187.41a90.862,90.862,0,0,0,6.431,13.706l1.516,2.71q1.294-7.456,2.563-14.71a2.533,2.533,0,0,1,2.417-2.093c8.287-.264,38.023-1.325,54.052-1.8" transform="translate(-132.937 -72.246)" fill="#fff"/>
    <path id="パス_1941" data-name="パス 1941" d="M432.739,184.342q2.718-.08,5.437-.15c.622-.015.917-.084,1.243.175a.877.877,0,0,1,.277.851c-.152,1.562-.537,3.137-.8,4.684q-.408,2.381-.817,4.761-1.737,10.106-3.491,20.211-.97,5.589-1.942,11.177-.254,1.455-.507,2.911c-.086.494-.169.987-.258,1.48a4.5,4.5,0,0,1-.094.5,2.793,2.793,0,0,0-.1.284.784.784,0,0,1-.683.385c-.355.05-.72.059-1.078.087-3.715.288-7.437.5-11.157.71-10.068.563-20.142,1.025-30.216,1.454q-6.574.28-13.15.529-2.468.092-4.937.174-.939.03-1.877.058a3.894,3.894,0,0,1-2.327-.492c-8.582-5.107-17.284-10.014-25.752-15.312q-1.483-.928-2.951-1.879l.78,1.918c.22-1.3.417-2.619.737-3.9l-2.494,1.015a13.172,13.172,0,0,0,4.385,1.417,9,9,0,0,0,4.3-.618l-1.652-.437a43.724,43.724,0,0,0,4.536,4.351c1.589,1.324,3.659,2.8,5.641,1.189a3.226,3.226,0,0,0,1.1-2.774,5.971,5.971,0,0,0-1.142-2.743,51.226,51.226,0,0,0-3.209-5.183l-2.323,2.323c1.61,1.006,3.169,2.089,4.732,3.166a38.623,38.623,0,0,0,4.529,2.955,4.139,4.139,0,0,0,4.942-.583,3.944,3.944,0,0,0,.217-4.878l-2.323,2.323c1.971.887,4.574,2.064,6.293.007a3.8,3.8,0,0,0,.709-3.163,6.052,6.052,0,0,0-1.478-2.569l-1.652,2.838c1.758.371,3.522.249,4.669-1.332a3.924,3.924,0,0,0-.183-4.426c-1.42-1.941-3.631-3.377-5.579-4.745l.781,1.918q1.6-10.082,3.343-20.136l-3.1.406c.022.048.27.693.073.155.058.16.121.317.181.475q.165.43.336.859.423,1.068.869,2.127c.717,1.707,1.461,3.4,2.258,5.072,1.332,2.791,2.908,5.44,4.415,8.137.668,1.193,2.848,1.067,3.1-.406q.9-5.171,1.8-10.342.2-1.167.408-2.335a10.692,10.692,0,0,1,.46-2.421c.231-.477.7-.46,1.4-.482q4.808-.156,9.614-.325,14.335-.492,28.671-.973,7.523-.248,15.046-.476c2.181-.064,2.19-3.46,0-3.4q-14.485.428-28.968.944-12.157.415-24.315.829a5.131,5.131,0,0,0-3.549,1.141c-1.4,1.274-1.454,3.241-1.759,4.985q-1.046,5.974-2.079,11.949l3.1-.406c-1.508-2.7-3.084-5.346-4.416-8.137-1.36-2.85-2.41-5.822-3.717-8.688a1.714,1.714,0,0,0-3.1.405q-1.746,10.058-3.343,20.136a1.8,1.8,0,0,0,.78,1.918,35.05,35.05,0,0,1,3.608,2.782,6.184,6.184,0,0,1,.809.825c.064.084.3.645.162.213q.053.16.089.325c0-.109,0-.1,0,.024a1.8,1.8,0,0,1,0,.3.241.241,0,0,1,.008-.124c.016-.012,0,.047-.074.022-.157-.058-.265.056-.407.044.269.025-.468-.106-.493-.111a1.714,1.714,0,0,0-1.652,2.838l.309.392q.192.241.025.036c.043.065.234.426.207.344.126.389-.016-.027.033.372-.015-.029-.009-.041.02-.038q-.208.321,0,.07a.181.181,0,0,1,.14-.123q-.322.075-.148.045c-.116-.036-.319-.029-.438-.057a8.9,8.9,0,0,1-1.552-.652,1.769,1.769,0,0,0-2.058.266,1.728,1.728,0,0,0-.266,2.058,2.768,2.768,0,0,1,.315.648c-.032-.107-.009.122-.067.232.108-.206.039-.011-.061.013.2-.048-.236.035-.075.029a1.974,1.974,0,0,1-1.162-.41c-.594-.358-1.173-.744-1.751-1.129-2.334-1.55-4.6-3.205-6.973-4.69a1.723,1.723,0,0,0-2.058.265,1.7,1.7,0,0,0-.266,2.058,31.408,31.408,0,0,1,2.46,3.879q.6,1.072,1.249,2.112c.027.043.278.448.189.3s-.007.188.005.061c.019-.189-.018.325-.008.331-.086-.05.11-.248.113-.254.145-.236.2-.009.005-.2.118.111-.508-.348-.275-.184.267.189-.313-.255-.365-.3q-.216-.176-.431-.355-.52-.433-1.029-.88a41.994,41.994,0,0,1-3.506-3.471,1.648,1.648,0,0,0-1.653-.437,7,7,0,0,1-6.068-.457,1.722,1.722,0,0,0-2.494,1.015c-.321,1.28-.518,2.6-.737,3.9a1.781,1.781,0,0,0,.78,1.918c8.947,5.815,18.264,11.054,27.46,16.457a17.819,17.819,0,0,0,2.386,1.309,7.792,7.792,0,0,0,3.188.372q2.213-.065,4.426-.147,6.505-.232,13.008-.511c10.405-.436,20.809-.909,31.208-1.48,3.961-.218,7.923-.441,11.878-.739a14.3,14.3,0,0,0,2.732-.3,4.5,4.5,0,0,0,3.109-3.935q1.049-6.021,2.095-12.042,1.838-10.584,3.66-21.171.839-4.872,1.673-9.745c.291-1.7.805-3.454-.126-5.058a4.539,4.539,0,0,0-4.358-2.087q-2.719.068-5.437.15c-2.181.064-2.19,3.46,0,3.4" transform="translate(-131.851 -71.153)" fill="#06c"/>
    <path id="パス_1942" data-name="パス 1942" d="M275.793,133.942c-.288.786-.537,1.549-.735,2.269-3.612,13.093-5.08,22.01-7.224,36.346a26.824,26.824,0,0,0,.529,8.44c.819,2.947,3.423,5.131,6.275,6.237s5.973,1.174,9.017,1.484c3.857.392,20.713.58,23.272.618.049-1.383,1.147-9.506,3.684-14.394,1.7.047,2.828.5,4.846.008,2.865-.7,4.263-1.975,7.148-2.6,2.26-.488,4.577.447,6.644,1.5a53.662,53.662,0,0,1,6.487,3.9c.375-2.377.965-5.886,1.295-8.136.228-1.578,1.073-6.381,2.046-11.99l.189.4a109.632,109.632,0,0,0,7.946,16.416c.835-4.814,1.74-10.029,2.563-14.71a2.533,2.533,0,0,1,2.417-2.093c1.812-.058,4.648-.153,8.143-.275-1.571-6.055-2.521-11.228-3.617-17.243a88.7,88.7,0,0,0-3.109-13.491,14.155,14.155,0,0,0-4.236-6.39,16.554,16.554,0,0,0-4.424-2.814l-8.9-3.342c-.1.129-.2.252-.309.37a14.464,14.464,0,0,1-8.705,4.507,29.643,29.643,0,0,1-11-.433c-5.4-1.265-9.856-2.41-14.619-5.128-.075-.038-1.471-.813-1.276-.707-4.748,1.745-10.382,3.733-14.522,6.967a24.011,24.011,0,0,0-4.586,4.478,39.288,39.288,0,0,0-5.247,9.809" transform="translate(-105.356 -44.346)" fill="#e0f0b2"/>
    <path id="パス_1943" data-name="パス 1943" d="M352.988,105.868l-1.578-.7a21.423,21.423,0,0,1-11.363-.693,23.223,23.223,0,0,1-8.819-5.682,28.387,28.387,0,0,1-2.643-2.912l-.014.052a28.978,28.978,0,0,1-2.352,6.395c-.472.955-2.606,2.778-4.257,4,.351.2.778.432.819.453,4.763,2.717,9.218,3.862,14.619,5.127a29.633,29.633,0,0,0,11,.433,14.465,14.465,0,0,0,8.7-4.506c.038-.042.075-.084.111-.127-1.65-.711-2.588-1.123-4.223-1.845" transform="translate(-126.711 -37.736)" fill="#fff"/>
    <path id="パス_1944" data-name="パス 1944" d="M319.23,113.044a52.412,52.412,0,0,0,13.179,5.256c5.583,1.414,11.53,2.372,17.188.71a15.229,15.229,0,0,0,7.616-4.838,1.75,1.75,0,0,0,0-2.4,1.71,1.71,0,0,0-2.4,0c-3.156,3.928-8.275,4.841-13.057,4.694a37.575,37.575,0,0,1-7.932-1.311,57.775,57.775,0,0,1-7.168-2.2,44.647,44.647,0,0,1-5.71-2.846c-1.9-1.081-3.616,1.852-1.714,2.932" transform="translate(-125.31 -43.243)" fill="#06c"/>
    <path id="パス_1945" data-name="パス 1945" d="M384.081,148.085c-.036.392-.08.784-.128,1.175-.026.218-.054.436-.082.654s-.047.347,0,.038c-.021.153-.042.307-.063.46-.172,1.236-.36,2.469-.552,3.7-.487,3.113-1.009,6.221-1.537,9.328-.968,5.688-1.991,11.366-2.942,17.056-.56,3.351-1.072,6.71-1.6,10.066a1.751,1.751,0,0,0,1.186,2.089,1.711,1.711,0,0,0,2.089-1.186c.87-5.488,1.75-10.971,2.7-16.445,1.11-6.385,2.235-12.767,3.249-19.168.409-2.579.844-5.168,1.084-7.769a1.711,1.711,0,0,0-1.7-1.7,1.735,1.735,0,0,0-1.7,1.7" transform="translate(-148.427 -57.612)" fill="#06c"/>
    <path id="パス_1946" data-name="パス 1946" d="M404,154.825c-1.762-7.124-2.857-14.367-4.317-21.552a41.442,41.442,0,0,0-2.978-9.93,17.124,17.124,0,0,0-6.822-7.1,37.262,37.262,0,0,0-6.016-2.464l-6.22-2.337a1.713,1.713,0,0,0-2.089,1.186,1.736,1.736,0,0,0,1.186,2.089l5.372,2.019c1.663.625,3.386,1.172,5.01,1.89a13.636,13.636,0,0,1,6.428,6,35.426,35.426,0,0,1,2.8,9.284c.694,3.37,1.257,6.767,1.889,10.149.731,3.912,1.528,7.809,2.483,11.673.525,2.12,3.8,1.222,3.275-.9" transform="translate(-147.779 -43.826)" fill="#06c"/>
    <path id="パス_1947" data-name="パス 1947" d="M392.489,199.195a76.408,76.408,0,0,1-6.259-13.3,1.746,1.746,0,0,0-2.089-1.186,1.711,1.711,0,0,0-1.186,2.089,81.323,81.323,0,0,0,6.6,14.111c1.145,1.857,4.084.153,2.932-1.714" transform="translate(-150.683 -72.67)" fill="#06c"/>
    <path id="パス_1948" data-name="パス 1948" d="M325.826,94.427a20.818,20.818,0,0,1-.918,3.079q-.141.378-.29.752c-.067.167-.134.334-.2.5.069-.163-.016.034-.039.088-.231.526-.457,1.063-.728,1.571-.064.119-.15.226-.213.344-.086.161.238-.27.029-.041-.07.076-.135.156-.2.233-.307.339-.637.657-.974.967-.4.369-.815.723-1.237,1.069-.191.157-.384.312-.579.465-.081.064-.292.224-.1.079l-.369.278a1.742,1.742,0,0,0-.609,2.323,1.716,1.716,0,0,0,2.323.609c.982-.731,1.947-1.492,2.855-2.314a9.468,9.468,0,0,0,1.973-2.226,26.516,26.516,0,0,0,1.516-3.458A21.555,21.555,0,0,0,329.1,95.33a1.7,1.7,0,1,0-3.275-.9" transform="translate(-125.605 -36.678)" fill="#06c"/>
    <path id="パス_1949" data-name="パス 1949" d="M374.515,109.74q-1.8-.774-3.585-1.565c-.754-.332-1.537-.632-2.269-1.01-.089-.045-.171-.1-.258-.149-.322-.18.16.158.01.017s-.3-.269-.432-.419c-.069-.076-.133-.155-.2-.232-.207-.24.115.17,0,0-.13-.194-.27-.383-.4-.577a1.7,1.7,0,0,0-2.932,1.714,8.345,8.345,0,0,0,2.144,2.366,14.875,14.875,0,0,0,2.426,1.138q1.889.835,3.785,1.653a1.86,1.86,0,0,0,1.308.172,1.7,1.7,0,0,0,.406-3.1" transform="translate(-143.337 -41.306)" fill="#06c"/>
    <path id="パス_1950" data-name="パス 1950" d="M360.4,47.535a42.676,42.676,0,0,0-8.252-5.926c-.449-.218-1.025.074-1.2.764-.364,1.4.237,3.391-.828,3-1.845-.674-7.387-4.332-11.684-6.009l-4.253,1.616a12.039,12.039,0,0,0-1.9,1.224,14.854,14.854,0,0,0-2.49,2.653,52.161,52.161,0,0,0-5.416,9.97l-1.405-.938a4.5,4.5,0,0,0-5.56-.4,6.213,6.213,0,0,0-2.537,5.222,10.256,10.256,0,0,0,1.993,5.619,14.791,14.791,0,0,0,6.075,4.929,28.729,28.729,0,0,0,5.5,7.293,23.207,23.207,0,0,0,8.819,5.682,21.424,21.424,0,0,0,11.908.571,21.165,21.165,0,0,0,6.032-2.419,20.442,20.442,0,0,0,5.564-5.16,27.754,27.754,0,0,0,4.373-8.1,38.479,38.479,0,0,0,1.941-8.18c.221-1.534.332-2.838.392-3.8,0,0,.007-.116.021-.311l-2.936-3.395c-1.132-1.161-2.579-2.537-4.148-3.908" transform="translate(-123.92 -15.493)" fill="#fff"/>
    <path id="パス_1951" data-name="パス 1951" d="M315.243,25.813c.847-5.391,2.861-10.8,6.531-13.629l3.377-2.845c1.2-1.136,5.545-5.811,15.036-6.422,11.25-.725,19.52,3.082,23,7.145l.184,3.788c4.716,4.494,7.191,12.471,5.466,23.336-.065.691-.139,1.374-.223,2.043-.1.756-.2,1.5-.319,2.212-.082-.1-3.786-4.378-3.786-4.378-3.1-3.18-8.567-7.974-12.4-9.833-.45-.218-1.025.074-1.2.764-.364,1.4.237,3.391-.828,3-1.845-.674-7.387-4.331-11.684-6.009L334.139,26.6a12.012,12.012,0,0,0-1.9,1.224,14.83,14.83,0,0,0-2.49,2.653,52.144,52.144,0,0,0-5.416,9.97l-1.405-.938a4.5,4.5,0,0,0-5.56-.4,5.193,5.193,0,0,0-1.243,1.175,31.787,31.787,0,0,1-1.354-9.229,40.639,40.639,0,0,1,.474-5.243" transform="translate(-123.879 -1.113)" fill="#ffd1b2"/>
    <path id="パス_1952" data-name="パス 1952" d="M323.064,60.263a6.216,6.216,0,0,0-7.074-.977,7.677,7.677,0,0,0-3.9,6.436,11.773,11.773,0,0,0,2.765,7.79,16.618,16.618,0,0,0,6.1,4.775,1.745,1.745,0,0,0,2.323-.609,1.712,1.712,0,0,0-.609-2.323c-3.349-1.577-6.716-4.506-7.166-8.416a4.84,4.84,0,0,1,1.477-4.282,2.823,2.823,0,0,1,3.686.008c1.566,1.526,3.97-.873,2.4-2.4" transform="translate(-122.816 -23.066)" fill="#06c"/>
    <path id="パス_1953" data-name="パス 1953" d="M369.9,64.289a41.915,41.915,0,0,1-2.7,12.656,24.228,24.228,0,0,1-7.324,10.165c-6.567,4.986-16.09,4.83-22.809.175a28.441,28.441,0,0,1-8.543-9.761c-1.033-1.927-3.966-.213-2.932,1.714a31.779,31.779,0,0,0,8.348,9.925,23.337,23.337,0,0,0,13.9,5.058,23.073,23.073,0,0,0,12.306-3.2,25.488,25.488,0,0,0,9.481-11.152A44.1,44.1,0,0,0,373.3,64.289a1.7,1.7,0,1,0-3.4,0" transform="translate(-128.057 -24.633)" fill="#06c"/>
    <path id="パス_1954" data-name="パス 1954" d="M316.451,44.2a28.562,28.562,0,0,1-.956-10.553,29.073,29.073,0,0,1,2.841-10.856,12.934,12.934,0,0,1,3.537-4.43,1.708,1.708,0,0,0,0-2.4,1.74,1.74,0,0,0-2.4,0c-3.174,2.5-4.989,6.436-6.067,10.235a35.357,35.357,0,0,0-1.374,11.854,32.21,32.21,0,0,0,1.147,7.055c.628,2.087,3.907,1.2,3.275-.9" transform="translate(-122.776 -6.093)" fill="#06c"/>
    <path id="パス_1955" data-name="パス 1955" d="M400.815,58.379q-.122,1.3-.295,2.593c.02-.15.041-.3.061-.451q-.094.7-.2,1.391a1.851,1.851,0,0,0,.171,1.309,1.7,1.7,0,0,0,2.323.609,1.641,1.641,0,0,0,.78-1.015q.349-2.208.559-4.436a1.7,1.7,0,0,0-.5-1.2,1.7,1.7,0,0,0-2.4,0,1.92,1.92,0,0,0-.5,1.2" transform="translate(-157.555 -22.307)" fill="#06c"/>
    <path id="パス_1956" data-name="パス 1956" d="M392.6,21.111a17.575,17.575,0,0,1,4.7,8.55,33.328,33.328,0,0,1,.31,13.175,1.751,1.751,0,0,0,1.186,2.089,1.711,1.711,0,0,0,2.089-1.186c1.334-8.565.747-18.641-5.887-25.03-1.575-1.516-3.979.882-2.4,2.4" transform="translate(-154.309 -7.173)" fill="#06c"/>
    <path id="パス_1957" data-name="パス 1957" d="M330.734,9.427c.381-.362.756-.73,1.151-1.078.286-.252.582-.494.88-.731-.361.287.17-.124.26-.189q.335-.242.679-.469a19.933,19.933,0,0,1,6.879-2.884A33.425,33.425,0,0,1,351.5,3.632,30.406,30.406,0,0,1,360.1,5.825a22.308,22.308,0,0,1,3.8,2.1q.136.095.269.191c.087.064.175.127.261.193q-.2-.156.035.027.36.287.7.594a13.563,13.563,0,0,1,1.2,1.217,1.713,1.713,0,0,0,2.4,0,1.732,1.732,0,0,0,0-2.4c-3.8-4.39-10.015-6.506-15.6-7.3-6.855-.976-14.359-.529-20.427,3.1a25.4,25.4,0,0,0-4.414,3.475c-1.588,1.508.816,3.907,2.4,2.4" transform="translate(-129.014 0)" fill="#06c"/>
    <path id="パス_1958" data-name="パス 1958" d="M379.939,49.123a68,68,0,0,0-9.257-7.968c-.754-.534-1.526-1.046-2.326-1.51a4.016,4.016,0,0,0-2.941-.844,3.022,3.022,0,0,0-2.055,2.829,12.884,12.884,0,0,0-.067,1.36c0,.172-.01.343-.013.515q-.027.32,0-.034a1.36,1.36,0,0,1,.5-.644l.857-.232c-.206.026.044.007.114.023-.046-.01-.133-.076-.178-.069.19-.03.278.129.047.013-.076-.039-.153-.073-.229-.11-.392-.192-.776-.4-1.158-.607-1.007-.549-2-1.122-3-1.683a59.464,59.464,0,0,0-7.168-3.552,1.711,1.711,0,0,0-2.089,1.186,1.738,1.738,0,0,0,1.186,2.089,54.814,54.814,0,0,1,6.551,3.319c.934.525,1.864,1.059,2.8,1.573a12.1,12.1,0,0,0,2.286,1.1,2.182,2.182,0,0,0,2.835-2.081c.05-.46.037-.918.051-1.38,0-.159.035-.512.033-.559,0-.189.083-.034-.032-.055.255.046-1.1.447-1.057.232-.011.055,2.632,1.57,2.867,1.731,1,.69,1.973,1.426,2.918,2.193a72.518,72.518,0,0,1,6.111,5.564c1.531,1.565,3.932-.837,2.4-2.4" transform="translate(-138.108 -14.374)" fill="#06c"/>
    <path id="パス_1959" data-name="パス 1959" d="M338.411,39.474a16.432,16.432,0,0,0-5.973,5.884,61.44,61.44,0,0,0-4.443,8.571,1.751,1.751,0,0,0,.609,2.323,1.711,1.711,0,0,0,2.323-.609,63.253,63.253,0,0,1,4.285-8.323,18.437,18.437,0,0,1,2.1-2.773,13.249,13.249,0,0,1,1.149-1.1q.135-.108-.035.024l.2-.145c.186-.13.371-.26.563-.381.306-.2.62-.374.941-.543a1.7,1.7,0,1,0-1.714-2.932" transform="translate(-129.008 -15.451)" fill="#06c"/>
    <path id="パス_1960" data-name="パス 1960" d="M335.859,219.862c7.536,4.9,15.345,9.38,23.1,13.91q2.153,1.257,4.3,2.517c1.573.924,2.992,1.776,4.907,1.732,2.438-.056,4.875-.155,7.311-.246q11.613-.433,23.221-.975c8.006-.367,16.011-.753,24.01-1.233,2.767-.166,5.542-.312,8.3-.569a4.477,4.477,0,0,0,3.471-1.874c.837-1.207.878-2.885,1.122-4.29q.822-4.719,1.642-9.439,2.869-16.523,5.7-33.052a4.675,4.675,0,0,0-.745-3.948,4.311,4.311,0,0,0-3.529-1.616c-1.357.018-2.714.07-4.07.109q-5.438.155-10.875.334-12.913.415-25.825.865c-6.335.217-12.673.384-19.006.646a4.411,4.411,0,0,0-3.453,1.655c-.924,1.193-.989,2.786-1.241,4.224q-.848,4.845-1.687,9.691-1.7,9.778-3.41,19.554-.865,4.9-1.75,9.8a1.745,1.745,0,0,0,1.186,2.089,1.712,1.712,0,0,0,2.089-1.186c2.3-12.719,4.473-25.461,6.7-38.194q.2-1.128.4-2.257a4.939,4.939,0,0,1,.392-1.655.878.878,0,0,1,.585-.315c.24-.03.493-.016.734-.024l3.4-.113q4.857-.164,9.713-.332,12.458-.428,24.917-.845c6.943-.229,13.887-.465,20.832-.637a5.82,5.82,0,0,1,.777.008,1.23,1.23,0,0,1,.358.17,1.14,1.14,0,0,1,.271.4,1.748,1.748,0,0,1,.021.27,4.152,4.152,0,0,1-.092.637q-.166.968-.332,1.937-.644,3.761-1.291,7.523-1.382,8.041-2.775,16.079-1.564,9.024-3.135,18.045c-.069.395-.134.791-.206,1.186-.033.178-.13.627-.136.643a.787.787,0,0,1-.337.408c.071-.052-.278.1-.254.1a14.187,14.187,0,0,1-1.547.129q-1.961.149-3.924.273c-7.429.48-14.866.846-22.3,1.2q-11.847.563-23.7,1.033-4.4.174-8.8.325c-.967.032-1.936.073-2.9.088-1.307.02-2.5-.978-3.6-1.619-7.32-4.289-14.67-8.531-21.9-12.978-1.652-1.017-3.3-2.046-4.923-3.1-1.837-1.195-3.542,1.744-1.714,2.932" transform="translate(-131.872 -71.147)" fill="#06c"/>
    <path id="パス_1961" data-name="パス 1961" d="M452.567,255.344c-13.322.791-26.643,1.59-39.975,2.2q-5.992.274-11.986.5c-2.179.081-2.189,3.477,0,3.4,13.6-.5,27.187-1.234,40.771-2.031q5.6-.328,11.19-.663a1.737,1.737,0,0,0,1.7-1.7,1.714,1.714,0,0,0-1.7-1.7" transform="translate(-157.018 -100.492)" fill="#06c"/>
    <path id="パス_1962" data-name="パス 1962" d="M307.183,163.467q-3.264,12.32-5.941,24.785a1.737,1.737,0,0,0,1.186,2.089,1.715,1.715,0,0,0,2.089-1.186q2.676-12.461,5.941-24.785c.56-2.115-2.715-3.017-3.275-.9" transform="translate(-118.54 -63.86)" fill="#06c"/>
    <path id="パス_1963" data-name="パス 1963" d="M318.6,203.58c-6.575.585-13.259-.126-19.828-.489a1.7,1.7,0,0,0,0,3.4c6.57.363,13.253,1.075,19.828.489a1.743,1.743,0,0,0,1.7-1.7,1.711,1.711,0,0,0-1.7-1.7" transform="translate(-116.916 -79.928)" fill="#06c"/>
    <path id="パス_1964" data-name="パス 1964" d="M364.95,226.105c0-.059,0-.118,0-.174a2.455,2.455,0,0,0-.624-1.573l-.45-.571.585.124a2.2,2.2,0,0,0,2.306-.859,2.415,2.415,0,0,0-.03-2.072A6.053,6.053,0,0,0,365.6,219.6c-.513-.508-2.738-2.209-3.317-2.631a53.819,53.819,0,0,0-7.3-4.48c-2.067-1.052-4.383-1.986-6.644-1.5-2.885.625-4.283,1.9-7.148,2.6-2.018.5-3.147.038-4.846-.007a40.92,40.92,0,0,0-3.246,10.985l.352.1c.725.305,2.557,1.44,4.667,2.315a7.706,7.706,0,0,0,5.93-.025,43.246,43.246,0,0,0,5.409,5.064c.362.29,1.561,1.172,2.539.343a2,2,0,0,0,.175-2.277c-1.526-2.34-2.175-4.075-3.864-6.232,2.8,1.739,5.492,3.775,8.282,5.541a3.692,3.692,0,0,0,2.72.887,1.943,1.943,0,0,0,1.635-2.024,3.012,3.012,0,0,0-.542-1.423l.839.39a5.573,5.573,0,0,0,1.63.54,2.019,2.019,0,0,0,1.635-.482,1.979,1.979,0,0,0,.438-1.184" transform="translate(-131.097 -82.984)" fill="#fff"/>
    <path id="パス_1965" data-name="パス 1965" d="M365.081,224.447a3.962,3.962,0,0,0,4.224-1.639,4.043,4.043,0,0,0-.253-4.151c-1.2-1.748-3.153-3.023-4.836-4.257a47.433,47.433,0,0,0-8.394-5.009,12.838,12.838,0,0,0-4.967-1.332,11.5,11.5,0,0,0-4.661,1.1,30.2,30.2,0,0,1-4.246,1.656,15.2,15.2,0,0,1-4.486-.032c-2.185-.091-2.181,3.306,0,3.4,1.131.047,2.253.286,3.388.222a12.631,12.631,0,0,0,4-.978c2.1-.848,4.337-2.288,6.69-1.915,2.634.418,5.163,2.066,7.4,3.435a56.509,56.509,0,0,1,5.2,3.636,10.606,10.606,0,0,1,1.984,1.789,2.509,2.509,0,0,1,.222.364c-.178-.351-.018-.029-.006.076.033.292-.01-.212.026.109.013.126-.056.3,0,.233s-.067-.051.033-.068c-.125.021-.255.076-.382.1.23-.046-.326-.067-.027-.016a1.748,1.748,0,0,0-2.089,1.186,1.712,1.712,0,0,0,1.186,2.089" transform="translate(-132.167 -81.883)" fill="#06c"/>
    <path id="パス_1966" data-name="パス 1966" d="M368.085,222.26a58.778,58.778,0,0,1,5.352,3.711l.158.121c.2.148-.223-.177-.034-.026.1.079.2.158.3.237q.313.247.622.5c.361.3.718.6,1.064.908.267.241.517.493.764.754.277.292-.23-.332-.041-.053.058.086.12.167.18.252.044.063.088.126.128.192s.16.392.1.169c-.058-.208-.005.018,0,.048.039.2.01.09.007-.042,0,.073.01.146.01.219,0,.057-.052.317,0,.135.059-.216-.03.062-.034.067.149-.2.038-.014-.005,0,.133-.049.149-.132.01-.028.047-.036.213-.213.288-.171.01.005-.582.1-.322.095.241,0-.428-.075-.031.006a6.063,6.063,0,0,1-.66-.179s-.263-.1-.116-.039-.283-.128-.275-.124a1.74,1.74,0,0,0-2.323.609,1.718,1.718,0,0,0,.609,2.323,6.216,6.216,0,0,0,2.953.78,3.4,3.4,0,0,0,2.8-1.558c.99-1.7.386-3.556-.759-4.969a13.74,13.74,0,0,0-2.08-1.908c-1.122-.909-2.278-1.779-3.451-2.621-1.139-.816-2.294-1.616-3.5-2.338a1.7,1.7,0,1,0-1.714,2.932" transform="translate(-144.539 -86.23)" fill="#06c"/>
    <path id="パス_1967" data-name="パス 1967" d="M359.687,226.411c1.972,1.241,3.864,2.6,5.764,3.945a8.877,8.877,0,0,1,2.378,1.993c-.118-.158.141.223.163.258.037.059.328.646.2.331a2.736,2.736,0,0,1,.089.275q.063.3,0-.072-.016.317.016.042a2.1,2.1,0,0,1-.087.3q.1-.255-.039,0,.166-.214-.033,0,.215-.16-.036,0,.247-.092-.045,0l-.275.012c.2.058-.524-.194-.257-.079a19.427,19.427,0,0,1-2.975-1.881c-1.985-1.34-3.93-2.739-5.952-4.024a1.7,1.7,0,0,0-1.714,2.932c1.891,1.2,3.716,2.5,5.568,3.764,1.708,1.163,3.706,2.91,5.91,2.645a3.685,3.685,0,0,0,3.178-4.619c-.579-2.06-2.34-3.378-3.994-4.548-2.029-1.435-4.041-2.892-6.145-4.216a1.7,1.7,0,0,0-1.714,2.932" transform="translate(-140.126 -87.861)" fill="#06c"/>
    <path id="パス_1968" data-name="パス 1968" d="M353.074,232.841a31.863,31.863,0,0,1,2.024,3.268c.329.586.66,1.172,1.011,1.745a7.7,7.7,0,0,0,.5.8c.146.183-.111-.4-.035-.068.01.044.022.09.035.132.088.277-.005-.322-.008-.116,0,.1.008.2.01.3,0,.07-.022.307.007.027s.015-.082-.007-.028c-.109.281.188-.292.028-.042-.149.232.079-.095.093-.113-.1.136-.032,0,.053-.042.041-.021.352-.121.067-.029-.044.015-.252.068,0,.006.215-.053.073-.018,0-.022.056,0,.388.1.122.01a.758.758,0,0,0-.158-.046c-.16-.007.134.032.155.075-.031-.064-.292-.15-.356-.189s-.147-.1-.219-.145c-.338-.229.262.218.069.056-.3-.251-.6-.49-.9-.739q-.767-.642-1.508-1.313a41.022,41.022,0,0,1-3.167-3.221,1.709,1.709,0,0,0-2.4,0,1.739,1.739,0,0,0,0,2.4,41.065,41.065,0,0,0,3.221,3.269q.884.8,1.808,1.558a8.887,8.887,0,0,0,1.645,1.209,3.58,3.58,0,0,0,2.708.329,3.042,3.042,0,0,0,2.018-2.109,4.021,4.021,0,0,0-.079-2.247,12.69,12.69,0,0,0-1.19-2.124,48.221,48.221,0,0,0-2.616-4.308,1.739,1.739,0,0,0-2.323-.609,1.717,1.717,0,0,0-.609,2.323" transform="translate(-136.963 -90.629)" fill="#06c"/>
    <path id="パス_1969" data-name="パス 1969" d="M342.025,233.48c-.22.065-.44.126-.664.173-.112.024-.225.042-.337.064.183-.035.048,0-.059.006a9.24,9.24,0,0,1-1.371.012c-.1-.005-.247-.019-.06,0-.113-.013-.227-.036-.339-.058-.224-.043-.448-.1-.667-.159s-.437-.137-.651-.218c-.044-.016-.244-.1-.093-.037-.139-.059-.278-.122-.416-.185-1.331-.6-2.573-1.406-3.912-1.986a1.744,1.744,0,0,0-2.323.609,1.717,1.717,0,0,0,.609,2.323c1.507.654,2.9,1.557,4.412,2.207a9.8,9.8,0,0,0,6.775.519,1.7,1.7,0,0,0-.9-3.275" transform="translate(-130.239 -90.874)" fill="#06c"/>
    <path id="パス_1970" data-name="パス 1970" d="M309.217,171.169c-2.077,2.7-3.072,6.289-3.842,9.554a40.983,40.983,0,0,0-1.244,7.557l1.7-1.7c-5.317-.077-10.634-.143-15.95-.287-2.4-.066-4.82-.1-7.214-.32-4.3-.4-9.146-.486-12.293-3.9a8.017,8.017,0,0,1-1.838-4.486,25.918,25.918,0,0,1-.148-5.694c.03-.311-.057.384.01-.086.021-.146.044-.291.065-.437l.151-1q.147-.98.3-1.959.274-1.8.556-3.606.543-3.469,1.139-6.929c.746-4.283,1.59-8.548,2.575-12.783q.787-3.381,1.678-6.738a49.617,49.617,0,0,1,2.029-6.431,29.074,29.074,0,0,1,7.374-10.932c3.43-3,7.642-4.864,11.861-6.463,1.059-.4,2.124-.789,3.187-1.178a1.744,1.744,0,0,0,1.186-2.089,1.712,1.712,0,0,0-2.089-1.186c-4.534,1.657-9.2,3.3-13.242,5.987a28.964,28.964,0,0,0-9.627,10.818,42.824,42.824,0,0,0-2.833,6.574c-.768,2.332-1.333,4.746-1.928,7.127q-1.658,6.621-2.9,13.337c-.888,4.79-1.64,9.6-2.369,14.419a34.706,34.706,0,0,0-.579,6.633,20.188,20.188,0,0,0,.87,5.955c1.726,4.777,6.559,7.2,11.314,7.878a92.638,92.638,0,0,0,9.775.8c6,.218,12.008.289,18.012.369l.928.012a1.728,1.728,0,0,0,1.7-1.7c.014-.326.05-.651.087-.976.015-.132.115-.873.045-.382.045-.311.089-.622.138-.933q.344-2.2.853-4.363c.741-3.141,1.552-6.213,3.5-8.743a1.708,1.708,0,0,0-.609-2.323,1.742,1.742,0,0,0-2.323.609" transform="translate(-104.26 -43.289)" fill="#06c"/>
    <path id="パス_1971" data-name="パス 1971" d="M366.618,78.856c.119.307.213.626.305.942a8.064,8.064,0,0,1,.281,1.182c-.02-.15-.041-.3-.061-.452a1.091,1.091,0,0,1,.011.247c.02-.15.041-.3.061-.451a.252.252,0,0,1-.015.059l.172-.406a.106.106,0,0,1-.012.019l.266-.343-.01.009.344-.266a1.443,1.443,0,0,1-.232.137l.405-.171a1.01,1.01,0,0,1-.235.067l.452-.061a3.05,3.05,0,0,1-.428-.007,1.7,1.7,0,0,0-1.7,1.7,1.718,1.718,0,0,0,.5,1.2,1.789,1.789,0,0,0,1.2.5,3.614,3.614,0,0,0,.4.01,2.682,2.682,0,0,0,1.294-.4,1.869,1.869,0,0,0,.875-1.133,2.118,2.118,0,0,0,.056-.671,10.242,10.242,0,0,0-.437-1.974c-.066-.215-.133-.431-.215-.642a1.9,1.9,0,0,0-.781-1.015,1.7,1.7,0,0,0-2.323.609,1.659,1.659,0,0,0-.171,1.309" transform="translate(-144.131 -30.188)" fill="#06c"/>
    <path id="パス_1972" data-name="パス 1972" d="M384.67,69.143c.327,1.136.094,3.743-1.966,3.947-2.722-.041-2.848-3.2-1.922-4.67.757-1.207,2.965-1.693,3.888.722" transform="translate(-149.656 -26.535)" fill="#06c"/>
    <path id="パス_1973" data-name="パス 1973" d="M348.933,68.2c-.373,1.181-.155,3.907,2.086,4.155,2.966,0,3.147-3.289,2.161-4.844-.808-1.274-3.207-1.819-4.247.689" transform="translate(-137.268 -26.146)" fill="#06c"/>
    <path id="パス_1974" data-name="パス 1974" d="M366.376,92.244a6.136,6.136,0,0,1-.729.177c-.075.013-.156.018-.23.037.052-.013.405-.046.167-.025-.13.012-.26.024-.391.032a12.177,12.177,0,0,1-1.815-.058c-.227-.021.358.056.133.018l-.212-.033q-.238-.04-.475-.09-.443-.094-.878-.225c-.283-.086-.554-.2-.833-.3.064.022.332.149.127.05l-.181-.086c-.146-.072-.289-.15-.431-.232a1.7,1.7,0,0,0-1.714,2.932,11.411,11.411,0,0,0,4.357,1.344,9.716,9.716,0,0,0,4.007-.271,1.7,1.7,0,0,0-.9-3.275" transform="translate(-140.93 -35.929)" fill="#06c"/>
    <path id="パス_1975" data-name="パス 1975" d="M205.978,85.413c4.4-7.243,6.375-16.309,4.42-26.617-4.9-25.856-23.817-36.55-45.018-32.531s-34.889,20.895-29.987,46.75c4.482,23.645,25.8,33.648,44.555,30.093a39.729,39.729,0,0,0,21.264-11.485c2.4.813,8.208,2.543,10.923,3.2-1.859-3.085-4.186-6.579-6.156-9.408" transform="translate(-52.893 -10.013)" fill="#fff"/>
    <path id="パス_1976" data-name="パス 1976" d="M206.349,85.17c5.259-8.718,6.44-18.974,4.408-28.856-1.659-8.07-5.022-15.914-10.612-22.05a35.423,35.423,0,0,0-18.082-10.57,45.047,45.047,0,0,0-22.353.8,39.757,39.757,0,0,0-18.421,10.917A36.528,36.528,0,0,0,132.1,55.023a49.085,49.085,0,0,0-.154,12.641,47.873,47.873,0,0,0,3.143,12.929A38.02,38.02,0,0,0,149.9,98.338a40.538,40.538,0,0,0,20.842,6.061,41.455,41.455,0,0,0,30.574-12.676l-1.652.437c3.586,1.211,7.246,2.3,10.923,3.2a1.718,1.718,0,0,0,1.918-2.494c-1.938-3.208-4.016-6.332-6.157-9.408a1.743,1.743,0,0,0-2.323-.609,1.713,1.713,0,0,0-.609,2.323c2.14,3.077,4.218,6.2,6.157,9.408l1.918-2.494c-3.677-.9-7.337-1.988-10.923-3.2a1.676,1.676,0,0,0-1.652.437,37.865,37.865,0,0,1-17.735,10.418,38.967,38.967,0,0,1-5.553,1.046,40.155,40.155,0,0,1-5.066.215q-1.314-.026-2.625-.14c-.884-.076-1.569-.159-2.247-.264a39.343,39.343,0,0,1-5.041-1.124,36.641,36.641,0,0,1-4.616-1.69A34.158,34.158,0,0,1,140.7,84.259c-4.141-6.88-5.822-15.186-5.7-23.224a35.656,35.656,0,0,1,5.866-19.683,34.219,34.219,0,0,1,14.9-11.9A43.276,43.276,0,0,1,176.423,26.2a32.225,32.225,0,0,1,4.738.768,34.914,34.914,0,0,1,4.76,1.472,32.724,32.724,0,0,1,4.209,2.049,32.315,32.315,0,0,1,3.9,2.666A37.674,37.674,0,0,1,205.76,50.762c2.935,8.779,3.68,18.263.412,27.059a33.619,33.619,0,0,1-2.754,5.634c-1.132,1.876,1.8,3.585,2.932,1.714" transform="translate(-51.799 -8.912)" fill="#06c"/>
    <path id="パス_1977" data-name="パス 1977" d="M227.59,319.4c5.571,6.387,13.614,11.013,24.03,12.271,26.127,3.155,42.045-11.638,44.632-33.059s-9.354-39.577-35.48-42.732c-23.893-2.885-39.88,14.408-42.168,33.357a39.73,39.73,0,0,0,4.511,23.742c-1.5,2.037-4.909,7.053-6.356,9.442,3.5-.837,7.538-2,10.831-3.02" transform="translate(-85.308 -100.579)" fill="#fff"/>
    <path id="パス_1978" data-name="パス 1978" d="M225.282,319.5a38.858,38.858,0,0,0,23.5,12.534c8.2,1.233,16.9.876,24.677-2.19a35.837,35.837,0,0,0,16.5-13.061,43.406,43.406,0,0,0,7.027-20.61,41.521,41.521,0,0,0-3.385-21.213,35.719,35.719,0,0,0-14.122-15.516,49.509,49.509,0,0,0-24.456-6.676A38.186,38.186,0,0,0,231.867,260a40.465,40.465,0,0,0-13.7,18.316,41.353,41.353,0,0,0,2.379,34.419v-1.714c-2.24,3.05-4.389,6.208-6.356,9.442a1.717,1.717,0,0,0,1.918,2.494c3.644-.876,7.251-1.911,10.83-3.02,2.081-.644,1.193-3.924-.9-3.275-3.58,1.109-7.186,2.144-10.831,3.02l1.918,2.494c1.967-3.234,4.116-6.391,6.355-9.442a1.68,1.68,0,0,0,0-1.714,37.383,37.383,0,0,1-4.349-13.934,38.217,38.217,0,0,1,.79-12.884A37.6,37.6,0,0,1,230,266.029a34.221,34.221,0,0,1,19.453-9.55A46.156,46.156,0,0,1,273.142,260a40.121,40.121,0,0,1,4.863,2.522,32.965,32.965,0,0,1,4.037,2.874,33.82,33.82,0,0,1,3.542,3.434,27.2,27.2,0,0,1,2.815,3.708,33.493,33.493,0,0,1,2.341,4.292c.305.67.5,1.144.81,1.987q.434,1.183.783,2.394a37.862,37.862,0,0,1,1.067,4.913c.01.065.071.5.039.258.028.208.053.417.077.625q.077.674.133,1.351.1,1.277.132,2.559a44.186,44.186,0,0,1-1,10.457,43.351,43.351,0,0,1-1.407,5.053,32.574,32.574,0,0,1-1.833,4.363,36.285,36.285,0,0,1-2.52,4.278,28.876,28.876,0,0,1-2.907,3.611,30.214,30.214,0,0,1-7.438,5.89,33.9,33.9,0,0,1-9.5,3.664,44.133,44.133,0,0,1-11.43,1.038c-8.54-.257-17.1-2.561-23.8-8.042a35.959,35.959,0,0,1-4.263-4.131,1.7,1.7,0,1,0-2.4,2.4" transform="translate(-84.2 -99.477)" fill="#06c"/>
    <path id="パス_1979" data-name="パス 1979" d="M206.271,75.668A22.165,22.165,0,1,1,184.106,53.5,22.165,22.165,0,0,1,206.271,75.668Z" transform="translate(-63.734 -21.057)" fill="none" stroke="#f60" stroke-miterlimit="10" stroke-width="8"/>
    <path id="パス_1980" data-name="パス 1980" d="M271.725,301.608l16.083-16.082c1.018-.946,1.6-1.383,2.765-1.383a3.106,3.106,0,0,1,2.765,2.838,3.171,3.171,0,0,1-1.237,2.474l-16.3,16.228,16.373,16.155c1.455,1.383,1.455,1.892,1.455,2.693a2.89,2.89,0,0,1-2.838,2.838,3.042,3.042,0,0,1-2.328-1.092L271.8,309.685,255.28,326.131c-1.092,1.092-1.6,1.383-2.547,1.383a3.046,3.046,0,0,1-2.984-2.983c0-1.019.582-1.674,1.6-2.693l16.3-16.155-16.591-16.519c-.8-.8-1.164-1.31-1.164-2.11a3.224,3.224,0,0,1,3.129-2.911,3.146,3.146,0,0,1,2.183,1.092Z" transform="translate(-98.291 -111.827)" fill="#9c0"/>
    <path id="パス_1981" data-name="パス 1981" d="M271.725,301.608l16.083-16.082c1.018-.946,1.6-1.383,2.765-1.383a3.106,3.106,0,0,1,2.765,2.838,3.171,3.171,0,0,1-1.237,2.474l-16.3,16.228,16.373,16.155c1.455,1.383,1.455,1.892,1.455,2.693a2.89,2.89,0,0,1-2.838,2.838,3.042,3.042,0,0,1-2.328-1.092L271.8,309.685,255.28,326.131c-1.092,1.092-1.6,1.383-2.547,1.383a3.046,3.046,0,0,1-2.984-2.983c0-1.019.582-1.674,1.6-2.693l16.3-16.155-16.591-16.519c-.8-.8-1.164-1.31-1.164-2.11a3.224,3.224,0,0,1,3.129-2.911,3.146,3.146,0,0,1,2.183,1.092Z" transform="translate(-98.291 -111.827)" fill="none" stroke="#9c0" stroke-miterlimit="10" stroke-width="1.4"/>
  </g>
</svg>
