<svg xmlns="http://www.w3.org/2000/svg" xmlns:xlink="http://www.w3.org/1999/xlink" width="278" height="239.209" viewBox="0 0 278 239.209">
  <defs>
    <clipPath id="clip-path">
      <rect id="長方形_46" data-name="長方形 46" width="278" height="239.209" transform="translate(1246.352 3458.679)" fill="#fff" stroke="#707070" stroke-width="1"/>
    </clipPath>
    <clipPath id="clip-path-2">
      <rect id="長方形_45" data-name="長方形 45" width="258.582" height="299.025" fill="none"/>
    </clipPath>
  </defs>
  <g id="マスクグループ_10" data-name="マスクグループ 10" transform="translate(-1246.352 -3458.679)" clip-path="url(#clip-path)">
    <g id="グループ_81" data-name="グループ 81" transform="translate(1256.974 3472.05)">
      <g id="グループ_80" data-name="グループ 80" clip-path="url(#clip-path-2)">
        <path id="パス_321" data-name="パス 321" d="M282.45,116.68c1.127,5.5-15.258,11.729-15.853,17.024-.617,5.487,13.914,15.2,11.676,20.124-2.262,4.97-19.164.41-22.844,4.444-3.644,3.994,2.441,20.427-2.361,23.152-4.634,2.63-15.594-10.97-21.1-9.843s-10.228,17.942-15.523,17.348c-5.487-.617-6.357-18.118-11.278-20.357-4.971-2.261-18.716,8.58-22.751,4.9-3.995-3.643,5.544-18.291,2.819-23.093-2.629-4.634-20.144-3.913-21.271-9.416s15.258-11.728,15.853-17.024c.617-5.487-13.915-15.2-11.676-20.123,2.262-4.971,19.164-.41,22.844-4.445,3.644-3.994-2.441-20.427,2.361-23.152,4.634-2.63,15.594,10.971,21.1,9.843s10.228-17.942,15.523-17.348c5.487.616,6.357,18.118,11.278,20.357,4.971,2.262,18.716-8.58,22.751-4.9,3.994,3.644-5.544,18.291-2.819,23.094C263.808,111.9,281.323,111.179,282.45,116.68Z" transform="translate(-26.027 -10.908)" fill="none" stroke="#211715" stroke-miterlimit="10" stroke-width="5"/>
        <path id="パス_322" data-name="パス 322" d="M200.4,307.18c-.6-1.809-1.18-3.528-1.711-5.122-4.548.5-10.54,1.066-15.775,1.417-.088,1.067-.146,1.738-.146,1.738a237.106,237.106,0,0,0-.83,25.374,4.357,4.357,0,0,0,1.342,2.874,3.7,3.7,0,0,0,2.692.785c1.951-.068,4.824-2.384,6.061-5.576a87.655,87.655,0,0,0,4.959,11.2,12.274,12.274,0,0,0,2.694,3.862,4.507,4.507,0,0,0,4.393,1.036c2.209-.842,2.8-2.715,2.947-5.073.61-9.733-3.306-22.509-6.625-32.517" transform="translate(-28.875 -47.962)" fill="#fff"/>
        <path id="パス_323" data-name="パス 323" d="M28.882,307.18c-3.319,10.007-7.234,22.784-6.625,32.517.148,2.359.739,4.231,2.947,5.073a4.509,4.509,0,0,0,4.394-1.036,12.288,12.288,0,0,0,2.694-3.862,87.733,87.733,0,0,0,4.958-11.2c1.237,3.191,4.111,5.507,6.062,5.575A3.7,3.7,0,0,0,46,333.462a4.36,4.36,0,0,0,1.342-2.874,237.084,237.084,0,0,0-.831-25.374s-.057-.672-.146-1.739c-5.235-.352-11.228-.92-15.775-1.417-.531,1.593-1.111,3.312-1.711,5.121" transform="translate(-3.524 -47.962)" fill="#fff"/>
        <path id="パス_324" data-name="パス 324" d="M88.268,102.739c-10.651,0-23.7-4.361-27.895-12.146-3.66-6.8-2.8-14.815-1.469-22.492,3.351-18.409,1.507-39.168,16.247-53.279C80.63,9.577,92.973,2.433,106.842,2.433c8.531,0,17.615,1.745,25.019,6.153a30.709,30.709,0,0,1,10.35,9.915c6.031,6.428,8.207,13.869,9.424,22.214,1.353,9.274,2.607,18.571,4.508,27.753,1.724,8.324,2.615,16.539-2.872,23.813-6.555,8.69-18.32,10.9-28.871,10.9" transform="translate(-9.172 -0.386)" fill="#645d5c"/>
        <path id="パス_325" data-name="パス 325" d="M87.89,100.333a42.514,42.514,0,0,1-15.973-3.139c-4.4-1.816-8.613-4.595-10.671-8.988-2.7-5.763-1.987-12.6-.989-18.673.937-5.713,1.661-11.428,2.307-17.18,1.215-10.813,2.748-22.1,9.115-31.249C77.748,12.383,88.064,6.984,98.347,4.888a48.351,48.351,0,0,1,18.753.154c6.158,1.2,12.3,3.51,17.168,7.556a31.838,31.838,0,0,1,3.445,3.342c1.73,1.946,4.578-.918,2.855-2.855A37.832,37.832,0,0,0,123.227,2.408,54.452,54.452,0,0,0,102.971.177,51.745,51.745,0,0,0,84.022,5.684,42.965,42.965,0,0,0,71.5,14.906c-8.337,9.184-10.982,21.267-12.474,33.22-.723,5.791-1.2,11.615-2.154,17.377-1.126,6.837-2.394,13.87-.591,20.717a19.67,19.67,0,0,0,4.065,7.956,23.506,23.506,0,0,0,6.271,4.915,43.784,43.784,0,0,0,17.076,5.067q2.095.208,4.2.214c2.6.01,2.6-4.028,0-4.038" transform="translate(-8.793 0)" fill="#211715"/>
        <path id="パス_326" data-name="パス 326" d="M154.3,24.34c4.253,5.186,6.24,11.582,7.324,18.1,1.317,7.923,2.252,15.9,3.68,23.808,1.2,6.632,3.34,13.608,1.9,20.378-1.315,6.19-5.637,10.948-11.2,13.733-5.946,2.974-12.834,3.722-19.4,3.736-2.6.005-2.6,4.043,0,4.038,13.012-.026,28.12-3.695,33.467-17.048,2.766-6.909,1.389-14.4-.024-21.441-1.7-8.449-2.874-16.99-4.112-25.516a60.664,60.664,0,0,0-2.679-11.843,36.106,36.106,0,0,0-6.1-10.8,2.033,2.033,0,0,0-2.855,0,2.064,2.064,0,0,0,0,2.855" transform="translate(-21.382 -3.318)" fill="#211715"/>
        <path id="パス_327" data-name="パス 327" d="M139.679,126.384c-.35-.141-10.1-4.783-10.325-4.865-3.442-1.244-3.309-3.449-3.74-5.923-.277-1.58-.483-3.151-.606-4.74,8.266-4.383,14.8-15.631,15.977-18.839a35.369,35.369,0,0,0,1.6-4.341l.446.075a6.025,6.025,0,0,0,4.649-1.342c2.908-2.38,4.114-5.7,4.851-7.867,1.04-3.064,1.105-8.014-.444-10.7a5.076,5.076,0,0,0-4.559-2.533,5.469,5.469,0,0,0-3.954,1.447l-3.328-5.2a69.284,69.284,0,0,0-14.36-21.628c-8.1,6.757-12.5,9.6-27.128,16.55-7.974,3.788-16.664,6.345-23.866,8.549L73.6,66.755a5.471,5.471,0,0,0-3.955-1.447,5.077,5.077,0,0,0-4.559,2.533c-1.549,2.687-1.483,7.637-.443,10.7.736,2.169,1.942,5.487,4.851,7.867a5.917,5.917,0,0,0,5.03,1.261,41.6,41.6,0,0,0,7.892,14.89,31.016,31.016,0,0,0,10.8,8.737s.175.079.35.165c-.119,1.386-.313,2.7-.559,4.135-.448,2.474-.3,4.679-3.74,5.923-.224.082-11.1,5.17-11.771,5.394,0,0,3.605,21.944,31.459,21.944s30.729-22.473,30.729-22.473" transform="translate(-10.144 -6.339)" fill="#fff"/>
        <path id="パス_328" data-name="パス 328" d="M80.216,141.982c1.057-.369,2.08-.9,3.1-1.369q2.428-1.112,4.849-2.238c1.269-.588,2.535-1.179,3.806-1.762.131-.06.265-.116.395-.181.092-.045.294-.13-.146.06-.541.234,0,.008.14-.047.278-.111.557-.225.827-.354a6.388,6.388,0,0,0,2.856-2.629,10.468,10.468,0,0,0,.976-3.472c.278-1.8.588-3.589.751-5.406a2.034,2.034,0,0,0-2.019-2.019,2.062,2.062,0,0,0-2.019,2.019c-.125,1.4-.36,2.768-.579,4.15a13.691,13.691,0,0,1-.56,2.64c-.1.278.156-.279,0-.024-.058.094-.109.2-.165.292-.218.372.076,0-.162.213-.093.081-.177.176-.268.257.22-.2-.013.016-.065.051a6.955,6.955,0,0,1-.775.439c-.358.168-.8.331-1.194.511-2.7,1.24-5.392,2.5-8.093,3.743q-1.05.483-2.1.961l-.67.3c-.5.225.461-.168.047-.024a2.069,2.069,0,0,0-1.41,2.484,2.037,2.037,0,0,0,2.483,1.41" transform="translate(-12.331 -19.462)" fill="#211715"/>
        <path id="パス_329" data-name="パス 329" d="M134.182,124.346c.153,1.692.4,3.369.675,5.045a20.022,20.022,0,0,0,.5,2.667,6.284,6.284,0,0,0,1.724,2.842,7.151,7.151,0,0,0,1.546,1.076c.363.183.74.341,1.119.487.768.3-.444-.225-.157-.076,2.39,1.242,4.891,2.308,7.326,3.46,1.125.532,2.243,1.088,3.391,1.569a2.03,2.03,0,0,0,2.483-1.41,2.071,2.071,0,0,0-1.41-2.484c1.022.429-.067-.049-.308-.162l-1.565-.737q-2.117-1-4.233-2c-1.091-.516-2.181-1.036-3.276-1.546-.357-.166-.942-.4-1.131-.486a6.368,6.368,0,0,1-.66-.353c-.041-.025-.38-.258-.191-.117.162.122-.066-.057-.08-.072-.09-.089-.5-.564-.246-.212a5.032,5.032,0,0,1-.363-.607c-.108-.2.042.109.049.127-.054-.147-.105-.293-.15-.442-.06-.2-.109-.408-.151-.614-.1-.485-.168-.978-.242-1.468-.226-1.495-.474-2.975-.611-4.482a2.074,2.074,0,0,0-2.019-2.019,2.034,2.034,0,0,0-2.019,2.019" transform="translate(-21.305 -19.424)" fill="#211715"/>
        <path id="パス_330" data-name="パス 330" d="M74.641,69.741a7.957,7.957,0,0,0-8.685-1.279,7.68,7.68,0,0,0-4.007,5.352,19.8,19.8,0,0,0,2.882,15.195c1.972,2.975,5.109,5.679,8.924,5.174a2.086,2.086,0,0,0,2.019-2.019c0-.98-.93-2.164-2.019-2.019-2.911.385-4.884-2.023-6.145-4.355a16.6,16.6,0,0,1-2.022-6.323c-.183-2.14-.17-4.747,1.1-6.574.234-.338-.163.145.135-.151.077-.077.5-.446.407-.378a3.389,3.389,0,0,1,1.234-.526,3.723,3.723,0,0,1,3.326.757c1.93,1.731,4.794-1.115,2.855-2.855" transform="translate(-9.76 -10.752)" fill="#211715"/>
        <path id="パス_331" data-name="パス 331" d="M159.558,72.593a3.717,3.717,0,0,1,3.326-.757,3.368,3.368,0,0,1,1.233.526c-.124-.088.275.251.338.306s.135.14.2.214q-.185-.26.007.008c1.265,1.825,1.278,4.435,1.1,6.573a16.562,16.562,0,0,1-2.022,6.324c-1.263,2.33-3.232,4.74-6.145,4.355a2.029,2.029,0,0,0-2.019,2.019,2.071,2.071,0,0,0,2.019,2.019c6.228.824,10.058-6.029,11.564-11.064,1.321-4.415,1.338-11.272-2.9-14.175a7.913,7.913,0,0,0-9.547.8c-1.938,1.739.924,4.586,2.855,2.855" transform="translate(-24.702 -10.749)" fill="#211715"/>
        <path id="パス_332" data-name="パス 332" d="M151.723,92.725a42.807,42.807,0,0,1-2.39,7.243c.2-.5-.094.2-.213.448q-.257.536-.536,1.062c-.425.805-.879,1.595-1.353,2.372a43.766,43.766,0,0,1-9.348,11.119,16.981,16.981,0,0,1-6.893,3.581c-2.53.587-1.459,4.481,1.073,3.893,5.354-1.242,9.813-5.138,13.311-9.205a47.709,47.709,0,0,0,7.434-11.218c.182-.4.342-.814.514-1.221-.252.595.294-.67.319-.731q.2-.477.381-.958a34.931,34.931,0,0,0,1.594-5.311c.523-2.536-3.368-3.621-3.894-1.073" transform="translate(-20.57 -14.493)" fill="#211715"/>
        <path id="パス_333" data-name="パス 333" d="M73.377,93.651a44.171,44.171,0,0,0,9.578,19.022c4.546,5.279,10.4,9.475,17.419,10.517a2.085,2.085,0,0,0,2.483-1.411,2.034,2.034,0,0,0-1.41-2.483c-6.416-.953-11.481-4.651-15.637-9.478a39.928,39.928,0,0,1-8.539-17.241c-.575-2.533-4.469-1.461-3.894,1.073" transform="translate(-11.642 -14.47)" fill="#211715"/>
        <path id="パス_334" data-name="パス 334" d="M115.889,87.313a32.192,32.192,0,0,1,.758,3.469c-.024-.178-.048-.358-.072-.537a2.12,2.12,0,0,1,.013.479c.024-.178.048-.358.072-.537a1.168,1.168,0,0,1-.053.215q.1-.241.2-.482a.854.854,0,0,1-.076.139l.315-.409a.681.681,0,0,1-.114.112l.409-.315a2.251,2.251,0,0,1-.274.146l.482-.2a1.979,1.979,0,0,1-.464.135l.537-.072a1.834,1.834,0,0,1-.435,0l.537.072c-.163-.023-.325-.062-.489-.085a1.525,1.525,0,0,0-.805-.035,1.5,1.5,0,0,0-.75.239,2.019,2.019,0,0,0-.724,2.763,1.934,1.934,0,0,0,1.206.928c.395.053.777.153,1.179.171a3.807,3.807,0,0,0,1.764-.424,2.6,2.6,0,0,0,1.425-1.706,4.19,4.19,0,0,0-.017-1.811c-.189-1.118-.448-2.226-.734-3.322a2.083,2.083,0,0,0-.928-1.206,2.019,2.019,0,0,0-2.966,2.28" transform="translate(-18.211 -13.458)" fill="#211715"/>
        <path id="パス_335" data-name="パス 335" d="M94.541,75.506c-.58,1.883-.2,6.214,3.365,6.582,4.715-.029,4.966-5.264,3.378-7.727-1.3-2.016-5.12-2.854-6.743,1.144" transform="translate(-14.977 -11.54)" fill="#211715"/>
        <path id="パス_336" data-name="パス 336" d="M138.023,75.506c.58,1.883.2,6.214-3.365,6.583-4.714-.029-4.966-5.265-3.378-7.727,1.3-2.016,5.12-2.854,6.743,1.144" transform="translate(-20.706 -11.54)" fill="#211715"/>
        <path id="パス_337" data-name="パス 337" d="M126.167,38.119a90.744,90.744,0,0,1-13.726,9.661A147.873,147.873,0,0,1,89.87,58.265c-4.553,1.624-9.183,3.02-13.805,4.434-2.478.758-1.422,4.656,1.073,3.894,8.733-2.672,17.388-5.421,25.644-9.371a128.8,128.8,0,0,0,18.2-10.009c2.785-1.938,5.433-4.068,8.037-6.239a2.035,2.035,0,0,0,0-2.855,2.063,2.063,0,0,0-2.855,0" transform="translate(-11.854 -5.961)" fill="#211715"/>
        <path id="パス_338" data-name="パス 338" d="M135.782,40.969a71.373,71.373,0,0,1,14.043,21.219,2.032,2.032,0,0,0,2.763.724,2.071,2.071,0,0,0,.724-2.763,74.39,74.39,0,0,0-14.675-22.036c-1.817-1.864-4.67.992-2.855,2.855" transform="translate(-21.468 -5.956)" fill="#211715"/>
        <path id="パス_339" data-name="パス 339" d="M158.851,95.774a4.447,4.447,0,0,0-4.739,4.278c0,2.582,1.979,4.358,4.739,4.358,2.868,0,4.74-1.793,4.74-4.358a4.445,4.445,0,0,0-4.74-4.278" transform="translate(-24.471 -15.207)" fill="#fff"/>
        <path id="パス_340" data-name="パス 340" d="M158.466,93.374a6.75,6.75,0,0,0-6.447,4.386,6.28,6.28,0,0,0,2.377,7.091,7.579,7.579,0,0,0,7.61.352,6.287,6.287,0,0,0,3.095-6.718c-.533-3.151-3.611-5.075-6.635-5.111a2.019,2.019,0,1,0,0,4.038c.142,0,.284.013.426.015.413.008-.136,0-.125-.026a2.844,2.844,0,0,1,.652.139c.124.035.245.08.368.119.344.11-.121-.026-.131-.059a4.391,4.391,0,0,0,.644.359c.049.033.388.227.087.056-.282-.16.008.019.067.074a3.811,3.811,0,0,0,.4.427c-.293-.183-.2-.3-.075-.081.049.082.1.162.152.246s.081.179.133.256q.1.211-.088-.218c.029.072.055.145.079.218a2.764,2.764,0,0,0,.141.564c-.021-.03-.04-.526-.027-.187.005.119.015.237.016.358,0,.082,0,.167-.006.249-.011.226-.142.414.024-.053-.07.2-.08.426-.141.628a1.329,1.329,0,0,0-.092.27c.013-.338.174-.351.047-.121-.09.162-.182.32-.278.479-.132.218-.209.084.083-.1a1.183,1.183,0,0,0-.146.166c-.076.081-.155.158-.237.233-.214.193-.246.069.061-.035a3.842,3.842,0,0,0-.485.3,2.067,2.067,0,0,0-.315.153c.037-.03.464-.163.148-.072-.2.058-.393.125-.6.171a1.5,1.5,0,0,0-.38.071l.275-.039c-.089.009-.179.017-.269.023a6.276,6.276,0,0,1-.689.007c-.089,0-.178-.013-.268-.017-.466-.019.467.1.018,0-.206-.042-.411-.086-.612-.148-.078-.024-.155-.054-.233-.077q-.3-.116.146.068c-.072-.033-.144-.066-.215-.1-.174-.089-.336-.2-.5-.3s-.043-.152.133.109a1.89,1.89,0,0,0-.255-.227c-.055-.052-.108-.107-.159-.162s-.267-.342-.061-.056-.009-.023-.041-.071c-.061-.1-.119-.193-.173-.294-.119-.221-.044-.352.009.066a1.5,1.5,0,0,0-.08-.219c-.064-.189-.1-.382-.149-.575-.1-.423.018.493.008.049,0-.084-.011-.168-.013-.252,0-.122,0-.244.005-.366,0-.059.008-.117.014-.176q.025-.241-.033.246a4.106,4.106,0,0,0,.178-.67c.1-.312-.043.135-.072.162a2.126,2.126,0,0,0,.215-.407c.04-.066.086-.129.125-.2.194-.321-.33.338.006,0,.1-.1.429-.331.464-.453l-.221.167c.064-.049.13-.1.2-.14.1-.068.205-.132.312-.192.087-.05.194-.086.276-.143.138-.065.074-.039-.193.077q.119-.048.24-.088a6.7,6.7,0,0,1,.767-.2c.313-.066-.126.012-.129.017.023-.05.5-.027.567-.028a2.019,2.019,0,1,0,0-4.038" transform="translate(-24.086 -14.826)" fill="#211715"/>
        <path id="パス_341" data-name="パス 341" d="M153.985,304.591a118.448,118.448,0,0,1-22.056-.761c-6.019-.952-11.34-3.134-13.968-5.119a20.577,20.577,0,0,1-7.635-10.9,106.439,106.439,0,0,1-2.234-11.225,106.888,106.888,0,0,1-2.234,11.225,20.587,20.587,0,0,1-7.635,10.9c-2.628,1.985-7.949,4.167-13.968,5.119a118.387,118.387,0,0,1-22.056.76,141.851,141.851,0,0,0-1.335,26.238h94.454a141.767,141.767,0,0,0-1.334-26.237" transform="translate(-9.651 -43.917)" fill="#b3b3b3"/>
        <path id="パス_342" data-name="パス 342" d="M106.48,192.769c-4.406-12.406-9.811-28.87-13.586-41.172l1.117.444a41.93,41.93,0,0,0,18.806,3.769,41.925,41.925,0,0,0,18.806-3.769l1.973-.773c-5.891,19.266-15.88,49.053-19.7,57.191h-1.36c-1.378-2.927-3.555-8.657-6.053-15.69" transform="translate(-14.75 -24.019)" fill="#99c2eb"/>
        <path id="パス_343" data-name="パス 343" d="M62.506,333.144c-.36-13.337.3-26.826,4.689-39.539.85-2.461-3.049-3.519-3.893-1.073-4.5,13.023-5.2,26.948-4.834,40.612.07,2.593,4.108,2.6,4.038,0" transform="translate(-9.27 -46.229)" fill="#211715"/>
        <path id="パス_344" data-name="パス 344" d="M165.167,293.605c4.383,12.714,5.041,26.2,4.681,39.539-.07,2.6,3.968,2.6,4.038,0,.369-13.664-.335-27.588-4.824-40.612-.842-2.442-4.744-1.393-3.894,1.073" transform="translate(-26.207 -46.229)" fill="#211715"/>
        <path id="パス_345" data-name="パス 345" d="M126.411,136.012l-.236-.151c-3.588,13.957-18.556,59.746-23.442,70.151h-1.36c-4.9-10.4-19.893-56.195-23.487-70.149a69.285,69.285,0,0,0-6.682,4.886C66.61,142.44,61.549,144.3,58,145.587a41.015,41.015,0,0,0-10.564,5.755,26.252,26.252,0,0,0-9.167,13.031c-1.171,3.438-3.953,17.716-4.8,22.752-2.707,19-8.209,58.663-10.854,83.593-.289,3.928,4.5,4.546,6.12,4.734,5.691.655,14.845,1.536,21.443,1.852l.942.045c-.163,1.063-.317,2.032-.458,2.885a1.544,1.544,0,0,0,1.37,1.687,119.322,119.322,0,0,0,26.161-.436c6.018-.953,11.34-3.134,13.967-5.119a20.576,20.576,0,0,0,7.635-10.9,106.575,106.575,0,0,0,2.235-11.224,106.412,106.412,0,0,0,2.234,11.224,20.576,20.576,0,0,0,7.635,10.9c2.627,1.985,7.949,4.166,13.967,5.119a119.323,119.323,0,0,0,26.161.436,1.546,1.546,0,0,0,1.37-1.687c-.141-.855-.3-1.824-.462-2.888,6.643-.27,16.419-1.205,22.387-1.893,1.624-.188,6.409-.806,6.12-4.734-2.645-24.93-8.147-64.593-10.854-83.593-.844-5.036-3.626-19.314-4.8-22.752a26.245,26.245,0,0,0-9.166-13.031,41.015,41.015,0,0,0-10.564-5.755c-3.551-1.284-8.612-3.147-13.2-4.837a70.353,70.353,0,0,0-6.45-4.738" transform="translate(-3.589 -21.573)" fill="#fff"/>
        <path id="パス_346" data-name="パス 346" d="M134.272,135.04c-2.34,9.034-5.25,17.937-8.111,26.816-3.442,10.683-6.986,21.343-10.829,31.89-.8,2.195-1.614,4.384-2.468,6.558q-.522,1.33-1.071,2.649c-.113.271.158-.363-.077.18l-.219.5q-.221.5-.453,1l1.744-1h-1.36l1.743,1c-.278-.594-.54-1.195-.8-1.8-.131-.3.156.381-.057-.137l-.217-.525q-.245-.6-.483-1.2c-.75-1.883-1.466-3.778-2.169-5.678-1.794-4.855-3.5-9.742-5.176-14.639q-5.542-16.206-10.588-32.579c-1.327-4.327-2.646-8.663-3.783-13.044-.653-2.514-4.548-1.448-3.894,1.073,2.355,9.076,5.286,18.02,8.167,26.94,3.469,10.742,7.038,21.46,10.917,32.062,1.422,3.885,2.837,7.807,4.594,11.556a1.99,1.99,0,0,0,1.744,1h1.36a1.988,1.988,0,0,0,1.743-1c1.509-3.224,2.748-6.583,3.984-9.919,1.8-4.858,3.506-9.751,5.182-14.653q5.582-16.333,10.659-32.835c1.335-4.363,2.665-8.734,3.81-13.152.652-2.517-3.242-3.591-3.894-1.073" transform="translate(-13.645 -21.215)" fill="#211715"/>
        <path id="パス_347" data-name="パス 347" d="M152.76,143.237q5.258,1.936,10.52,3.863a51.958,51.958,0,0,1,9.675,4.405,25.771,25.771,0,0,1,11.372,14.1,114.678,114.678,0,0,1,2.956,13.029c.871,4.376,1.676,8.75,2.3,13.168q2.381,16.821,4.632,33.662c1.677,12.585,3.3,25.179,4.752,37.793.309,2.684.8,5.429.893,8.129a1.478,1.478,0,0,1-.819,1.6,6.421,6.421,0,0,1-.621.337c.255-.119-.266.1-.359.133a11.059,11.059,0,0,1-1.47.38c-.192.037-.384.066-.576.1-.395.07.366-.037-.088.013-.65.072-1.3.149-1.951.22q-2.338.256-4.679.485c-3.384.333-6.771.632-10.163.873q-2.41.173-4.824.294c-2.586.126-2.6,4.164,0,4.038,6.805-.331,13.6-.974,20.372-1.73,2.16-.241,4.406-.453,6.312-1.6a5.926,5.926,0,0,0,2.585-3.035,8.852,8.852,0,0,0,.114-4.093c-1.38-12.723-3-25.422-4.668-38.11q-2.421-18.419-5.018-36.816a251.158,251.158,0,0,0-5.33-28.342,28.929,28.929,0,0,0-9.182-14.868,40.107,40.107,0,0,0-9.91-6.055c-3.323-1.438-6.789-2.571-10.186-3.818l-5.566-2.048a2.037,2.037,0,0,0-2.483,1.411,2.061,2.061,0,0,0,1.41,2.483" transform="translate(-24.02 -22.111)" fill="#211715"/>
        <path id="パス_348" data-name="パス 348" d="M49.8,275.823c-6.617-.322-13.226-.944-19.81-1.667-.582-.064-1.163-.133-1.746-.2-.422-.046.007.005-.073-.008-.246-.041-.492-.078-.738-.127a11.155,11.155,0,0,1-1.289-.332,3.332,3.332,0,0,1-1.075-.5,1.491,1.491,0,0,1-.819-1.6c.053-1.341.282-2.7.43-4.03,1.376-12.419,2.961-24.815,4.594-37.2q2.305-17.5,4.776-34.969A262.29,262.29,0,0,1,39.2,167.732a25.592,25.592,0,0,1,7.914-13.3c5.406-4.7,12.262-6.79,18.857-9.214q2.694-.989,5.387-1.982a2.073,2.073,0,0,0,1.411-2.483,2.036,2.036,0,0,0-2.484-1.41q-5.416,1.994-10.837,3.978a55.653,55.653,0,0,0-10.323,4.7,30.228,30.228,0,0,0-12.95,15.711c-1.555,4.29-2.263,8.97-3.155,13.429-.909,4.546-1.747,9.09-2.4,13.68q-2.506,17.7-4.867,35.429c-1.726,12.983-3.4,25.975-4.873,38.99q-.242,2.138-.474,4.276a8.3,8.3,0,0,0,.167,4.056c.945,2.417,3.367,3.642,5.788,4.126,2.6.522,5.319.667,7.958.929,3.492.347,6.989.659,10.489.91,1.663.119,3.328.225,4.993.305,2.6.126,2.591-3.912,0-4.038" transform="translate(-3.214 -22.111)" fill="#211715"/>
        <path id="パス_349" data-name="パス 349" d="M59.319,192.116c.626,14.111.65,28.265.556,42.387-.024,3.526-.064,7.052-.142,10.577-.057,2.6,3.981,2.6,4.038,0,.312-14.116.233-28.254-.08-42.369-.078-3.533-.177-7.065-.334-10.6-.114-2.588-4.153-2.6-4.038,0" transform="translate(-9.419 -30.196)" fill="#211715"/>
        <path id="パス_350" data-name="パス 350" d="M105.005,272.322a72.635,72.635,0,0,1-2.427,11.831,18.882,18.882,0,0,1-6.6,9.155c-3.114,2.334-7.148,3.553-10.895,4.377a66.947,66.947,0,0,1-11.9,1.258c-4.224.157-8.462.133-12.681-.128-.9-.056-1.8-.124-2.7-.208.044,0-.563-.068-.569-.056.031-.067.253.123.276.209.046.171-.04.712.076.3a4.618,4.618,0,0,0,.083-.515q.3-1.881.584-3.765,1.523-10.15,2.754-20.342c.785-6.413,1.692-12.9,1.856-19.363.066-2.6-3.972-2.6-4.038,0-.152,6-.971,12.016-1.687,17.97q-1.258,10.458-2.812,20.88c-.2,1.327-.409,2.652-.62,3.977a4.1,4.1,0,0,0,.4,3,3.964,3.964,0,0,0,3.269,1.7,112.685,112.685,0,0,0,13.108.451c8.727-.15,18-.808,25.782-5.147a22.107,22.107,0,0,0,9.284-10.307c1.939-4.449,2.619-9.443,3.351-14.2a2.084,2.084,0,0,0-1.411-2.483,2.033,2.033,0,0,0-2.483,1.41" transform="translate(-8.511 -40.193)" fill="#211715"/>
        <path id="パス_351" data-name="パス 351" d="M169.813,192.116c-.626,14.111-.65,28.265-.556,42.387.024,3.526.064,7.052.142,10.577.057,2.594,4.1,2.6,4.038,0-.312-14.116-.233-28.254.08-42.369.078-3.533.178-7.065.334-10.6.115-2.6-3.923-2.593-4.038,0" transform="translate(-26.869 -30.196)" fill="#211715"/>
        <path id="パス_352" data-name="パス 352" d="M114.7,273.4c.642,4.177,1.217,8.585,2.687,12.572a23.317,23.317,0,0,0,7.835,10.551c3.328,2.554,7.621,3.987,11.658,4.934a69.369,69.369,0,0,0,12.866,1.5,127.956,127.956,0,0,0,13.5-.112c2.127-.135,4.941.091,6.243-1.943.943-1.474.346-3.309.1-4.91-1.044-6.7-1.948-13.421-2.784-20.148-.856-6.874-1.853-13.831-2.029-20.765-.066-2.594-4.1-2.6-4.038,0,.141,5.587.882,11.183,1.539,16.727q1.239,10.483,2.768,20.931.3,2.068.622,4.132.13.84.265,1.681c.018.114.034.231.056.346.052.271-.075.385.045.153.29-.563.543-.511-.236-.438a114.408,114.408,0,0,1-12.339.414c-8.031-.117-16.631-.565-23.847-4.47a18.384,18.384,0,0,1-8.049-8.933,28.872,28.872,0,0,1-1.5-5.248c-.57-2.666-1.049-5.353-1.462-8.048a2.033,2.033,0,0,0-2.484-1.41,2.07,2.07,0,0,0-1.41,2.483" transform="translate(-18.207 -40.193)" fill="#211715"/>
        <path id="パス_353" data-name="パス 353" d="M92.825,153.555A46.825,46.825,0,0,0,112.65,157.6a46.483,46.483,0,0,0,19.826-4.045,2.036,2.036,0,0,0,.724-2.763,2.067,2.067,0,0,0-2.763-.724,42.071,42.071,0,0,1-17.788,3.494,41.776,41.776,0,0,1-17.787-3.494,2.079,2.079,0,0,0-2.763.724,2.036,2.036,0,0,0,.724,2.763" transform="translate(-14.583 -23.79)" fill="#211715"/>
        <path id="パス_354" data-name="パス 354" d="M97.343,206.068c-8-13.871-15.912-27.806-23.3-42.015-.521-1-.972-2.1-1.576-3.051,0,0-.22-.533-.2-.252.019.216.054,0,.21-.176.4-.44.816-.868,1.231-1.294,1.616-1.661,3.3-3.256,4.987-4.843a2.037,2.037,0,0,0-.408-3.171l-3.1-1.77-1.459-.832-.73-.417-.364-.209q-.386-.25.029.1c.092.339.183.68.276,1.019-.017.374.19-.234.3-.418.168-.281.348-.554.536-.822a17.088,17.088,0,0,1,1.3-1.6,41.059,41.059,0,0,1,3.591-3.494,63.494,63.494,0,0,1,7.373-5.527c2.178-1.4.156-4.9-2.038-3.487a60.63,60.63,0,0,0-11.189,9.012c-1.444,1.52-3.473,3.594-3.859,5.739-.349,1.95,1.322,2.775,2.74,3.585l4.56,2.6q-.2-1.585-.409-3.171c-1.593,1.5-3.178,3-4.708,4.558s-3.4,3.16-2.741,5.567a15.517,15.517,0,0,0,1.368,2.854q.748,1.451,1.5,2.9,1.445,2.76,2.916,5.509c4.063,7.6,8.253,15.126,12.5,22.619q3.558,6.276,7.168,12.521c1.3,2.251,4.789.22,3.487-2.038" transform="translate(-10.839 -21.195)" fill="#211715"/>
        <path id="パス_355" data-name="パス 355" d="M134.645,208.106c8.511-14.752,16.925-29.575,24.7-44.73a4.928,4.928,0,0,0,.8-3.614,7.284,7.284,0,0,0-2.088-2.909c-1.741-1.816-3.567-3.55-5.4-5.272l-.409,3.171,4.378-2.5c1.4-.8,3.071-1.52,2.959-3.42a6.685,6.685,0,0,0-1.522-3.16,28.017,28.017,0,0,0-2.372-2.848,60.591,60.591,0,0,0-11.19-9.011c-2.191-1.411-4.219,2.083-2.038,3.486a63.41,63.41,0,0,1,7.373,5.528,41.392,41.392,0,0,1,3.5,3.387,17.9,17.9,0,0,1,1.319,1.6c.192.268.375.543.548.824.081.132.151.276.237.4.1.144.142.486.126.115l.275-1.02c.169-.325.215-.184-.153,0-.248.126-.488.278-.729.416l-1.642.937-3.1,1.77a2.037,2.037,0,0,0-.409,3.171c1.5,1.4,2.985,2.816,4.429,4.273.326.331.651.662.972,1,.253.263.988.8,1.085,1.154-.114-.411-.23.093-.341.307q-.347.678-.7,1.354-2.721,5.269-5.538,10.487-5.758,10.686-11.778,21.227-3.367,5.928-6.778,11.831c-1.3,2.255,2.187,4.291,3.487,2.038" transform="translate(-20.781 -21.196)" fill="#211715"/>
        <path id="パス_356" data-name="パス 356" d="M27.734,303.045c-3.052,9.109-6.164,18.31-7.444,27.869a49.148,49.148,0,0,0-.5,6.932c.018,2.054.09,4.3,1.154,6.125a6,6,0,0,0,5.981,2.894c2.658-.381,4.6-2.318,5.914-4.543A82.494,82.494,0,0,0,39.327,327.7a2.038,2.038,0,0,0-1.41-2.483,2.06,2.06,0,0,0-2.484,1.41,93.418,93.418,0,0,1-4.715,11.07c-.85,1.689-1.74,4.078-3.576,4.939a2.044,2.044,0,0,1-2.9-1.124,14.127,14.127,0,0,1-.387-5.2,48.785,48.785,0,0,1,.559-5.918,104.791,104.791,0,0,1,2.943-12.854c1.294-4.515,2.782-8.97,4.274-13.422.827-2.47-3.071-3.529-3.894-1.073" transform="translate(-3.143 -47.898)" fill="#211715"/>
        <path id="パス_357" data-name="パス 357" d="M46.979,305.429c.545,6.432.863,12.9.912,19.351.012,1.574,0,3.148-.038,4.721-.027,1-.023,2.432-.977,2.827a1.789,1.789,0,0,1-1.348.049,4.71,4.71,0,0,1-1.29-.7,8.773,8.773,0,0,1-2.675-3.6,2.031,2.031,0,0,0-2.762-.724,2.07,2.07,0,0,0-.724,2.763,11.108,11.108,0,0,0,6.058,6.042,5.709,5.709,0,0,0,7.3-3.4,12.007,12.007,0,0,0,.475-4.165c.028-1.494.028-2.989.011-4.483-.034-3.116-.14-6.231-.292-9.343s-.35-6.235-.613-9.346A2.071,2.071,0,0,0,49,303.41a2.034,2.034,0,0,0-2.019,2.019" transform="translate(-6.008 -48.177)" fill="#211715"/>
        <path id="パス_358" data-name="パス 358" d="M198.712,304.118c2.705,8.075,5.443,16.2,6.939,24.6a38.962,38.962,0,0,1,.75,11.51c-.161,1.256-.626,2.635-2.1,2.677-1.893.053-3.058-2.1-3.812-3.518a92.392,92.392,0,0,1-5.58-12.76,2.069,2.069,0,0,0-2.483-1.41,2.037,2.037,0,0,0-1.41,2.483,104.1,104.1,0,0,0,5.674,13.122c1.109,2.157,2.477,4.377,4.761,5.438a6.115,6.115,0,0,0,6.956-1.032c1.588-1.563,1.979-3.758,2.1-5.893a41.216,41.216,0,0,0-.219-6.524,91.6,91.6,0,0,0-2.929-14.665c-1.4-5.092-3.07-10.1-4.746-15.107-.822-2.451-4.723-1.4-3.894,1.073" transform="translate(-30.316 -47.898)" fill="#211715"/>
        <path id="パス_359" data-name="パス 359" d="M180.367,305.429q-.741,8.737-.889,17.517c-.024,1.471-.035,2.943-.022,4.416a25.536,25.536,0,0,0,.2,4.4,5.736,5.736,0,0,0,6.863,4.6c3.06-.573,5.608-3.534,6.789-6.247a2.084,2.084,0,0,0-.724-2.763,2.033,2.033,0,0,0-2.762.724,8.808,8.808,0,0,1-2.657,3.587,4.731,4.731,0,0,1-1.308.708,1.8,1.8,0,0,1-1.344-.051c-.91-.372-.949-1.7-.977-2.676-.045-1.623-.054-3.246-.042-4.869.049-6.455.367-12.919.912-19.351a2.035,2.035,0,0,0-2.019-2.019,2.06,2.06,0,0,0-2.019,2.019" transform="translate(-28.494 -48.177)" fill="#211715"/>
        <path id="パス_360" data-name="パス 360" d="M114.38,99.8c-2.566-.034-5.009-1.037-7.565-1.036a6.119,6.119,0,0,0-5.834,4.049,7.533,7.533,0,0,0,1.073,7.754,5.49,5.49,0,0,0,3.366,1.692,10.6,10.6,0,0,0,3.352-.342,32.483,32.483,0,0,1,5.231-.707,22.619,22.619,0,0,1,4.22.409c2.181.34,4.436,1.15,6.579.256a6.365,6.365,0,0,0,3.528-6.719c-.335-3.073-2.089-5.8-5.321-6.279-2.953-.435-5.714.87-8.629.924-2.6.049-2.6,4.087,0,4.038,2.157-.04,4.2-.754,6.331-.983,1.605-.172,2.816-.033,3.372,1.559.41,1.174.469,3.234-.829,3.754a3.122,3.122,0,0,1-1.793-.069c-.844-.168-1.694-.305-2.545-.433a32.863,32.863,0,0,0-4.386-.5,24.471,24.471,0,0,0-3.679.35c-.83.115-1.66.241-2.486.384a14.619,14.619,0,0,1-2.189.384c-1.376.019-1.926-1.584-1.726-2.986a3.627,3.627,0,0,1,.89-2.032,2.442,2.442,0,0,1,1.977-.448c2.333.178,4.653.984,7.063,1.016,2.6.034,2.6-4,0-4.038" transform="translate(-15.939 -15.683)" fill="#211715"/>
        <path id="パス_361" data-name="パス 361" d="M144.632,89.862a10.139,10.139,0,0,0,4.671-4.63,2.164,2.164,0,0,0,.2-1.556,2.059,2.059,0,0,0-.928-1.206,2.034,2.034,0,0,0-1.555-.2,1.985,1.985,0,0,0-1.207.928,8.34,8.34,0,0,1-.9,1.465l.316-.409a8.586,8.586,0,0,1-1.523,1.518l.409-.315a8.338,8.338,0,0,1-1.524.922,2.04,2.04,0,0,0-.928,1.207,2.066,2.066,0,0,0,.2,1.555,2.038,2.038,0,0,0,1.207.928c.178.025.357.048.537.072a2.007,2.007,0,0,0,1.019-.276" transform="translate(-22.484 -13.05)" fill="#211715"/>
        <path id="パス_362" data-name="パス 362" d="M30.088,121.838a7.829,7.829,0,0,1-10.112-5.232c-1.445-4.445.558-8.7,5.4-10.275,4.544-1.477,8.666.787,10.211,5.2a8.16,8.16,0,0,1-5.4,10.275ZM19.236,101.227,2,55.6l12.052-3.918L26.941,98.722Z" transform="translate(-0.318 -8.207)" fill="#f60"/>
        <path id="パス_363" data-name="パス 363" d="M30.088,121.838a7.829,7.829,0,0,1-10.112-5.232c-1.445-4.445.558-8.7,5.4-10.275,4.544-1.477,8.666.787,10.211,5.2a8.16,8.16,0,0,1-5.4,10.275ZM19.236,101.227,2,55.6l12.052-3.918L26.941,98.722Z" transform="translate(-0.318 -8.207)" fill="none" stroke="#000" stroke-linecap="round" stroke-linejoin="round" stroke-width="4"/>
        <path id="パス_364" data-name="パス 364" d="M201.651,122c-1.442,9.5-3.311,21.814-4.764,31.389a3.2,3.2,0,0,0,2.686,3.647c11.008,1.671,34.447,5.232,45.958,6.977a3.2,3.2,0,0,0,3.646-2.686c1.449-9.573,3.319-21.883,4.764-31.387a3.2,3.2,0,0,0-2.684-3.647L205.3,119.312A3.2,3.2,0,0,0,201.651,122" transform="translate(-31.257 -18.939)" fill="#fff"/>
        <path id="パス_365" data-name="パス 365" d="M199.473,121.207l-3.278,21.6-.83,5.468a33.746,33.746,0,0,0-.739,5.27,5.282,5.282,0,0,0,2.4,4.289,9.074,9.074,0,0,0,3.747,1.009l34.788,5.282,7.6,1.153a7.832,7.832,0,0,0,4.343-.082,5.208,5.208,0,0,0,3.14-3.793c.694-3.467,1.066-7.033,1.6-10.529q.843-5.558,1.688-11.116l.828-5.447a32.275,32.275,0,0,0,.737-5.245,5.272,5.272,0,0,0-2.4-4.289,8.318,8.318,0,0,0-3.4-.956l-14.677-2.228-17.39-2.64L210,117.8c-2.382-.362-5.354-1.324-7.628-.278a5.193,5.193,0,0,0-2.9,3.69,2.071,2.071,0,0,0,1.41,2.483,2.038,2.038,0,0,0,2.484-1.41,1.314,1.314,0,0,1,1.5-1.207c.956.106,1.908.289,2.858.433l6.7,1.018,15.96,2.423,14.805,2.248,2.875.437a10.666,10.666,0,0,1,2.726.466c.93.438.627,1.5.506,2.3q-.361,2.372-.721,4.743-1.547,10.172-3.088,20.344c-.237,1.562-.45,3.129-.71,4.687-.167,1.006-.694,1.465-1.58,1.361-2.23-.258-4.454-.675-6.673-1.012l-32.792-4.98-3.333-.506a11.761,11.761,0,0,1-3.07-.518c-.98-.472-.609-1.632-.481-2.472q.362-2.39.725-4.779l3.086-20.337q.353-2.323.706-4.647a2.084,2.084,0,0,0-1.411-2.483,2.034,2.034,0,0,0-2.483,1.41" transform="translate(-30.904 -18.585)" fill="#211715"/>
        <path id="パス_366" data-name="パス 366" d="M206.25,128.274q6.984,8.358,14.289,16.445.868.959,1.742,1.913a11.476,11.476,0,0,0,1.968,1.969c1.784,1.168,3.493.383,5.145-.559q5.02-2.861,9.935-5.9,5.774-3.553,11.446-7.268c2.169-1.413.148-4.911-2.038-3.487-6.175,4.024-12.413,7.955-18.78,11.67q-1.038.606-2.082,1.2-.6.346-1.21.688a3.023,3.023,0,0,1-.517.292c.06-.018.191-.022.165-.067l.083.031q.28.127-.16-.23c-.112-.138-.245-.264-.365-.4q-.368-.4-.736-.8-.874-.954-1.742-1.913-3.473-3.836-6.865-7.741-3.755-4.315-7.424-8.7a2.035,2.035,0,0,0-2.855,0,2.063,2.063,0,0,0,0,2.855" transform="translate(-32.658 -19.822)" fill="#211715"/>
        <path id="パス_367" data-name="パス 367" d="M241.582,131.29a2.119,2.119,0,0,1-3.893.537l-5.8-9.865-9.865,5.8a2.119,2.119,0,1,1-2.146-3.653l9.864-5.8-5.8-9.865a2.126,2.126,0,0,1,.739-2.923,2.127,2.127,0,0,1,2.914.776l5.8,9.865,9.865-5.8a2.119,2.119,0,1,1,2.147,3.654l-9.864,5.8,5.8,9.865a2.051,2.051,0,0,1,.24,1.61" transform="translate(-34.744 -16.709)" fill="#f60"/>
        <path id="パス_368" data-name="パス 368" d="M241.582,131.29a2.119,2.119,0,0,1-3.893.537l-5.8-9.865-9.865,5.8a2.119,2.119,0,1,1-2.146-3.653l9.864-5.8-5.8-9.865a2.126,2.126,0,0,1,.739-2.923,2.127,2.127,0,0,1,2.914.776l5.8,9.865,9.865-5.8a2.119,2.119,0,1,1,2.147,3.654l-9.864,5.8,5.8,9.865A2.051,2.051,0,0,1,241.582,131.29Z" transform="translate(-34.744 -16.709)" fill="none" stroke="#f60" stroke-miterlimit="10" stroke-width="1"/>
      </g>
    </g>
  </g>
</svg>
