<svg xmlns="http://www.w3.org/2000/svg" xmlns:xlink="http://www.w3.org/1999/xlink" width="355.507" height="289.149" viewBox="0 0 355.507 289.149">
  <defs>
    <clipPath id="clip-path">
      <rect id="長方形_124" data-name="長方形 124" width="50.105" height="80.011" transform="translate(-8 -6)" fill="none" stroke="#f60" stroke-width="5"/>
    </clipPath>
  </defs>
  <g id="グループ_306" data-name="グループ 306" transform="translate(-939 -7768.223)">
    <path id="パス_2460" data-name="パス 2460" d="M321.894,112.244,261.442,7.818A15.4,15.4,0,0,0,248.153,0H11.59C5.188,0,0,4.747,0,10.6V237.858c0,5.858,5.188,10.6,11.59,10.6H248.261a15.393,15.393,0,0,0,13.2-7.672l60.284-101.684a26.318,26.318,0,0,0,.145-26.863" transform="translate(969 7808.91)" fill="#ffe8d9"/>
    <g id="グループ_278" data-name="グループ 278" transform="translate(-18.469 19.189)">
      <g id="長方形_122" data-name="長方形 122" transform="translate(1050 7881.025)" fill="#f60" stroke="#f60" stroke-width="4">
        <rect width="156" height="46" rx="16" stroke="none"/>
        <rect x="2" y="2" width="152" height="42" rx="14" fill="none"/>
      </g>
      <path id="パス_2470" data-name="パス 2470" d="M9.789,29V6.281h4.625V25.141h11.5V29ZM28.273,17.688a14.568,14.568,0,0,1,1.047-5.875,10.781,10.781,0,0,1,2.133-3.141,8.918,8.918,0,0,1,2.961-2.062A12.575,12.575,0,0,1,39.352,5.7a10.755,10.755,0,0,1,8.1,3.141q3.039,3.141,3.039,8.734,0,5.547-3.016,8.68a10.672,10.672,0,0,1-8.062,3.133,10.781,10.781,0,0,1-8.125-3.117Q28.273,23.156,28.273,17.688Zm4.766-.156a8.583,8.583,0,0,0,1.8,5.9,6.177,6.177,0,0,0,9.1.016q1.773-1.992,1.773-5.977,0-3.937-1.727-5.875A5.842,5.842,0,0,0,39.4,9.656a5.881,5.881,0,0,0-4.609,1.961Q33.039,13.578,33.039,17.531Zm31.719,3.047V16.719h9.969v9.125a12.549,12.549,0,0,1-4.211,2.477,15.326,15.326,0,0,1-5.586,1.07,12.537,12.537,0,0,1-6.266-1.508,9.587,9.587,0,0,1-4.016-4.312,13.937,13.937,0,0,1-1.344-6.1,13.185,13.185,0,0,1,1.5-6.359A10.1,10.1,0,0,1,59.2,6.844,11.847,11.847,0,0,1,64.68,5.7a10.942,10.942,0,0,1,6.664,1.789,8.079,8.079,0,0,1,3.086,4.945l-4.594.859a4.851,4.851,0,0,0-1.82-2.664,5.5,5.5,0,0,0-3.336-.977,6.268,6.268,0,0,0-4.82,1.922,8.1,8.1,0,0,0-1.789,5.7q0,4.078,1.813,6.117a6.052,6.052,0,0,0,4.75,2.039,7.965,7.965,0,0,0,2.914-.57,9.986,9.986,0,0,0,2.508-1.383V20.578ZM78.852,29V6.094h4.625V29Zm9.078,0V6.094h4.5l9.375,15.3V6.094h4.3V29h-4.641L92.227,14.063V29Z" transform="translate(1070 7886.025)" fill="#fff"/>
      <g id="グループ_272" data-name="グループ 272" transform="matrix(0.883, -0.469, 0.469, 0.883, 1171.444, 7924.975)">
        <g id="グループ_271" data-name="グループ 271" transform="translate(0 0)" clip-path="url(#clip-path)">
          <g id="パス_2383" data-name="パス 2383" transform="translate(-0.001 0)" fill="#fff">
            <path d="M 20.70246887207031 70.51114654541016 L 14.40341377258301 70.51114654541016 C 12.03883647918701 70.51114654541016 10.11511421203613 68.58740997314453 10.11511421203613 66.22283935546875 L 10.11511421203613 41.00110244750977 L 4.184492111206055 44.9789924621582 C 3.466758728027344 45.46036911010742 2.641569852828979 45.71479034423828 1.798069715499878 45.71479034423828 C 0.3748030960559845 45.71479034423828 -0.9576635360717773 45.00333404541016 -1.76628577709198 43.8116340637207 C -2.569641351699829 42.62770080566406 -2.723874568939209 41.1777458190918 -2.189419031143188 39.83353424072266 L 5.455469608306885 20.60722541809082 L 13.56839179992676 0.2036470323801041 C 14.2208137512207 -1.438497424125671 15.78484725952148 -2.49999737739563 17.55269241333008 -2.49999737739563 C 19.32012557983398 -2.49999737739563 20.88421440124512 -1.438841819763184 21.53740310668945 0.2034136950969696 L 29.65041351318359 20.60723686218262 L 37.29465866088867 39.83353424072266 C 37.8292236328125 41.17805862426758 37.67495727539062 42.62825775146484 36.87140274047852 43.81229019165039 C 36.06295013427734 45.0035514831543 34.73076629638672 45.71479034423828 33.30799102783203 45.71479034423828 C 33.30773162841797 45.71479034423828 33.30765151977539 45.71479034423828 33.30739212036133 45.71479034423828 C 32.46399307250977 45.71467971801758 31.63894844055176 45.46024703979492 30.92144775390625 44.97902297973633 L 24.99012565612793 41.00092315673828 L 24.99012565612793 66.22283935546875 C 24.99012565612793 68.58740997314453 23.06669235229492 70.51114654541016 20.70246887207031 70.51114654541016 Z" stroke="none"/>
            <path d="M 20.70246696472168 68.01114654541016 C 21.68970680236816 68.01114654541016 22.49011993408203 67.21073150634766 22.49011993408203 66.22283935546875 L 22.49011993408203 36.31396102905273 L 32.31398773193359 42.90277481079102 C 33.77322769165039 43.88148498535156 35.62052536010742 42.38948440551758 34.9715461730957 40.7572021484375 L 19.21440124511719 1.127360343933105 C 18.61654663085938 -0.375786304473877 16.48868179321289 -0.375786304473877 15.89148044586182 1.127360343933105 L 0.1336808800697327 40.7572021484375 C -0.5152924656867981 42.38947677612305 1.332667350769043 43.8814697265625 2.791894197463989 42.90277481079102 L 12.61510753631592 36.31396102905273 L 12.61510753631592 66.22283935546875 C 12.61510753631592 67.21073150634766 13.41617393493652 68.01114654541016 14.40341377258301 68.01114654541016 L 20.70246696472168 68.01114654541016 M 20.70246696472168 73.01114654541016 L 14.40341377258301 73.01114654541016 C 10.66033458709717 73.01114654541016 7.615107536315918 69.96591949462891 7.615107536315918 66.22283935546875 L 7.615107536315918 45.68822479248047 L 5.577094078063965 47.05519866943359 C 4.446014404296875 47.81382751464844 3.139280796051025 48.21480178833008 1.798067569732666 48.21480178833008 C -0.4547591209411621 48.21480178833008 -2.560572385787964 47.09352111816406 -3.834999084472656 45.21537399291992 C -5.092332363128662 43.36240005493164 -5.345625877380371 41.00522613525391 -4.512558937072754 38.90990829467773 L 11.24529457092285 -0.7200663089752197 C 12.27805423736572 -3.319519758224487 14.75406742095947 -4.999999523162842 17.55269432067871 -4.999999523162842 C 20.35052108764648 -4.999999523162842 22.82645416259766 -3.320186376571655 23.86041450500488 -0.7204796671867371 L 39.61777496337891 38.90989303588867 C 40.45092010498047 41.00537490844727 40.19763946533203 43.36269378662109 38.94025421142578 45.21573257446289 C 37.66598892211914 47.09365463256836 35.56046676635742 48.21480178833008 33.30797576904297 48.21480178833008 C 31.96600151062012 48.2145881652832 30.65957450866699 47.81362533569336 29.52889442443848 47.05526733398438 L 27.49011993408203 45.68787384033203 L 27.49011993408203 66.22283935546875 C 27.49011993408203 69.96591949462891 24.44518661499023 73.01114654541016 20.70246696472168 73.01114654541016 Z" stroke="none" fill="#f60"/>
          </g>
        </g>
      </g>
      <g id="グループ_273" data-name="グループ 273" transform="matrix(0.819, 0.574, -0.574, 0.819, 1201.023, 7849.06)">
        <path id="パス_2251" data-name="パス 2251" d="M0,0V16.862" transform="translate(18.762)" fill="none" stroke="#f60" stroke-linecap="round" stroke-width="6"/>
        <path id="パス_2252" data-name="パス 2252" d="M0,0,.8,16.009" transform="translate(0 3.928) rotate(-21)" fill="none" stroke="#f60" stroke-linecap="round" stroke-width="6"/>
        <path id="パス_2253" data-name="パス 2253" d="M0,16.009.8,0" transform="translate(31.708 18.874) rotate(-159)" fill="none" stroke="#f60" stroke-linecap="round" stroke-width="6"/>
      </g>
    </g>
    <g id="グループ_302" data-name="グループ 302" transform="translate(938.638 7768.223)">
      <ellipse id="楕円形_28" data-name="楕円形 28" cx="28.5" cy="29" rx="28.5" ry="29" transform="translate(0.362 21.777)" fill="#f60"/>
      <path id="パス_2465" data-name="パス 2465" d="M2.367,17.268l3.285-.319a4.007,4.007,0,0,0,1.2,2.429,3.638,3.638,0,0,0,2.446.776,3.76,3.76,0,0,0,2.458-.69,2.053,2.053,0,0,0,.827-1.614,1.522,1.522,0,0,0-.348-1.009,2.78,2.78,0,0,0-1.215-.724q-.593-.205-2.7-.73a9.17,9.17,0,0,1-3.809-1.654,4.35,4.35,0,0,1-1.54-3.364A4.3,4.3,0,0,1,3.7,7.978,4.534,4.534,0,0,1,5.783,6.285,8.365,8.365,0,0,1,9.073,5.7a7.058,7.058,0,0,1,4.739,1.38,4.871,4.871,0,0,1,1.671,3.684l-3.376.148a2.867,2.867,0,0,0-.929-1.853A3.4,3.4,0,0,0,9.039,8.5a3.857,3.857,0,0,0-2.3.6A1.218,1.218,0,0,0,6.2,10.14a1.284,1.284,0,0,0,.5,1.015,8.875,8.875,0,0,0,3.1,1.118,16.371,16.371,0,0,1,3.644,1.2,4.7,4.7,0,0,1,1.848,1.7,5.263,5.263,0,0,1-.131,5.355,4.784,4.784,0,0,1-2.258,1.865A9.47,9.47,0,0,1,9.267,23,7.243,7.243,0,0,1,4.4,21.539,6.375,6.375,0,0,1,2.367,17.268Zm20.2,5.44V8.817H17.6V5.988H30.891V8.817h-4.95V22.708Zm10.5,0V5.988h12.4V8.817H36.445v3.707h8.394V15.34H36.445v4.551h9.341v2.817Zm15.579,0V5.988h5.417a19.645,19.645,0,0,1,4.015.251,4.384,4.384,0,0,1,2.406,1.637,5.19,5.19,0,0,1,.969,3.256,5.455,5.455,0,0,1-.559,2.589,4.584,4.584,0,0,1-1.42,1.648,4.893,4.893,0,0,1-1.751.793,19.27,19.27,0,0,1-3.5.24h-2.2v6.307ZM52.024,8.817v4.744h1.848A8.729,8.729,0,0,0,56.54,13.3a2.217,2.217,0,0,0,1.055-.821,2.247,2.247,0,0,0,.382-1.3,2.16,2.16,0,0,0-.536-1.505,2.334,2.334,0,0,0-1.357-.741,16.226,16.226,0,0,0-2.429-.114Z" transform="translate(-0.639 -5.703)" fill="#303030"/>
      <path id="パス_2468" data-name="パス 2468" d="M28.571,34.034l5.816-.706a5.507,5.507,0,0,0,1.5,3.4A4.094,4.094,0,0,0,38.836,37.9a4.053,4.053,0,0,0,3.133-1.411,5.472,5.472,0,0,0,1.272-3.806,5.1,5.1,0,0,0-1.219-3.593,3.886,3.886,0,0,0-2.972-1.326,10.483,10.483,0,0,0-2.759.449l.663-4.9a5.267,5.267,0,0,0,3.721-1.059,3.768,3.768,0,0,0,1.283-2.983,3.239,3.239,0,0,0-3.443-3.464,3.621,3.621,0,0,0-2.63,1.069,5.023,5.023,0,0,0-1.326,3.122l-5.538-.941a12.379,12.379,0,0,1,1.743-4.544,7.866,7.866,0,0,1,3.25-2.673,10.917,10.917,0,0,1,4.672-.973,9.32,9.32,0,0,1,7.1,2.823,7.368,7.368,0,0,1,2.2,5.218q0,4.127-4.512,6.586a7.3,7.3,0,0,1,4.309,2.587A7.508,7.508,0,0,1,49.4,32.943a9.416,9.416,0,0,1-3.015,7.035,10.386,10.386,0,0,1-7.506,2.908,10.334,10.334,0,0,1-7.057-2.448A9.622,9.622,0,0,1,28.571,34.034Z" transform="translate(-11.366 23.556)" fill="#fff"/>
    </g>
  </g>
</svg>
