<svg xmlns="http://www.w3.org/2000/svg" xmlns:xlink="http://www.w3.org/1999/xlink" width="352.611" height="296.163" viewBox="0 0 352.611 296.163">
  <defs>
    <clipPath id="clip-path">
      <rect id="長方形_105" data-name="長方形 105" width="227.307" height="227.247" fill="none"/>
    </clipPath>
    <clipPath id="clip-path-2">
      <ellipse id="楕円形_14" data-name="楕円形 14" cx="78.365" cy="78.365" rx="78.365" ry="78.365" fill="none"/>
    </clipPath>
    <clipPath id="clip-path-3">
      <ellipse id="楕円形_15" data-name="楕円形 15" cx="75" cy="76" rx="75" ry="76" transform="translate(0.293 0.056)" fill="none"/>
    </clipPath>
    <clipPath id="clip-path-4">
      <path id="パス_2250" data-name="パス 2250" d="M74.4,0a74.4,74.4,0,1,0,74.4,74.4A74.4,74.4,0,0,0,74.4,0Z" transform="translate(0 0.001)" fill="none"/>
    </clipPath>
  </defs>
  <g id="グループ_289" data-name="グループ 289" transform="translate(-792 -6541.127)">
    <g id="グループ_220" data-name="グループ 220" transform="translate(854 6576)">
      <g id="グループ_219" data-name="グループ 219" clip-path="url(#clip-path)">
        <path id="パス_2162" data-name="パス 2162" d="M281.691,45.794a67.887,67.887,0,0,1,46.267,113.933l32.979,31.731A113.643,113.643,0,0,0,281.691,0Z" transform="translate(-164.502)" fill="#c2e066"/>
        <path id="パス_2163" data-name="パス 2163" d="M208.76,395.8a67.887,67.887,0,0,1-89.455.009L86.26,427.607A113.629,113.629,0,0,0,241.8,427.6Z" transform="translate(-50.374 -231.141)" fill="#a3c8ed"/>
        <path id="パス_2164" data-name="パス 2164" d="M63.859,159.737A67.889,67.889,0,0,1,110.117,45.793V0A113.643,113.643,0,0,0,30.88,191.467Z" fill="#ffa366"/>
      </g>
    </g>
    <g id="グループ_222" data-name="グループ 222" transform="translate(987.882 6541.127)">
      <g id="グループ_221" data-name="グループ 221" transform="translate(0 0)" clip-path="url(#clip-path-2)">
        <path id="パス_2165" data-name="パス 2165" d="M56.287,97.908a30.985,30.985,0,0,1-1.524-4.093,4.272,4.272,0,0,1-3.635-.91,11.939,11.939,0,0,1-3.506-5.686c-.752-2.214-.8-5.792.321-7.734a3.669,3.669,0,0,1,3.3-1.83A3.951,3.951,0,0,1,54.095,78.7S49.288,49.755,78.256,49.755s26.237,27.919,26.237,27.919-.068.7-.135,1.38a3.842,3.842,0,0,1,3.166-1.4,3.67,3.67,0,0,1,3.3,1.83c1.119,1.942,1.072,5.52.32,7.734a11.94,11.94,0,0,1-3.506,5.686,4.355,4.355,0,0,1-3.36.97l-.321-.055a25.7,25.7,0,0,1-1.157,3.138c-.854,2.319-5.575,10.449-11.547,13.62.088,1.146.237,2.28.437,3.422.254,1.456.237,2.783,1.565,3.711-.308,1.553-.7,3.415-1.153,5.411-3.522,1.738-8.371,2.512-12.821,2.512A29.854,29.854,0,0,1,66.753,123c-.4-1.764-.75-3.421-1.034-4.84,2.174-.917,2.088-2.451,2.4-4.161.178-1.035.318-1.988.4-2.99a22.259,22.259,0,0,1-8.054-6.432,29.32,29.32,0,0,1-4.18-6.669" transform="translate(-4.238 -4.479)" fill="#fff"/>
        <path id="パス_2166" data-name="パス 2166" d="M92.311,38.683c-4.3-3.614-11.892-5.1-17.953-4.018-7.008,1.248-13.846,3.984-19.121,9.708A29.883,29.883,0,0,0,47.8,61.659c-.342,4.357-.527,9.687,1.371,15.2a4.2,4.2,0,0,1,2.11-.588,3.833,3.833,0,0,1,3.368,1.662,22.127,22.127,0,0,1,.339-6.188A6.771,6.771,0,0,1,58.175,67.5c1.844-1.016,4.444-1.251,5.55-2.857a8.246,8.246,0,0,0,.7-1.55c1.4-3.327,6.19-5.324,10.176-4.25l11.776,1.637L97.429,65.5c.982.722,2.326.922,3.45,1.462a6.491,6.491,0,0,1,3.422,4.692,16.847,16.847,0,0,1-.209,5.73l.62-.076a3.951,3.951,0,0,1,2.857-1.046,4.165,4.165,0,0,1,2.169.626c3.521-11.171,1.808-23.932-6.411-32.108a13.966,13.966,0,0,0-6.14-3.762Z" transform="translate(-4.283 -3.09)" fill="#bdbdbd"/>
        <path id="パス_2167" data-name="パス 2167" d="M86.334,155.525c1.883-5.17,3.8-10.91,5.524-16.706.827-2.777,1.568-5.736,2.189-8.438-3.523,1.726-8.369,2.5-12.82,2.5A30.1,30.1,0,0,1,68.7,130.264c.624,2.737,1.373,5.738,2.212,8.555A276.777,276.777,0,0,0,80.3,165.445a1.176,1.176,0,0,0,2.169,0c1.219-2.9,2.532-6.269,3.862-9.92" transform="translate(-6.185 -11.726)" fill="#fff"/>
        <path id="パス_2168" data-name="パス 2168" d="M58.183,129.813c.793-.278,1.562-.676,2.325-1.026q1.754-.8,3.5-1.618,1.375-.637,2.75-1.274c.095-.044.192-.085.286-.13s.244-.107-.148.061c-.468.2-.063.033.058-.015.229-.092.46-.186.683-.293a4.936,4.936,0,0,0,2.193-2.029,7.8,7.8,0,0,0,.743-2.6c.206-1.332.434-2.658.556-4a1.828,1.828,0,0,0-1.82-1.82,1.867,1.867,0,0,0-1.82,1.82,34.15,34.15,0,0,1-.811,4.811c-.054.224.179-.285.037-.1a1.707,1.707,0,0,0-.12.211c-.2.359.164-.119-.061.081a2.184,2.184,0,0,0-.193.187c.2-.229.143-.091.025-.021-.09.054-.175.112-.267.165-.034.019-.413.209-.25.136s-.132.049-.132.049c-.139.056-.3.126-.44.187l-.06.025-.273.125c-1.952.9-3.9,1.809-5.848,2.706q-.76.348-1.521.693l-.484.215c-.4.18.455-.17.121-.053a1.82,1.82,0,1,0,.967,3.51" transform="translate(-5.029 -10.359)" fill="#06c"/>
        <path id="パス_2169" data-name="パス 2169" d="M93.642,116.731c.114,1.256.3,2.5.5,3.743A14.409,14.409,0,0,0,94.5,122.4a4.913,4.913,0,0,0,1.339,2.214,5.551,5.551,0,0,0,1.191.834,9.614,9.614,0,0,0,.895.389c.581.221-.422-.2-.2-.091,1.734.887,3.533,1.667,5.294,2.5.842.4,1.679.811,2.538,1.17a1.824,1.824,0,0,0,2.239-1.27,1.88,1.88,0,0,0-1.271-2.24c.9.379.076.019-.136-.08l-1.13-.532-3.059-1.449c-.789-.373-1.577-.748-2.368-1.117-.086-.04-.171-.082-.257-.119l-.066-.03c-.13-.057-.307-.131-.439-.186-.054-.022-.332-.154-.056-.016-.162-.081-.319-.165-.476-.256-.052-.032-.311-.2-.1-.056.185.128.013.01-.021-.024-.057-.056-.118-.12-.178-.174-.265-.237.091.069.056.094a4.082,4.082,0,0,1-.261-.439c-.1-.153.08.157.071.177A2.233,2.233,0,0,0,98,121.38c-.044-.146-.079-.295-.11-.444-.074-.351-.121-.707-.175-1.061-.077-.513-.17-1.024-.247-1.537-.033-.219-.037-.252-.074-.56-.041-.348-.076-.7-.107-1.047a1.861,1.861,0,0,0-1.82-1.82,1.841,1.841,0,0,0-1.82,1.82" transform="translate(-8.429 -10.344)" fill="#06c"/>
        <path id="パス_2170" data-name="パス 2170" d="M106.588,95.48a25.486,25.486,0,0,1-1.152,3.839c-.175.46-.294.7-.513,1.239-.184.457.132-.266-.025.061-.056.116-.107.234-.163.35a32.669,32.669,0,0,1-2.812,4.681c-2.44,3.457-5.779,7.233-10.066,8.241-2.28.535-1.314,4.046.967,3.51,5.1-1.2,9.015-5.451,11.967-9.529a33.51,33.51,0,0,0,3.057-5c.184-.38.349-.768.511-1.157.195-.467-.149.323.066-.15.139-.307.265-.621.389-.933a25.456,25.456,0,0,0,1.285-4.181c.477-2.285-3.031-3.262-3.51-.967" transform="translate(-8.152 -8.477)" fill="#06c"/>
        <path id="パス_2171" data-name="パス 2171" d="M53.037,96.348c2.186,9.586,9.4,20.038,19.763,21.6a1.878,1.878,0,0,0,2.239-1.271,1.833,1.833,0,0,0-1.271-2.239c-9.183-1.385-15.288-10.584-17.22-19.058-.521-2.283-4.03-1.317-3.51.967" transform="translate(-4.77 -8.469)" fill="#06c"/>
        <path id="パス_2172" data-name="パス 2172" d="M77.035,105.193a10.86,10.86,0,0,0,5.231,1.221,8.622,8.622,0,0,0,5.383-1.632,1.822,1.822,0,0,0,0-2.573,1.875,1.875,0,0,0-2.573,0c.63-.491-.015-.017-.213.087-.154.081-.562.208.015.012-.142.048-.28.107-.423.154-.385.123-.808.142-1.185.27.193-.066.3-.036.028-.009-.116.011-.232.021-.349.028-.28.018-.561.025-.843.024-.251,0-.5-.01-.753-.027-.115-.007-.23-.017-.345-.028l-.2-.022q-.216-.026.171.023a7.431,7.431,0,0,1-1.107-.246c-.156-.046-.307-.1-.46-.155-.406-.139.387.185.019.012-.19-.09-.377-.183-.562-.281a1.82,1.82,0,0,0-1.837,3.143" transform="translate(-6.855 -9.155)" fill="#06c"/>
        <path id="パス_2173" data-name="パス 2173" d="M81.5,92.115a23.181,23.181,0,0,1,.548,2.507c-.022-.161-.043-.322-.065-.483a1.516,1.516,0,0,1,.009.346L82.059,94a.81.81,0,0,1-.038.156l.183-.434a.628.628,0,0,1-.055.1l.285-.369a.575.575,0,0,1-.082.081l.368-.285a1.469,1.469,0,0,1-.2.1l.435-.183a1.427,1.427,0,0,1-.335.1l.484-.065a1.391,1.391,0,0,1-.314,0l.483.065c-.118-.016-.235-.045-.353-.061a1.386,1.386,0,0,0-.725-.033,1.356,1.356,0,0,0-.677.217,1.82,1.82,0,0,0-.653,2.49l.285.368a1.819,1.819,0,0,0,.8.468c.317.043.624.122.947.136a3.112,3.112,0,0,0,1.457-.356,2.218,2.218,0,0,0,1.2-1.449,3.423,3.423,0,0,0-.012-1.5c-.136-.808-.324-1.609-.531-2.4a1.819,1.819,0,0,0-2.239-1.271,1.836,1.836,0,0,0-1.087.836,1.91,1.91,0,0,0-.184,1.4" transform="translate(-7.258 -8.085)" fill="#06c"/>
        <path id="パス_2174" data-name="パス 2174" d="M67.569,84.182c-.419,1.36-.146,4.491,2.432,4.757,3.407-.021,3.588-3.8,2.441-5.585-.939-1.457-3.7-2.063-4.874.827" transform="translate(-6.068 -7.394)" fill="#06c"/>
        <path id="パス_2175" data-name="パス 2175" d="M97.023,84.182c.419,1.36.146,4.491-2.431,4.757-3.408-.021-3.589-3.805-2.442-5.585.939-1.457,3.7-2.063,4.874.827" transform="translate(-8.238 -7.394)" fill="#06c"/>
        <path id="パス_2176" data-name="パス 2176" d="M92.3,99.964q.243.268.464.552l-.285-.368a9.079,9.079,0,0,1,1.149,1.969l-.183-.435A9.49,9.49,0,0,1,93.8,102.7a1.784,1.784,0,0,0,2,1.3,1.725,1.725,0,0,0,1.045-.5,1.87,1.87,0,0,0,.533-1.287,2.092,2.092,0,0,0-.328-1.159,2.03,2.03,0,0,0-1.088-.837,1.864,1.864,0,0,0-1.4.184,1.835,1.835,0,0,0-.836,1.087,1.78,1.78,0,0,0,.184,1.4.357.357,0,0,1,.055.088l-.184-.434a.346.346,0,0,1,.025.1c-.022-.161-.044-.322-.065-.483v.052l3.575-.484a10.955,10.955,0,0,0-2.441-4.346,1.82,1.82,0,0,0-3.107,1.287,1.981,1.981,0,0,0,.533,1.287" transform="translate(-8.261 -8.719)" fill="#06c"/>
        <path id="パス_2177" data-name="パス 2177" d="M42.133,131.09c3.535-1.841,7.243-3.217,13.738-5.251,2.745-3.007,5.961-5.9,6.9-5.9a178.116,178.116,0,0,0,4.11,17.952,276.271,276.271,0,0,0,9.387,26.626,1.174,1.174,0,0,0,2.168,0,276.032,276.032,0,0,0,9.386-26.626,177.322,177.322,0,0,0,4.11-17.952c.975,0,4.379,3.093,7.182,6.206a57.532,57.532,0,0,1,13.123,5.371,23.065,23.065,0,0,1,5.939,4.647,31.075,31.075,0,0,1,4.291,6.272c3.584,6.865,4.554,14.57,5.411,22.2a143.136,143.136,0,0,1,.651,22.647c-.278,5.889-.99,9.623-3.494,14.164-2,3.622-7.775,7.04-12.94,7.735.158,2.28.318,4.423.486,6.18.746,7.289,1.31,13.331,1.729,19a.975.975,0,0,1-.874,1.046c-5.379.419-15.351,1.037-20.575.173-3.649-.61-6.134-1.31-8.454-3.285a15.067,15.067,0,0,1-4.877-7.234,79.28,79.28,0,0,1-1.612-7.889c-.055-.318-.308-.61-.563-.591-.255-.018-.51.273-.565.591a78.936,78.936,0,0,1-1.62,7.889,14.985,14.985,0,0,1-4.867,7.234c-2.321,1.975-4.814,2.675-8.454,3.285-5.224.865-15.2.246-20.576-.173a.967.967,0,0,1-.873-1.046c.418-5.669.982-11.711,1.72-19,.112-1.191.224-2.562.336-4.035-3.919-.253-9.367-1.379-12.211-4.343a20.958,20.958,0,0,1-5.5-11.233,90,90,0,0,1-.646-18.371c.619-12.182,2.588-20.5,5.964-32.821,1.974-4.925,4.23-8.364,7.98-10.983a36.239,36.239,0,0,1,4.084-2.483" transform="translate(-2.153 -10.797)" fill="#febe69"/>
        <path id="パス_2178" data-name="パス 2178" d="M67.606,131.644a31.9,31.9,0,0,0,13.637,2.877,31.693,31.693,0,0,0,13.543-2.759l-.919.248h.009a1.821,1.821,0,0,0,0-3.64,8.45,8.45,0,0,0-2.472.9,25.536,25.536,0,0,1-3.118.88,33.213,33.213,0,0,1-6.452.727A28.045,28.045,0,0,1,69.443,128.5a1.871,1.871,0,0,0-2.49.653,1.835,1.835,0,0,0,.652,2.49" transform="translate(-6.006 -11.548)" fill="#06c"/>
        <path id="パス_2179" data-name="パス 2179" d="M59.563,179.926c-3.81-3.751-8.689-8.443-11.68-11.091a5.171,5.171,0,0,0-2.738-1.283,3,3,0,0,0-2.426.737,2.5,2.5,0,0,0-.378,2.764,4.483,4.483,0,0,0,.653.979c-.391-.041-.648-.066-.648-.066a2.611,2.611,0,0,0-2.327.767,2.043,2.043,0,0,0-.316,2.158,7.905,7.905,0,0,0,1.755,2.3c.568.568,1.129,1.144,1.69,1.722l-.756-.056a2.528,2.528,0,0,0-2.491.622,2.377,2.377,0,0,0-.342,2.072,5.657,5.657,0,0,0,1.026,1.651c1.271,1.633,2.262,2.981,3.442,4.454l.433.54c3.238-.622,11.511-2.089,19.963-3.579l-1.545-1.393c-.918-.925-2.059-2.061-3.317-3.3" transform="translate(-3.552 -15.081)" fill="#fff"/>
        <path id="パス_2180" data-name="パス 2180" d="M64.247,181.76c-4.076-4.107-8.225-8.149-12.465-12.085-2.087-1.938-4.321-4.427-7.451-4.1a4.216,4.216,0,0,0-3.882,3.312c-.385,1.9.573,3.515,1.863,4.816,2.715,2.737,5.516,5.4,8.284,8.087,1.683,1.631,4.26-.94,2.574-2.574-2.049-1.986-4.08-3.988-6.114-5.988a17.518,17.518,0,0,1-2.856-2.9c-.614-1.01.388-1.317,1.243-1.055a6.822,6.822,0,0,1,2.429,1.745q1.294,1.178,2.568,2.38,2.831,2.663,5.612,5.379,2.831,2.756,5.622,5.555a1.821,1.821,0,0,0,2.573-2.573" transform="translate(-3.634 -14.902)" fill="#06c"/>
        <path id="パス_2181" data-name="パス 2181" d="M42.177,170.4a4.211,4.211,0,0,0-4.232,2.209c-.91,1.925-.045,3.73,1.221,5.23,1.04,1.232,2.257,2.342,3.383,3.5,1.147,1.175,2.308,2.335,3.529,3.432a1.82,1.82,0,0,0,2.574-2.573c-1.966-1.765-3.768-3.7-5.625-5.577-.437-.442-.881-.878-1.288-1.35-.035-.041-.187-.236-.076-.086-.093-.126-.178-.256-.26-.389a3.253,3.253,0,0,1-.223-.4c.076.177-.013-.054-.019-.112.036.347.05-.24.012-.009s.026-.394-.016.025c.013-.127.13-.189-.021-.022.037-.041.319-.273.129-.137s.108-.048.141-.067c.146-.082-.19.036.119-.036.111-.027.251-.037.06-.025a3.051,3.051,0,0,1,.591.032,1.822,1.822,0,0,0,1.82-1.82,1.876,1.876,0,0,0-1.82-1.82" transform="translate(-3.382 -15.337)" fill="#06c"/>
        <path id="パス_2182" data-name="パス 2182" d="M119.954,161.248c-.521,10.3-1.471,20.627-2.736,30.867-.236,1.906-.472,3.775-.845,5.726-.437,2.289,3.069,3.27,3.51.967.805-4.2,1.215-8.5,1.664-12.748q.886-8.392,1.523-16.809c.2-2.665.389-5.332.524-8,.117-2.341-3.523-2.335-3.64,0" transform="translate(-10.473 -14.358)" fill="#06c"/>
        <path id="パス_2183" data-name="パス 2183" d="M42.954,186.885q16.683-2.957,33.357-5.955l7.04-1.261a2.768,2.768,0,0,0,.642-.115c.248-.127.4.137-.1-.137-.267-.146-.4-.2-.43-.113-.124.441.42,1.616.534,2.071.408,1.623.8,3.25,1.183,4.879.806,3.41,1.584,6.827,2.36,10.244l.478,2.112a4.822,4.822,0,0,0,.211.933c.2.417-.036.145.086.007.618-.7-.172-.276-.457-.189q-2.849.869-5.716,1.68a257.308,257.308,0,0,1-25.265,5.916c-7.305,1.291-15.07,2.708-22.3.28-8.135-2.734-8.747-12.426-8.818-19.682-.038-3.84.21-7.686.442-11.518a125.491,125.491,0,0,1,1.339-12.529c.669-4.13,1.567-8.219,2.588-12.277a43.317,43.317,0,0,1,1.858-6.587,28.226,28.226,0,0,1,2.719-4.994c3.561-5.1,9.9-7.733,15.57-9.709,1.96-.683,3.938-1.317,5.918-1.942,2.226-.7,1.275-4.219-.967-3.51-6.912,2.184-14.107,4.424-19.811,9.087-6.958,5.688-8.646,15.189-10.374,23.512a157.867,157.867,0,0,0-2.847,26.018,69.488,69.488,0,0,0,.742,14.18,17.982,17.982,0,0,0,5.753,10.832c3,2.517,7.027,3.4,10.823,3.856a47.35,47.35,0,0,0,12.246-.551,220.926,220.926,0,0,0,26.869-5.643q3.251-.868,6.484-1.807,1.511-.439,3.018-.895a6.466,6.466,0,0,0,2.977-1.3c1.373-1.461.573-3.465.189-5.162q-.569-2.513-1.143-5.025c-.844-3.692-1.693-7.384-2.613-11.057-.4-1.587-.586-3.541-2.21-4.349-1.228-.611-2.811-.057-4.1.173q-18.183,3.258-36.37,6.5l-2.873.511a1.834,1.834,0,0,0-1.271,2.239,1.86,1.86,0,0,0,2.239,1.271" transform="translate(-1.991 -11.198)" fill="#06c"/>
        <path id="パス_2184" data-name="パス 2184" d="M103.192,128.312a55.791,55.791,0,0,1,12.874,5.231,24.188,24.188,0,0,1,9.033,9.367,41.673,41.673,0,0,1,4.318,12.966,128.658,128.658,0,0,1,1.726,14.389,144.275,144.275,0,0,1,.208,15.494c-.156,4-.447,8.029-1.986,11.771a13.6,13.6,0,0,1-2.611,4.38,17.043,17.043,0,0,1-4.6,3.258c-4.009,2.025-8.481,2.2-12.89,2.349-5.2.171-10.39-.1-15.576-.382-5.544-.3-11.1-.669-16.606-1.418a1.883,1.883,0,0,0-2.239,1.271,1.833,1.833,0,0,0,1.271,2.239c5.263.716,10.555,1.142,15.856,1.451,4.945.289,9.9.573,14.855.529,4.746-.042,9.909-.034,14.41-1.7,3.843-1.422,7.857-3.813,9.958-7.458a29.077,29.077,0,0,0,3.543-12.005,120.448,120.448,0,0,0,.258-15.965,153.957,153.957,0,0,0-1.54-15.956A54.233,54.233,0,0,0,129.6,143.8a28.351,28.351,0,0,0-10.075-12.4,56.519,56.519,0,0,0-15.37-6.6c-2.254-.653-3.217,2.858-.967,3.51" transform="translate(-6.732 -11.228)" fill="#06c"/>
        <path id="パス_2185" data-name="パス 2185" d="M72.467,162.791q-4.877-7.4-9.833-14.741-1.688-2.517-3.37-5.039c-.338-.51-.675-1.018-1.006-1.532-.1-.162-.2-.341-.311-.5-.186-.246-.035-.317.056.2v.968c-.219.657-.119.235.041.07.113-.15.117-.156.015-.018q.124-.156.251-.31c.389-.462.778-.924,1.177-1.378a30.791,30.791,0,0,1,2.2-2.359,1.833,1.833,0,0,0,0-2.573c-1.154-1.033-2.323-2.047-3.48-3.077-.57-.507-1.139-1.016-1.7-1.535-.207-.194-.409-.394-.615-.589-.288-.271-.151-.2-.047-.012l.248.918c.03.224-.381.857-.056.469a1.9,1.9,0,0,0,.147-.272c.127-.229.268-.452.412-.672.332-.507.7-1,1.063-1.459.993-1.247,2.065-2.433,3.17-3.581,1.021-1.059,2.077-2.093,3.195-3.049a8.964,8.964,0,0,1,1.15-.895c.167-.109.343-.2.511-.308.219-.138-.074.057-.152.056.076,0,.668-.053-.189,0l-1.754-1.336a206.459,206.459,0,0,0,10.8,37.783q.906,2.4,1.867,4.773c.563,1.388.953,3.072,2.4,3.778,3.674,1.793,4.949-3.74,5.872-6.1,2.755-7.037,5.194-14.2,7.375-21.437a159.541,159.541,0,0,0,4.364-18.8l-1.755,1.336c-.062,0-.542-.031-.23-.015.164.008-.339-.166-.161-.067s.337.186.5.291a7.645,7.645,0,0,1,1.132.867,45.09,45.09,0,0,1,3.275,3.118c1.078,1.119,2.121,2.277,3.1,3.488.379.47.742.956,1.085,1.471.148.224.293.45.426.682.052.09.095.191.152.276.278.409-.126.375-.023-.4l.248-.918c.1-.178.271-.288-.047.012-.207.195-.408.395-.615.589-.558.52-1.127,1.028-1.7,1.535-1.157,1.029-2.326,2.044-3.48,3.077a1.834,1.834,0,0,0,0,2.573,30.8,30.8,0,0,1,2.2,2.359c.4.454.788.915,1.177,1.378l.251.31c-.1-.137-.1-.132.014.018.16.165.26.587.042-.07v-.968c.033-.191.285-.5.056-.2-.1.138-.187.3-.28.445-.321.5-.652,1-.981,1.5q-1.7,2.569-3.426,5.124-4.937,7.357-9.833,14.741c-1.293,1.961,1.858,3.786,3.143,1.837,3.547-5.38,7.142-10.728,10.73-16.079,1.1-1.646,2.216-3.289,3.3-4.951.7-1.077,1.225-2.057.353-3.274a31.643,31.643,0,0,0-4.168-4.743v2.573c1.5-1.344,3.032-2.659,4.525-4.013a17.318,17.318,0,0,0,1.522-1.458,2.287,2.287,0,0,0,.137-2.831,24.225,24.225,0,0,0-3.447-4.61,53.5,53.5,0,0,0-4.493-4.582c-1.227-1.1-2.731-2.613-4.477-2.724a1.823,1.823,0,0,0-1.754,1.337,202.911,202.911,0,0,1-9.77,35.025c-1.06,2.9-2.167,5.783-3.346,8.637a1.982,1.982,0,0,0-.192.461l-.064.153a.405.405,0,0,1,.544-.213c.539,0,.614.384.353-.248q-.429-1.033-.844-2.071-.861-2.153-1.677-4.321c-2.527-6.707-4.843-13.516-6.821-20.405A161.59,161.59,0,0,1,67.1,119.274a1.821,1.821,0,0,0-1.755-1.337c-1.521.1-2.793,1.27-3.894,2.211a49.308,49.308,0,0,0-4.465,4.408,32.225,32.225,0,0,0-3.775,4.8c-.52.859-1.061,1.866-.508,2.848a6.459,6.459,0,0,0,1.308,1.407c1.67,1.549,3.405,3.024,5.1,4.542V135.58a36.19,36.19,0,0,0-3.628,4.047c-.585.733-1.269,1.5-.99,2.527a4.033,4.033,0,0,0,.558,1.062c2.511,3.946,5.192,7.788,7.794,11.674q3.254,4.859,6.478,9.738c1.284,1.947,4.438.126,3.143-1.837" transform="translate(-4.723 -10.617)" fill="#06c"/>
        <path id="パス_2186" data-name="パス 2186" d="M55.2,80a6.132,6.132,0,0,0-6.683-1,5.83,5.83,0,0,0-3.048,3.92,14.563,14.563,0,0,0,2.112,11.494c1.5,2.226,3.86,4.233,6.724,3.862a1.88,1.88,0,0,0,1.82-1.82,1.831,1.831,0,0,0-1.82-1.82c-1.981.257-3.27-1.383-4.13-2.968a11.758,11.758,0,0,1-1.411-4.385,7.53,7.53,0,0,1,.751-4.584c-.3.476.466-.4.185-.192a1.653,1.653,0,0,1,.835-.381,2.279,2.279,0,0,1,2.092.444c1.743,1.556,4.326-1.01,2.573-2.573" transform="translate(-4.056 -7.06)" fill="#06c"/>
        <path id="パス_2187" data-name="パス 2187" d="M111.432,82.568a2.254,2.254,0,0,1,1.976-.469,1.749,1.749,0,0,1,.951.407c-.276-.2.473.654.184.191a7.511,7.511,0,0,1,.751,4.585,11.792,11.792,0,0,1-1.411,4.385c-.859,1.584-2.148,3.225-4.129,2.968a1.828,1.828,0,0,0-1.82,1.82,1.868,1.868,0,0,0,1.82,1.82c4.656.6,7.519-4.421,8.683-8.185,1.046-3.381.992-8.615-2.313-10.778a6.1,6.1,0,0,0-7.264.682c-1.752,1.562.83,4.13,2.573,2.573" transform="translate(-9.716 -7.059)" fill="#06c"/>
        <path id="パス_2188" data-name="パス 2188" d="M90.094,52.063c.1.036.2.086.308.117-.475-.145-.159-.07-.034-.011.182.083.359.173.534.27a10.71,10.71,0,0,1,1,.64c.183.129-.316-.259-.071-.055.082.069.165.136.246.207q.24.207.466.435c.124.123.244.252.359.382.069.078.135.16.2.239.248.286-.248-.349-.029-.041a9.146,9.146,0,0,1,.6.945c.088.161.165.327.245.491s-.176-.444-.031-.071c.029.077.057.153.084.231a7.3,7.3,0,0,1,.26,1.024c.066.346-.037-.438-.016-.109.005.094.015.187.019.281.008.186,0,.373-.005.559a1.831,1.831,0,0,0,1.82,1.82,1.861,1.861,0,0,0,1.82-1.82,8.232,8.232,0,0,0-1.719-5.271,10.974,10.974,0,0,0-5.1-3.774,1.83,1.83,0,0,0-2.239,1.271,1.866,1.866,0,0,0,1.271,2.239" transform="translate(-7.991 -4.363)" fill="#06c"/>
        <path id="パス_2189" data-name="パス 2189" d="M101.434,43.263c3.1.714,5.685,3.337,7.543,5.8a26.009,26.009,0,0,1,4.071,8.055,33.446,33.446,0,0,1,.011,18.614,1.822,1.822,0,0,0,3.51.968,36.866,36.866,0,0,0-.218-21.2,29.839,29.839,0,0,0-4.933-9.188c-2.269-2.861-5.358-5.716-9.016-6.558-2.279-.525-3.253,2.984-.967,3.51" transform="translate(-9.014 -3.574)" fill="#06c"/>
        <path id="パス_2190" data-name="パス 2190" d="M50.55,75.626A35.939,35.939,0,0,1,49.6,59.981,28.648,28.648,0,0,1,54.485,47.8a26.01,26.01,0,0,1,9.108-7.91A32.853,32.853,0,0,1,76.848,36c4.737-.268,10.225.707,13.989,3.792,1.8,1.473,4.387-1.087,2.573-2.574-8.223-6.74-20.054-5.632-29.224-1.648A30.723,30.723,0,0,0,46.439,57.114a39.094,39.094,0,0,0,.6,19.479c.692,2.23,4.207,1.279,3.51-.967" transform="translate(-4.095 -2.914)" fill="#06c"/>
        <path id="パス_2191" data-name="パス 2191" d="M56.953,79.606a15.418,15.418,0,0,1,.447-5.634,5.256,5.256,0,0,1,3.485-3.233c1.665-.6,3.46-1.129,4.615-2.559,1.068-1.325,1.206-2.948,2.626-4.045,2.088-1.612,4.462-1.636,6.927-1.264,2,.3,4.016.558,6.023.837l5.33.741a1.882,1.882,0,0,0,2.239-1.271,1.833,1.833,0,0,0-1.271-2.239c-3.823-.531-7.667-.98-11.477-1.6a16.3,16.3,0,0,0-3.619-.381,11.669,11.669,0,0,0-5.633,1.784,9.22,9.22,0,0,0-3.588,4.391c-.656,1.586-2.414,1.785-3.877,2.369a8.686,8.686,0,0,0-5.026,4.817,17.327,17.327,0,0,0-.841,7.283c.084,2.336,3.724,2.347,3.64,0" transform="translate(-4.796 -5.307)" fill="#06c"/>
        <path id="パス_2192" data-name="パス 2192" d="M110.348,80.5c.374-2.473.769-5.059,0-7.506a8.215,8.215,0,0,0-4.054-4.972c-.921-.452-1.962-.659-2.863-1.106-.18-.09-.57-.423-.237-.094a1.3,1.3,0,0,1-.1-.1c-.14-.176-.308-.336-.46-.5l-1.972-2.152A1.82,1.82,0,0,0,98.1,66.641l1.8,1.963c.244.267.476.555.736.8a7.214,7.214,0,0,0,2.712,1.358,6.4,6.4,0,0,1,2.045.976,4.943,4.943,0,0,1,1.318,1.827c.753,1.89.428,4.016.133,5.968a1.878,1.878,0,0,0,1.271,2.239,1.834,1.834,0,0,0,2.239-1.271" transform="translate(-8.784 -5.72)" fill="#06c"/>
        <path id="パス_2193" data-name="パス 2193" d="M111.823,97.7a4.136,4.136,0,0,0-4.219,4.192,4.219,4.219,0,1,0,8.436,0,4.132,4.132,0,0,0-4.218-4.192" transform="translate(-9.687 -8.795)" fill="#fff"/>
        <path id="パス_2194" data-name="パス 2194" d="M52.106,97.7a4.137,4.137,0,0,0-4.219,4.192,3.955,3.955,0,0,0,4.219,4.271,3.925,3.925,0,0,0,4.219-4.271A4.132,4.132,0,0,0,52.106,97.7" transform="translate(-4.311 -8.795)" fill="#fff"/>
        <path id="パス_2195" data-name="パス 2195" d="M111.642,95.7a6.048,6.048,0,0,0-5.807,4.329,6.235,6.235,0,0,0,1.979,6.544,6.659,6.659,0,0,0,6.972.48,5.957,5.957,0,0,0,2.858-5.9,6.03,6.03,0,0,0-1.867-3.86,6.225,6.225,0,0,0-4.136-1.592,1.82,1.82,0,0,0,0,3.64c.122,0,.244.011.367.015.42.01-.417-.09-.013,0a5.32,5.32,0,0,1,.554.142l.106.036q.274.1-.125-.058a1.071,1.071,0,0,0,.2.1c.1.051.19.1.283.163.061.038.122.077.18.119.155.113.117.084-.113-.089.044.117.3.271.388.368.045.048.223.317.064.059s.02.032.046.074c.108.162.181.353.291.511.136.195-.15-.438-.036-.088.046.137.1.273.131.413.018.071.035.142.05.214.006.035.014.072.021.108.033.2.025.145-.018-.155a2.406,2.406,0,0,0,.021.568c0,.116-.006.232-.016.348,0,.037-.006.075-.009.113-.022.2-.015.148.024-.154a4.7,4.7,0,0,0-.139.621c-.028.1-.065.193-.1.29-.055.165-.134.1.069-.159-.113.147-.177.35-.281.508-.035.051-.083.1-.111.156.215-.4.169-.214.044-.077-.053.057-.107.113-.166.167-.144.136-.379.2.042-.012-.14.07-.264.181-.4.258a2.619,2.619,0,0,0-.263.131c.356-.249.25-.1.059-.037a4.348,4.348,0,0,1-.505.136c-.139.03-.478.033.053.006-.114.005-.227.024-.341.03a5.635,5.635,0,0,1-.7,0c-.075,0-.149-.013-.225-.018-.4-.027.435.095.052,0-.17-.04-.34-.074-.507-.126a2.545,2.545,0,0,0-.286-.1q.419.183.161.065c-.044-.021-.086-.044-.131-.066-.154-.082-.293-.2-.447-.28.369.18.239.2.108.076-.056-.055-.116-.106-.171-.162s-.127-.14-.191-.21c-.19-.208.1.119.108.142a4.286,4.286,0,0,0-.342-.586c-.084-.162.036-.138.066.159a1.732,1.732,0,0,0-.1-.29c-.053-.17-.086-.341-.125-.514-.089-.385.028.45,0,.047-.008-.115-.019-.228-.024-.343a3.263,3.263,0,0,0,.019-.682c.082.259-.072.359-.009.1.03-.124.053-.248.088-.371.03-.1.068-.2.1-.308.116-.357-.2.365-.014.04.114-.2.246-.393.359-.593s-.307.338-.053.077c.1-.1.192-.209.3-.307a1.116,1.116,0,0,0,.161-.141q-.344.258-.113.088c.059-.042.12-.082.181-.12.077-.049.155-.094.235-.137.048-.026.1-.052.147-.076.177-.081.133-.065-.129.05.139.031.491-.161.653-.2l.114-.024c.2-.033.156-.027-.132.015a4.9,4.9,0,0,0,.49-.026,1.82,1.82,0,0,0,0-3.64" transform="translate(-9.506 -8.615)" fill="#06c"/>
        <path id="パス_2196" data-name="パス 2196" d="M51.925,95.7a6.047,6.047,0,0,0-5.806,4.329,6.235,6.235,0,0,0,1.978,6.544,6.661,6.661,0,0,0,6.973.48,5.958,5.958,0,0,0,2.857-5.9,6.025,6.025,0,0,0-1.867-3.86A6.225,6.225,0,0,0,51.925,95.7a1.82,1.82,0,1,0,0,3.64c.123,0,.245.011.367.015.42.01-.417-.09-.013,0a5.28,5.28,0,0,1,.555.142l.106.036q.274.1-.125-.058a1.061,1.061,0,0,0,.2.1c.1.051.191.1.284.163.061.038.121.077.18.119.154.113.116.084-.113-.089.044.117.3.271.388.368.044.048.223.317.064.059s.019.032.046.074c.108.162.181.353.291.511.136.195-.15-.438-.036-.088.046.137.095.273.131.413.018.071.035.142.05.214.006.035.014.072.021.108q.048.295-.019-.155a2.409,2.409,0,0,0,.022.568c0,.116-.007.232-.016.348,0,.037-.006.075-.009.113-.022.2-.015.148.024-.154a4.558,4.558,0,0,0-.139.621c-.029.1-.065.193-.1.29-.055.165-.134.1.069-.159-.113.147-.178.35-.282.508-.034.051-.082.1-.11.156.215-.4.169-.214.044-.077-.053.057-.108.113-.166.167-.144.136-.379.2.042-.012-.14.07-.265.181-.4.258a2.633,2.633,0,0,0-.264.131c.357-.249.251-.1.06-.037a4.346,4.346,0,0,1-.505.136c-.139.03-.479.033.052.006-.114.005-.227.024-.341.03a5.621,5.621,0,0,1-.7,0c-.075,0-.149-.013-.225-.018-.4-.027.434.095.052,0-.17-.04-.34-.074-.507-.126a2.5,2.5,0,0,0-.287-.1q.42.183.162.065c-.044-.021-.087-.044-.131-.066-.154-.082-.293-.2-.448-.28.369.18.239.2.109.076-.056-.055-.116-.106-.172-.162s-.127-.14-.191-.21c-.19-.208.1.119.109.142a4.48,4.48,0,0,0-.342-.586c-.084-.162.035-.138.066.159a1.821,1.821,0,0,0-.1-.29c-.052-.17-.085-.341-.125-.514-.089-.385.029.45,0,.047-.008-.115-.019-.228-.024-.343a3.263,3.263,0,0,0,.018-.682c.083.259-.071.359-.008.1.03-.124.053-.248.088-.371.03-.1.068-.2.1-.308.116-.357-.2.365-.014.04.114-.2.246-.393.359-.593s-.307.338-.053.077c.1-.1.192-.209.3-.307a1.115,1.115,0,0,0,.161-.141q-.344.258-.113.088.089-.063.18-.12c.077-.049.156-.094.236-.137.048-.026.1-.052.147-.076.176-.081.133-.065-.13.05.139.031.492-.161.654-.2l.114-.024c.2-.033.155-.027-.132.015a4.883,4.883,0,0,0,.489-.026,1.82,1.82,0,0,0,0-3.64" transform="translate(-4.13 -8.615)" fill="#06c"/>
      </g>
    </g>
    <g id="グループ_224" data-name="グループ 224" transform="translate(791.707 6583.571)">
      <g id="グループ_223" data-name="グループ 223" transform="translate(0 0)" clip-path="url(#clip-path-3)">
        <path id="パス_2197" data-name="パス 2197" d="M105.3,75.214a3.948,3.948,0,0,1,2.856-1.045A3.663,3.663,0,0,1,111.45,76c1.119,1.94,1.072,5.516.321,7.727a11.934,11.934,0,0,1-3.5,5.682,4.354,4.354,0,0,1-3.357.969l-.322-.054a25.524,25.524,0,0,1-1.155,3.135c-.853,2.317-5.571,10.442-11.539,13.61.052.672.125,1.34.216,2.007-2.63,1.906-10.36,7.4-11.042,7.886H79c-.612-.434-6.918-4.918-10.1-7.206.12-.762.217-1.5.282-2.257a22.238,22.238,0,0,1-8.049-6.427,30.035,30.035,0,0,1-5.7-10.754,4.27,4.27,0,0,1-3.632-.909,11.944,11.944,0,0,1-3.5-5.682c-.75-2.212-.8-5.787.321-7.727a3.666,3.666,0,0,1,3.293-1.83,3.948,3.948,0,0,1,2.856,1.045S50.06,46.76,80.033,46.76c33.858,0,25.269,28.454,25.269,28.454" transform="translate(-5.806 -5.183)" fill="#fff"/>
        <path id="パス_2198" data-name="パス 2198" d="M59.159,128.517c.787-.276,1.551-.671,2.308-1.018q1.754-.8,3.5-1.617c.916-.423,1.832-.851,2.749-1.272.095-.045.191-.084.285-.132.078-.039.238-.1-.141.059-.453.194-.051.027.066-.018.225-.09.451-.181.669-.287a4.867,4.867,0,0,0,2.169-2.006,7.74,7.74,0,0,0,.735-2.578c.206-1.326.433-2.644.553-3.982a1.764,1.764,0,0,0-1.757-1.757,1.8,1.8,0,0,0-1.757,1.757,33.581,33.581,0,0,1-.813,4.823c-.052.219.171-.262.032-.089a1.56,1.56,0,0,0-.119.212c-.195.342.146-.093-.071.092a2.565,2.565,0,0,0-.193.186c.19-.216.119-.074.013-.011-.09.055-.175.112-.266.166-.033.018-.4.2-.257.138-.126.057-.614.252-.9.383-1.95.9-3.894,1.808-5.845,2.7q-.759.348-1.52.693c-.161.073-.322.143-.483.215-.4.177.434-.162.105-.047A1.8,1.8,0,0,0,57,127.291a1.772,1.772,0,0,0,2.161,1.226" transform="translate(-6.922 -13.346)" fill="#06c"/>
        <path id="パス_2199" data-name="パス 2199" d="M96.028,115.5c.112,1.248.293,2.487.5,3.723a14.441,14.441,0,0,0,.359,1.926,4.853,4.853,0,0,0,1.322,2.185,5.489,5.489,0,0,0,1.178.824,9.517,9.517,0,0,0,.879.381c.575.22-.4-.2-.185-.084,1.73.889,3.531,1.666,5.29,2.5.837.4,1.668.806,2.522,1.163a1.761,1.761,0,0,0,2.161-1.227,1.814,1.814,0,0,0-1.228-2.161c.876.367.055.009-.15-.087q-.567-.265-1.131-.532l-3.056-1.448c-.789-.372-1.576-.748-2.366-1.116l-.257-.119-.067-.03c-.127-.055-.3-.126-.423-.179-.044-.017-.326-.144-.07-.023-.164-.077-.32-.164-.476-.256-.048-.028-.3-.2-.109-.061.174.123,0,0-.026-.029-.128-.126-.344-.413-.132-.092-.094-.141-.168-.3-.261-.439s.085.148.065.163c0,0-.1-.3-.108-.32-.042-.146-.078-.294-.11-.444-.074-.35-.121-.706-.174-1.06-.176-1.156-.328-2.017-.43-3.157a1.8,1.8,0,0,0-1.757-1.757,1.775,1.775,0,0,0-1.757,1.757" transform="translate(-11.675 -13.326)" fill="#06c"/>
        <path id="パス_2200" data-name="パス 2200" d="M72.168,151.514c-3.33-9.878-6.6-20.154-8.386-26.389.321,0,.514,0,.514,0a3.787,3.787,0,0,1,.821-3.391c1.2-1.384,2.7-3.387,3.923-4.754.519.42,11.1,7.947,11.907,8.515h2.07c.8-.568,11.387-8.1,11.906-8.515,1.222,1.367,2.728,3.37,3.924,4.754a3.787,3.787,0,0,1,.821,3.391h.52c-3.736,13.126-14.082,44.22-17.636,51.708H81.484c-1.873-3.934-5.628-14.384-9.316-25.322" transform="translate(-7.755 -13.72)" fill="#fff"/>
        <path id="パス_2201" data-name="パス 2201" d="M99.559,39.914C95.576,33.306,86.47,31.58,79.51,31.58A30.874,30.874,0,0,0,60.219,38a26.19,26.19,0,0,0-4.993,4.771c-3.4,3.855-6.693,12-6.48,19.572A42.025,42.025,0,0,0,50.252,72.73a4.4,4.4,0,0,1,1.777-.407,3.948,3.948,0,0,1,2.856,1.045l1.014.974.056-.594a26.788,26.788,0,0,1,6.824-15.1,2.985,2.985,0,0,1,2.8-.928,52.69,52.69,0,0,0,12.529.4c5.109-.28,10.511-.787,14.665-2.966l4.367,2.987a10.734,10.734,0,0,1,2.593,2.438A22.855,22.855,0,0,1,104.35,74.4l1.072-1.032a3.948,3.948,0,0,1,2.856-1.045,4.4,4.4,0,0,1,1.78.408l.1-.53c.871-4.678,1.6-9.5.963-14.238-.767-5.675-3.359-11.5-8.2-14.526Z" transform="translate(-5.925 -3.337)" fill="#ffd89e"/>
        <path id="パス_2202" data-name="パス 2202" d="M100.84,38.781c-2.744-4.435-7.459-6.967-12.416-8.168a38.3,38.3,0,0,0-15.663-.452,33.608,33.608,0,0,0-15.245,7.307,29.158,29.158,0,0,0-8.991,13.5,37.748,37.748,0,0,0-.343,21.455c.558,2.19,3.948,1.262,3.389-.934A34.52,34.52,0,0,1,51.229,54.2a26.928,26.928,0,0,1,7.359-13c7.155-6.8,17.22-9.289,26.837-7.626,4.753.822,9.731,2.7,12.381,6.981,1.188,1.919,4.229.156,3.034-1.774" transform="translate(-5.689 -3.091)" fill="#06c"/>
        <path id="パス_2203" data-name="パス 2203" d="M119.112,74.059c1.119-6.057,1.915-12.221.357-18.279-1.282-4.984-4.007-9.646-8.4-12.47-1.907-1.225-3.671,1.814-1.773,3.034,3.719,2.39,5.844,6.5,6.867,10.7,1.3,5.322.544,10.777-.437,16.086-.408,2.21,2.977,3.158,3.388.934" transform="translate(-13.189 -4.728)" fill="#06c"/>
        <path id="パス_2204" data-name="パス 2204" d="M93.7,55.969C88.266,59.31,81.05,59.335,74.87,59.464a50.111,50.111,0,0,1-5.448-.148c-1.656-.146-3.443-.769-5.082-.259-1.6.5-2.575,1.851-3.554,3.128a29.991,29.991,0,0,0-2.662,4.087,27.87,27.87,0,0,0-3.172,10.409,1.768,1.768,0,0,0,1.757,1.757,1.8,1.8,0,0,0,1.757-1.757A24.191,24.191,0,0,1,62.29,66.122a26.108,26.108,0,0,1,1.735-2.41c.461-.567.893-1.306,1.69-1.355a20.173,20.173,0,0,1,3.086.411c1.039.111,2.083.172,3.127.2a83.47,83.47,0,0,0,12.532-.62A27.027,27.027,0,0,0,95.472,59c1.923-1.182.16-4.223-1.774-3.034" transform="translate(-6.68 -6.269)" fill="#06c"/>
        <path id="パス_2205" data-name="パス 2205" d="M102.712,63.1a15.181,15.181,0,0,1,4.758,6.679,20.453,20.453,0,0,1,1.578,8.179c-.032,2.261,3.482,2.263,3.514,0a24.028,24.028,0,0,0-1.988-9.794,18.48,18.48,0,0,0-6.087-8.1,1.773,1.773,0,0,0-2.4.631,1.8,1.8,0,0,0,.631,2.4" transform="translate(-12.382 -6.769)" fill="#06c"/>
        <path id="パス_2206" data-name="パス 2206" d="M68.9,81.787c-.418,1.36-.146,4.488,2.431,4.754,3.4-.02,3.586-3.8,2.439-5.581-.938-1.456-3.7-2.061-4.87.827" transform="translate(-8.358 -9.193)" fill="#06c"/>
        <path id="パス_2207" data-name="パス 2207" d="M99.318,81.787c.418,1.36.146,4.488-2.43,4.754-3.406-.021-3.587-3.8-2.44-5.581.938-1.456,3.7-2.061,4.87.827" transform="translate(-11.406 -9.193)" fill="#06c"/>
        <path id="パス_2208" data-name="パス 2208" d="M108.851,93.533a25.519,25.519,0,0,1-1.151,3.836c-.17.446-.312.739-.513,1.239-.179.445.12-.242-.032.076-.055.116-.107.234-.163.35a32.693,32.693,0,0,1-2.811,4.678c-2.446,3.468-5.795,7.253-10.1,8.263-2.2.517-1.269,3.906.934,3.389,5.076-1.193,8.981-5.432,11.922-9.495a33.429,33.429,0,0,0,3.054-5c.182-.376.344-.758.505-1.143.191-.455-.129.3.071-.164.131-.3.261-.61.383-.918a25.452,25.452,0,0,0,1.283-4.178c.46-2.206-2.926-3.149-3.388-.934" transform="translate(-11.286 -10.716)" fill="#06c"/>
        <path id="パス_2209" data-name="パス 2209" d="M53.988,94.366c2.18,9.561,9.374,19.983,19.706,21.542a1.814,1.814,0,0,0,2.161-1.227,1.772,1.772,0,0,0-1.227-2.162c-9.2-1.387-15.317-10.6-17.252-19.087-.5-2.2-3.891-1.271-3.388.934" transform="translate(-6.558 -10.704)" fill="#06c"/>
        <path id="パス_2210" data-name="パス 2210" d="M114.212,80.006a2.349,2.349,0,0,1,2.035-.485,1.882,1.882,0,0,1,.965.412c-.242-.179.478.643.206.213a4.645,4.645,0,0,1,.69,1.862,10.594,10.594,0,0,1,.069,2.751,11.641,11.641,0,0,1-1.419,4.413c-.868,1.6-2.178,3.256-4.18,3a1.765,1.765,0,0,0-1.757,1.757,1.8,1.8,0,0,0,1.757,1.757c4.624.6,7.462-4.4,8.617-8.134,1.036-3.35.993-8.554-2.284-10.7a6.027,6.027,0,0,0-7.184.671c-1.691,1.508.8,3.986,2.484,2.484" transform="translate(-13.474 -8.732)" fill="#06c"/>
        <path id="パス_2211" data-name="パス 2211" d="M55.761,77.523a6.063,6.063,0,0,0-6.6-.985,5.761,5.761,0,0,0-3.016,3.881,14.49,14.49,0,0,0,2.1,11.438c1.484,2.207,3.826,4.2,6.665,3.828a1.814,1.814,0,0,0,1.757-1.757,1.767,1.767,0,0,0-1.757-1.757c-2,.26-3.313-1.4-4.18-3a11.626,11.626,0,0,1-1.42-4.414,7.569,7.569,0,0,1,.759-4.613c-.278.439.451-.394.206-.213a1.793,1.793,0,0,1,.85-.388,2.377,2.377,0,0,1,2.15.46c1.682,1.5,4.176-.975,2.484-2.484" transform="translate(-5.56 -8.734)" fill="#06c"/>
        <path id="パス_2212" data-name="パス 2212" d="M78.773,103.44a10.8,10.8,0,0,0,5.2,1.212,8.56,8.56,0,0,0,5.336-1.614,1.76,1.76,0,0,0,0-2.484,1.811,1.811,0,0,0-2.485,0c.606-.472-.033,0-.225.1-.148.078-.55.2,0,.018-.141.047-.279.107-.423.154q-.27.086-.547.149a3.96,3.96,0,0,0-.637.12c.179-.077.278-.033.012-.007-.116.011-.233.021-.349.029q-.42.026-.842.024-.377,0-.753-.027-.173-.012-.345-.029c-.066-.006-.131-.013-.2-.022-.137-.017-.086-.01.155.021-.1.048-.456-.082-.567-.106q-.271-.059-.539-.14c-.155-.047-.306-.1-.459-.154-.4-.136.365.175,0,0q-.285-.133-.562-.28a1.757,1.757,0,0,0-1.774,3.034" transform="translate(-9.474 -11.663)" fill="#06c"/>
        <path id="パス_2213" data-name="パス 2213" d="M83.425,89.982a23.381,23.381,0,0,1,.547,2.506q-.03-.233-.062-.466a1.511,1.511,0,0,1,.01.345c.021-.155.041-.311.062-.466a.873.873,0,0,1-.038.155l.177-.42a.6.6,0,0,1-.054.1l.275-.355a.548.548,0,0,1-.082.081l.355-.275a1.533,1.533,0,0,1-.2.105l.42-.177a1.435,1.435,0,0,1-.335.1l.467-.063a1.291,1.291,0,0,1-.314,0l.466.063c-.118-.017-.235-.046-.353-.061a1.328,1.328,0,0,0-.7-.032,1.3,1.3,0,0,0-.654.209,1.756,1.756,0,0,0-.63,2.4,1.68,1.68,0,0,0,1.05.807c.311.042.613.12.93.134a3.035,3.035,0,0,0,1.425-.347,2.157,2.157,0,0,0,1.167-1.41,3.334,3.334,0,0,0-.012-1.467c-.136-.807-.322-1.608-.531-2.4A1.812,1.812,0,0,0,86.006,88a1.791,1.791,0,0,0-1.354-.177,1.768,1.768,0,0,0-1.05.807,1.842,1.842,0,0,0-.177,1.353" transform="translate(-10.037 -10.167)" fill="#06c"/>
        <path id="パス_2214" data-name="パス 2214" d="M45.57,128.916c2.967-1.326,5.98-2.685,8.877-3.887l3.087-1.282c3.072,11.448,14.532,45.965,18.314,53.91h1.068c3.771-7.946,15.191-42.476,18.245-53.911l3.084,1.282c4.445,1.845,9.162,4.058,13.572,5.956,3.874,1.66,7.8,3.039,10.971,5.894a23.75,23.75,0,0,1,7.247,12.368,56.931,56.931,0,0,1,.966,8.38c.492,6.579.878,13.176,1.247,19.764q.685,12.043,1.3,24.1.593,11.121,1.168,22.233.264,4.77.536,9.54a4.943,4.943,0,0,1-.589,3.057c-.773.9-2.407.966-3.593,1.107-3.928.448-9.13.87-13.76,1.107.419,4.433.766,8.492,1.053,12.392a1.1,1.1,0,0,1-.992,1.186c-6.106.474-17.43,1.177-23.363.193-4.14-.694-6.968-1.484-9.6-3.733a17.015,17.015,0,0,1-5.537-8.213,89.517,89.517,0,0,1-1.837-8.96c-.058-.363-.353-.688-.639-.675-.285-.013-.581.312-.639.675a89.516,89.516,0,0,1-1.837,8.96,17.021,17.021,0,0,1-5.537,8.213c-2.631,2.249-5.459,3.039-9.6,3.733-5.934.984-17.257.281-23.363-.193a1.1,1.1,0,0,1-.992-1.186c.287-3.9.634-7.956,1.051-12.387-4.656-.236-9.906-.661-13.862-1.112-1.186-.141-2.82-.2-3.593-1.107a4.943,4.943,0,0,1-.589-3.057q.277-4.77.536-9.54.593-11.108,1.168-22.233.619-12.043,1.3-24.1c.369-6.588.755-13.185,1.247-19.764a56.936,56.936,0,0,1,.966-8.38A23.75,23.75,0,0,1,29.9,136.878c3.171-2.855,7.1-4.234,10.971-5.894,1.535-.661,3.109-1.36,4.694-2.069" transform="translate(-2.118 -14.543)" fill="#bdbdbd"/>
        <path id="パス_2215" data-name="パス 2215" d="M31.714,138.557c.735,9.4,2.047,18.77,3.122,28.137,1.285,11.2,2.647,22.43,3.262,33.693a102.466,102.466,0,0,1-.444,10.7c-.29,5.695-.591,11.392-1.047,17.077-.577,7.2-1.416,14.373-1.986,21.571-.133,1.677-.647,3.7.766,4.971,1.087.984,2.975.805,4.357.9,3.161.219,6.327.387,9.5.462,6.115.145,12.808.186,18.5-2.369a18.2,18.2,0,0,0,7.293-6.407,22.82,22.82,0,0,0,3.161-8.463q.273-1.3.513-2.6.148-.8.285-1.6a3.84,3.84,0,0,1,.256-1.271l-.63.63a.158.158,0,0,1-.015-.019h-.935a.159.159,0,0,1-.015.019l-.63-.63a8.5,8.5,0,0,1,.5,2.671q.258,1.4.549,2.8a36.4,36.4,0,0,0,.946,3.877,19.216,19.216,0,0,0,5.751,8.54c4.746,4.117,11.476,4.742,17.515,4.845,3.339.058,6.679-.054,10.013-.228q2.253-.117,4.5-.277c1.42-.1,3.234.062,4.283-1.07,1.239-1.338.665-3.493.534-5.129q-.213-2.675-.452-5.349-.527-5.931-1.137-11.853c-1.017-10.046-1.3-20.147-1.871-30.223a46.089,46.089,0,0,1,.222-5.335q.238-3.917.524-7.83c.429-5.973.9-11.943,1.4-17.912.84-10.185,1.759-20.363,2.594-30.55q.088-1.075.172-2.15c.175-2.255-3.34-2.243-3.514,0-.71,9.147-1.558,18.283-2.327,27.425-.93,11.071-1.868,22.148-2.489,33.24A95.853,95.853,0,0,0,115,208.993c.277,5.554.567,11.109.964,16.655.482,6.746,1.275,13.467,1.854,20.205q.227,2.627.429,5.256a3.853,3.853,0,0,0,.09,1.192c.3.46.343-.581.54-.383a3.106,3.106,0,0,0-.49.038q-1,.075-2,.143c-3.115.213-6.234.379-9.356.452a79.957,79.957,0,0,1-9.165-.194,22.81,22.81,0,0,1-8.355-2.077,15.245,15.245,0,0,1-6.243-6.447c-1.376-2.664-1.818-5.829-2.352-8.744-.306-1.665-.312-4.341-2.547-4.547-2.341-.215-2.6,2.245-2.906,3.95-.523,2.937-.94,6.176-2.241,8.9a15.351,15.351,0,0,1-6.205,6.752,22.056,22.056,0,0,1-8.346,2.19,111.547,111.547,0,0,1-18.361-.2q-1.022-.069-2.043-.144a3.661,3.661,0,0,0-.87-.066c.182-.192.247.835.54.383.112-.172.047-.626.063-.85q.192-2.531.408-5.061.481-5.639,1.047-11.271c1.053-10.629,1.567-21.281,2.1-31.946a82.963,82.963,0,0,0-.574-11.308c-.5-5.723-1.1-11.436-1.731-17.146-1.16-10.509-2.489-21-3.587-31.517-.162-1.547-.318-3.095-.439-4.646-.175-2.24-3.69-2.258-3.514,0" transform="translate(-3.855 -16.093)" fill="#06c"/>
        <path id="パス_2216" data-name="パス 2216" d="M79.246,144.062c.332-2.4.538-3.974.536-4.174a25.458,25.458,0,0,0-1.407-5.518l-.72-1.5c1.842-2.442,3.809-4.995,4.873-6.192H84.6c1.021,1.148,2.872,3.545,4.648,5.894l-.39,1.6c-.321,1.318-1.076,5.055-1.076,5.619,0,.335,1.573,12.435,2.631,21.688-2.584,7.4-4.924,13.681-6.277,16.534H83.065c-1.356-2.849-3.7-9.112-6.288-16.5.9-6.337,1.88-13.189,2.469-17.449" transform="translate(-9.335 -14.899)" fill="#3d8dcc"/>
        <path id="パス_2217" data-name="パス 2217" d="M87.676,138.4c-2.484,0-4.968-.052-7.452-.053a1.757,1.757,0,1,0,0,3.514c2.484,0,4.968.052,7.452.053a1.757,1.757,0,0,0,0-3.514" transform="translate(-9.54 -16.318)" fill="#06c"/>
        <path id="パス_2218" data-name="パス 2218" d="M88.442,134.506a34.4,34.4,0,0,0-1.119,5.85,17.94,17.94,0,0,0,.33,3.168c.7,5.668,1.416,11.337,2.079,17.012a1.811,1.811,0,0,0,1.757,1.757,1.768,1.768,0,0,0,1.757-1.757c-.654-5.6-1.355-11.189-2.051-16.782-.134-1.074-.309-2.156-.375-3.237-.019-.319-.069.425,0-.061.03-.2.064-.392.1-.588.085-.49.179-.978.275-1.466.2-.99.4-1.98.632-2.962.526-2.2-2.861-3.135-3.388-.934" transform="translate(-10.616 -15.698)" fill="#06c"/>
        <path id="パス_2219" data-name="パス 2219" d="M78.55,160.831c.812-5.716,1.645-11.429,2.419-17.15a13.806,13.806,0,0,0,.3-3.648,21.041,21.041,0,0,0-1.574-5.726,1.768,1.768,0,0,0-2.4-.63,1.8,1.8,0,0,0-.631,2.4c-.169-.375.2.6.256.789.141.455.269.914.39,1.375s.241.943.343,1.418c.049.227.1.455.137.683.1.58.027-.214.035.239a18.231,18.231,0,0,1-.333,2.866c-.75,5.486-1.545,10.965-2.323,16.448a1.816,1.816,0,0,0,1.227,2.161,1.77,1.77,0,0,0,2.161-1.227" transform="translate(-9.135 -15.722)" fill="#06c"/>
        <path id="パス_2220" data-name="パス 2220" d="M98.887,122.481c-1.831,6.993-4.1,13.882-6.34,20.754-2.694,8.282-5.469,16.544-8.475,24.719-.639,1.738-1.29,3.472-1.974,5.194-.583,1.47-.766,1.954-1.41,3.318l1.517-.87H81.138l1.517.87c-.2-.432-.4-.87-.59-1.309-.055-.126-.109-.254-.163-.38.169.4-.025-.061-.049-.118q-.211-.511-.418-1.023c-.59-1.465-1.153-2.941-1.707-4.42-1.423-3.8-2.776-7.635-4.1-11.474Q71.3,145.237,67.36,132.6c-1.043-3.362-2.08-6.73-2.975-10.134-.574-2.185-3.965-1.258-3.388.934,1.853,7.048,4.154,13.992,6.417,20.917C70.143,152.669,72.951,161,76,169.24c1.121,3.025,2.237,6.08,3.619,9a1.732,1.732,0,0,0,1.517.87h1.068a1.733,1.733,0,0,0,1.517-.87c2.9-6.148,5-12.738,7.217-19.153Q95.316,146.408,99.3,133.6c1.044-3.377,2.083-6.761,2.978-10.182.574-2.189-2.815-3.123-3.388-.934" transform="translate(-7.408 -14.236)" fill="#06c"/>
        <path id="パス_2221" data-name="パス 2221" d="M49.906,137.057l4.6,2.626-.356-2.759c-1.458,1.369-2.909,2.747-4.294,4.191-1.4,1.463-2.209,2.806-1.278,4.775,1.492,3.159,3.229,6.231,4.905,9.295,3.192,5.832,6.577,11.555,9.9,17.315,1.128,1.959,4.165.191,3.033-1.774-3.049-5.293-6.155-10.556-9.114-15.9q-2.2-3.963-4.281-7.985A14.848,14.848,0,0,0,51.8,144.5q-.237-.715-.22-.1l.206-.216c.336-.163.7-.74.968-1.013,1.257-1.289,2.562-2.528,3.876-3.759a1.773,1.773,0,0,0-.356-2.759l-4.6-2.627c-1.967-1.124-3.739,1.911-1.773,3.034" transform="translate(-5.857 -15.762)" fill="#06c"/>
        <path id="パス_2222" data-name="パス 2222" d="M114.859,134.024l-4.6,2.626a1.773,1.773,0,0,0-.355,2.76c1.263,1.185,2.521,2.378,3.734,3.615.3.307.728.973,1.109,1.157l.2.216q.02-.617-.219.1a17.675,17.675,0,0,0-1.108,2.16c-1.367,2.656-2.746,5.307-4.158,7.939-2.79,5.2-5.725,10.327-8.671,15.443-1.13,1.963,1.9,3.734,3.034,1.774,3.2-5.562,6.386-11.135,9.4-16.8,1.6-3.017,3.274-6.029,4.733-9.118.925-1.959.112-3.324-1.279-4.775s-2.835-2.822-4.294-4.191q-.178,1.38-.355,2.759l4.6-2.626c1.963-1.122.195-4.158-1.773-3.034" transform="translate(-12.225 -15.762)" fill="#06c"/>
        <path id="パス_2223" data-name="パス 2223" d="M56.827,121.806c-3.818,1.588-7.6,3.264-11.384,4.927-3.909,1.717-7.957,3.233-11.771,5.148a24.335,24.335,0,0,0-10.193,9.641c-2.574,4.455-3.32,9.324-3.681,14.383-1.6,22.43-2.6,44.9-3.809,67.348-.167,3.109-.354,6.216-.522,9.324-.145,2.681.434,5.24,3.345,5.99a47.655,47.655,0,0,0,7.619.866q4.347.378,8.705.605c2.26.118,2.253-3.4,0-3.514q-7.033-.366-14.037-1.138c-.351-.039-.7-.069-1.051-.141-.223-.045-.437-.105-.655-.17-.151-.045-.4-.327-.22-.079-.492-.677-.21-2.1-.167-2.852q.231-4.011.45-8.022c.591-10.693,1.116-21.389,1.686-32.083.561-10.553,1.109-21.112,1.849-31.655.343-4.9.352-10.044,2.291-14.641a20.937,20.937,0,0,1,8.087-9.68c3.879-2.382,8.342-3.879,12.5-5.7,3.956-1.737,7.9-3.5,11.89-5.164a1.814,1.814,0,0,0,1.227-2.161,1.768,1.768,0,0,0-2.161-1.227" transform="translate(-1.878 -14.295)" fill="#06c"/>
        <path id="パス_2224" data-name="パス 2224" d="M127.86,240.076c4.886-.255,9.773-.63,14.633-1.2,2.175-.256,4.23-.914,4.841-3.266a11.679,11.679,0,0,0,.158-3.643q-.13-2.277-.257-4.553c-.624-11.193-1.181-22.388-1.773-33.583s-1.167-22.424-1.957-33.622c-.363-5.153-.432-10.509-2.4-15.361a24.945,24.945,0,0,0-8.629-11.078,37.327,37.327,0,0,0-7.084-3.611c-2.606-1.1-5.192-2.232-7.773-3.386-3.736-1.671-7.44-3.334-11.315-4.648-2.146-.728-3.067,2.664-.934,3.388,2.932.994,5.739,2.181,8.571,3.443,4.3,1.916,8.708,3.651,12.954,5.678a21.4,21.4,0,0,1,9.59,8.7c2.411,4.168,2.928,8.733,3.261,13.453,1.492,21.133,2.471,42.3,3.587,63.455q.235,4.454.487,8.9c.079,1.418.223,2.846.237,4.266a3.268,3.268,0,0,1-.213,1.587s.334-.092-.177.092a5.039,5.039,0,0,1-.566.158,51.084,51.084,0,0,1-6.922.741q-4.153.354-8.318.572c-2.25.118-2.264,3.631,0,3.514" transform="translate(-12.664 -14.333)" fill="#06c"/>
        <path id="パス_2225" data-name="パス 2225" d="M67.612,115.49c-1.016,1.151-1.958,2.364-2.926,3.556a9.642,9.642,0,0,0-2.31,3.711c-.461,1.9.4,3.447,1.181,5.1a55.7,55.7,0,0,0,3.054,5.755,15.4,15.4,0,0,0,4.248,4.89,1.8,1.8,0,0,0,2.4-.63c2.861-3.818,5.581-7.8,8.74-11.386a1.789,1.789,0,0,0-.356-2.759q-2.99-2.12-5.972-4.252-1.934-1.381-3.867-2.764-.66-.473-1.319-.95c-.19-.137-1.095-.831-.394-.276a1.812,1.812,0,0,0-2.484,0,1.769,1.769,0,0,0,0,2.484c3.931,3.115,8.172,5.891,12.263,8.791l-.356-2.759c-3.356,3.8-6.25,8.04-9.29,12.1l2.4-.631a8.4,8.4,0,0,1-1.553-1.546,21.3,21.3,0,0,1-1.5-2.19,54.42,54.42,0,0,1-2.739-5.121q-.433-.911-.849-1.831c-.085-.188-.194-.378-.26-.573a1.442,1.442,0,0,1-.084-.179c.069.379.083-.22.09-.238a7.809,7.809,0,0,1,1.644-2.523c.9-1.108,1.774-2.229,2.716-3.3,1.492-1.688-.983-4.183-2.484-2.484" transform="translate(-7.568 -13.47)" fill="#06c"/>
        <path id="パス_2226" data-name="パス 2226" d="M96.1,117.975c.906,1.025,1.752,2.1,2.612,3.166.618.768,1.576,1.575,1.735,2.6.011.076.045.513.063.35s-.024.056-.044.119a6.2,6.2,0,0,1-.261.573c-.278.612-.56,1.224-.849,1.831a54.808,54.808,0,0,1-2.673,5.014,13.517,13.517,0,0,1-3.118,3.843l2.4.631c-3.039-4.057-5.933-8.293-9.289-12.1l-.356,2.759c4.091-2.9,8.331-5.675,12.262-8.79a1.766,1.766,0,0,0,0-2.484,1.8,1.8,0,0,0-2.484,0c.7-.558-.166.111-.348.243q-.68.493-1.364.982-1.93,1.385-3.867,2.764-2.984,2.129-5.972,4.252a1.791,1.791,0,0,0-.356,2.76c3.16,3.58,5.879,7.568,8.74,11.385a1.791,1.791,0,0,0,2.4.631,15.418,15.418,0,0,0,4.248-4.891,55.516,55.516,0,0,0,3.053-5.755c.777-1.657,1.648-3.2,1.181-5.1a9.647,9.647,0,0,0-2.309-3.712c-.969-1.191-1.91-2.4-2.927-3.555-1.5-1.7-3.977.794-2.484,2.484" transform="translate(-10.176 -13.47)" fill="#06c"/>
      </g>
    </g>
    <g id="グループ_226" data-name="グループ 226" transform="translate(899.078 6688.489)">
      <g id="グループ_225" data-name="グループ 225" transform="translate(0 0)" clip-path="url(#clip-path-4)">
        <path id="パス_2227" data-name="パス 2227" d="M72.521,58.431c-4.828,5-10.1,9.718-15.367,14.436l-2.9,2.6-.173.155-2.226.672a4.063,4.063,0,0,0-2.936-1.075A3.767,3.767,0,0,0,45.531,77.1c-1.15,1.995-1.1,5.67-.329,7.944a12.264,12.264,0,0,0,3.6,5.841,4.391,4.391,0,0,0,3.734.937A30.88,30.88,0,0,0,58.4,102.877a22.851,22.851,0,0,0,8.275,6.607c-.088,1.029-.232,2.009-.415,3.071-.318,1.757-.231,3.332-2.461,4.274.293,1.461.65,3.16,1.062,4.973a30.65,30.65,0,0,0,12.865,2.7c4.565,0,9.54-.793,13.166-2.573.213-.933.41-1.837.59-2.695-.32-.4-.631-.821-.934-1.282a12.108,12.108,0,0,1-1.857-8.3c6.757-2.649,12.252-12.051,13.19-14.6a14.779,14.779,0,0,0,.65-1.622c-.088-.819-.1-1.362-.1-1.362.575-8.558-.266-16.694-5.292-23.927-4.6-6.611-12.053-11.242-20.315-10.168Z" transform="translate(-6.074 -7.865)" fill="#fff"/>
        <path id="パス_2228" data-name="パス 2228" d="M56.519,130.489c.8-.282,1.582-.686,2.354-1.039q1.8-.825,3.6-1.661c.942-.437,1.883-.876,2.825-1.309.1-.045.2-.087.293-.135.078-.038.238-.1-.135.056-.451.193-.04.023.077-.023.225-.09.45-.181.669-.287a4.948,4.948,0,0,0,2.2-2.034,7.9,7.9,0,0,0,.747-2.632c.21-1.356.443-2.705.566-4.074a1.74,1.74,0,0,0-1.728-1.728,1.765,1.765,0,0,0-1.728,1.728,33.309,33.309,0,0,1-.837,4.979c-.054.216.164-.244.023-.073a1.722,1.722,0,0,0-.123.218c-.192.335.129-.072-.085.111-.067.058-.134.13-.2.192.219-.212.076-.048,0,0-.165.1-.478.284-.549.316-.165.074-.622.256-.912.39-2.006.921-4,1.858-6.009,2.779q-.78.359-1.563.712l-.5.221c-.4.179.42-.155.09-.04a1.771,1.771,0,0,0-1.207,2.125,1.743,1.743,0,0,0,2.125,1.207" transform="translate(-7.392 -15.731)" fill="#06c"/>
        <path id="パス_2229" data-name="パス 2229" d="M86.154,157.849c1.934-5.311,3.9-11.207,5.675-17.162.85-2.854,1.61-5.892,2.249-8.669-3.618,1.774-8.6,2.567-13.169,2.567A30.933,30.933,0,0,1,68.043,131.9c.641,2.811,1.411,5.895,2.273,8.788a283.865,283.865,0,0,0,9.642,27.352,1.207,1.207,0,0,0,2.228,0c1.253-2.981,2.6-6.44,3.967-10.19" transform="translate(-9.258 -17.945)" fill="#fff"/>
        <path id="パス_2230" data-name="パス 2230" d="M38.295,132.181c3.632-1.891,7.441-3.3,14.113-5.4,2.822-3.089,6.124-6.061,7.092-6.061a182.755,182.755,0,0,0,4.223,18.442,284.1,284.1,0,0,0,9.642,27.352,1.207,1.207,0,0,0,2.228,0,284.1,284.1,0,0,0,9.642-27.352,182.758,182.758,0,0,0,4.223-18.442c1,0,4.5,3.178,7.376,6.375a59.087,59.087,0,0,1,13.481,5.518,23.634,23.634,0,0,1,6.1,4.774,31.873,31.873,0,0,1,4.409,6.442c3.682,7.052,4.677,14.968,5.558,22.807a147.132,147.132,0,0,1,.669,23.265c-.286,6.049-1.018,9.885-3.591,14.55-2.051,3.721-7.986,7.231-13.293,7.946.163,2.343.327,4.543.5,6.348.767,7.488,1.347,13.694,1.776,19.518a1,1,0,0,1-.9,1.076c-5.525.429-15.77,1.065-21.136.177-3.749-.626-6.3-1.346-8.684-3.375a15.479,15.479,0,0,1-5.011-7.432,82,82,0,0,1-1.654-8.1c-.056-.327-.318-.626-.58-.607-.262-.019-.524.28-.58.607a80.763,80.763,0,0,1-1.664,8.1,15.393,15.393,0,0,1-5,7.432c-2.384,2.029-4.945,2.748-8.684,3.375-5.366.888-15.611.252-21.136-.177a1,1,0,0,1-.9-1.076c.43-5.824,1.01-12.03,1.767-19.518.116-1.223.231-2.632.346-4.144-4.027-.26-9.623-1.417-12.544-4.463A21.526,21.526,0,0,1,20.439,198.6a92.492,92.492,0,0,1-.664-18.871c.636-12.515,2.658-21.06,6.127-33.717,2.029-5.059,4.347-8.593,8.2-11.283a37.083,37.083,0,0,1,4.194-2.551" transform="translate(-2.664 -16.425)" fill="#ff9854"/>
        <path id="パス_2231" data-name="パス 2231" d="M51.7,125.809c-6.542,2.067-13.2,4.179-18.843,8.2a23.144,23.144,0,0,0-7.133,8.366c-2.054,3.977-2.987,8.369-4.007,12.7a142.276,142.276,0,0,0-3.555,25.291c-.206,3.946-.453,7.89-.32,11.846.141,4.164.4,8.7,2,12.6a15.778,15.778,0,0,0,8.9,9.056,29.762,29.762,0,0,0,12.311,1.758c2.206-.155,2.223-3.612,0-3.456a28.4,28.4,0,0,1-9.937-1.14,11.966,11.966,0,0,1-4.213-2.04,14.065,14.065,0,0,1-3.356-4.345c-1.727-3.333-1.986-7.4-2.183-11.081a105.331,105.331,0,0,1,.167-11.442,147.474,147.474,0,0,1,2.918-23.453c1.59-7.281,2.977-15.424,8.834-20.616,5.329-4.724,12.714-6.814,19.343-8.909,2.113-.668,1.21-4.005-.918-3.332" transform="translate(-2.422 -17.104)" fill="#06c"/>
        <path id="パス_2232" data-name="パス 2232" d="M103.872,129.478a57.173,57.173,0,0,1,13.551,5.562,24.97,24.97,0,0,1,9.24,9.873,44.031,44.031,0,0,1,4.315,13.376,135.16,135.16,0,0,1,1.721,14.635,148.567,148.567,0,0,1,.186,16.02c-.166,4.071-.5,8.164-2.092,11.962a13.942,13.942,0,0,1-2.707,4.463,17.85,17.85,0,0,1-4.924,3.426c-4.078,2.01-8.635,2.178-13.1,2.326-5.337.175-10.673-.1-16-.393-5.709-.308-11.429-.69-17.1-1.462a1.788,1.788,0,0,0-2.125,1.207,1.738,1.738,0,0,0,1.207,2.125c5.434.74,10.9,1.176,16.375,1.494,5.044.293,10.1.581,15.154.536,4.843-.044,10.117-.035,14.715-1.73,3.877-1.428,7.966-3.838,10.114-7.5a29.285,29.285,0,0,0,3.658-12.1,120.3,120.3,0,0,0,.3-16.535,159.473,159.473,0,0,0-1.508-15.979A57.014,57.014,0,0,0,131,145.948a29.3,29.3,0,0,0-10.18-12.855,56.868,56.868,0,0,0-16.024-6.947c-2.14-.62-3.054,2.714-.918,3.332" transform="translate(-10.175 -17.152)" fill="#06c"/>
        <path id="パス_2233" data-name="パス 2233" d="M70.92,164.731q-5.014-7.6-10.109-15.154-1.737-2.589-3.466-5.183c-.346-.522-.692-1.043-1.03-1.57-.1-.163-.2-.345-.314-.5-.181-.242-.032-.316.046.174v.919c-.117.365-.194.327.023.084.2-.226-.1.128.047-.063.076-.1.154-.192.232-.287.4-.5.822-.98,1.244-1.461a31.458,31.458,0,0,1,2.275-2.439,1.741,1.741,0,0,0,0-2.444c-1.19-1.064-2.4-2.111-3.589-3.172-.575-.512-1.15-1.025-1.713-1.549-.219-.2-.429-.418-.649-.62-.245-.226-.265-.409-.072-.043l.236.873c.1.922-.279.733-.054.444a2.739,2.739,0,0,0,.172-.323c.137-.245.288-.482.442-.716.341-.517.7-1.009,1.082-1.481,1.027-1.286,2.13-2.511,3.272-3.7,1.055-1.094,2.145-2.161,3.3-3.147a9.237,9.237,0,0,1,1.169-.909c.177-.117.365-.213.543-.327.252-.162.035.028-.1.035.142-.008.457-.032-.181.005l-1.667-1.268a214.032,214.032,0,0,0,11.863,40.83q.855,2.2,1.76,4.383c.632,1.522,1.617,2.837,3.478,2.541,1.774-.283,2.275-1.822,2.876-3.286q.947-2.309,1.839-4.642Q87.983,150.028,91.233,139a162.675,162.675,0,0,0,4.118-18.089l-1.667,1.268c-.57-.033-.368-.031-.219-.017s-.366-.2-.111-.048c.178.1.359.2.532.313a8.354,8.354,0,0,1,1.152.883,46.169,46.169,0,0,1,3.379,3.213c1.115,1.157,2.194,2.354,3.2,3.607.387.48.752.969,1.1,1.493.158.237.313.478.454.725.061.107.111.226.181.329.245.366-.112.441-.024-.382l.236-.873c.089-.168.25-.263-.026,0-.21.2-.414.4-.626.6-.585.548-1.184,1.081-1.781,1.614-1.193,1.062-2.4,2.108-3.59,3.172a1.743,1.743,0,0,0,0,2.444,31.292,31.292,0,0,1,2.275,2.439c.4.456.8.917,1.183,1.385a4.677,4.677,0,0,1,.3.374c.164.176.26.583.062-.032V142.5c.081-.513.237-.418.064-.2a5.314,5.314,0,0,0-.3.482c-.33.516-.669,1.026-1.007,1.536q-1.748,2.64-3.519,5.263-5.075,7.563-10.109,15.154c-1.228,1.862,1.764,3.595,2.984,1.744,3.649-5.534,7.348-11.037,11.04-16.543,1.125-1.679,2.257-3.353,3.359-5.047.695-1.067,1.238-2.022.374-3.234a32.141,32.141,0,0,0-4.26-4.845v2.444c1.553-1.39,3.134-2.749,4.677-4.149a17.322,17.322,0,0,0,1.546-1.485,2.269,2.269,0,0,0,.059-2.813,25.624,25.624,0,0,0-3.444-4.586,55.262,55.262,0,0,0-4.632-4.728c-1.222-1.1-2.762-2.663-4.51-2.765a1.733,1.733,0,0,0-1.666,1.269,205.9,205.9,0,0,1-9.507,34.524c-1.09,3.03-2.227,6.043-3.435,9.028a11.226,11.226,0,0,0-.8,1.952c-.2-.208.973-.189.819-.06a8.369,8.369,0,0,0-.326-.826q-.844-2.051-1.642-4.121c-2.548-6.585-4.834-13.275-6.9-20.026a168.455,168.455,0,0,1-4.835-20.471,1.729,1.729,0,0,0-1.666-1.269c-1.534.091-2.849,1.327-3.952,2.274a51.293,51.293,0,0,0-4.608,4.565,33.452,33.452,0,0,0-3.746,4.761c-.518.844-1.108,1.868-.56,2.842A6.594,6.594,0,0,0,52.2,134.6c1.711,1.586,3.489,3.1,5.229,4.654v-2.444a36.611,36.611,0,0,0-3.75,4.187c-.562.707-1.228,1.445-.957,2.433a4.243,4.243,0,0,0,.585,1.095c2.579,4.036,5.318,7.973,7.982,11.953q3.342,4.991,6.653,10c1.219,1.849,4.213.119,2.984-1.744" transform="translate(-6.89 -16.152)" fill="#06c"/>
        <path id="パス_2234" data-name="パス 2234" d="M95.191,117.179c.115,1.276.3,2.543.51,3.807a14.769,14.769,0,0,0,.368,1.98,4.9,4.9,0,0,0,1.339,2.211,5.535,5.535,0,0,0,1.195.835c.287.144.586.27.886.384.586.225-.394-.194-.172-.079,1.779.916,3.63,1.712,5.439,2.568.854.4,1.7.823,2.572,1.189a1.732,1.732,0,0,0,2.125-1.207,1.783,1.783,0,0,0-1.206-2.126c.864.363.029,0-.175-.1l-1.161-.548q-1.572-.743-3.143-1.488c-.81-.384-1.62-.768-2.432-1.147-.088-.041-.175-.083-.264-.123l-.068-.03c-.123-.054-.293-.126-.417-.176-.032-.013-.321-.139-.091-.032-.168-.079-.329-.168-.49-.263-.045-.027-.3-.2-.119-.069.164.12-.01-.009-.035-.035-.112-.114-.362-.428-.147-.111-.1-.145-.172-.308-.269-.451s.054.136.059.149c-.032-.111-.078-.219-.111-.329-.045-.15-.081-.3-.113-.456-.075-.36-.124-.726-.18-1.089-.174-1.153-.341-2.12-.445-3.267a1.766,1.766,0,0,0-1.728-1.728,1.747,1.747,0,0,0-1.728,1.728" transform="translate(-12.951 -15.707)" fill="#06c"/>
        <path id="パス_2235" data-name="パス 2235" d="M66.9,133.106a32.532,32.532,0,0,0,13.92,2.937,32.37,32.37,0,0,0,13.859-2.815l-.873.235h.01a1.729,1.729,0,0,0,0-3.456,9.593,9.593,0,0,0-2.657.971,26.823,26.823,0,0,1-3.127.867,34.494,34.494,0,0,1-6.652.735,28.9,28.9,0,0,1-12.735-2.459,1.777,1.777,0,0,0-2.364.619,1.741,1.741,0,0,0,.62,2.364" transform="translate(-8.988 -17.675)" fill="#06c"/>
        <path id="パス_2236" data-name="パス 2236" d="M77.1,104.479a11.014,11.014,0,0,0,5.3,1.235,8.718,8.718,0,0,0,5.43-1.635,1.732,1.732,0,0,0,0-2.444,1.782,1.782,0,0,0-2.443,0c.592-.461-.058.013-.247.112-.148.077-.549.2-.02.026-.146.048-.288.111-.435.158-.185.06-.373.111-.562.155-.118.027-.582.042-.654.124.079-.089.324-.038-.009-.005-.119.012-.239.022-.359.03q-.432.027-.865.024c-.258,0-.517-.01-.775-.029-.118-.008-.236-.017-.354-.029-.067-.006-.135-.014-.2-.022q-.2-.023.138.019a1.921,1.921,0,0,1-.582-.109c-.187-.041-.371-.089-.555-.144-.159-.048-.314-.1-.472-.158-.4-.137.347.168-.014,0-.2-.092-.388-.187-.578-.289a1.728,1.728,0,0,0-1.744,2.984" transform="translate(-10.377 -13.761)" fill="#06c"/>
        <path id="パス_2237" data-name="パス 2237" d="M82,90.478a24.149,24.149,0,0,1,.563,2.576L82.5,92.6a1.534,1.534,0,0,1,.009.356l.062-.459a.981.981,0,0,1-.039.16c.058-.139.116-.276.174-.413a.651.651,0,0,1-.056.1l.27-.35a.516.516,0,0,1-.085.084l.35-.27a1.766,1.766,0,0,1-.2.108l.413-.175a1.452,1.452,0,0,1-.344.1l.459-.061a1.385,1.385,0,0,1-.322,0c.153.02.306.04.459.061-.121-.016-.241-.048-.363-.064a1.314,1.314,0,0,0-.689-.029,1.289,1.289,0,0,0-.643.2,1.726,1.726,0,0,0-.619,2.364,1.656,1.656,0,0,0,1.032.794c.313.041.617.12.936.134a3.055,3.055,0,0,0,1.425-.346,2.142,2.142,0,0,0,1.163-1.4,3.362,3.362,0,0,0-.013-1.467c-.14-.829-.332-1.652-.545-2.467a1.729,1.729,0,0,0-2.125-1.207,1.744,1.744,0,0,0-1.032.795A1.811,1.811,0,0,0,82,90.478" transform="translate(-11.035 -12.012)" fill="#06c"/>
        <path id="パス_2238" data-name="パス 2238" d="M66.806,81.924c-.43,1.4-.149,4.613,2.5,4.887,3.5-.022,3.686-3.909,2.508-5.737-.965-1.5-3.8-2.119-5.007.849" transform="translate(-9.067 -10.86)" fill="#06c"/>
        <path id="パス_2239" data-name="パス 2239" d="M98.384,81.924c.43,1.4.15,4.613-2.5,4.887-3.5-.022-3.686-3.909-2.508-5.737.965-1.5,3.8-2.119,5.007.849" transform="translate(-12.616 -10.86)" fill="#06c"/>
        <path id="パス_2240" data-name="パス 2240" d="M54.031,72.046l-2.257.52a4.069,4.069,0,0,0-2.9-1.045,3.907,3.907,0,0,0-2.989,1.31c-4.184-14.787.48-26.239,7.384-32.848A37.24,37.24,0,0,1,77.19,30.629,37.921,37.921,0,0,1,91.425,33.16c7.291,3.821,7.137,3.752,10.475,6.972,5.235,5.051,8.874,14.139,9.453,22.278a104.874,104.874,0,0,1-.219,12.675c0,4.781,2.425,11,3.661,13.84a22.853,22.853,0,0,1-3.705,24.734c-1.95,2.146-4.428,4.212-4.75,7.062a5.382,5.382,0,0,0,1.08,3.85c-3.908-.486-9-2.343-11.722-4.831a28.412,28.412,0,0,1-5.2-5.482,12.105,12.105,0,0,1-1.857-8.3c6.755-2.65,12.255-12.055,13.2-14.607l.635-1.724c-.079-.763-.094-1.261-.094-1.261.575-8.557-.266-16.694-5.293-23.926C92.488,57.829,85.03,53.2,76.768,54.272l-4.295.46c-4.828,5-10.1,9.718-15.368,14.436q-1.45,1.3-2.9,2.6l-.173.155" transform="translate(-6.027 -4.166)" fill="#f7fbeb"/>
        <path id="パス_2241" data-name="パス 2241" d="M52.8,77.544a6.153,6.153,0,0,0-6.694-1,5.848,5.848,0,0,0-3.064,3.943,14.82,14.82,0,0,0,2.155,11.7c1.512,2.249,3.893,4.272,6.785,3.9a1.785,1.785,0,0,0,1.728-1.728,1.737,1.737,0,0,0-1.728-1.728c-2.085.27-3.461-1.452-4.365-3.12a12.02,12.02,0,0,1-1.47-4.576,7.6,7.6,0,0,1,.791-4.782c-.271.4.447-.4.24-.247a2.034,2.034,0,0,1,.892-.407,2.549,2.549,0,0,1,2.287.493c1.654,1.477,4.107-.959,2.443-2.443" transform="translate(-5.798 -10.336)" fill="#06c"/>
        <path id="パス_2242" data-name="パス 2242" d="M51.247,95.06c2.235,9.8,9.607,20.492,20.2,22.09a1.784,1.784,0,0,0,2.125-1.206,1.741,1.741,0,0,0-1.207-2.126c-9.479-1.43-15.795-10.928-17.789-19.676-.493-2.168-3.826-1.25-3.331.918" transform="translate(-6.966 -12.639)" fill="#06c"/>
        <path id="パス_2243" data-name="パス 2243" d="M94,117.142c3.539-.822,6.565-3.207,9.009-5.8a39.031,39.031,0,0,0,5.8-8.016c.274-.5.536-1.014.768-1.539.092-.208.18-.421.268-.63.022-.054.149-.352.06-.148-.1.238.04-.078.051-.1.093-.206.179-.416.264-.626.14-.342.267-.689.391-1.037a1.728,1.728,0,0,0-3.332-.918c-.2.573-.452,1.114-.672,1.68-.161.41.151-.3.007-.007-.046.092-.084.189-.127.283-.278.6-.59,1.184-.916,1.758a38.518,38.518,0,0,1-3,4.512c-2.454,3.155-5.623,6.364-9.5,7.263-2.166.5-1.249,3.836.918,3.332" transform="translate(-12.496 -13.204)" fill="#06c"/>
        <path id="パス_2244" data-name="パス 2244" d="M102.888,38.293c5.294,3.159,8.976,8.665,11.09,14.348a37.915,37.915,0,0,1,2.287,9.7,69.937,69.937,0,0,1,.105,8.307c-.045,1.584-.148,3.159-.245,4.74a19.344,19.344,0,0,0,.517,4.953,47.742,47.742,0,0,0,2.751,8.63,27.407,27.407,0,0,1,2.376,8.787,21.422,21.422,0,0,1-1.441,9.283,20.4,20.4,0,0,1-2.53,4.5c-1.065,1.452-2.4,2.666-3.591,4.013-2.6,2.956-4.131,6.944-1.584,10.487l1.492-2.6a20.983,20.983,0,0,1-11.307-5.058c-3.216-2.9-6.564-6.537-5.826-11.271a1.784,1.784,0,0,0-1.207-2.126,1.741,1.741,0,0,0-2.125,1.207,13.878,13.878,0,0,0,1.31,8.22,20.929,20.929,0,0,0,5.143,6.179,22.264,22.264,0,0,0,6.207,4.147,29.287,29.287,0,0,0,7.8,2.158,1.735,1.735,0,0,0,1.492-2.6c-2.175-3.027.438-5.7,2.508-7.866a26.045,26.045,0,0,0,5.485-8.322,25.456,25.456,0,0,0-.618-19.458,50.907,50.907,0,0,1-2.786-8.233,18.894,18.894,0,0,1-.638-4.581c.023-1.615.208-3.236.258-4.854.2-6.359-.127-12.542-2.265-18.6-2.4-6.8-6.614-13.312-12.919-17.075-1.915-1.142-3.654,1.845-1.744,2.984" transform="translate(-12.72 -4.768)" fill="#06c"/>
        <path id="パス_2245" data-name="パス 2245" d="M92.581,31.612a39.527,39.527,0,0,0-32.927,1.438,30.334,30.334,0,0,0-16.412,20.5,38.877,38.877,0,0,0,.627,19.208,1.729,1.729,0,0,0,3.332-.919c-2.547-9.375-1.8-19.517,4.043-27.533a26.966,26.966,0,0,1,8.512-7.379,35.374,35.374,0,0,1,14.887-4.747,38.082,38.082,0,0,1,17.02,2.765,1.739,1.739,0,0,0,2.125-1.207,1.771,1.771,0,0,0-1.207-2.125" transform="translate(-5.757 -3.904)" fill="#06c"/>
        <path id="パス_2246" data-name="パス 2246" d="M72.506,57.032c-5.851,6.039-12.183,11.585-18.443,17.192-1.66,1.487.791,3.924,2.444,2.443C62.765,71.061,69.1,65.514,74.949,59.475c1.548-1.6-.892-4.044-2.443-2.443" transform="translate(-7.28 -7.688)" fill="#06c"/>
        <path id="パス_2247" data-name="パス 2247" d="M81.611,59.429c7.953-.961,15.123,3.574,19.352,10.1a29.211,29.211,0,0,1,4.342,12.086,45.194,45.194,0,0,1,.337,6.486c-.017,1.389-.219,2.8-.125,4.187.207,3.035.774,6.735,3.084,8.932,1.611,1.531,4.059-.908,2.443-2.445-1.669-1.587-2.026-4.664-2.087-6.738-.049-1.669.156-3.358.144-5.033a47.031,47.031,0,0,0-.551-6.906c-1.332-8.562-6.128-16.756-13.7-21.221a21.185,21.185,0,0,0-13.24-2.906A1.783,1.783,0,0,0,79.883,57.7a1.739,1.739,0,0,0,1.728,1.728" transform="translate(-10.869 -7.596)" fill="#06c"/>
        <path id="パス_2248" data-name="パス 2248" d="M48.942,96.2a3.419,3.419,0,0,1,3.643,3.288,3.36,3.36,0,0,1-3.643,3.35,3.323,3.323,0,0,1-3.643-3.35A3.416,3.416,0,0,1,48.942,96.2" transform="translate(-6.163 -13.087)" fill="#fff"/>
        <path id="パス_2249" data-name="パス 2249" d="M48.669,97.653c.11,0,.219.01.329.012.291.005-.1-.009-.143-.027a4.04,4.04,0,0,0,.5.108c.1.027.189.062.284.092.267.085-.121-.041-.143-.063a3.741,3.741,0,0,0,.5.278c.044.029.308.2.048.029s-.013,0,.034.043c.109.1.2.232.308.329-.3-.27-.17-.244-.086-.1.036.063.079.124.116.188s.063.136.1.2c.058.122.029.052-.086-.21.022.055.041.111.06.167a3.758,3.758,0,0,0,.108.432c-.01-.019-.038-.466-.027-.192,0,.091.011.181.012.273,0,.065,0,.13-.005.2-.01.194-.12.336.022-.079-.054.156-.066.331-.117.491-.022.07-.058.14-.075.212.1-.422.129-.27.045-.132s-.157.247-.227.372c-.1.187.3-.337.081-.111-.041.041-.078.086-.118.128-.061.062-.128.118-.191.179-.231.222.346-.223.071-.054-.128.079-.251.162-.385.23-.181.093-.3.038.078-.024a1.3,1.3,0,0,0-.177.064,4.083,4.083,0,0,1-.464.124c-.215.044-.308-.052.066,0a1.853,1.853,0,0,0-.308.024,4.926,4.926,0,0,1-.53-.006,1.146,1.146,0,0,0-.206-.017l.257.036c-.065-.01-.13-.022-.2-.035a3.969,3.969,0,0,1-.466-.121,1.235,1.235,0,0,0-.175-.062q.406.178.161.067-.082-.039-.161-.08a4.147,4.147,0,0,0-.372-.232c.019.007.335.289.147.11-.062-.059-.127-.113-.187-.174-.04-.041-.076-.084-.116-.124-.219-.222.192.3.085.117-.078-.135-.172-.258-.244-.4-.094-.185-.028-.288.035.1a1.245,1.245,0,0,0-.057-.165c-.045-.143-.074-.289-.106-.435-.073-.339.024.444.016.092,0-.063-.008-.126-.009-.19,0-.093,0-.187,0-.28.013-.222.114-.249-.02.1.061-.158.088-.353.138-.517.076-.253-.059.149-.073.167a2.908,2.908,0,0,0,.166-.313c.031-.051.066-.1.1-.15.162-.265-.3.312-.022.033A3.308,3.308,0,0,0,47.4,98l-.206.156c.05-.036.1-.073.152-.106.078-.053.158-.1.24-.147s.147-.067.212-.109c.12-.057.057-.031-.191.077.06-.024.123-.047.184-.067a5.3,5.3,0,0,1,.589-.149c.216-.046.006.086-.147.019a1.657,1.657,0,0,0,.435-.021,1.728,1.728,0,1,0,0-3.456,5.367,5.367,0,0,0-5.125,3.5,4.975,4.975,0,0,0,1.834,5.62,5.983,5.983,0,0,0,6.01.334,5,5,0,0,0,2.55-5.389A5.261,5.261,0,0,0,48.669,94.2a1.728,1.728,0,1,0,0,3.456" transform="translate(-5.89 -12.815)" fill="#06c"/>
      </g>
    </g>
  </g>
</svg>
