<svg xmlns="http://www.w3.org/2000/svg" xmlns:xlink="http://www.w3.org/1999/xlink" width="355.507" height="289.149" viewBox="0 0 355.507 289.149">
  <defs>
    <clipPath id="clip-path">
      <rect id="長方形_117" data-name="長方形 117" width="47.359" height="73.9" fill="none"/>
    </clipPath>
  </defs>
  <g id="グループ_304" data-name="グループ 304" transform="translate(-249 -7768.223)">
    <path id="パス_2458" data-name="パス 2458" d="M321.894,112.244,261.442,7.818A15.4,15.4,0,0,0,248.153,0H11.59C5.188,0,0,4.747,0,10.6V237.858c0,5.858,5.188,10.6,11.59,10.6H248.261a15.393,15.393,0,0,0,13.2-7.672l60.284-101.684a26.318,26.318,0,0,0,.145-26.863" transform="translate(279 7808.91)" fill="#ffe8d9"/>
    <g id="グループ_297" data-name="グループ 297" transform="translate(-83.287 576.503)">
      <g id="グループ_292" data-name="グループ 292" transform="translate(696.606 -448)">
        <path id="パス_2449" data-name="パス 2449" d="M64.769,103.822v15.255l-4.992,5.085-4.068,1.779-1.525,2.034H58l47.036,1.017v-1.017l-3.305-3.813-4.576-5.085V103.822Z" transform="translate(-273.18 7732.862)" fill="#f60"/>
        <g id="長方形_130" data-name="長方形 130" transform="translate(-267 7736.312)" fill="#fff" stroke="#707070" stroke-width="1">
          <rect width="149" height="99" stroke="none"/>
          <rect x="0.5" y="0.5" width="148" height="98" fill="none"/>
        </g>
        <path id="パス_2384" data-name="パス 2384" d="M170.829,257.522c.291,3.08.423,6.172.69,9.255.19,2.2.418,4.585,1.681,6.474a8.47,8.47,0,0,0,5.483,3.414,9.9,9.9,0,0,1,.987.233c.07.022.138.05.208.072-.03-.009-.222-.124-.075-.03.125.079.264.144.392.221.251.152-.145-.171.04.042.129.148.162.237.042.016.054.1.119.2.178.3.173.281-.095-.368-.028-.053.018.082.044.162.062.245.014.064.072.388.025.108s0,.066,0,.136c.007.124.01.248.008.372,0,.108-.011.215-.015.322-.011.3.079-.307,0-.019-.026.1-.046.2-.071.294-.012.046-.038.092-.046.137-.034.193.135-.307.053-.141-.132.27.109-.107.06-.059a.861.861,0,0,1,.236-.141c.223-.1.111-.053.043-.033.013,0,.267-.038.259-.043s-.04,0-.054,0a1.693,1.693,0,0,0-.233,0h-3.247l-8.151,0-10.552,0-10.991,0-9.308,0h-5.535c-.107,0-.22-.009-.327,0-.256.022.2.054.119.032a.933.933,0,0,1,.233.128c.2.137.089.066.042.016.069.073.147.3.1.119-.077-.29-.14,0,0,.045-.038-.013-.083-.254-.093-.3s-.061-.315-.067-.315c.011,0,.029.35.021.166,0-.073-.014-.146-.018-.219a6.259,6.259,0,0,1,0-.639c0-.01.009-.15.013-.15.023,0-.075.363-.025.2a1.906,1.906,0,0,0,.066-.291c.028-.221-.21.363-.04.086.059-.1.124-.2.178-.3-.12.221-.087.132.042-.016.023-.027.159-.183.013-.026s.023-.016.08-.05c.11-.065.232-.119.339-.187.147-.093-.044.021-.075.03.07-.022.139-.049.208-.072.347-.111.7-.171,1.058-.249a10.047,10.047,0,0,0,3.174-1.222,7.913,7.913,0,0,0,3.419-5.041,25.419,25.419,0,0,0,.509-3.709c.147-1.7.288-3.4.376-5.1.069-1.354.178-2.705.305-4.055a1.65,1.65,0,0,0-1.644-1.644,1.689,1.689,0,0,0-1.644,1.644c-.3,3.146-.434,6.3-.707,9.453-.028.329-.057.657-.093.985-.015.133-.032.265-.048.4.042-.338,0,0-.024.137a12.729,12.729,0,0,1-.332,1.517c-.062.213-.134.421-.208.63,0,.01-.056.151-.058.15s.146-.307.063-.148c-.063.123-.115.252-.179.376a6.009,6.009,0,0,1-.307.527c-.055.084-.121.162-.173.248-.095.157.105-.153.1-.134,0,.035-.1.126-.13.153-.15.16-.3.319-.463.465-.056.05-.32.222-.113.1s-.116.078-.176.118a6.263,6.263,0,0,1-.621.361c-.1.053-.212.1-.313.15-.16.086.109-.045.118-.048-.076.029-.152.06-.229.089-1.232.459-2.6.5-3.743,1.2a4.138,4.138,0,0,0-1.989,3.215,4.955,4.955,0,0,0,.663,3.228,2.757,2.757,0,0,0,2.416,1.222h3.614l8.621,0,11.015,0,11.093,0,9.019,0c1.584,0,3.17.014,4.754,0,2.6-.021,3.123-2.8,2.788-4.868a4.093,4.093,0,0,0-2.062-2.871,24.469,24.469,0,0,0-3.691-1.159c-.058-.021-.114-.046-.171-.067.009,0,.278.134.118.048-.118-.063-.245-.114-.364-.176a6.2,6.2,0,0,1-.614-.365c-.054-.036-.349-.213-.132-.088s-.056-.052-.113-.1a6.992,6.992,0,0,1-.5-.5c-.216-.235.055.1.007.019s-.117-.164-.172-.248a5.96,5.96,0,0,1-.331-.573c-.055-.109-.1-.22-.156-.33-.079-.16.07.146.063.148s-.054-.141-.058-.15c-.08-.227-.157-.453-.223-.684a12.944,12.944,0,0,1-.326-1.526c-.025-.156-.051-.366-.014-.075-.016-.132-.033-.265-.048-.4-.041-.361-.071-.723-.1-1.084-.147-1.7-.291-3.4-.382-5.1q-.113-2.13-.316-4.252a1.681,1.681,0,0,0-1.644-1.644,1.663,1.663,0,0,0-1.644,1.644" transform="translate(-349.976 7581.64)" fill="#f60"/>
        <path id="パス_2385" data-name="パス 2385" d="M159.2,299.347h27.819a1.644,1.644,0,1,0,0-3.289H159.2a1.644,1.644,0,0,0,0,3.289" transform="translate(-366.39 7557.976)" fill="#fff"/>
        <path id="パス_2386" data-name="パス 2386" d="M15.2,234.825a8.281,8.281,0,0,1-4.712-7.458c0-2.07-.01-4.447-.022-7.07,19.959-.033,148.964-.485,151.19-.612l1.1-.062c.007,2.83.008,5.4.009,7.617a8.274,8.274,0,0,1-8.265,8.279c-27.123.047-109.261.213-135.765.111a8.248,8.248,0,0,1-3.534-.805" transform="translate(-279.773 7602.989)" fill="#f60"/>
        <path id="パス_2387" data-name="パス 2387" d="M0,12.435Q.023,24.494.057,36.553.094,51.241.134,65.927.169,78.965.2,92c.01,4.3-.538,9.065,2.044,12.794a12.552,12.552,0,0,0,7.472,5.264,25.4,25.4,0,0,0,5.471.351q9.531.028,19.06.024,12.4,0,24.8-.009,13.67-.012,27.338-.031,13.338-.018,26.676-.041l22.886-.04,8.914-.016c1.329,0,2.68.062,4.006-.024a12.553,12.553,0,0,0,8.429-3.829,12.71,12.71,0,0,0,3.416-8.671c.005-1.6,0-3.2,0-4.8q0-5.849-.007-11.7-.009-14.169-.018-28.337-.009-13.715-.017-27.431,0-5.386-.007-10.773a17.774,17.774,0,0,0-.723-6.432,12.432,12.432,0,0,0-6-6.879A13.512,13.512,0,0,0,148.91.075c-.719-.054-1.448-.024-2.169-.025h-4.172l-9.779,0-24,0-27.307,0L54.1.034,29.876.03l-9.952,0H15.651c-1.359,0-2.754-.085-4.107.042A12.521,12.521,0,0,0,3.35,3.95,12.736,12.736,0,0,0,0,12.435a4.153,4.153,0,0,0,4.111,4.111,4.186,4.186,0,0,0,4.111-4.111c0-.277.06-.575.042-.848.06.89-.136.846-.062.473.027-.135.051-.27.082-.4.061-.266.135-.529.222-.787.041-.121.109-.256.139-.381-.246,1-.279.631-.083.247q.183-.357.4-.7c.072-.112.15-.219.223-.331.353-.545-.283.37-.28.357.046-.183.4-.458.534-.589.308-.308,1.163-.8.069-.139.458-.278.889-.576,1.365-.83.294-.157.541-.075-.427.172.126-.032.259-.1.38-.14a8.293,8.293,0,0,1,.888-.245c.135-.029.271-.051.407-.078.5-.1-.985.091-.47.068.266-.012.527-.031.793-.034.294,0,.587,0,.881,0h8.211l21.611,0,25.921,0,27.34,0,25.487,0,20.74,0h4.051c.67,0,1.345-.023,2.014.011a4.181,4.181,0,0,0,.421.032c-.912.053-.843-.134-.474-.06.3.061.6.125.9.214.157.046,1.107.414.366.1-.715-.3.236.137.408.236.231.133.448.285.671.43.545.353-.372-.283-.358-.28.067.016.236.2.3.26q.294.267.562.561c.082.09.167.217.26.3-.72-.644-.418-.568-.166-.2q.223.331.414.682c.22.4.3,1.052.011-.072.143.563.347,1.1.462,1.672.106.529-.078-1.148-.058-.367,0,.141.018.282.022.423.005.193,0,.387,0,.58q0,.538,0,1.077v2.245q.007,12.027.015,24.054.009,14.26.018,28.521.008,12.368.015,24.736c0,1.626.072,3.271-.009,4.9a2.573,2.573,0,0,0-.031.42c-.026-.036.2-1.105.06-.474-.06.268-.109.536-.184.8a2.322,2.322,0,0,1-.259.769c-.009.009.486-1,.173-.429-.079.146-.15.3-.231.444-.129.234-.276.453-.421.677-.484.747.643-.695.03-.051-.183.192-.359.387-.554.568-.1.09-.2.171-.3.264-.342.336.836-.58.284-.215-.448.3-.932.515-1.383.8.833-.52.745-.289.422-.185-.161.052-.319.111-.482.16-.3.088-.6.146-.9.215-.629.143.436-.085.475-.06a2.5,2.5,0,0,0-.421.033c-.209.011-.418.011-.628.012l-.936,0-3.826.007-19.959.036-24.932.041q-13.469.02-26.938.036-13,.014-26.005.02-10.956,0-21.913-.006-4.218,0-8.438-.016l-1.813-.006c-.268,0-.536,0-.8,0-.165,0-.709-.123-.843-.046.041-.024,1.1.2.476.059-.167-.039-.335-.067-.5-.108-.264-.065-.519-.151-.778-.234-.86-.274.846.451.058.021-.264-.143-.527-.28-.779-.443-.111-.072-.218-.15-.329-.223-.551-.365.627.553.286.216-.188-.185-.394-.35-.579-.54-.113-.116-.744-.884-.263-.255s-.109-.179-.193-.314c-.16-.255-.289-.522-.434-.786-.313-.573.182.44.173.43a1.58,1.58,0,0,1-.139-.379A7.966,7.966,0,0,1,8.5,98.8c-.031-.134-.053-.269-.083-.4-.143-.627.083.437.059.476.094-.153-.043-.77-.044-.971,0-.767,0-1.533,0-2.3q-.006-2.522-.012-5.044Q8.4,84.431,8.389,78.305L8.313,49.754q-.035-13.548-.069-27.1-.011-5.111-.022-10.222A4.158,4.158,0,0,0,4.111,8.324,4.181,4.181,0,0,0,0,12.435" transform="translate(-273.607 7732.327)" fill="#f60"/>
        <path id="パス_2388" data-name="パス 2388" d="M10,220.033q3.379,0,6.757-.013,6.236-.016,12.473-.036l16.738-.054,19.549-.068,20.909-.076,20.816-.081q9.636-.039,19.272-.081,8.137-.036,16.274-.076,5.9-.03,11.791-.066c1.983-.013,3.966-.015,5.949-.052.13,0,.261,0,.392-.01,1.052-.058,1.059-1.7,0-1.644-1.423.078-2.862.037-4.286.048q-5.269.039-10.538.063-7.668.04-15.336.074-9.341.042-18.683.08l-20.577.081-21.019.078-20.009.07-17.547.058q-6.795.022-13.59.041-4.144.011-8.288.019H10a.823.823,0,0,0,0,1.644" transform="translate(-279.025 7604.079)" fill="#f60"/>
        <path id="パス_2389" data-name="パス 2389" d="M194.691,234.079a3.3,3.3,0,0,1-6.593,0,3.16,3.16,0,0,1,3.2-3.2,3.335,3.335,0,0,1,3.39,3.206" transform="translate(-384.379 7596.364)" fill="#f60"/>
      </g>
      <g id="グループ_256" data-name="グループ 256" transform="translate(551.75 7355.05)">
        <g id="グループ_255" data-name="グループ 255" clip-path="url(#clip-path)">
          <path id="パス_2356" data-name="パス 2356" d="M44.754,9.511c-2.368-.028-4.737,0-7.1,0H14.956c-.2,0-.4,0-.6,0a5.047,5.047,0,0,0-3.985,2.175A5.618,5.618,0,0,0,9.5,15.008V70.929a5.315,5.315,0,0,0,1.459,3.9A5.062,5.062,0,0,0,14.5,76.287c.219,0,.437,0,.656,0H44.764a5.048,5.048,0,0,0,4.982-5.014c0-.475,0-.949,0-1.424V15.791c0-.429,0-.858,0-1.286a5.047,5.047,0,0,0-4.992-4.994" transform="translate(-5.945 -5.944)" fill="#fff"/>
          <path id="パス_2357" data-name="パス 2357" d="M12.837,75.534h-.232a6.155,6.155,0,0,1-4.317-1.789A6.371,6.371,0,0,1,6.5,69.052V13.131A6.8,6.8,0,0,1,7.566,9.172,6.193,6.193,0,0,1,12.44,6.514c.156,0,.313,0,.469,0H35.772q1.182,0,2.364-.006c1.557-.005,3.167-.012,4.754.006a6.136,6.136,0,0,1,6.1,6.1c0,.292,0,.583,0,.874V68.444c0,.321,0,.642,0,.964A6.147,6.147,0,0,1,42.9,75.533H12.837M12.723,8.756c-.071,0-.143,0-.214,0a3.936,3.936,0,0,0-3.1,1.692,4.491,4.491,0,0,0-.666,2.679V69.052a4.214,4.214,0,0,0,1.13,3.105,3.921,3.921,0,0,0,2.755,1.131H42.886a3.911,3.911,0,0,0,3.859-3.9c0-.311,0-.623,0-.934V13.482c0-.281,0-.561,0-.841a3.9,3.9,0,0,0-3.882-3.883c-1.57-.018-3.171-.012-4.719-.006q-1.186.005-2.372.006H12.723" transform="translate(-4.067 -4.067)" fill="#f60"/>
          <path id="パス_2358" data-name="パス 2358" d="M8.77,73.9H8.515A8.58,8.58,0,0,1,2.5,71.4,8.833,8.833,0,0,1,0,64.985V9.063A9.28,9.28,0,0,1,1.5,3.719,8.634,8.634,0,0,1,8.3.015c.177-.006.353-.005.528,0H31.7q1.177,0,2.353-.006h.105C35.7,0,37.28-.006,38.85.012a8.554,8.554,0,0,1,8.506,8.509c0,.3,0,.607,0,.911V64.41c0,.318,0,.636,0,.954A8.565,8.565,0,0,1,38.87,73.9ZM8.655,7.121l-.139,0a1.515,1.515,0,0,0-1.173.647c-.057.083-.232.336-.232,1.293V64.985a1.751,1.751,0,0,0,.418,1.385,1.486,1.486,0,0,0,1.062.418H38.819a1.463,1.463,0,0,0,1.427-1.493c0-.289,0-.576,0-.865V9.415c0-.278,0-.546,0-.814a1.468,1.468,0,0,0-1.478-1.478c-1.54-.018-3.121-.012-4.649-.006-.825,0-1.62.006-2.414.006Z" transform="translate(0 0)" fill="#f60"/>
          <path id="パス_2359" data-name="パス 2359" d="M50.126,159.77v5.564a4.426,4.426,0,0,1-4.423,4.423H15.421a4.42,4.42,0,0,1-4.416-4.423V159.77H50.126Z" transform="translate(-6.886 -99.975)" fill="#fff"/>
          <path id="パス_2360" data-name="パス 2360" d="M50.126,37.724V83.4H11.005V37.724H50.126Z" transform="translate(-6.887 -23.606)" fill="#f60"/>
          <path id="パス_2361" data-name="パス 2361" d="M50.126,15.456v5.571H11.005V15.456a4.414,4.414,0,0,1,4.416-4.416H45.7a4.42,4.42,0,0,1,4.423,4.416" transform="translate(-6.886 -6.908)" fill="#fff"/>
          <path id="パス_2362" data-name="パス 2362" d="M49.216,36.216H10.094a.562.562,0,0,0,0,1.123H49.216a.562.562,0,0,0,0-1.123" transform="translate(-5.977 -22.662)" fill="#fff"/>
          <path id="パス_2363" data-name="パス 2363" d="M10.093,159.4H49.216a.562.562,0,0,0,0-1.123H10.093a.562.562,0,0,0,0,1.123" transform="translate(-5.976 -99.04)" fill="#fff"/>
          <path id="パス_2364" data-name="パス 2364" d="M44.764,75.164H15.277c-.25,0-.5,0-.749,0a3.93,3.93,0,0,1-2.859-1.217,4.294,4.294,0,0,1-1.046-3.118V15.155a4.982,4.982,0,0,1,.428-2.432,3.909,3.909,0,0,1,3.432-2.089c.176,0,.351,0,.526,0H42.415c.77,0,1.54-.007,2.31,0a3.908,3.908,0,0,1,3.9,3.9c.015,1.525,0,3.052,0,4.578V66.278c0,1.646.006,3.292,0,4.938a3.91,3.91,0,0,1-3.859,3.948.562.562,0,0,0,0,1.123,5.048,5.048,0,0,0,4.982-5.014c0-.475,0-.949,0-1.424V15.791c0-.429,0-.858,0-1.286a5.046,5.046,0,0,0-4.992-4.994c-2.367-.028-4.737,0-7.1,0H14.956c-.2,0-.4,0-.6,0a5.046,5.046,0,0,0-3.985,2.175A5.618,5.618,0,0,0,9.5,15.008V70.929a5.317,5.317,0,0,0,1.459,3.9A5.062,5.062,0,0,0,14.5,76.287c.219,0,.437,0,.655,0H44.764a.562.562,0,0,0,0-1.123" transform="translate(-5.945 -5.944)" fill="#fff"/>
          <rect id="長方形_115" data-name="長方形 115" width="38.793" height="49.943" transform="translate(4.119 12.917)" fill="#fff"/>
          <path id="パス_2365" data-name="パス 2365" d="M0,0H35.048V53.735H0Z" transform="translate(5.991 9.125)" fill="#f60"/>
        </g>
      </g>
      <g id="グループ_293" data-name="グループ 293" transform="translate(0 -562)">
        <rect id="長方形_131" data-name="長方形 131" width="115" height="19" rx="6" transform="translate(446 7866)" fill="#f60"/>
        <circle id="楕円形_20" data-name="楕円形 20" cx="6" cy="6" r="6" transform="translate(454 7870)" fill="#fff"/>
        <circle id="楕円形_21" data-name="楕円形 21" cx="6" cy="6" r="6" transform="translate(469 7870)" fill="#fff"/>
        <circle id="楕円形_22" data-name="楕円形 22" cx="6" cy="6" r="6" transform="translate(483 7870)" fill="#fff"/>
        <circle id="楕円形_23" data-name="楕円形 23" cx="6" cy="6" r="6" transform="translate(498 7870)" fill="#fff"/>
        <circle id="楕円形_24" data-name="楕円形 24" cx="6" cy="6" r="6" transform="translate(512 7870)" fill="#fff"/>
      </g>
      <g id="グループ_294" data-name="グループ 294" transform="translate(0 -539)">
        <rect id="長方形_131-2" data-name="長方形 131" width="115" height="19" rx="6" transform="translate(446 7866)" fill="#f60"/>
        <circle id="楕円形_20-2" data-name="楕円形 20" cx="6" cy="6" r="6" transform="translate(454 7870)" fill="#fff"/>
        <circle id="楕円形_21-2" data-name="楕円形 21" cx="6" cy="6" r="6" transform="translate(469 7870)" fill="#fff"/>
        <circle id="楕円形_22-2" data-name="楕円形 22" cx="6" cy="6" r="6" transform="translate(483 7870)" fill="#fff"/>
        <circle id="楕円形_23-2" data-name="楕円形 23" cx="6" cy="6" r="6" transform="translate(498 7870)" fill="#fff"/>
        <circle id="楕円形_24-2" data-name="楕円形 24" cx="6" cy="6" r="6" transform="translate(512 7870)" fill="#fff"/>
      </g>
    </g>
    <g id="グループ_300" data-name="グループ 300" transform="translate(249 7768.223)">
      <circle id="楕円形_26" data-name="楕円形 26" cx="29" cy="29" r="29" transform="translate(0 21.777)" fill="#f60"/>
      <path id="パス_2463" data-name="パス 2463" d="M2.367,17.268l3.285-.319a4.007,4.007,0,0,0,1.2,2.429,3.638,3.638,0,0,0,2.446.776,3.76,3.76,0,0,0,2.458-.69,2.053,2.053,0,0,0,.827-1.614,1.522,1.522,0,0,0-.348-1.009,2.78,2.78,0,0,0-1.215-.724q-.593-.205-2.7-.73a9.17,9.17,0,0,1-3.809-1.654,4.35,4.35,0,0,1-1.54-3.364A4.3,4.3,0,0,1,3.7,7.978,4.534,4.534,0,0,1,5.783,6.285,8.365,8.365,0,0,1,9.073,5.7a7.058,7.058,0,0,1,4.739,1.38,4.871,4.871,0,0,1,1.671,3.684l-3.376.148a2.867,2.867,0,0,0-.929-1.853A3.4,3.4,0,0,0,9.039,8.5a3.857,3.857,0,0,0-2.3.6A1.218,1.218,0,0,0,6.2,10.14a1.284,1.284,0,0,0,.5,1.015,8.875,8.875,0,0,0,3.1,1.118,16.371,16.371,0,0,1,3.644,1.2,4.7,4.7,0,0,1,1.848,1.7,5.263,5.263,0,0,1-.131,5.355,4.784,4.784,0,0,1-2.258,1.865A9.47,9.47,0,0,1,9.267,23,7.243,7.243,0,0,1,4.4,21.539,6.375,6.375,0,0,1,2.367,17.268Zm20.2,5.44V8.817H17.6V5.988H30.891V8.817h-4.95V22.708Zm10.5,0V5.988h12.4V8.817H36.445v3.707h8.394V15.34H36.445v4.551h9.341v2.817Zm15.579,0V5.988h5.417a19.645,19.645,0,0,1,4.015.251,4.384,4.384,0,0,1,2.406,1.637,5.19,5.19,0,0,1,.969,3.256,5.455,5.455,0,0,1-.559,2.589,4.584,4.584,0,0,1-1.42,1.648,4.893,4.893,0,0,1-1.751.793,19.27,19.27,0,0,1-3.5.24h-2.2v6.307ZM52.024,8.817v4.744h1.848A8.729,8.729,0,0,0,56.54,13.3a2.217,2.217,0,0,0,1.055-.821,2.247,2.247,0,0,0,.382-1.3,2.16,2.16,0,0,0-.536-1.505,2.334,2.334,0,0,0-1.357-.741,16.226,16.226,0,0,0-2.429-.114Z" transform="translate(-0.639 -5.703)" fill="#303030"/>
      <path id="パス_2462" data-name="パス 2462" d="M44.833,42.352H38.824V19.707a20.715,20.715,0,0,1-7.762,4.555V18.808a17.378,17.378,0,0,0,5.111-2.919,11.091,11.091,0,0,0,3.785-5.015h4.876Z" transform="translate(-12.039 23.556)" fill="#fff"/>
    </g>
  </g>
</svg>
