<svg id="グループ_77" data-name="グループ 77" xmlns="http://www.w3.org/2000/svg" xmlns:xlink="http://www.w3.org/1999/xlink" width="300.014" height="255.984" viewBox="0 0 300.014 255.984">
  <defs>
    <clipPath id="clip-path">
      <rect id="長方形_42" data-name="長方形 42" width="300.014" height="255.985" fill="none"/>
    </clipPath>
    <clipPath id="clip-path-2">
      <path id="パス_213" data-name="パス 213" d="M87.139,4.921C112.486,13.175,128.7,35.456,128.7,60.628c0,36.9-24.606,60.22-63.611,60.22-12.464,0-23.336-2.274-32.407-6.515C26.228,116.8,21.356,118.557,13,121.4c2.1-7.429,3.117-11.209,4.955-17.185C7.265,93.79,1.477,78.871,1.477,60.628,1.477,28.544,27.619,1.52,65.1,1.52a71,71,0,0,1,22.04,3.4" transform="translate(-1.477 -1.52)" fill="none"/>
    </clipPath>
  </defs>
  <g id="グループ_72" data-name="グループ 72">
    <g id="グループ_71" data-name="グループ 71" clip-path="url(#clip-path)">
      <path id="パス_181" data-name="パス 181" d="M85.249,4.88c24.787,8.155,40.646,30.173,40.646,55.045,0,36.458-24.063,59.5-62.209,59.5-12.187,0-22.82-2.246-31.691-6.436-6.313,2.441-11.079,4.172-19.252,6.986C14.8,112.635,15.792,108.9,17.59,103,7.137,92.692,1.477,77.952,1.477,59.925c0-31.7,25.565-58.4,62.218-58.4A68.781,68.781,0,0,1,85.249,4.88" transform="translate(172.115 0.564)" fill="#fff"/>
      <path id="パス_182" data-name="パス 182" d="M86.355,3.461a62.065,62.065,0,0,1,33.291,25.833c7.4,11.918,9.942,25.955,8.376,39.841-1.371,12.15-5.781,23.825-13.869,33.044-8.021,9.143-19.1,15.017-30.8,17.757-16.932,3.968-35.972,2.793-51.822-4.606l1.569.207c-6.371,2.461-12.8,4.762-19.252,6.986a2.062,2.062,0,0,1-2.5-2.53c1.588-5.67,3.136-11.347,4.847-16.98l.522,2A56.858,56.858,0,0,1,1.316,74.98C-.707,64.151-.55,52.75,2.858,42.221,9.157,22.765,25.293,8.2,44.647,2.695a72.467,72.467,0,0,1,41.708.766c2.485.8,1.422,4.778-1.083,3.967C64.817.8,40.625,4.011,23.875,18.116a55.364,55.364,0,0,0-15.868,21.8C4.259,49.39,3.418,59.5,4.586,69.59,6,81.781,10.88,93.433,19.6,102.106a2.067,2.067,0,0,1,.522,2c-1.71,5.631-3.26,11.31-4.846,16.979l-2.5-2.53c4.06-1.4,8.115-2.815,12.147-4.3q2.61-.963,5.206-1.957a7.409,7.409,0,0,1,2.441-.8c1.111.008,2.382.915,3.4,1.333A72.855,72.855,0,0,0,61.708,117.9c13.462.354,27.3-2.121,38.841-9.446,22.125-14.047,29.547-45.07,19.768-68.951-6.306-15.4-19.5-26.9-35.044-32.077-2.475-.825-1.415-4.8,1.083-3.967" transform="translate(171.55 0)" fill="rgba(0,102,204,0)"/>
    </g>
  </g>
  <g id="グループ_74" data-name="グループ 74" transform="translate(170.74 2.109)">
    <g id="グループ_73" data-name="グループ 73" clip-path="url(#clip-path-2)">
      <path id="パス_183" data-name="パス 183" d="M38.875,45.642a2.038,2.038,0,0,0-1.626-.476,1.924,1.924,0,0,0-1.379.917,2.728,2.728,0,0,0-.283,1.091,8.128,8.128,0,0,0,.828,4.309,5.166,5.166,0,0,0,1.336,1.754,3.427,3.427,0,0,0,1.593.717l.271.042c.133.493.279.9.351,1.121.445,1.207,2.849,5.262,5.927,6.994-.09.776-.15,1.3-.15,1.3-.046.386-.1.762-.16,1.114-.193,1.1-.133,2.076-1.658,2.627-.1.037-1.793.817-2.019.92l-.337.151.105.09c1.911,1.618,7.413,3.246,11.455,3.236a23.383,23.383,0,0,0,11.356-3.16l-.185-.079c-.186-.079-2.642-1.121-2.745-1.159-1.522-.551-1.463-1.531-1.654-2.627-.075-.429-.14-.941-.193-1.474,0,0-.046-.469-.121-1.243a12.774,12.774,0,0,0,2.931-2.631,13.809,13.809,0,0,0,2.635-5.143l.519-.079a3.426,3.426,0,0,0,1.593-.717A5.162,5.162,0,0,0,68.6,51.482a8.129,8.129,0,0,0,.83-4.309,2.73,2.73,0,0,0-.284-1.091,1.919,1.919,0,0,0-1.379-.917,2.038,2.038,0,0,0-1.626.476s2.377-12.127-12.913-12.127S38.875,45.642,38.875,45.642" transform="translate(10.473 10.883)" fill="#fff"/>
      <path id="パス_184" data-name="パス 184" d="M43.795,61.754l-1.207-.513c-.293-.123-.587-.247-.88-.372-.229-.1.172.072.01,0l-.153-.064-.3-.125a3.943,3.943,0,0,1-1.977-1.4,5.2,5.2,0,0,1-.6-2.108c-.164-.981-.248-1.972-.344-2.961a1.114,1.114,0,0,1,1.11-1.11,1.139,1.139,0,0,1,1.11,1.11c.037.379.074.759.111,1.138.01.1.018.193.029.289.012.121.025.24.04.361l.021.175c-.015-.119,0-.019.006.042.054.364.112.726.171,1.088.025.153.053.305.092.455.017.068.039.135.058.2.069.232-.083-.13.007.021.04.068.089.139.125.21.057.11-.057-.1-.064-.083a.682.682,0,0,0,.076.083c.031.028.212.176.1.094s.006,0,.025.011c.053.031.1.064.155.093s.117.058.175.087c-.021-.01-.147-.057-.021-.01l.076.029c.053.021.105.044.16.067.559.233,1.117.47,1.676.708l1.334.565a1.115,1.115,0,0,1,.4,1.519,1.147,1.147,0,0,1-1.519.4" transform="translate(30.603 18.476)"/>
      <path id="パス_185" data-name="パス 185" d="M58.266,54.432c-.082.7-.157,1.406-.257,2.106a10.546,10.546,0,0,1-.352,1.943,3.078,3.078,0,0,1-1.551,1.8,6.729,6.729,0,0,0-.631.266c.021-.012.343-.15.175-.074-.039.019-.079.036-.119.054q-.327.148-.652.3c-.5.226-.989.454-1.485.677a1.14,1.14,0,0,1-1.519-.4,1.124,1.124,0,0,1,.4-1.519c.526-.237,1.05-.479,1.575-.719.24-.11.479-.221.722-.327.1-.043.2-.087.3-.128.061-.025.215-.094.029-.008a2.987,2.987,0,0,0,.309-.162c.044-.028.089-.057.132-.089-.122.1-.139.111-.05.035.04-.04.14-.182.19-.2q-.156.208-.058.067c.022-.036.044-.072.065-.11s.039-.075.057-.114c-.065.16-.082.2-.053.121s.05-.14.069-.211a9.327,9.327,0,0,0,.189-1.052c.037-.228.076-.455.11-.684.018-.135.021-.15.006-.044l.029-.23c0-.019,0-.04.007-.061.047-.412.1-.824.143-1.236a1.138,1.138,0,0,1,1.11-1.11c.544.025,1.182.493,1.11,1.11" transform="translate(-0.79 18.56)"/>
      <path id="パス_186" data-name="パス 186" d="M36.954,38.049a31.48,31.48,0,0,0-3.541,6.058,3.068,3.068,0,0,0-2.578-.824,2.734,2.734,0,0,0-.538.136,22.486,22.486,0,0,1,.178-15.1c1.365-3.816,4.768-7.815,7.185-8.929l3.489-2.507c2.972-4.073,7.467-6.219,13.808-6.412,5.939-.182,12.783,1.017,17.984,6.253l-1.673,1.69a17.928,17.928,0,0,1,6.579,8.927c1.335,3.921,1.735,9.5.148,16.094l-.011.047a2.97,2.97,0,0,0-.71-.2,3.056,3.056,0,0,0-2.646.9c-5.984-5.718-11.194-9.114-16.452-13.244a13.633,13.633,0,0,1-1.413,3.257c-.357.144-4.271-2.313-7-4l-4.3,1.131a16.025,16.025,0,0,0-5.037,2.95,23.846,23.846,0,0,0-3.475,3.773" transform="translate(9.897 1.944)" fill="#ffd1b2"/>
      <path id="パス_187" data-name="パス 187" d="M66.1,35.936a1.931,1.931,0,0,0-2.779.365,3.751,3.751,0,0,0-.371,1.9,10.807,10.807,0,0,0,.157,2.219c.482,2.642,1.858,5.782,4.786,6.307a1.119,1.119,0,0,1,.776,1.365,1.136,1.136,0,0,1-1.365.776c-4.213-.756-6.218-5.528-6.536-9.346-.158-1.909-.044-4.155,1.612-5.4a4.224,4.224,0,0,1,5.29.246,1.117,1.117,0,0,1,0,1.569,1.134,1.134,0,0,1-1.569,0" transform="translate(-23.679 10.801)"/>
      <path id="パス_188" data-name="パス 188" d="M53.881,42.391c.128,3.149,1.618,5.585,3.476,8.134,2.03,2.785,4.78,5.727,8.259,6.543,1.39.326.8,2.467-.591,2.141-4-.939-7.117-4.221-9.473-7.411-2.041-2.763-3.748-5.893-3.891-9.407-.058-1.429,2.162-1.426,2.22,0" transform="translate(-8.822 13.908)"/>
      <path id="パス_189" data-name="パス 189" d="M28.712,34.365A4.224,4.224,0,0,1,34,34.121c1.658,1.246,1.771,3.5,1.612,5.4-.318,3.819-2.322,8.591-6.533,9.346a1.139,1.139,0,0,1-1.365-.776,1.12,1.12,0,0,1,.773-1.365c2.929-.525,4.3-3.665,4.787-6.307a10.842,10.842,0,0,0,.16-2.1,4.251,4.251,0,0,0-.325-1.94,1.923,1.923,0,0,0-2.829-.448,1.139,1.139,0,0,1-1.569,0,1.119,1.119,0,0,1,0-1.569" transform="translate(55.197 10.801)"/>
      <path id="パス_190" data-name="パス 190" d="M49.064,42.3A23.788,23.788,0,0,1,44.01,53.694,16.906,16.906,0,0,1,33,59.98c-1.42.154-1.408-2.068,0-2.22,3.915-.422,7.194-2.895,9.625-5.863a21.8,21.8,0,0,0,4.293-10.185c.246-1.406,2.385-.81,2.141.59" transform="translate(35.864 13.749)"/>
      <path id="パス_191" data-name="パス 191" d="M56.518,29.4a3.824,3.824,0,0,1-.787,3.425,2.92,2.92,0,0,1-3.612.265,2.693,2.693,0,0,1-1.2-2.174,1.109,1.109,0,1,1,2.219,0c0,.064.007.126.014.19-.015-.1-.026-.2-.042-.3a1.721,1.721,0,0,0,.1.352c-.037-.089-.074-.178-.111-.265a1.543,1.543,0,0,0,.205.347c-.058-.075-.117-.15-.173-.225a1.93,1.93,0,0,0,.287.286l-.226-.173a2.027,2.027,0,0,0,.438.251c-.089-.036-.179-.074-.266-.111a2.081,2.081,0,0,0,.448.122l-.3-.04a1.966,1.966,0,0,0,.511,0l-.3.04a1.918,1.918,0,0,0,.48-.128l-.265.112a1.576,1.576,0,0,0,.323-.191l-.223.173A1.639,1.639,0,0,0,54.3,31.1l-.173.223a1.966,1.966,0,0,0,.229-.391l-.112.265a2.492,2.492,0,0,0,.168-.633l-.039.3a3.921,3.921,0,0,0-.01-1.02l.042.294c-.007-.049-.015-.1-.024-.148a1.2,1.2,0,0,1,.114-.855,1.108,1.108,0,0,1,1.518-.4,1.072,1.072,0,0,1,.509.663" transform="translate(2.018 8.971)"/>
      <path id="パス_192" data-name="パス 192" d="M39.76,34.858a3.721,3.721,0,0,1-1.044,2.378,2.622,2.622,0,0,1-1.779.726,2.433,2.433,0,0,1-2-1.092,2.584,2.584,0,0,1-.173-2.144,1.153,1.153,0,0,1,.511-.663,1.11,1.11,0,0,1,1.63,1.254,3.636,3.636,0,0,0-.1.438l.04-.294a1.583,1.583,0,0,0-.008.4c-.014-.1-.028-.2-.04-.3a1.119,1.119,0,0,0,.069.268l-.112-.265a1.157,1.157,0,0,0,.151.255l-.175-.225a1.511,1.511,0,0,0,.2.193l-.225-.173a1.366,1.366,0,0,0,.294.173l-.266-.112a1.492,1.492,0,0,0,.327.092l-.3-.04a1.394,1.394,0,0,0,.34,0l-.3.04a1.557,1.557,0,0,0,.387-.107l-.265.112a1.683,1.683,0,0,0,.333-.2l-.225.173a1.9,1.9,0,0,0,.307-.309c-.058.075-.117.15-.173.225a2.4,2.4,0,0,0,.289-.5c-.036.087-.074.176-.111.265a3.186,3.186,0,0,0,.215-.79c-.012.1-.026.2-.039.3,0-.028.007-.054.01-.082a1.208,1.208,0,0,1,.325-.785,1.112,1.112,0,0,1,1.571,0,1.076,1.076,0,0,1,.325.785" transform="translate(41.47 10.973)"/>
      <path id="パス_193" data-name="パス 193" d="M68.339,18.158c-3.357,1.646-5.86,5.638-6.952,9.092a21.556,21.556,0,0,0-.173,12.919c.434,1.364-1.71,1.948-2.141.59a23.687,23.687,0,0,1,.308-14.512c1.288-3.815,4.11-8.179,7.837-10.006,1.279-.626,2.406,1.288,1.121,1.918" transform="translate(-20.224 4.138)"/>
      <path id="パス_194" data-name="パス 194" d="M29.607,14.75C34.282,16.573,37.54,21.2,39,25.863c1.642,5.234,1.235,10.967,0,16.235-.326,1.392-2.467.8-2.141-.59a29.392,29.392,0,0,0,.179-14.436c-1.128-4.077-3.93-8.584-8.028-10.183-1.317-.513-.744-2.661.59-2.141" transform="translate(49.955 3.577)"/>
      <path id="パス_195" data-name="パス 195" d="M32.875,16.635c3.78-5.037,9.5-6.935,15.643-6.978,6.627-.047,13.087,1.884,17.894,6.6,1.021,1-.548,2.571-1.569,1.569-4.282-4.2-9.984-5.91-15.883-5.945-5.408-.032-10.789,1.375-14.166,5.879-.848,1.128-2.777.024-1.918-1.121" transform="translate(17.21 1.634)"/>
      <path id="パス_196" data-name="パス 196" d="M33.5,23.8c1.453.892,2.9,1.8,4.36,2.675.6.358,1.195.715,1.8,1.049a5.255,5.255,0,0,1,.765.4c.157.129.321.012.043.047l-.785.325c-.178.143.1-.176.176-.325.158-.314.3-.637.43-.962a7.6,7.6,0,0,0,.522-1.481c.165-.914,1.27-.948,1.855-.49,5.347,4.187,10.9,8.054,15.877,12.7,1.046.978-.526,2.545-1.571,1.571C52,34.668,46.441,30.8,41.1,26.613q.926-.246,1.855-.49a11.219,11.219,0,0,1-1.175,2.971c-.423.8-.994,1.282-1.925.988A15.672,15.672,0,0,1,36.734,28.4c-1.461-.878-2.907-1.783-4.36-2.675-1.214-.747-.1-2.668,1.121-1.918" transform="translate(26.191 7.052)"/>
      <path id="パス_197" data-name="パス 197" d="M65.757,26.882A17.251,17.251,0,0,0,59,31.759a29.443,29.443,0,0,0-4.483,7.063,1.119,1.119,0,0,1-1.518.4,1.136,1.136,0,0,1-.4-1.519,31.35,31.35,0,0,1,4.969-7.671,19.451,19.451,0,0,1,7.6-5.29,1.119,1.119,0,0,1,1.365.776,1.137,1.137,0,0,1-.776,1.365" transform="translate(-10.1 7.46)"/>
      <path id="パス_198" data-name="パス 198" d="M27.424,114.033c.154-3.119-1.241-25.966-1.206-26.981.11-2.476.6-8.8.908-12.5.222-2.66.569-6.615,2.027-8.6A17.441,17.441,0,0,1,33.7,62.289a56.19,56.19,0,0,1,9.569-4.064c1.209,1.765,7.46,3.755,11.93,3.744a23.039,23.039,0,0,0,11.683-3.378,54.021,54.021,0,0,1,8.484,3.7A17.435,17.435,0,0,1,79.9,65.946c1.458,1.99,1.807,5.945,2.029,8.6.308,3.7.8,10.026.908,12.5.033,1.016,1.492,23.862,1.646,26.981" transform="translate(8.41 20.461)" fill="#e0f0b2"/>
      <path id="パス_199" data-name="パス 199" d="M27.734,57.164a48.593,48.593,0,0,1,11.93,5.059,14.135,14.135,0,0,1,4.3,3.759,13.211,13.211,0,0,1,1.683,5.4c1.107,7.626,1.242,15.451,1.619,23.14.071,1.428-2.149,1.425-2.22,0-.343-6.97-.679-13.937-1.352-20.885a19.439,19.439,0,0,0-1.088-5.478c-.741-1.807-2.474-3-4.063-4.02a46.189,46.189,0,0,0-11.4-4.836c-1.363-.418-.781-2.562.59-2.141" transform="translate(45.417 20.029)"/>
      <path id="パス_200" data-name="パス 200" d="M35.606,67.974c-.036,7.583.018,15.17.09,22.755a1.111,1.111,0,0,1-2.22,0c-.072-7.585-.126-15.171-.09-22.755a1.111,1.111,0,0,1,2.22,0" transform="translate(47.267 23.825)"/>
      <path id="パス_201" data-name="パス 201" d="M74.307,59.3A47.126,47.126,0,0,0,63.1,64.018c-1.658,1.037-3.482,2.273-4.257,4.142a19.179,19.179,0,0,0-1.088,5.478c-.674,6.948-1.01,13.915-1.353,20.885-.069,1.422-2.29,1.431-2.22,0,.379-7.689.513-15.514,1.619-23.14a13.733,13.733,0,0,1,1.574-5.237,13.654,13.654,0,0,1,4.41-3.923,48.554,48.554,0,0,1,11.931-5.061c1.368-.419,1.954,1.723.59,2.141" transform="translate(-20.994 20.029)"/>
      <path id="パス_202" data-name="パス 202" d="M62.874,67.975c.036,7.583-.018,15.17-.09,22.755a1.111,1.111,0,0,1-2.22,0c.072-7.585.126-15.171.09-22.755a1.111,1.111,0,0,1,2.22,0" transform="translate(-17.652 23.825)"/>
      <path id="パス_203" data-name="パス 203" d="M62.934,59.868a22.8,22.8,0,0,1-13.016,3.359c-3.737-.208-8.275-1.124-11.258-3.533-1.113-.9.468-2.46,1.569-1.569A12.333,12.333,0,0,0,44.5,60.017a23.612,23.612,0,0,0,5.749,1A20.773,20.773,0,0,0,61.813,57.95c1.209-.769,2.324,1.152,1.121,1.918" transform="translate(12.703 20.286)"/>
      <path id="パス_204" data-name="パス 204" d="M49.873,44.677c6.382,0,9.958-1.27,9.958-3.81,0-2.134-5.284-3.759-9.755-3.759s-10.16,1.422-10.16,3.752c0,2.141,4.572,3.817,9.958,3.817" transform="translate(14.056 12.275)" fill="#f5827f"/>
      <path id="パス_205" data-name="パス 205" d="M58.149,37.653c-.974.264-1.955.482-2.95.655-.53.092-1.063.169-1.6.237l-.6.076-.34.042-.187.024-.071.01a1.227,1.227,0,0,1-.855-.112,1.137,1.137,0,0,1-.511-.663,1.121,1.121,0,0,1,.776-1.365c.536-.072,1.071-.139,1.608-.207a1.594,1.594,0,0,0,.294-.037c-.057.018-.221.031-.067.008l.16-.024c.268-.039.536-.083.8-.129.995-.173,1.975-.39,2.95-.655a1.11,1.11,0,0,1,.59,2.141" transform="translate(-0.462 11.643)"/>
      <path id="パス_206" data-name="パス 206" d="M53.387,40.56c.939.319,3.106.1,3.3-1.882-.006-2.621-2.623-2.752-3.855-1.865a2.164,2.164,0,0,0,.559,3.747" transform="translate(0.462 11.97)"/>
      <path id="パス_207" data-name="パス 207" d="M39.253,35.513c.974.264,1.955.482,2.95.655q.379.065.762.124c.057.008.372.061.205.031s.13.017.186.024c.549.069,1.1.136,1.646.211a1.113,1.113,0,0,1,.776,1.365,1.147,1.147,0,0,1-1.367.774c.114.015.061.008-.021,0L44.2,38.67c-.114-.015-.229-.029-.344-.043l-.608-.075c-.547-.071-1.092-.15-1.635-.244-.995-.172-1.975-.39-2.949-.654a1.11,1.11,0,0,1,.59-2.141" transform="translate(30.945 11.642)"/>
      <path id="パス_208" data-name="パス 208" d="M42.514,40.56c-.939.319-3.106.1-3.3-1.882.006-2.621,2.623-2.752,3.855-1.865a2.164,2.164,0,0,1-.559,3.747" transform="translate(30.933 11.97)"/>
      <path id="パス_209" data-name="パス 209" d="M31.64,43.184c1.873-3.2,3.422-6.684,5.811-9.543a1.119,1.119,0,0,1,1.571,0,1.134,1.134,0,0,1,0,1.569c-.071.085-.14.169-.208.255.122-.153.012-.017-.044.06q-.189.256-.37.516c-.283.408-.552.824-.817,1.243-.563.894-1.1,1.807-1.624,2.724-.815,1.424-1.572,2.881-2.4,4.3a1.111,1.111,0,0,1-1.918-1.121" transform="translate(46.254 10.807)"/>
      <path id="パス_210" data-name="パス 210" d="M62.846,44.22c-1.68-2.711-3.475-5.359-5.237-8.018l-.466-.7c-.1-.151-.411-.47-.035-.08L59,34.633h0c-.05-.187-.1-.375-.151-.561l.008.012a1.111,1.111,0,0,1-1.918,1.121,1.1,1.1,0,0,1-.16-.574,1.131,1.131,0,0,1,.683-1.014,1.115,1.115,0,0,1,1.213.229,6.568,6.568,0,0,1,.667.962q.624.939,1.243,1.88,1.544,2.346,3.079,4.7c.368.566.74,1.132,1.1,1.707.753,1.218-1.166,2.335-1.918,1.121" transform="translate(-14.452 10.89)"/>
      <path id="パス_211" data-name="パス 211" d="M51.863,39.658c3.248,0,8.667.5,12.182.778.649.051,2.241.239,2.662.722.783.9.486,2.816.587,3.9a28.311,28.311,0,0,1-.153,5.227c-.233,2.3-.347,4.744-1.893,6.536C62.393,60.138,55.773,61.9,51.425,61.9a25.86,25.86,0,0,1-8.509-1.569,11.054,11.054,0,0,1-5.829-4.41c-1.17-1.969-1.124-3.945-1.375-6.189a23.716,23.716,0,0,1-.09-4.755c.107-1.087-.165-2.861.626-3.77a4.475,4.475,0,0,1,2.383-.765c4.12-.361,9.625-.785,13.234-.785" transform="translate(12.597 13.264)" fill="#fff"/>
      <path id="パス_212" data-name="パス 212" d="M52.136,38.858c3.486.019,6.967.354,10.439.637,2.657.218,5.692.121,6.031,3.422a41.143,41.143,0,0,1-.4,10.46,9.344,9.344,0,0,1-5.065,7.012,24.5,24.5,0,0,1-19.252,1.665c-3.3-1.05-6.555-2.94-7.983-6.247-1.4-3.235-1.253-7.417-1.1-10.862.06-1.382-.137-3.121.93-4.211,1.014-1.038,2.754-1.056,4.1-1.171,4.088-.348,8.193-.687,12.3-.7a1.111,1.111,0,0,1,0,2.22c-2.754.011-5.506.183-8.254.383q-2.14.156-4.281.341a6.859,6.859,0,0,0-1.679.247c-.928.326-.853,1.056-.884,1.911a50.23,50.23,0,0,0,.311,8.616c.482,3.534,2.888,5.788,6.135,7a22.865,22.865,0,0,0,16.234-.025c2.348-.892,5.043-2.312,5.911-4.839a24.827,24.827,0,0,0,.866-8.8c-.036-.709-.044-1.41-.064-2.118-.026-.962-.019-1.506-.992-1.771a21.287,21.287,0,0,0-3.809-.377c-3.157-.258-6.325-.543-9.494-.561a1.111,1.111,0,0,1,0-2.22" transform="translate(12.324 12.954)"/>
    </g>
  </g>
  <g id="グループ_76" data-name="グループ 76">
    <g id="グループ_75" data-name="グループ 75" clip-path="url(#clip-path)">
      <path id="パス_214" data-name="パス 214" d="M86.355,3.461a62.065,62.065,0,0,1,33.291,25.833c7.4,11.918,9.942,25.955,8.376,39.841-1.371,12.15-5.781,23.825-13.869,33.044-8.021,9.143-19.1,15.017-30.8,17.757-16.932,3.968-35.972,2.793-51.822-4.606l1.569.207c-6.371,2.461-12.8,4.762-19.252,6.986a2.062,2.062,0,0,1-2.5-2.53c1.588-5.67,3.136-11.347,4.847-16.98l.522,2A56.858,56.858,0,0,1,1.316,74.98C-.707,64.151-.55,52.75,2.858,42.221,9.157,22.765,25.293,8.2,44.647,2.695a72.467,72.467,0,0,1,41.708.766c2.485.8,1.422,4.778-1.083,3.967C64.817.8,40.625,4.011,23.875,18.116a55.364,55.364,0,0,0-15.868,21.8C4.259,49.39,3.418,59.5,4.586,69.59,6,81.781,10.88,93.433,19.6,102.106a2.067,2.067,0,0,1,.522,2c-1.71,5.631-3.26,11.31-4.846,16.979l-2.5-2.53c4.06-1.4,8.115-2.815,12.147-4.3q2.61-.963,5.206-1.957a7.409,7.409,0,0,1,2.441-.8c1.111.008,2.382.915,3.4,1.333A72.855,72.855,0,0,0,61.708,117.9c13.462.354,27.3-2.121,38.841-9.446,22.125-14.047,29.547-45.07,19.768-68.951-6.306-15.4-19.5-26.9-35.044-32.077-2.475-.825-1.415-4.8,1.083-3.967" transform="translate(169.55 2.009)"/>
      <path id="パス_215" data-name="パス 215" d="M191.879,56.429a6.033,6.033,0,0,1,4.4-.923,5.5,5.5,0,0,1,4.522,3.234c1.292,2.974.567,8.035-.95,11.031a16.051,16.051,0,0,1-6.105,7.083,11.61,11.61,0,0,1-5.8,1.27c-.209.477-.362.831-.362.831-.75,1.533-2.513,4.211-2.513,4.211a55.208,55.208,0,0,1-5.719,7.123q.81,2.382,1.623,4.763a21.745,21.745,0,0,0,1.77,4.2c2.106,3.518,6.592,5.378,10.248,7.183.627.31,1.322.624,2.05.936l-1.882,1.4a59.722,59.722,0,0,1-35.414,12.066,33.775,33.775,0,0,1-14.078-2.634,22.213,22.213,0,0,1-10.236-9.273c2.2-.746,4.333-1.488,5.853-2.138a8.522,8.522,0,0,0,4.934-4.418,30.918,30.918,0,0,1-16.041-7.5c-6.647-5.635-9.463-14.426-10.4-24.119-.539-5.589-.992-11.663-1.71-17.735,0,0-7.059-27.912,29.263-30.488,44.2-3.133,46.545,33.9,46.545,33.9" transform="translate(-58.221 8.292)" fill="#fff"/>
      <path id="パス_216" data-name="パス 216" d="M120.271,22.3a46.846,46.846,0,0,0-6.477,16.6,71.64,71.64,0,0,0,.37,23.7c.133-.794,1.274,10.669,1.274,10.669.653-4,3.408-18.864,5.374-26,1.061-3.854,4.31-9.993,4.617-8.905.3,1.049,3.931-5.542,3.878-4.777-.079,1.163,1.955-1.1,2.878-1.67,3.028-1.865,4.857-2.408,10.915-5.147,6.772-1.205,23.213.509,23.213.509,2.429.95,12.991,2.312,21.41,17.154.8,1.394.962,10.164,1.765,11.559.247.428-.018,3.657.3,4.035a37.542,37.542,0,0,0,1.706,3.463c1.548.192-3.249.479-1.543-.056a6.03,6.03,0,0,1,4.4-.921,5.5,5.5,0,0,1,4.522,3.234,7.384,7.384,0,0,1,.468,1.563c2.969-5.358,3.287-15.044,3.564-19.2a38.448,38.448,0,0,0-1.05-11.687c-1.87-7.592-4.724-13.811-10.558-19.253L190.143,16.1l-6.066-4.345a41.6,41.6,0,0,0-27.839-8.227c-14.321.724-25.839,6.314-33.558,15.5a33.088,33.088,0,0,0-2.409,3.276" transform="translate(-56.291 1.283)" fill="#e0f0b2"/>
      <path id="パス_217" data-name="パス 217" d="M119.183,71.88a66.935,66.935,0,0,0,2.645,7.471,10.619,10.619,0,0,0,4.223,4.419,81.947,81.947,0,0,0,12.311,5.777,2.125,2.125,0,0,1,1.421,2.53,2.047,2.047,0,0,1-2.5,1.437c-4.661-1.92-9.566-3.72-13.8-6.522A14.191,14.191,0,0,1,118.4,81.6a69.665,69.665,0,0,1-3.14-8.624c-.852-2.509,3.079-3.587,3.926-1.094" transform="translate(3.913 26.151)"/>
      <path id="パス_218" data-name="パス 218" d="M157.737,88.346c3.124-1.189,6.324-2.165,9.477-3.27,2.881-1.011,5.933-1.841,7.339-4.847a2.039,2.039,0,0,1,2.785-.738,2.114,2.114,0,0,1,.73,2.814,10.4,10.4,0,0,1-4.186,4.5,29.8,29.8,0,0,1-4.849,1.98c-3.391,1.215-6.846,2.251-10.213,3.532a2.051,2.051,0,0,1-2.505-1.437,2.1,2.1,0,0,1,1.422-2.53" transform="translate(-90.321 29.402)"/>
      <path id="パス_219" data-name="パス 219" d="M161.189,71.372c-.231-.192.085.018.1.073-.011-.044-.187-.136-.225-.162-.18-.122-.362-.236-.55-.344s-.35-.195-.529-.285c-.091-.045-.185-.09-.277-.134-.045-.021-.364-.16-.115-.055s-.079-.029-.125-.047c-.126-.048-.25-.095-.377-.14-.2-.071-.41-.14-.617-.2a13.6,13.6,0,0,0-1.342-.33c-.106-.021-.213-.04-.319-.058-.053-.008-.407-.055-.123-.022s-.069,0-.122-.01c-.1-.01-.208-.019-.311-.026a9.112,9.112,0,0,0-1.269-.008,1.287,1.287,0,0,0-.284.025c.009-.026.478-.086.1-.012-.236.047-.471.1-.707.155-.562.138-1.117.3-1.681.426a2.067,2.067,0,0,1-2.5-1.436,2.089,2.089,0,0,1,1.421-2.53,24.98,24.98,0,0,1,3.583-.736,12.532,12.532,0,0,1,3.3.265,13.01,13.01,0,0,1,5.854,2.685,2.046,2.046,0,1,1-2.878,2.908" transform="translate(-68.006 24.305)"/>
      <path id="パス_220" data-name="パス 220" d="M144.377,53.911c-.5-1.983.092-6.459,3.775-6.668,4.842.259,4.846,5.707,3.1,8.186-1.432,2.028-5.4,2.712-6.872-1.518" transform="translate(-48.013 17.533)"/>
      <path id="パス_221" data-name="パス 221" d="M166.071,53.587c-.459-1.988.094-6.48,3.466-6.694,4.433.254,4.431,5.718,2.825,8.206-1.314,2.037-4.946,2.729-6.291-1.512" transform="translate(-98.502 17.403)"/>
      <path id="パス_222" data-name="パス 222" d="M163.495,57.563a28.618,28.618,0,0,0-1.966,3.6c.068-.165.136-.328.2-.492a2.113,2.113,0,0,0-.126.443c.024-.182.048-.365.072-.547a1.406,1.406,0,0,0-.005.214l-.073-.547a1.006,1.006,0,0,0,.047.2c-.068-.165-.136-.328-.2-.492a.577.577,0,0,0,.068.119c-.106-.138-.212-.277-.319-.415a2.563,2.563,0,0,0,.328.315c-.137-.107-.275-.214-.413-.322a2.138,2.138,0,0,0,.4.243l-.487-.207a2.111,2.111,0,0,0,.532.144l-.541-.074c.334.043.666.074,1,.128a2.038,2.038,0,0,1,1.216.945,2.119,2.119,0,0,1,.206,1.585,2.079,2.079,0,0,1-.936,1.229l-.486.208a2.044,2.044,0,0,1-1.083,0c-.031-.005-.062-.011-.095-.015l.541.074a6.843,6.843,0,0,1-1.25-.186,4.192,4.192,0,0,1-1.618-.96,2.741,2.741,0,0,1-.894-2.183,4.929,4.929,0,0,1,.581-1.852c.543-1.1,1.155-2.173,1.791-3.224a2.121,2.121,0,0,1,1.216-.945,2.058,2.058,0,0,1,1.569.207,2.1,2.1,0,0,1,.73,2.814" transform="translate(-77.627 20.216)"/>
      <path id="パス_223" data-name="パス 223" d="M124.862,77.8a49.609,49.609,0,0,0,7.774-8.144,43.263,43.263,0,0,0,4.157-6.507,2.044,2.044,0,0,1,2.785-.738,2.108,2.108,0,0,1,.73,2.814,43.455,43.455,0,0,1-4.3,6.7,52.724,52.724,0,0,1-8.263,8.781,2.046,2.046,0,0,1-2.878-2.908" transform="translate(-9.188 23.062)"/>
      <path id="パス_224" data-name="パス 224" d="M193.488,92.211c-10.6,4.734-22.493,6.8-33.386,1.771a32,32,0,0,1-12.749-10.423A37.882,37.882,0,0,1,141.525,68.2c-1.3-7.567-1.512-15.328-2.4-22.953-.307-2.624,3.767-2.6,4.071,0,.731,6.272,1.121,12.577,1.827,18.85a40.543,40.543,0,0,0,4.157,14.635c4.8,8.93,14.854,14.146,24.744,14.12a43.345,43.345,0,0,0,17.511-4.193c2.375-1.061,4.448,2.482,2.055,3.551" transform="translate(-83.31 16.065)"/>
      <path id="パス_225" data-name="パス 225" d="M121.519,46.253a8.535,8.535,0,0,1,9.916.677c2.113,1.763,2.751,4.645,2.741,7.3-.024,6.152-3.35,13.105-8.875,16.083a11.7,11.7,0,0,1-10.289.531,2.052,2.052,0,0,1,2.055-3.553,6.3,6.3,0,0,0,3.9.213,7.54,7.54,0,0,0,3.363-1.436,14.586,14.586,0,0,0,4.849-6.7,15.563,15.563,0,0,0,.909-4.493,11.809,11.809,0,0,0-.053-2.1,7.522,7.522,0,0,0-.25-1.122c-.052-.174-.11-.347-.175-.517.06.14.064.156.015.051a2.985,2.985,0,0,0-1.828-1.737,4.462,4.462,0,0,0-4.224.358c-2.205,1.444-4.249-2.116-2.055-3.551" transform="translate(11.111 16.691)"/>
      <path id="パス_226" data-name="パス 226" d="M93.172,161.242a9.241,9.241,0,0,0-4.794,5.955c.071,5.787,5.226,24.506,7.609,30.438A46.5,46.5,0,0,0,103,209.3a16.809,16.809,0,0,0,11.589,5.981c6.759.324,16.417-5.929,18.709-11.14l1.547-3.521c.536,5.368,1.056,10.774,1.536,16.045h98.294a22.784,22.784,0,0,0,9.074-2.8A26.054,26.054,0,0,0,255,199.778c4.374-12.57,4.733-35.675,5.017-45.726a179.675,179.675,0,0,0-1.418-29.609c-.655-4.857-2.231-11.035-4.569-15.258a53.38,53.38,0,0,0-10.349-12.3c-6.324-5.356-15.3-9.747-25.454-13.4A60.152,60.152,0,0,1,179.547,98.15a33.768,33.768,0,0,1-14.076-2.634,22.04,22.04,0,0,1-10.771-10.3c-1.113.284-2.939.758-3.713.989-8.207,2.439-19.111,6.96-25.119,12.487Z" transform="translate(-80.023 30.984)" fill="#ffd1b2"/>
      <path id="パス_227" data-name="パス 227" d="M164.528,97.392c4.731-4.283,10.55-7.167,16.379-9.59a103.269,103.269,0,0,1,14.31-4.662c2.542-.644,3.626,3.321,1.083,3.967a104.177,104.177,0,0,0-13.424,4.3c-5.45,2.2-11.065,4.906-15.47,8.894-1.946,1.763-4.834-1.137-2.878-2.908" transform="translate(-120.121 30.829)"/>
      <path id="パス_228" data-name="パス 228" d="M181.71,135.911q4.075,34.131,7.111,68.389c.231,2.637-3.842,2.62-4.071,0q-2.986-34.246-7.111-68.389c-.313-2.623,3.76-2.6,4.071,0" transform="translate(-129.854 49.713)"/>
      <path id="パス_229" data-name="パス 229" d="M188.2,142.521c-2.154,1.142-3.948,3.154-3.686,5.7a55.8,55.8,0,0,0,1.068,6.012c1.113,5.168,2.482,10.286,4.011,15.343a54.4,54.4,0,0,0,5.79,13.525c3.31,5.279,8.4,10.433,15.158,9.551a21.868,21.868,0,0,0,9.08-3.8,16.271,16.271,0,0,0,5.923-6.251c1.113-2.394,4.625-.307,3.515,2.077-2.625,5.639-9.326,9.686-15.028,11.387-7.175,2.14-14.505-.834-19.125-6.6-7.607-9.5-10.605-22.034-13.166-33.741a57.976,57.976,0,0,1-1.357-8.138c-.259-3.592,2.8-7.05,5.761-8.619,2.318-1.23,4.378,2.32,2.055,3.551" transform="translate(-174.021 51.48)"/>
      <path id="パス_230" data-name="パス 230" d="M122.377,84.335c5.6,11.3,18.8,13.009,30.028,11.561a59.032,59.032,0,0,0,29.03-12.58c2.036-1.621,4.936,1.27,2.878,2.908a64.733,64.733,0,0,1-23.987,12.291c-9.7,2.527-21.118,3.258-30.381-1.2a24.088,24.088,0,0,1-11.083-10.907c-1.171-2.36,2.34-4.445,3.515-2.076" transform="translate(-45.983 30.743)"/>
      <path id="パス_231" data-name="パス 231" d="M114.286,80.848c15.875,5.217,32.339,12.468,41.4,27.468,4.649,7.7,5.6,17.293,6.3,26.081a240.643,240.643,0,0,1,.308,26.215c-.221,7.4-.563,14.8-1.354,22.155-.778,7.218-1.723,14.8-4.747,21.468-3.488,7.682-10.279,13.685-18.625,15.171a26.093,26.093,0,0,1-20.714-5.294,144.177,144.177,0,0,1-16.647-15.472c-4.428-4.639-8.787-9.388-12.812-14.39-1.638-2.036,1.225-4.963,2.88-2.908a211.124,211.124,0,0,0,24.447,25.732c4.48,3.958,9.168,7.662,15.262,8.482a21.172,21.172,0,0,0,20.681-9.713c3.725-5.76,4.9-12.891,5.79-19.6.961-7.252,1.373-14.579,1.642-21.887.266-7.216.5-14.448.273-21.668-.284-9-.8-18.44-3.77-27.008-2.675-7.7-8.813-14.4-15.428-18.949-7.89-5.421-16.944-8.953-25.968-11.919-2.481-.816-1.418-4.789,1.083-3.967" transform="translate(19.583 29.963)"/>
      <path id="パス_232" data-name="パス 232" d="M183.74,108.2c-1.643-4.9-3.584-10.959-4.929-15.521a5.058,5.058,0,0,1,3.422-6.3c7.407-2.133,18.135-5.12,25.267-7.089a4.984,4.984,0,0,1,6.085,3.351c3.524,11.3,11.584,36.787,15.246,48.222a5.062,5.062,0,0,1-3.113,6.324c-5.7,2.014-15.659,5.328-18.152,6.16Z" transform="translate(-171.427 29.358)" fill="#fff"/>
      <path id="パス_233" data-name="パス 233" d="M182.308,109.3q-1.46-4.364-2.851-8.753c-.807-2.553-1.981-5.273-2.295-7.943a7.133,7.133,0,0,1,2.559-6.332c1.867-1.521,4.526-1.906,6.784-2.548q8.032-2.281,16.079-4.507c2.285-.633,4.866-1.759,7.267-1.586a7.09,7.09,0,0,1,5.662,3.658,30.771,30.771,0,0,1,1.828,5.393q.912,2.91,1.828,5.819,2.162,6.869,4.333,13.737,2.19,6.931,4.391,13.861c1.173,3.7,2.718,7.447,3.557,11.234a7.209,7.209,0,0,1-2.519,7.216c-2.008,1.585-4.984,2.17-7.37,2.986q-6.453,2.2-12.923,4.348c-2.494.832-3.562-3.138-1.082-3.967q4.735-1.577,9.467-3.173,3.055-1.034,6.107-2.085c1.7-.588,3.915-.968,4.372-3.041.32-1.456-.63-3.3-1.069-4.676q-.806-2.528-1.611-5.058-1.889-5.938-3.767-11.878-3.749-11.842-7.472-23.692c-.46-1.467-.847-2.988-1.385-4.427-.8-2.138-2.539-2.36-4.5-1.818q-6.911,1.909-13.816,3.846-3.892,1.092-7.78,2.2c-1.913.546-4.633.854-4.925,3.324-.145,1.237.547,2.667.9,3.82q.641,2.1,1.305,4.2,1.388,4.389,2.851,8.753c.84,2.515-3.09,3.592-3.926,1.094" transform="translate(-171.958 28.804)"/>
      <path id="パス_234" data-name="パス 234" d="M204.809,97.669a5.071,5.071,0,0,1,3.745-1.222,3.227,3.227,0,0,1,2.947,3.088,7.142,7.142,0,0,1-1.155,3.429c-3.505,5.242-7.8,11.6-11,16.2,3.882-3.451,6.624-6.067,10.324-7.937,3.568-2.147,7.586-4.087,11.319-4.611,1.889-.266,3.6.051,4.414,1.563a3.871,3.871,0,0,1-.1,4.294,14.282,14.282,0,0,1-1.417,1.617,3.819,3.819,0,0,1,3.981,1.584,3.984,3.984,0,0,1-.551,4.837c-.62.7-1.863,1.715-2.862,2.639,1.909-.924,3.557-1.283,4.843.306a4.5,4.5,0,0,1,.118,4.8c-2.473,2.919-4.608,5.3-7.515,8.663,2.466,6.662,2.608,10.473,1.449,16.733a4.713,4.713,0,0,1-.782,2.11c-3.409,3.7-9.586,6.786-14.526,6a4.394,4.394,0,0,1-2.483-1.041c-1.069-1.069-1-2.789-1.061-4.307-.285-7.695-5-12.028-9.137-18.5-.826-1.641-4.041-5.238-4.792-9.07a31.484,31.484,0,0,1-.157-8.262,16.414,16.414,0,0,1,1.837-6.573A117.694,117.694,0,0,1,204.477,98c.109-.117.22-.226.332-.329" transform="translate(-188.169 35.794)" fill="#fff"/>
      <path id="パス_235" data-name="パス 235" d="M205.439,88.469c1.613-.48,3.231-.95,4.847-1.422a2.056,2.056,0,0,1,1.082,3.967c-1.616.472-3.232.941-4.846,1.422A2.056,2.056,0,0,1,204.017,91a2.1,2.1,0,0,1,1.422-2.53" transform="translate(-189.612 32.279)"/>
      <path id="パス_236" data-name="パス 236" d="M192.356,115.313a67.2,67.2,0,0,1,8.408-6.852,48.583,48.583,0,0,1,10.3-5.124c2.931-.989,7.031-1.965,9.5.558a6.323,6.323,0,0,1,1.681,4.389c-.052,2.106-1.338,3.65-2.715,5.087-1.825,1.9-4.7-1.006-2.878-2.91.768-.8,1.779-1.641,1.428-2.866a1.423,1.423,0,0,0-1.428-1.174c-2.6-.232-5.577,1.161-7.85,2.271a51.549,51.549,0,0,0-7.127,4.093,75.277,75.277,0,0,0-6.436,5.435c-1.958,1.745-4.847-1.153-2.878-2.908" transform="translate(-182.369 37.964)"/>
      <path id="パス_237" data-name="パス 237" d="M190.552,119.027a78.525,78.525,0,0,1,7.134-6.151,32.7,32.7,0,0,1,9.5-4.61,7.443,7.443,0,0,1,4.987-.082,5.594,5.594,0,0,1,3.262,3.437,5.987,5.987,0,0,1-.567,5.007,17.6,17.6,0,0,1-3.558,3.631c-1.946,1.763-4.835-1.137-2.88-2.908,1.16-1.052,4.231-2.979,2.976-4.828-1.065-1.569-4.307.029-5.676.616a31.644,31.644,0,0,0-7.035,4.063c-1.854,1.453-3.517,3.151-5.261,4.733-1.943,1.766-4.832-1.134-2.878-2.908" transform="translate(-173.432 40.002)"/>
      <path id="パス_238" data-name="パス 238" d="M189.3,124.054a51.808,51.808,0,0,1,5.746-5.4c2.489-2.029,5.511-4.381,8.791-4.765s5.523,2.541,5.523,5.644a5.947,5.947,0,0,1-1.47,4q-1.256,1.477-2.529,2.936c-2.19,2.515-4.391,5.018-6.557,7.553a2.038,2.038,0,0,1-2.878,0,2.112,2.112,0,0,1,0-2.908q2.524-2.955,5.089-5.874,1.115-1.275,2.228-2.554.535-.619,1.069-1.241l.464-.544c.1-.118.223-.24.313-.367-.111.155-.02.012.034-.064.2-.289.054-.136.02-.03.031-.1.06-.192.083-.291.009-.047.081-.461.054-.24-.026.2,0-.149,0-.152a2.579,2.579,0,0,0-.174-1.259c-.111-.315.13.21-.037-.063-.05-.081-.092-.17-.151-.247.118.158-.176-.129-.179-.13-.17-.121-.056-.053.009-.025a1.588,1.588,0,0,0-.4-.1c.4.045-.536.115-.2.048-2.371.472-4.618,2.266-6.447,3.769a51.161,51.161,0,0,0-5.53,5.223,2.043,2.043,0,0,1-2.878,0,2.108,2.108,0,0,1,0-2.908" transform="translate(-165.436 42.254)"/>
      <path id="パス_239" data-name="パス 239" d="M203.093,117.977q4-5.775,7.907-11.611c1.113-1.654,2.692-3.4,3.287-5.313.608-1.955-1.286-2.511-2.789-1.545-1.62,1.039-3.052,3.252-4.266,4.73-1.55,1.887-3.018,3.839-4.433,5.833-2.363,3.328-4.66,6.25-5.25,10.393-.5,3.473-.65,7.733.864,10.943a64.071,64.071,0,0,0,5.926,9.252c2.27,3.2,4.621,6.343,6.008,10.06a20.275,20.275,0,0,1,1.178,5.676c.064.891-.168,2.268.281,3.075.423.765,1.4.828,2.2.89a13.12,13.12,0,0,0,6.354-1.36c1.839-.847,4.226-2.118,5.466-3.8.772-1.043.824-2.733.985-4a27.264,27.264,0,0,0,.228-3.522,25.131,25.131,0,0,0-1.3-7.414c-.786-2.532,3.144-3.616,3.926-1.094a30.437,30.437,0,0,1,.613,15.857c-.574,2.6-2.595,4.211-4.672,5.667a22.061,22.061,0,0,1-6.629,3.17c-4.5,1.257-10.721.96-11.377-4.833-.284-2.5-.267-4.82-1.177-7.222a29.368,29.368,0,0,0-3.6-6.274c-2.62-3.749-5.569-7.495-7.678-11.572-2.075-4.012-2.212-8.716-1.708-13.141a20.026,20.026,0,0,1,1.729-6.66,50.351,50.351,0,0,1,4.471-6.662c1.63-2.272,3.325-4.5,5.112-6.647,1.605-1.929,3.289-4.416,5.685-5.375,2.5-1,5.427-.643,7.107,1.628,1.611,2.179,1.023,5.013-.267,7.205-3.194,5.428-7.08,10.563-10.661,15.738-1.49,2.154-5.021.1-3.515-2.076" transform="translate(-193.186 35.239)"/>
      <path id="パス_240" data-name="パス 240" d="M141.133,114.334c-.6-.2-1.189-.4-1.765-.584-3.083-.99-5.763-1.54-7.784-.8a3.514,3.514,0,0,0-2.188,3.114,3.3,3.3,0,0,0,1.514,2.919,16,16,0,0,0,3.283,1.817c4.353,1.969,10.863,4.825,15.154,7.139q-3.845,3.354-7.37,7.06c-1.193,1.252-2.319,2.574-2.352,4.309-.05,2.694,1.528,4.4,5.328,5.827a3.744,3.744,0,0,0,.493,3.272c.989,1.405,2.523,2.224,5.379,2.217a6.654,6.654,0,0,0,1.432,3.982c2.741,3.673,5.923,5.956,10.37,5.766.562.256.923.425.923.425,1.341.628,2.732,1.286,3.551,1.608a6.906,6.906,0,0,1,1.9.978,7.759,7.759,0,0,1,1.339,1.656,21.885,21.885,0,0,0,1.542,1.974c3.349-3.932,8.5-10.017,12.808-15.065-.554-.562-1.1-1.2-1.7-1.943a69.031,69.031,0,0,1-5.823-9.347,106.592,106.592,0,0,0-8.533-12.669,19.086,19.086,0,0,0-3.865-4,24.765,24.765,0,0,0-4.611-2.2c-6.2-2.63-13.1-5.447-19.028-7.458" transform="translate(-60.262 41.791)" fill="#fff"/>
      <path id="パス_241" data-name="パス 241" d="M140.4,146.522c.867.407,1.732.819,2.607,1.207l.292.128c.246.11-.4-.16-.164-.069.178.07.356.143.532.214a13.812,13.812,0,0,1,1.593.71,7.269,7.269,0,0,1,2.383,2.382c.138.2.274.41.418.61.075.1.152.208.228.314.147.2.037.064-.045-.056a11.783,11.783,0,0,0,.905,1.1,2.11,2.11,0,0,1,0,2.908,2.048,2.048,0,0,1-2.878,0,26.128,26.128,0,0,1-1.9-2.441c-.122-.177-.24-.357-.364-.533-.038-.053-.269-.4-.1-.136.155.236-.024-.021-.067-.069-.079-.089-.167-.169-.244-.259-.172-.2-.035.007.087.043a4.4,4.4,0,0,1-.605-.376c-.084-.044-.171-.084-.256-.126-.342-.173.263.1.027.005l-.554-.222c-.452-.181-.9-.374-1.343-.573-.875-.388-1.741-.8-2.607-1.207a2.051,2.051,0,0,1,2.055-3.551" transform="translate(-36.082 54.285)"/>
      <path id="パス_242" data-name="パス 242" d="M148.079,129.865c-2.884-1.5-5.834-2.868-8.791-4.212-2.786-1.267-5.917-2.3-8.461-4.03-2.62-1.777-3.853-4.84-2.147-7.766,1.6-2.746,4.907-2.99,7.713-2.554a52.73,52.73,0,0,1,9.947,3.073c3.38,1.252,6.727,2.593,10.06,3.969,3.166,1.309,6.8,2.38,9.674,4.268s4.93,4.928,6.947,7.682a108.833,108.833,0,0,1,6.872,10.671c2,3.539,3.925,7.123,6.754,10.074,1.824,1.9-1.052,4.814-2.878,2.908-4.317-4.5-6.848-10.3-10.147-15.524-1.719-2.724-3.557-5.379-5.522-7.928-1.911-2.478-3.732-4.415-6.652-5.631-5.828-2.426-11.645-4.888-17.582-7.033a40.424,40.424,0,0,0-8.537-2.559c-.855-.1-2.2-.247-2.908.383-1.16,1.034-.007,2.127.911,2.7a66.625,66.625,0,0,0,8.011,3.74c2.958,1.345,5.907,2.713,8.791,4.213,2.33,1.211.273,4.762-2.055,3.551" transform="translate(-60.772 41.243)"/>
      <path id="パス_243" data-name="パス 243" d="M167.2,125.618a78.148,78.148,0,0,0-8.458,8.208,3.767,3.767,0,0,0-.913,1.7,5.518,5.518,0,0,0-.007.775c.007.228-.072-.207.019.154.039.158.079.314.123.47.026.088.206.436.045.13.061.115.123.226.187.337.284.5-.123-.114.087.144a4.835,4.835,0,0,0,.35.38,7.594,7.594,0,0,0,1.771,1.165,2.091,2.091,0,0,1,.73,2.814,2.061,2.061,0,0,1-2.785.738,8.262,8.262,0,0,1-4.142-4.165,6.856,6.856,0,0,1,.417-5.845,24.639,24.639,0,0,1,4.457-5.055q2.542-2.513,5.241-4.859a2.046,2.046,0,1,1,2.878,2.908" transform="translate(-76.412 45.324)"/>
      <path id="パス_244" data-name="パス 244" d="M162.847,130.982a28.561,28.561,0,0,0-7.787,7.8,4.163,4.163,0,0,0-.719,2.039,3.5,3.5,0,0,0,0,.533c-.035-.362.075.213.1.265-.106-.229.152.2.183.248.183.307-.2-.188.072.1.115.122.242.244.354.369.247.274-.129-.064.057.06.122.084.244.167.373.241.031.018.554.265.19.115a5.783,5.783,0,0,0,2.158.414,2.089,2.089,0,0,1,2.036,2.057,2.066,2.066,0,0,1-2.036,2.057,8.246,8.246,0,0,1-5.9-2.277,6.319,6.319,0,0,1-1.227-6.612c.844-2.3,2.717-4.352,4.367-6.1a35.043,35.043,0,0,1,5.727-4.855,2.043,2.043,0,0,1,2.785.738,2.108,2.108,0,0,1-.73,2.814" transform="translate(-67.751 47.185)"/>
      <path id="パス_245" data-name="パス 245" d="M154.347,134.42c-2.407,2.463-4.879,4.877-7.225,7.4a2.937,2.937,0,0,0-.936,3.117,8.472,8.472,0,0,0,2.053,3.108,9.98,9.98,0,0,0,5.614,3.389c.639.11,2.126.381,2.7-.055.6-.451-.294-1.455-.725-1.847-1.2-1.094-2.961-2.085-3.475-3.736-.669-2.146,1.4-3.627,2.709-4.974,1.84-1.891,4.718,1.017,2.878,2.908a10.4,10.4,0,0,0-1.928,2.055c.092-.346.185-.692.278-1.038.012-.287-.627-.779.012-.228.132.114.247.254.373.373.28.267.575.514.874.76a12.636,12.636,0,0,1,1.913,1.767,5.573,5.573,0,0,1,1.183,4.693c-.882,3.776-5.249,3.9-8.291,3.2a14.068,14.068,0,0,1-7.2-4.588c-2.334-2.642-4.229-6.093-2.535-9.613.886-1.84,2.664-3.28,4.064-4.711l4.781-4.891c1.843-1.887,4.722,1.021,2.878,2.908" transform="translate(-53.425 48.58)"/>
      <path id="パス_246" data-name="パス 246" d="M152.761,157.788c-7.789-6.812-15.363-13.876-22.991-20.87h2.878c-3.082,2.958-5.729,6.516-8.5,9.764q-6.082,7.133-12.143,14.283c-1.082,1.27-2.128,2.6-3.281,3.8-1.827,1.906-4.7-1.005-2.88-2.908,2.843-2.966,5.391-6.278,8.05-9.41,4.078-4.8,8.146-9.614,12.265-14.38,1.175-1.36,2.311-2.812,3.608-4.059a2.066,2.066,0,0,1,2.878,0c7.628,7,15.2,14.058,22.991,20.871,1.985,1.734-.905,4.634-2.878,2.908" transform="translate(0.861 49.517)"/>
      <path id="パス_247" data-name="パス 247" d="M133.346,51.007A43.675,43.675,0,0,0,130.3,38.448c-1.661-4.146-4.166-8.4-8.11-10.678-2.276-1.312-.227-4.867,2.055-3.553,4.713,2.719,7.7,7.593,9.733,12.529a47.083,47.083,0,0,1,3.435,14.261c.2,2.639-3.869,2.626-4.071,0" transform="translate(-1.886 8.881)"/>
      <path id="パス_248" data-name="パス 248" d="M179.7,27.443a39.678,39.678,0,0,0-8.044,10.447,17.616,17.616,0,0,0-1.426,3.972c-.083.356-.156.714-.217,1.075q-.037.218-.069.436c-.038.261.034-.348,0,.056-.062.661-.1,1.318-.1,1.983a2.036,2.036,0,0,1-4.071,0c.008-8.342,5.421-15.318,11.058-20.877,1.875-1.851,4.758,1.056,2.878,2.908" transform="translate(-105.245 8.885)"/>
      <path id="パス_249" data-name="パス 249" d="M143.44,26.345a11.9,11.9,0,0,0-.327-1.182c-.069-.2-.144-.4-.221-.6-.132-.335.153.346.046.115-.041-.088-.08-.177-.121-.265a14.752,14.752,0,0,0-1.265-2.091c.087.126.27.346.067.095-.061-.075-.122-.149-.185-.223-.126-.148-.255-.292-.388-.433a11.947,11.947,0,0,0-.881-.843c-.073-.063-.148-.123-.221-.186-.323-.276.391.285.047.036-.156-.114-.311-.229-.471-.336a11.038,11.038,0,0,0-1.1-.65,2.052,2.052,0,0,1,2.056-3.553,13.76,13.76,0,0,1,6.884,9.026,2.1,2.1,0,0,1-1.422,2.531,2.064,2.064,0,0,1-2.5-1.437" transform="translate(-33.887 5.924)"/>
      <path id="パス_250" data-name="パス 250" d="M157.489,25.712q-.558-.522-1.152-1c.256.208-.255-.188-.347-.255-.206-.148-.417-.292-.628-.432a22.3,22.3,0,0,0-2.755-1.505c-.293-.14.265.1-.038-.016-.119-.047-.236-.1-.354-.141q-.354-.138-.715-.259c-.479-.165-.966-.309-1.457-.432s-.987-.229-1.487-.313c-.123-.022-.248-.04-.373-.059-.324-.051.3.023-.024,0-.284-.021-.566-.056-.85-.077a2.057,2.057,0,0,1,0-4.113,21.329,21.329,0,0,1,13.061,5.7,2.087,2.087,0,0,1,0,2.908,2.065,2.065,0,0,1-2.88,0" transform="translate(-58.078 6.346)"/>
      <path id="パス_251" data-name="パス 251" d="M114.554,61.6a50.045,50.045,0,0,1-1.212-20.073A55.486,55.486,0,0,1,119,24.7,42.78,42.78,0,0,1,139.457,5.242c9.887-4.577,21.011-5.962,31.556-2.907A33.006,33.006,0,0,1,179.187,5.9c2.314,1.431,4.205,3.414,6.7,4.54a32.9,32.9,0,0,1,12.523,10.626c4.059,5.607,5.435,12.418,6.179,19.2.759,6.93.79,14.549-1.719,21.15-.93,2.446-4.866,1.385-3.926-1.093,2.012-5.294,2.2-11.164,1.856-16.763-.354-5.716-1.144-11.91-3.819-17.043a30.672,30.672,0,0,0-10.752-11.275c-1.884-1.229-3.934-1.9-5.728-3.325a30.494,30.494,0,0,0-7-4.362c-9.06-3.868-19.441-3.45-28.574-.152-8.19,2.956-16.116,8.469-20.644,16.12a54.724,54.724,0,0,0-6.492,16.26,44.769,44.769,0,0,0,.7,20.722c.666,2.563-3.26,3.657-3.926,1.094" transform="translate(-58.135 0.261)"/>
      <path id="パス_252" data-name="パス 252" d="M151.991,41.606s-7.245,1.425-9.529-4.643" transform="translate(-45.302 13.718)" fill="none" stroke="#000" stroke-linecap="round" stroke-miterlimit="10" stroke-width="3"/>
      <path id="パス_253" data-name="パス 253" d="M78.454,19.7a1.358,1.358,0,0,0,.067-.134,3.682,3.682,0,0,0,2.325,1.985,4.952,4.952,0,0,0,3.439.011,4.6,4.6,0,0,0,2.591-1.8,3.7,3.7,0,0,0,.661-2.642,3.074,3.074,0,0,0-1.913-2.585A3.967,3.967,0,0,0,87.533,10.3a4.429,4.429,0,0,0-2.022-2.7,4.52,4.52,0,0,0-3.58-.278A3.486,3.486,0,0,0,80,8.921a3.321,3.321,0,0,0-2.458-2.665,4.657,4.657,0,0,0-5.309,2.294,4.2,4.2,0,0,0-.547,2.4,3.554,3.554,0,0,0,1.444,2.809,3.2,3.2,0,0,0-2.154,2.45c-.623,2.265,1.365,4.03,1.49,4.137a4.142,4.142,0,0,0,2.958,1.037,3.831,3.831,0,0,0,3.03-1.691" transform="translate(116.248 2.268)" fill="#fff"/>
      <path id="パス_254" data-name="パス 254" d="M77.825,19.422c.022-.045.045-.09.066-.134a1.093,1.093,0,0,1,1.984.262c.307.983,2.09,1.5,2.99,1.5a5.035,5.035,0,0,0,2.386-.669,3.12,3.12,0,0,0,1.536-2.187,2.329,2.329,0,0,0-1.145-2.325,1.116,1.116,0,0,1-.259-2.006,2.865,2.865,0,0,0,.274-4.766,3.073,3.073,0,0,0-4.412.661A1.094,1.094,0,0,1,79.221,9.2c-.1-1.042-1.422-1.652-2.3-1.71a3.725,3.725,0,0,0-2.6.835c-1.274,1.072-1.9,3.754-.334,4.769a1.115,1.115,0,0,1-.259,2,2.381,2.381,0,0,0-1.474,2.216,3.325,3.325,0,0,0,1.1,2.361c1.126,1.119,3.528,1.294,4.471-.255A1.09,1.09,0,0,1,79.7,20.53c-1.695,2.785-5.795,2.864-7.951.628a5.394,5.394,0,0,1-1.627-4.333,4.513,4.513,0,0,1,3.026-3.841q-.13,1-.259,2c-2.976-1.924-2.329-6.494.208-8.471,2.749-2.142,7.914-1.372,8.3,2.683l-2.023-.554a5.245,5.245,0,0,1,7.823-1.105,5.077,5.077,0,0,1-.715,8.213q-.128-1-.259-2a4.289,4.289,0,0,1,2.728,3.78,5.121,5.121,0,0,1-2.239,4.511,6.9,6.9,0,0,1-4.378,1.172c-1.768-.163-3.976-1.246-4.547-3.082l1.985.262c-.023.045-.045.09-.066.136-.624,1.263-2.5.154-1.875-1.108" transform="translate(115.939 1.987)"/>
      <path id="パス_255" data-name="パス 255" d="M15.541,41.939a.826.826,0,0,0,.054-.111,3.029,3.029,0,0,0,1.912,1.633,4.081,4.081,0,0,0,2.828.01,3.8,3.8,0,0,0,2.131-1.484,3.051,3.051,0,0,0,.543-2.172,2.526,2.526,0,0,0-1.574-2.125,3.263,3.263,0,0,0,1.571-3.474A3.642,3.642,0,0,0,21.343,32a3.713,3.713,0,0,0-2.943-.228,2.857,2.857,0,0,0-1.589,1.312,2.732,2.732,0,0,0-2.021-2.192,3.962,3.962,0,0,0-3.367.694,4.026,4.026,0,0,0-1,1.193,3.44,3.44,0,0,0-.451,1.976,2.928,2.928,0,0,0,1.187,2.31,2.633,2.633,0,0,0-1.771,2.016,3.618,3.618,0,0,0,1.225,3.4,3.4,3.4,0,0,0,2.433.853,3.15,3.15,0,0,0,2.492-1.39" transform="translate(264.333 11.419)" fill="#fff"/>
      <path id="パス_256" data-name="パス 256" d="M14.9,41.667c.019-.037.038-.074.056-.111a1.093,1.093,0,0,1,1.984.262c.179.579,1.546,1.1,2.272,1.09a3.953,3.953,0,0,0,1.863-.524,2.376,2.376,0,0,0,1.168-1.63,1.9,1.9,0,0,0-.372-1.382,2.656,2.656,0,0,0-.224-.226,1.886,1.886,0,0,0-.2-.121c.1.04.1.041-.005,0a1.116,1.116,0,0,1-.259-2,2.163,2.163,0,0,0,.189-3.613,1.547,1.547,0,0,0-.334-.214,3.611,3.611,0,0,0-.841-.25,2.163,2.163,0,0,0-2.151.967,1.093,1.093,0,0,1-2.022-.554c-.071-.74-1.1-1.167-1.7-1.211a3.058,3.058,0,0,0-2,.629c-1.018.873-1.38,2.925-.312,3.616a1.115,1.115,0,0,1-.259,2,1.118,1.118,0,0,0-.613.414,2.169,2.169,0,0,0-.46,1.22,2.535,2.535,0,0,0,.852,1.8c.047.048.095.093.145.138.133.119.058.048.11.084a2.477,2.477,0,0,0,1.121.454,2.356,2.356,0,0,0,1.379-.292,1.684,1.684,0,0,0,.617-.554,1.09,1.09,0,0,1,1.875,1.108,4.428,4.428,0,0,1-6.839.555A4.626,4.626,0,0,1,8.549,39.6a3.9,3.9,0,0,1,2.626-3.319q-.128,1-.259,2c-2.555-1.652-2.052-5.583.151-7.286,2.4-1.854,6.8-1.145,7.131,2.358l-2.022-.553a4.505,4.505,0,0,1,6.734-.949,4.372,4.372,0,0,1-.624,7.06q-.13-1-.259-2a3.72,3.72,0,0,1,2.382,3.3,4.4,4.4,0,0,1-1.936,3.878,5.819,5.819,0,0,1-3.7.991c-1.546-.158-3.425-1.071-3.925-2.678l1.985.262c-.02.037-.037.074-.056.111-.623,1.263-2.5.154-1.875-1.108" transform="translate(264.031 11.136)"/>
      <path id="パス_257" data-name="パス 257" d="M83.867,59.821a.928.928,0,0,0,.045-.091,2.469,2.469,0,0,0,1.562,1.333,3.318,3.318,0,0,0,2.308.008,3.1,3.1,0,0,0,1.74-1.211,2.487,2.487,0,0,0,.444-1.774,2.065,2.065,0,0,0-1.285-1.736,2.665,2.665,0,0,0,1.284-2.837A2.978,2.978,0,0,0,88.606,51.7a3.025,3.025,0,0,0-2.4-.186,2.335,2.335,0,0,0-1.3,1.071,2.229,2.229,0,0,0-1.65-1.789,3.125,3.125,0,0,0-3.565,1.54,2.82,2.82,0,0,0-.368,1.614,2.388,2.388,0,0,0,.97,1.887,2.152,2.152,0,0,0-1.447,1.645,2.957,2.957,0,0,0,1,2.778,2.788,2.788,0,0,0,1.988.7,2.57,2.57,0,0,0,2.034-1.135" transform="translate(103.111 18.816)" fill="#fff"/>
      <path id="パス_258" data-name="パス 258" d="M83.228,59.553l.045-.09a1.093,1.093,0,0,1,1.984.262c-.046-.148-.012-.011.052.06a1.6,1.6,0,0,0,.358.292,2.251,2.251,0,0,0,1.254.389,2.822,2.822,0,0,0,.79-.14,2.543,2.543,0,0,0,.632-.259,1.775,1.775,0,0,0,.855-1.159,1.381,1.381,0,0,0-.277-1.027c.06.073-.276-.285-.113-.114a1.384,1.384,0,0,0-.163-.1q.2.076.045.025a1.116,1.116,0,0,1-.259-2.006,1.558,1.558,0,0,0,.8-1.309,1.673,1.673,0,0,0-.687-1.326c-.214-.191.119.064-.058-.041-.058-.034-.115-.069-.174-.1-.194-.11.242.075-.084-.034a2.9,2.9,0,0,0-.556-.149,1.56,1.56,0,0,0-1.531.7,1.094,1.094,0,0,1-2.023-.554c-.037-.394-.757-.753-1.187-.787a1.74,1.74,0,0,0-.923.133,2.939,2.939,0,0,0-.419.213c-.058.037-.115.077-.171.117.081-.066.087-.069.018-.008a2.012,2.012,0,0,0-.736,1.418,1.946,1.946,0,0,0,.185.886.768.768,0,0,0,.138.221,1.946,1.946,0,0,0,.141.14c-.109-.08-.117-.089-.026-.027a1.115,1.115,0,0,1-.259,2,1.147,1.147,0,0,0-.164.053c.107-.053.065-.033-.005.019a.775.775,0,0,0-.227.193,1.625,1.625,0,0,0-.332.875,1.444,1.444,0,0,0,.244.827,1.539,1.539,0,0,0,.392.5c.039.038.08.074.119.112.144.141-.008,0,.049.037a1.919,1.919,0,0,0,.816.343,1.717,1.717,0,0,0,1.026-.211,1.62,1.62,0,0,0,.311-.232c.015-.012.167-.173.073-.069s.038-.062.049-.08A1.09,1.09,0,0,1,85.1,60.661a3.816,3.816,0,0,1-5.9.494,3.976,3.976,0,0,1-1.191-3.211A3.388,3.388,0,0,1,80.3,55.064q-.13,1-.259,2.006c-2.205-1.426-1.809-4.8.1-6.282,2.1-1.622,5.858-.941,6.143,2.084l-2.023-.554a3.883,3.883,0,0,1,5.813-.814,3.774,3.774,0,0,1-.552,6.081q-.128-1-.259-2a3.248,3.248,0,0,1,2.094,2.886,3.807,3.807,0,0,1-1.68,3.34,4.962,4.962,0,0,1-3.121.836,3.908,3.908,0,0,1-3.4-2.335l1.984.262c-.014.03-.028.062-.043.092-.624,1.263-2.5.154-1.875-1.108" transform="translate(102.813 18.531)"/>
      <path id="パス_259" data-name="パス 259" d="M142.164,59.076c.309,1.942.225,4.215-1.277,5.672a4.693,4.693,0,0,1-5.86.343,4.265,4.265,0,0,1-1.852-3.407,1.377,1.377,0,0,1,1.357-1.371,1.392,1.392,0,0,1,1.357,1.371,1.947,1.947,0,0,1,.014.265s-.057-.292-.018-.152c.011.041.016.084.026.125.023.1.064.188.086.282.03.133-.045-.129-.058-.134.024.011.06.123.073.149.039.073.081.144.128.214.022.034.049.067.071.1.072.119-.077-.114-.086-.114s.415.394.415.413c0-.008-.227-.162-.107-.086.035.022.069.049.1.073.071.047.143.092.217.133a1.361,1.361,0,0,1,.227.117c-.02-.018-.308-.115-.087-.037.053.019.107.04.161.058a4.777,4.777,0,0,1,.5.125s-.3-.029-.147-.019c.043,0,.087.008.13.012.115.007.231.01.346.005a2.033,2.033,0,0,1,.256-.018c.007,0-.3.053-.156.022.039-.01.08-.014.119-.021a4.151,4.151,0,0,0,.48-.133c.3-.1-.212.118-.023.01.062-.034.126-.064.187-.1s.117-.077.175-.114c.174-.111-.233.214-.033.021.1-.1.2-.232.307-.325.008-.005-.174.256-.107.14.016-.03.039-.058.058-.086.046-.069.088-.138.128-.211s.065-.126.1-.191c.132-.258-.081.247-.009.026.052-.156.1-.31.142-.47.022-.089.041-.178.058-.267.007-.038.011-.08.019-.118.039-.159-.034.367-.009.085.016-.2.033-.389.035-.587s0-.409-.016-.613c-.008-.121-.022-.241-.033-.361,0-.041-.026-.2,0,0,.031.236-.014-.071-.018-.095a1.408,1.408,0,0,1,.949-1.686,1.371,1.371,0,0,1,1.669.957" transform="translate(-23.017 21.557)"/>
    </g>
  </g>
</svg>
