<?xml version="1.0" encoding="UTF-8"?>
<svg id="_レイヤー_2" data-name="レイヤー 2" xmlns="http://www.w3.org/2000/svg" xmlns:xlink="http://www.w3.org/1999/xlink" viewBox="0 0 385.56 338.42">
  <defs>
    <style>
      .cls-1 {
        stroke: #211715;
        stroke-linecap: round;
        stroke-linejoin: round;
        stroke-width: 4px;
      }

      .cls-1, .cls-2 {
        fill: #fff;
      }

      .cls-3 {
        fill: #231815;
      }

      .cls-3, .cls-4, .cls-5, .cls-6, .cls-2, .cls-7, .cls-8, .cls-9, .cls-10, .cls-11, .cls-12, .cls-13 {
        stroke-width: 0px;
      }

      .cls-14 {
        clip-path: url(#clippath-2);
      }

      .cls-4 {
        fill: #c2e066;
      }

      .cls-5 {
        fill: none;
      }

      .cls-15 {
        clip-path: url(#clippath-1);
      }

      .cls-6 {
        fill: #7a7473;
      }

      .cls-7 {
        fill: #f60;
      }

      .cls-8 {
        fill: #ffebcc;
      }

      .cls-9 {
        fill: #ff9854;
      }

      .cls-16 {
        clip-path: url(#clippath);
      }

      .cls-10 {
        fill: #f4f9e3;
      }

      .cls-11 {
        fill: #cfcfcf;
      }

      .cls-12 {
        fill: #211715;
      }

      .cls-13 {
        fill: #645d5c;
      }
    </style>
    <clipPath id="clippath">
      <circle class="cls-5" cx="92.19" cy="207.27" r="92.19"/>
    </clipPath>
    <clipPath id="clippath-1">
      <circle class="cls-5" cx="293.37" cy="207.27" r="92.19"/>
    </clipPath>
    <clipPath id="clippath-2">
      <rect class="cls-5" x="55.8" y="253.7" width="67.1" height="83.51"/>
    </clipPath>
  </defs>
  <g id="layer">
    <g>
      <circle class="cls-2" cx="92.19" cy="207.27" r="92.19"/>
      <circle class="cls-8" cx="92.19" cy="207.27" r="92.19"/>
      <circle class="cls-10" cx="293.37" cy="207.27" r="92.19"/>
      <g>
        <path class="cls-2" d="m144.19,53.17c0-14.53-.01-33.69-.02-46.29,0-2.92,2.36-5.29,5.29-5.29,19.67,0,72.94-.02,95.85-.03,2.92,0,5.29,2.37,5.29,5.29,0,16.92,0,43.71.01,60.87,3.53,4.96,11.1,15.39,14.79,21.7.36.62.55,1.33.55,2.05,0,.64-.01,3.65-.01,4.45,0,1.7-1.39,3.09-3.09,3.09-18.5,0-114.42,0-131.41,0-1.42,0-2.58-1.15-2.58-2.58,0-3.98-.01-1.06-.01-4.97,0-.72.18-1.43.55-2.05,3.73-6.38,11.33-17.14,14.81-22.03,0-3.6,0-8.56,0-14.23Z"/>
        <path class="cls-11" d="m242.19,72.97c.88,0,1.7.43,2.21,1.15,1.2,1.72,2.47,3.57,3.69,5.43,1.17,1.8-.13,4.17-2.27,4.17h-96.85c-2.14,0-3.44-2.38-2.27-4.17s2.48-3.71,3.69-5.43c.51-.72,1.33-1.16,2.21-1.15,19.23,0,70.37,0,89.6,0"/>
        <path class="cls-12" d="m243.1,74.88c.98,1.4,1.95,2.81,2.9,4.24.52.78,1.6,1.92.62,2.8-.34.3-.68.29-1.08.31-.94.04-1.9,0-2.84,0h-92.73c-.87,0-2.12.13-2.22-1.1-.04-.48.26-.84.5-1.22.51-.8,1.05-1.58,1.59-2.37.74-1.09,1.49-3,2.95-3.08,1.63-.08,3.29,0,4.93,0,4.15,0,8.31,0,12.46,0,20.07,0,40.15,0,60.22,0,1.99,0,3.97,0,5.96,0s1.93-3,0-3c-20.55,0-41.1,0-61.65,0-4.63,0-9.27,0-13.9,0-1.89,0-3.79,0-5.68,0-2.32,0-4.49-.19-6.04,1.9-1.07,1.43-2.04,2.95-3.03,4.44-.81,1.21-1.46,2.34-1.24,3.84.31,2.1,2.09,3.49,4.16,3.58.64.03,1.29,0,1.94,0h90.72c3.1,0,7.7.66,8.34-3.58.23-1.51-.43-2.63-1.24-3.84-.99-1.49-2.01-2.97-3.03-4.44-1.1-1.57-3.7-.07-2.59,1.51h0Z"/>
        <path class="cls-12" d="m150.89,9.69c0,16.75.01,33.51.02,50.26,0,1.72,0,3.45,0,5.17,0,.81.69,1.5,1.5,1.5,11.03,0,22.05,0,33.08-.01,13.77,0,27.54-.01,41.31-.01,5.19,0,10.38,0,15.57,0,.81,0,1.5-.69,1.5-1.5,0-14.87-.01-29.75-.02-44.62,0-3.6,0-7.2,0-10.81,0-.81-.69-1.5-1.5-1.5-8.9,0-17.8,0-26.7,0-15.55,0-31.1.01-46.65.02-5.54,0-11.08,0-16.62,0-1.93,0-1.93,3,0,3,12.22,0,24.43,0,36.65-.01,14.61,0,29.23,0,43.84-.02,3.16,0,6.32,0,9.48,0l-1.5-1.5c0,14.4.01,28.81.02,43.21,0,4.07,0,8.14,0,12.22l1.5-1.5c-10.92,0-21.83,0-32.75.01-13.8,0-27.6,0-41.41.02-5.27,0-10.54,0-15.81,0l1.5,1.5c-.01-14.05-.01-28.09-.02-42.14,0-4.43,0-8.86,0-13.29,0-1.93-3-1.93-3,0Z"/>
        <path class="cls-12" d="m145.69,53.17c0-10,0-19.99-.01-29.99,0-4.64,0-9.28,0-13.93,0-1.94-.26-4.05,1.47-5.38,1.24-.96,2.79-.78,4.26-.78,14.17,0,28.33,0,42.5-.01,15.34,0,30.68-.01,46.02-.02,1.43,0,2.86,0,4.29,0,1.79,0,3.48.23,4.42,1.97.88,1.62.46,3.98.46,5.76,0,2.14,0,4.28,0,6.42,0,9.51,0,19.01,0,28.52,0,4.64,0,9.28,0,13.92,0,2.09,0,4.19,0,6.28,0,.93-.15,1.92.34,2.74.41.68.94,1.31,1.4,1.96,2.46,3.44,4.91,6.88,7.29,10.36,1.23,1.8,2.45,3.61,3.64,5.44.94,1.46,2.61,3.36,2.66,5.15.04,1.42.11,2.92-.01,4.33s-1.33,1.59-2.52,1.59c-1.59,0-3.17,0-4.76,0-4.62,0-9.24,0-13.87,0-12.82,0-25.63,0-38.45,0-13.75,0-27.5,0-41.24,0-9.7,0-19.39,0-29.09,0-1.24,0-3.9.51-4.16-1.08-.16-.97,0-2.1-.01-3.1,0-1.06-.15-2.18.34-3.16.4-.8.93-1.55,1.39-2.3,2.28-3.67,4.7-7.24,7.15-10.8,1.18-1.71,2.37-3.42,3.56-5.12.51-.73,1.03-1.45,1.54-2.18.42-.6,1.1-1.28,1.31-1.99.27-.93.05-2.19.05-3.16,0-1.05,0-2.11,0-3.16,0-2.77,0-5.54,0-8.31,0-1.93-3-1.93-3,0,0,2.91,0,5.82,0,8.72,0,1.16,0,2.32,0,3.47,0,.45-.06.93,0,1.38.1.77.13-.05,0,.17-.1.17-.24.33-.35.49-2.39,3.36-4.75,6.73-7.07,10.14s-4.84,7.05-6.97,10.75c-1.02,1.76-.98,3.52-.96,5.49.01,1.42-.22,3.01.39,4.33,1.17,2.55,3.76,2.39,6.1,2.39,1.77,0,3.53,0,5.3,0,5,0,10,0,15,0,13.65,0,27.3,0,40.96,0s27.7,0,41.56,0c5.37,0,10.75,0,16.12,0,2.03,0,4.06,0,6.09,0,1.64,0,3.61.27,5.2-.17,2.11-.58,3.3-2.46,3.37-4.56.05-1.55.12-3.19,0-4.74-.17-2.06-1.6-3.86-2.68-5.55-1.23-1.92-2.5-3.82-3.79-5.7-2.46-3.59-4.98-7.13-7.51-10.67-.44-.62-1.08-1.27-1.4-1.96.1.21,0,.48.07-.08.02-.2,0-.44,0-.65,0-.61,0-1.23,0-1.84,0-2.2,0-4.39,0-6.59,0-9.84,0-19.68,0-29.53,0-4.73,0-9.45,0-14.18,0-2.16,0-4.32,0-6.48s-.39-4.16-1.99-5.76c-2.59-2.59-6.47-1.99-9.81-1.99s-6.91,0-10.36,0c-8.11,0-16.23,0-24.34,0-15.9,0-31.8.01-47.7.02-2.72,0-5.45-.02-8.17,0-2.06.02-4.05.74-5.41,2.35-1.54,1.82-1.66,3.85-1.66,6.12,0,9.98,0,19.96.01,29.94,0,4.89,0,9.78,0,14.66,0,1.93,3,1.93,3,0Z"/>
        <path class="cls-12" d="m253.4,89.54h-98.24c-4.52,0-9.08-.19-13.6,0-.06,0-.12,0-.19,0-1.93,0-1.93,3,0,3h98.24c4.52,0,9.08.19,13.6,0,.06,0,.12,0,.19,0,1.93,0,1.93-3,0-3h0Z"/>
      </g>
      <g class="cls-16">
        <g>
          <g>
            <path class="cls-2" d="m122.34,175.87c.93-.84,2.31-1.25,3.61-1.05s2.47.97,3.06,2.03c.42.74.55,1.59.63,2.42.28,3.26-.36,6.58-1.84,9.56-.72,1.45-1.66,2.83-2.96,3.89-1,.8-2.23,1.39-3.53,1.59l-.6.09c-.29,1.09-.62,2-.78,2.48-1.04,2.82-6.9,12.64-14.24,16.08.45,2.23.17,4.29,3.25,5.4.19.07,1.72,18.84-17.51,18.84s-16.62-18.77-16.42-18.84c2.98-1.07,2.82-3.49,3.2-5.62-3.02-1.52-5.8-3.86-8.31-6.85-3.08-3.69-4.82-7.79-5.84-11.4l-1.15-.18c-1.3-.2-2.53-.79-3.53-1.59-1.3-1.05-2.24-2.44-2.96-3.89-1.48-2.97-2.12-6.29-1.84-9.56.08-.83.21-1.68.63-2.42.59-1.06,1.77-1.84,3.06-2.03s2.67.21,3.61,1.05c0,0,3.51-25.03,30.26-25.03,30.59,0,30.22,25.03,30.22,25.03Z"/>
            <path class="cls-3" d="m123.4,176.93c1.46-1.19,3.82-.71,4.49,1.09.72,1.94.33,4.65-.15,6.61-.51,2.08-1.38,4.22-2.78,5.87-1.25,1.47-2.79,2.17-4.66,2.45-.5.08-.92.59-1.05,1.05-.9,3.25-2.49,6.01-4.59,8.89-2.57,3.52-5.76,6.86-9.73,8.78-.63.3-.81,1.07-.69,1.69.31,1.66.4,3.36,1.55,4.7.42.49,1.64,1.66,2.36,1.6,2.24-.2-.87-1.25-.64-.81.11.2-.04-.47-.02-.17.06,1.19.04,2.37-.09,3.56-.06.54-.27,1.68-.48,2.51-.25.97-.57,1.95-.98,2.83-.97,2.1-2.4,4-4.3,5.33-2.58,1.81-5.7,2.6-8.83,2.76-3.3.16-6.8-.16-9.76-1.73-3.98-2.1-6.11-6.29-6.61-10.35-.19-1.55-.21-3.12-.04-4.66-.06.59-.06.04.03-.08.06-.08-1.24,1.03-.29.67.53-.21,1.05-.58,1.47-.96,1.57-1.42,1.72-3.46,2.06-5.41.11-.63-.06-1.37-.69-1.69-6.81-3.51-11.37-10.12-13.46-17.36-.13-.46-.54-.97-1.05-1.05-1.92-.3-3.55-.76-4.93-2.23-1.47-1.57-2.39-3.69-2.94-5.74s-.9-4.55-.37-6.64,2.94-2.85,4.6-1.5c.76.62,2.33.57,2.51-.66,1.31-9.23,7.8-18.12,16.55-21.7,4.25-1.74,8.84-2.31,13.4-2.22s9.22.78,13.45,2.58c5.52,2.34,9.88,6.63,12.21,12.16.77,1.83,1.4,4.19,1.73,6.34.07.42-.02-.22.04.3.02.18.04.35.06.53.03.28.05.57.07.86.01.26.03.51.02.77-.03,1.93,2.97,1.93,3,0,.12-9.13-5.54-18.17-13.44-22.48-3.97-2.16-8.38-3.28-12.85-3.77-5.15-.57-10.51-.38-15.52,1.04-7.27,2.06-13.34,6.84-17.23,13.3-2.07,3.44-3.81,7.5-4.38,11.51l2.51-.66c-2.28-1.86-5.47-2.09-7.8-.16s-2.32,5.77-1.95,8.62c.41,3.1,1.52,6.23,3.44,8.72,1.82,2.36,4.15,3.49,7.03,3.93l-1.05-1.05c2.29,7.95,7.36,15.3,14.84,19.15l-.69-1.69c-.32,1.89-.27,3.61-2.16,4.57-.72.37-1.01.77-1.14,1.52-.26,1.43-.22,2.95-.1,4.38.43,5.03,2.47,9.83,6.7,12.81,2.85,2.01,6.38,2.84,9.82,3.03,3.82.22,7.75-.29,11.22-1.96,4.85-2.33,7.91-7.05,8.96-12.23.36-1.76.57-3.61.46-5.4-.04-.63-.06-1.28-.52-1.76-.72-.73-1.81-.67-2.27-1.74-.39-.92-.41-2.03-.59-3l-.69,1.69c4.35-2.09,7.78-5.77,10.62-9.59,2.25-3.04,4.07-6.21,5.09-9.86l-1.05,1.05c6.24-.96,9.33-7.27,9.98-13.01.32-2.83.3-6.37-2.14-8.29s-5.44-1.55-7.66.27c-1.5,1.22.64,3.33,2.12,2.12Z"/>
          </g>
          <g>
            <path class="cls-6" d="m116,169.13c-3.15-3.6-6.99-6.6-11.25-8.76l-6.2-1.47c-3.84,1.76-10.79,5.55-11.39,5.29-.42-.18-1.17-1.93-1.71-3.59-.32-1-.57-1.97-.62-2.56-8.02,6.66-12.9,10.98-21.87,19.88-.26-2.14-2.59-3.42-4.69-3.1-.36.05-.71.15-1.04.29-2.33-9.64-1.75-17.8.2-23.53,1.77-5.2,5.76-11.11,10.81-13.73-1.71-.81-3.66-1.74-3.66-1.74,7.58-7.63,17.56-9.38,26.21-9.11,9.24.28,16.46,3.92,20.8,9.86l4.98,4.13c4.08,2.11,7.91,6.47,9.9,12.03,2.83,7.91,2.5,16.25.26,22-.25-.09-.52-.15-.79-.19-1.86-.28-3.9.68-4.51,2.4-1.45-2.92-3.28-5.64-5.43-8.09Z"/>
            <path class="cls-3" d="m117.07,168.07c-2.47-2.78-5.3-5.22-8.44-7.22-1.12-.71-2.37-1.6-3.66-1.97-.8-.23-1.63-.39-2.44-.58l-2.82-.67c-.91-.21-1.51-.22-2.41.2-2.58,1.21-5.09,2.54-7.65,3.78-.58.28-1.16.57-1.75.81-.16.07-.33.12-.5.19-.25.1-.31.03-.25.1,0,0,.96.26.93.32.03-.09-.32-.59-.37-.68-.21-.43-.38-.87-.54-1.32-.35-.95-.73-1.98-.85-2.99-.16-1.32-1.51-1.94-2.56-1.06-7.59,6.31-14.86,12.93-21.87,19.88l2.51.66c-.58-3.4-4.54-4.99-7.58-3.86l1.85,1.05c-1.59-6.7-2.15-13.89-.42-20.63,1.52-5.93,5.23-11.99,10.74-14.94.94-.5,1.02-2.11,0-2.59-1.22-.58-2.44-1.16-3.66-1.74l.3,2.36c4.81-4.77,11.07-7.49,17.75-8.35,6.21-.8,12.98-.51,18.72,2.2,2.67,1.26,5.08,3,7.05,5.2.59.66,1.07,1.41,1.73,1.99s1.41,1.17,2.12,1.76,1.41,1.17,2.12,1.76,1.51.98,2.26,1.49c2.71,1.82,4.84,4.47,6.36,7.33,3.77,7.11,4.39,16.54,1.53,24.06l1.85-1.05c-2.93-.87-5.96.41-7.14,3.25l2.74-.36c-1.53-3.03-3.44-5.83-5.66-8.39-1.27-1.46-3.38.67-2.12,2.12,2.06,2.37,3.78,4.98,5.19,7.78.65,1.29,2.29.72,2.74-.36.55-1.32,2.28-1.51,3.45-1.16.83.25,1.56-.3,1.85-1.05,2.77-7.29,2.32-15.96-.41-23.19-1.28-3.39-3.22-6.54-5.81-9.09-1.76-1.74-3.75-2.72-5.55-4.21-1.32-1.09-3.08-2.25-4.06-3.51-1.95-2.51-4.41-4.61-7.18-6.17-6.05-3.41-13.18-4.17-20-3.61-8.12.68-15.82,3.62-21.67,9.42-.64.63-.58,1.93.3,2.36,1.22.58,2.44,1.16,3.66,1.74v-2.59c-6.08,3.25-10.29,9.89-12.04,16.42-1.97,7.35-1.4,15.21.34,22.53.18.74,1.1,1.32,1.85,1.05,1.61-.6,3.56-.11,3.88,1.76.2,1.15,1.77,1.4,2.51.66,7.01-6.96,14.28-13.57,21.87-19.88l-2.56-1.06c.26,2.18.99,4.77,2.24,6.6.95,1.39,2.15,1.09,3.48.53,3.5-1.48,6.82-3.39,10.27-4.98l-1.16.15c1.98.47,4.14.75,6.05,1.44,1.8.65,3.63,2.07,5.16,3.22,2.04,1.53,3.89,3.29,5.58,5.2,1.28,1.45,3.4-.68,2.12-2.12Z"/>
          </g>
          <path class="cls-3" d="m115.81,142.27c10.52,5.6,13.26,20.68,9.87,31.23-.59,1.84,2.3,2.63,2.89.8,3.78-11.8.43-28.41-11.25-34.62-1.7-.91-3.22,1.68-1.51,2.59h0Z"/>
          <path class="cls-3" d="m69.38,135.72c-6.79,2.59-11.55,9.44-13.64,16.19-2.35,7.59-1.78,15.9.02,23.53.44,1.88,3.34,1.08,2.89-.8-1.64-6.93-2.18-14.41-.2-21.33,1.68-5.87,5.78-12.42,11.72-14.69,1.79-.68,1.01-3.58-.8-2.89h0Z"/>
          <path class="cls-3" d="m112.88,136.09c-4.16-5.61-10.39-9.02-17.24-10.13s-14.64-.54-21.24,2.03c-4.09,1.59-7.77,3.96-10.88,7.05-1.37,1.36.75,3.48,2.12,2.12,4.85-4.81,11.19-7.54,17.93-8.37,6.35-.78,13.21-.44,19.02,2.46,3.01,1.5,5.69,3.64,7.7,6.35,1.14,1.53,3.74.04,2.59-1.51h0Z"/>
          <path class="cls-3" d="m97.8,157.6c-2.84,1.31-5.59,2.79-8.41,4.14-.5.24-1,.49-1.51.7-.16.07-.32.12-.48.18-.44.18-.22-.04-.13.08.78.51,1.01.54.68.09-.11-.2-.21-.39-.3-.6-.18-.38-.32-.77-.47-1.16-.35-.95-.73-1.98-.85-2.99-.16-1.32-1.51-1.94-2.56-1.06-7.68,6.39-15.03,13.08-22.12,20.12-1.37,1.36.75,3.48,2.12,2.12,7.09-7.04,14.44-13.74,22.12-20.12l-2.56-1.06c.26,2.18.99,4.77,2.24,6.6.95,1.39,2.15,1.09,3.48.53,3.5-1.48,6.82-3.39,10.27-4.98,1.75-.81.23-3.39-1.51-2.59h0Z"/>
          <path class="cls-3" d="m103.99,161.66c7.37,3.77,13.24,9.94,16.69,17.46.34.74,1.4.92,2.05.54.76-.44.88-1.31.54-2.05-3.63-7.94-9.99-14.56-17.76-18.54-1.72-.88-3.24,1.71-1.51,2.59h0Z"/>
          <path class="cls-3" d="m123.4,176.93c1.24-1.04,3.34-.84,4.24.56.52.8.53,1.91.56,2.83.03,1.09-.04,2.19-.23,3.27-.71,3.89-2.75,8.5-7.06,9.28-1.9.34-1.09,3.23.8,2.89,6.09-1.09,8.98-7.99,9.44-13.51.23-2.74.08-5.97-2.29-7.77s-5.4-1.47-7.57.34c-1.48,1.24.65,3.35,2.12,2.12h0Z"/>
          <path class="cls-3" d="m119.75,190.95c-.19,4.58-2.39,8.22-5.08,11.92-2.98,4.08-7.01,8.39-12.11,9.59-1.88.44-1.08,3.33.8,2.89,5.81-1.36,10.32-6.12,13.74-10.75,2.96-4.01,5.45-8.55,5.66-13.65.08-1.93-2.92-1.93-3,0h0Z"/>
          <path class="cls-3" d="m62.93,174.81c-2.16-1.81-5.26-2.09-7.57-.34s-2.52,5.03-2.29,7.77c.46,5.52,3.35,12.42,9.44,13.51,1.89.34,2.7-2.55.8-2.89-4.31-.77-6.35-5.39-7.06-9.28-.19-1.02-.25-2.06-.24-3.09.02-.94.02-2.04.49-2.89.83-1.5,3.04-1.74,4.31-.68,1.47,1.23,3.6-.88,2.12-2.12h0Z"/>
          <path class="cls-3" d="m61.64,190.56c1.06,6.05,3.35,11.83,7.34,16.55s9.54,8.44,15.96,9.13c1.92.21,1.9-2.79,0-3-5.74-.62-10.55-4.23-14.11-8.58-3.49-4.25-5.35-9.54-6.29-14.9-.33-1.9-3.22-1.09-2.89.8h0Z"/>
          <path class="cls-3" d="m86.78,202.32c1.81.96,3.76,1.36,5.81,1.35s4.19-.43,5.86-1.73c.64-.5.52-1.6,0-2.12-.63-.63-1.48-.5-2.12,0,.45-.35.1-.08-.02,0s-.24.14-.36.21c-.1.05-.54.23-.13.08-.17.06-.33.13-.5.18-.45.15-.92.25-1.39.32.22-.03-.05,0-.14.01-.14.01-.27.02-.41.03-.33.02-.66.03-.99.03-.29,0-.59-.01-.88-.03-.14,0-.27-.02-.4-.03-.01,0-.5-.07-.2-.02-.44-.07-.87-.16-1.3-.29-.18-.05-.36-.12-.54-.18-.38-.13.22.11-.13-.05-.22-.1-.44-.21-.66-.33-.72-.38-1.63-.18-2.05.54-.4.68-.18,1.67.54,2.05h0Z"/>
          <path class="cls-3" d="m91.83,188.62c.25.97.5,1.95.64,2.94l-.05-.4c.02.14.02.27.01.41l.05-.4c0,.06-.02.12-.04.18l.15-.36s-.04.08-.06.12l.23-.3s-.06.06-.1.09l.3-.23c-.07.05-.15.09-.23.12l.36-.15c-.13.05-.26.09-.39.11l.4-.05c-.12.01-.24.01-.37,0l.4.05c-.14-.02-.28-.05-.41-.07-.2-.06-.4-.07-.6-.03-.2,0-.39.07-.56.18-.31.18-.61.54-.69.9-.09.38-.07.81.15,1.16.2.3.52.64.9.69.32.04.62.12.94.14.49.02.95-.13,1.39-.33.54-.25.97-.74,1.11-1.32.12-.49.07-.93-.01-1.42-.16-.95-.38-1.89-.62-2.82-.2-.76-1.08-1.3-1.85-1.05s-1.26,1.03-1.05,1.85h0Z"/>
          <path class="cls-12" d="m76.28,180.29c-.49,1.6-.17,5.27,2.85,5.58,4-.02,4.21-4.46,2.86-6.55-1.1-1.71-4.34-2.42-5.72.97Z"/>
          <path class="cls-12" d="m108.28,180.29c.49,1.6.17,5.27-2.85,5.58-4-.02-4.21-4.46-2.86-6.55,1.1-1.71,4.34-2.42,5.72.97Z"/>
          <g>
            <path class="cls-4" d="m47.03,324.87c-6.89-4.68-13.78-9.36-20.67-14.04-2.4-1.63-4.92-3.41-6-6.1-1.12-2.8-1.32-6.58-.59-9.51,3.67-14.7,6.94-27.61,11.77-41.97,1.57-4.66,3.3-9.48,6.82-12.92,2.33-2.28,7.16-4.81,10.07-6.28l22.12-11.24c-.1-.21-.15-.35-.16-.41-.04-.71,3-6.32,3.99-8.86.07-.17.15-.36.33-.41.19-.06.38.08.53.21,1.69,1.45,10.96,9,11.95,10.22.34,1.15.93,2.67,1.93,5.8.8,1.9,2.24,5.44,3.01,7.1,1.11-2.32,2.55-5.75,3.7-8.51.55-1.69,1-3.57,1.24-4.39.99-1.22,10.26-8.77,11.95-10.22.15-.13.34-.27.53-.21.17.05.26.24.33.41.99,2.55,4.03,8.16,3.99,8.86l-.32.28c7.46,3.79,14.92,7.58,22.38,11.37,2.91,1.48,7.74,4,10.07,6.28,3.52,3.44,5.25,8.26,6.82,12.92,4.83,14.36,8.1,27.28,11.77,41.97.73,2.93.53,6.71-.59,9.51-1.08,2.69-3.6,4.47-6,6.1-6.89,4.68-13.78,9.36-20.67,14.04H47.03Z"/>
            <path class="cls-3" d="m47.79,323.58c-4.06-2.76-8.13-5.52-12.19-8.29-2-1.36-4-2.72-5.99-4.07-1.76-1.2-3.63-2.33-5.24-3.72-3.03-2.62-3.87-6.46-3.41-10.35.26-2.24,1.02-4.48,1.57-6.67s1.11-4.41,1.68-6.61c2.26-8.76,4.67-17.48,7.44-26.09,1.3-4.04,2.5-8.23,4.54-11.97,1.9-3.49,4.55-5.74,7.94-7.73,4.01-2.35,8.24-4.35,12.38-6.45,4.94-2.51,9.88-5.02,14.82-7.53.78-.4.85-1.35.54-2.05.09.21-.17.75.06.44.05-.07.09-.26.12-.34.09-.24.2-.47.3-.7.38-.83.78-1.64,1.18-2.46s.83-1.69,1.23-2.55c.27-.58.66-1.96,1.04-2.26l-1.06.44c-.68-.09-.47-.23-.18.07.12.13.27.23.41.34.38.32.76.63,1.14.95.93.77,1.86,1.55,2.79,2.32,1.94,1.62,3.89,3.23,5.78,4.9.33.29.65.58.97.88.09.09.17.19.27.26.52.42-.31-.19-.09-.23.07-.01,1.12,3.31,1.2,3.56,1.08,3.24,2.41,6.42,3.84,9.52.45.99,2.13.97,2.59,0,1.55-3.27,3.24-6.68,4.24-10.15.23-.78.6-1.66.67-2.46.06-.68.1-.17-.11-.09.06-.02.17-.19.22-.23.61-.54,1.2-1.11,1.82-1.64,1.83-1.59,3.69-3.14,5.55-4.69.84-.7,1.69-1.4,2.53-2.1.35-.29.69-.57,1.04-.86.11-.09.25-.18.34-.29.27-.3.52-.16-.18-.07l-1.06-.44c.35.28.73,1.59.98,2.13.42.9.86,1.79,1.29,2.68.38.78.76,1.56,1.13,2.35.12.27.25.53.36.81.07.19.15.78.13.25l.44-1.06-.32.28c-.7.62-.52,1.94.3,2.36,6.07,3.08,12.14,6.17,18.21,9.25,2.52,1.28,5.07,2.53,7.55,3.9,2.17,1.2,4.46,2.45,6.27,4.17,4.24,4.03,5.86,10.2,7.61,15.58,1.97,6.05,3.76,12.16,5.44,18.3s3.25,12.36,4.8,18.56c.72,2.87,1.16,5.6.51,8.54-.6,2.72-2.15,4.55-4.37,6.17-5.34,3.91-10.97,7.48-16.44,11.2-1.38.94-2.76,1.87-4.13,2.81-.23.16-.9.45-1.03.7.06-.12-.8.59.13.22-.02,0-.04,0-.05,0-.18.05-.46,0-.64,0h-65.23c-8,0-16.03-.21-24.02,0-.12,0-.24,0-.36,0-1.93,0-1.93,3,0,3h89.11c.32,0,.65.01.97,0,.88-.03,1.51-.56,2.23-1.05,5.79-3.93,11.57-7.86,17.36-11.8,2.33-1.58,4.91-3.09,6.78-5.23s2.65-4.69,2.94-7.45c.32-3.07-.35-5.9-1.09-8.85-.8-3.2-1.61-6.41-2.44-9.61-1.62-6.25-3.31-12.48-5.17-18.66s-3.48-12.14-6.11-17.79c-1.18-2.52-2.72-4.97-4.77-6.88-1.89-1.76-4.19-3.1-6.43-4.34-5.52-3.07-11.25-5.79-16.88-8.65-3.07-1.56-6.14-3.12-9.21-4.68l.3,2.36c1.07-.94.72-1.95.23-3.08-.61-1.42-1.31-2.79-1.98-4.18-.33-.69-.67-1.38-.99-2.08-.29-.63-.51-1.48-.94-2.02-1.16-1.47-2.59-.42-3.67.48-2.06,1.73-4.14,3.43-6.2,5.17-1.65,1.38-3.68,2.75-5.03,4.44-.6.75-.72,1.85-.97,2.75-.34,1.24-.73,2.43-1.23,3.62-.96,2.3-1.94,4.6-3,6.85h2.59c-1.62-3.52-2.95-7.12-4.2-10.78-.37-1.07-.6-2.1-1.43-2.9s-1.66-1.5-2.51-2.22c-2.31-1.98-4.66-3.91-7-5.86-.75-.62-1.48-1.34-2.29-1.9s-1.86-.57-2.55.18c-.52.56-.74,1.49-1.06,2.18-.8,1.75-1.68,3.46-2.49,5.2-.65,1.38-1.29,2.48-.64,3.97l.54-2.05c-8.61,4.38-17.4,8.51-25.84,13.21-3.47,1.93-6.66,4.05-8.98,7.34-2.47,3.51-3.84,7.69-5.18,11.72-3.02,9.06-5.62,18.25-8.03,27.5-1.22,4.68-2.6,9.37-3.56,14.11-.77,3.76-.5,8.49,1.76,11.74,1.28,1.83,3.04,3.2,4.86,4.47,2.31,1.61,4.65,3.17,6.98,4.75,4.82,3.28,9.64,6.55,14.47,9.83,1.6,1.09,3.1-1.51,1.51-2.59Z"/>
          </g>
          <path class="cls-3" d="m42.29,319.84c-3.83-2.6-7.65-5.19-11.48-7.79-2.98-2.02-7.12-4.04-8.83-7.39-1.83-3.59-1.09-7.69-.16-11.38,1.08-4.33,2.18-8.66,3.31-12.98,2.21-8.41,4.6-16.76,7.33-25.02,1.23-3.72,2.43-7.52,4.55-10.86,1.98-3.11,4.81-5.03,7.96-6.82,3.98-2.26,8.12-4.23,12.2-6.3,4.72-2.4,9.44-4.79,14.16-7.19,1.72-.88.2-3.46-1.51-2.59-8.33,4.24-16.79,8.29-25.01,12.75-3.22,1.74-6.52,3.64-8.85,6.52-2.55,3.15-4.07,6.92-5.38,10.71-3,8.7-5.56,17.55-7.92,26.44-1.18,4.45-2.31,8.91-3.43,13.38-1.04,4.16-1.91,8.09-.78,12.35,1.21,4.54,4.93,6.96,8.6,9.45,4.58,3.11,9.16,6.21,13.73,9.32,1.6,1.09,3.1-1.51,1.51-2.59h0Z"/>
          <path class="cls-3" d="m112.99,224.07c7.98,4.06,16.02,8.01,23.94,12.18,3,1.58,6.25,3.22,8.58,5.73,2.67,2.88,4.14,6.66,5.41,10.31,2.84,8.19,5.26,16.52,7.5,24.88,1.13,4.2,2.21,8.4,3.27,12.62,1,3.98,2.38,7.95,1.58,12.09-.41,2.1-1.25,3.78-2.83,5.24s-3.46,2.61-5.24,3.82c-4.37,2.97-8.75,5.94-13.12,8.91-1.59,1.08-.09,3.68,1.51,2.59,4.1-2.78,8.2-5.57,12.3-8.35,3.18-2.16,7.09-4.26,9.01-7.75s2-7.81,1.14-11.5c-1.05-4.54-2.26-9.04-3.44-13.55-2.32-8.93-4.83-17.81-7.72-26.58-1.29-3.9-2.56-7.93-4.72-11.46-2.02-3.3-4.77-5.59-8.06-7.55-4.11-2.45-8.47-4.5-12.74-6.67-4.96-2.52-9.91-5.03-14.87-7.55-1.72-.87-3.24,1.71-1.51,2.59h0Z"/>
          <path class="cls-3" d="m93.44,235.69c-1.16-2.52-2.33-5.11-3.18-7.75-.4-1.22-.82-2.43-1.23-3.64-.26-.77-.44-1.49-1.02-2.09-2.77-2.89-6.14-5.32-9.21-7.87-1.1-.91-3.1-3.25-4.65-2.6-1.1.46-1.44,2-1.91,3.01-.53,1.14-1.09,2.27-1.64,3.4-.61,1.27-2.05,3.3-1.59,4.78.53,1.75,1.82,3.46,2.77,5,.84,1.36,1.7,2.7,2.6,4.02.77,1.13,1.57,2.6,2.63,3.48.68.56,1.64.68,2.43.25.82-.46,1.16-1.45,1.57-2.25.9-1.75,1.81-3.5,2.73-5.24s-1.69-3.22-2.59-1.51-1.71,3.26-2.55,4.9c-.11.22-.8,1.22-.73,1.43,1.03.39,1.33.37.91-.07l-.1-.14c-.33-.6-.84-1.14-1.23-1.7-1.64-2.34-3.17-4.77-4.58-7.26-.23-.41-.47-.82-.68-1.24-.08-.15-.15-.31-.23-.46-.16-.31,0-.1-.02-.03.07-.34-.26.74,0,.46.07-.08.11-.33.15-.43.14-.38.33-.76.51-1.15.56-1.19,1.15-2.38,1.72-3.56.28-.59.56-1.17.83-1.77.19-.41.48-1.32.68-1.48l-1.06.44c-.69-.09-.48-.25-.21.05.12.13.29.25.43.36.38.32.76.63,1.14.95.93.77,1.87,1.55,2.8,2.32,1.97,1.64,3.94,3.27,5.86,4.97.32.28.64.57.94.86.09.09.18.2.28.27.46.34-.49-.14-.15-.3-.08.04,1.18,3.51,1.26,3.74,1.06,3.18,2.38,6.31,3.78,9.36.81,1.75,3.39.23,2.59-1.51h0Z"/>
          <path class="cls-3" d="m93.44,237.21c1.59-3.36,3.31-6.87,4.33-10.45.21-.74.59-1.6.64-2.36.11-.31.09-.32-.08-.04-.16.22-.19.27-.09.15.09-.04.21-.22.28-.29.57-.57,1.19-1.09,1.8-1.62,1.81-1.57,3.65-3.1,5.49-4.64.85-.71,1.7-1.41,2.55-2.12.33-.27.65-.54.98-.81.14-.12.31-.23.43-.36.27-.3.48-.14-.21-.05l-1.06-.44c.19.15.45.97.63,1.37.26.59.54,1.17.82,1.75.57,1.2,1.17,2.38,1.73,3.58.19.4.39.81.54,1.19.18.47.35.95.19.01.01.07.15-.29-.03.06-.07.13-.13.26-.19.38-.23.44-.48.88-.72,1.31-1.39,2.44-2.89,4.82-4.49,7.13-.4.58-.81,1.15-1.24,1.72-.06.08-.13.17-.19.25-.42.44-.12.46.91.07.06-.19-.54-1.05-.64-1.26-.87-1.69-1.75-3.38-2.64-5.07s-3.49-.19-2.59,1.51c.77,1.46,1.54,2.92,2.29,4.39.67,1.3,1.24,3.35,3,3.37,1.42.02,2.16-1.32,2.9-2.34.78-1.07,1.52-2.16,2.24-3.26,1.27-1.95,2.52-3.94,3.62-6,.26-.47.58-1,.71-1.53.19-.81-.22-1.6-.53-2.31-.9-2.07-1.97-4.06-2.91-6.11-.47-1.02-.8-2.58-2.12-2.74-1.02-.13-1.71.56-2.43,1.16-3.08,2.58-6.2,5.1-9.22,7.74-.61.53-1.24,1.05-1.8,1.63-.8.83-.94,1.94-1.23,3.02-.98,3.62-2.63,7.1-4.23,10.49-.82,1.74,1.76,3.26,2.59,1.51h0Z"/>
          <path class="cls-3" d="m90.64,236.45c0,6.83.03,13.67.07,20.5.01,1.93,3.01,1.93,3,0-.04-6.83-.07-13.67-.07-20.5,0-1.93-3-1.93-3,0h0Z"/>
        </g>
      </g>
      <g class="cls-15">
        <g>
          <path class="cls-2" d="m288.74,152.96c-5.21,5.39-10.89,10.48-16.57,15.57-1.04.93-2.09,1.87-3.13,2.8-.06.06-.12.11-.19.17l-2.4.73c-.9-.87-2.12-1.2-3.17-1.16-2.27.08-3.24,1.31-3.65,2.03-1.24,2.15-1.19,6.12-.36,8.57.59,1.74,1.56,4.39,3.88,6.3,1.03.84,2.59,1.38,4.03,1.01,1.05,3.58,2.96,7.91,6.32,11.92,2.76,3.3,5.66,5.7,8.92,7.13-.1,1.11-.25,2.17-.45,3.31-.34,1.9-.25,3.59-2.65,4.61.32,1.58.7,3.41,1.15,5.36,4.43,2.12,9.56,2.92,13.87,2.92,4.92,0,10.29-.85,14.2-2.77.23-1.01.44-1.98.64-2.91-.35-.43-.68-.89-1.01-1.38-1.63-2.48-2.55-6.07-2-8.95,7.29-2.86,13.21-13,14.23-15.75.19-.39.45-1.02.7-1.75-.1-.88-.11-1.47-.11-1.47.62-9.23-.29-18-5.71-25.81-4.96-7.13-13-12.12-21.91-10.97l-4.63.5Z"/>
          <path class="cls-12" d="m269.97,221.85c.84-.29,1.65-.72,2.45-1.08,1.3-.59,2.59-1.19,3.88-1.79,1.02-.47,2.03-.94,3.05-1.41.11-.05.21-.09.32-.14.07-.03.22-.1-.1.04-.41.18.02,0,.13-.04.21-.09.43-.17.63-.27.92-.44,1.76-1.16,2.24-2.06s.62-1.8.77-2.75c.22-1.43.47-2.85.6-4.3.07-.81-.74-1.5-1.5-1.5-.87,0-1.43.69-1.5,1.5-.1,1.13-.29,2.24-.47,3.35-.11.71-.19,1.44-.45,2.11-.08.22.1-.2-.01,0-.04.08-.09.16-.13.23-.16.27.02.03-.15.19-.23.24-.48.42-.92.62-.31.14-.63.26-.94.4-2.16.99-4.32,2-6.48,3-.56.26-1.12.51-1.69.77-.18.08-.36.16-.54.24-.39.17.33-.12,0,0-.76.27-1.27,1.03-1.05,1.85.2.74,1.08,1.32,1.85,1.05h0Z"/>
          <path class="cls-2" d="m300.01,249.32c2.09-5.73,4.21-12.09,6.12-18.51.92-3.08,1.74-6.35,2.43-9.35-3.9,1.91-9.27,2.77-14.2,2.77-4.32,0-9.43-.8-13.88-2.9.69,3.03,1.52,6.36,2.45,9.48,3.26,10.96,7.14,21.73,10.4,29.5.45,1.07,1.95,1.07,2.4,0,1.35-3.22,2.81-6.95,4.28-10.99Z"/>
          <path class="cls-2" d="m328.4,321.51c4.85,13.92,4.11,29.08,3.27,43.8-2.49,43.77-4.4,97.86-7.71,141.68-.03.42-.31.77-.72.89-9.08,2.71-20.04,2.77-28.86.11-8.82,2.66-19.77,2.61-28.84-.11-.4-.12-.69-.48-.72-.9-3.11-45.81-6.14-95.97-7.71-141.68-.51-14.73-1.57-29.88,3.27-43.8l6.19-8.04h58.28l3.54,8.04Z"/>
          <path class="cls-12" d="m258.94,321.11c-4.52,13.17-3.96,27.26-3.45,40.97.53,14.16,1.08,28.32,1.77,42.48,1.41,28.88,3.21,57.75,5.13,86.6.26,3.97.53,7.94.8,11.91.12,1.77.01,3.53,1.95,4.25,1.6.59,3.38.9,5.05,1.2,7.34,1.34,14.97,1.24,22.24-.46,1.88-.44,1.08-3.33-.8-2.89-6.23,1.45-12.8,1.68-19.12.72-1.51-.23-3.01-.52-4.5-.89-.37-.09-1.43-.21-1.71-.49-.14-.15-.08-1.2-.1-1.42-.03-.47-.06-.95-.1-1.42-.24-3.5-.47-6.99-.7-10.49-.92-13.83-1.81-27.66-2.65-41.49-1.68-27.79-3.13-55.59-4.1-83.41-.52-14.8-1.71-30.09,3.19-44.35.63-1.83-2.27-2.62-2.89-.8h0Z"/>
          <path class="cls-12" d="m326.95,321.9c4.59,13.36,4.1,27.65,3.32,41.56-.74,13.33-1.44,26.67-2.1,40.01-1.35,27.48-2.62,54.96-4.39,82.42-.24,3.68-.48,7.36-.74,11.04-.13,1.84-.26,3.68-.4,5.52-.03.43.03,1.84-.21,2.09-.17.18-.99.27-1.24.34-.49.13-.98.24-1.47.35-7.37,1.65-15.22,1.65-22.57-.07-1.88-.44-2.68,2.45-.8,2.89,6.79,1.58,13.84,1.76,20.72.72,1.65-.25,3.3-.58,4.92-1,1.48-.38,3.03-.69,3.41-2.4.33-1.46.26-3.11.37-4.61.13-1.85.27-3.7.39-5.54.96-13.93,1.77-27.87,2.51-41.81,1.5-28.1,2.72-56.22,4.28-84.32.89-16,2.19-32.55-3.11-47.98-.62-1.82-3.52-1.04-2.89.8h0Z"/>
          <path class="cls-9" d="m255.51,223.27c3.92-2.04,8.03-3.56,15.22-5.82,3.04-3.33,6.61-6.54,7.65-6.54.35,2.01,2.1,11.66,4.55,19.89,3.26,10.96,7.14,21.73,10.4,29.5.45,1.07,1.95,1.07,2.4,0,3.26-7.77,7.14-18.54,10.4-29.5,2.45-8.23,4.21-17.88,4.55-19.89,1.08,0,4.85,3.43,7.96,6.88,5.08,1.49,10.05,3.3,14.54,5.95,2.52,1.48,4.61,2.93,6.58,5.15,1.87,2.09,3.45,4.46,4.75,6.95,3.97,7.61,5.04,16.14,5.99,24.6.93,8.32,1.12,16.73.72,25.09-.31,6.52-1.1,10.66-3.87,15.69-2.21,4.01-8.61,7.8-14.34,8.57.18,2.53.35,4.9.54,6.85.83,8.08,1.45,14.77,1.92,21.05.04.59-.39,1.11-.97,1.16-5.96.46-17.01,1.15-22.8.19-4.04-.68-6.8-1.45-9.37-3.64-2.62-2.26-4.4-4.74-5.4-8.02-.37-1.24-1.21-5.07-1.78-8.74-.06-.35-.34-.68-.63-.66-.28-.02-.56.3-.63.66-.58,3.67-1.41,7.5-1.79,8.74-1,3.28-2.77,5.76-5.39,8.02-2.57,2.19-5.33,2.96-9.37,3.64-5.79.96-16.84.27-22.8-.19-.58-.05-1.01-.56-.97-1.16.46-6.28,1.09-12.98,1.91-21.05.12-1.32.25-2.84.37-4.47-4.34-.28-10.38-1.53-13.53-4.81-3.66-3.81-5.51-8.55-6.09-12.45-1.2-8.12-.99-14.94-.72-20.35.69-13.5,2.87-22.71,6.61-36.36,2.19-5.46,4.69-9.27,8.84-12.17,1.49-1.04,2.96-1.94,4.52-2.75Z"/>
          <path class="cls-12" d="m331.51,309.55c.43,6.18,1.1,12.33,1.67,18.5.26,2.83.5,5.65.72,8.48.01.16-.01.6.06.77l.03.39c.37-.3.37-.39-.01-.3-.4-.1-1.08.08-1.48.11-1.11.08-2.22.15-3.33.21-4.98.29-10.03.53-15.01.11-2.34-.19-4.72-.61-6.95-1.37-2.34-.8-4.24-2.3-5.85-4.14s-2.61-3.88-3.18-6.15c-.29-1.14-.53-2.29-.76-3.45-.3-1.51-.4-3.18-.87-4.64-.36-1.13-1.51-1.89-2.68-1.45-1.58.58-1.54,2.52-1.79,3.91-.42,2.34-.81,4.75-1.59,7.01-1.64,4.81-5.66,8.28-10.54,9.46s-9.52,1.1-14.3.96c-2.76-.08-5.52-.23-8.27-.41-.56-.04-1.13-.08-1.69-.12-.23-.02-.63-.12-.85-.06.21.4.3.44.28.13.01-.19.03-.39.04-.58.11-1.51.24-3.02.36-4.53.58-6.83,1.36-13.65,1.88-20.48.15-1.93-2.85-1.92-3,0-.49,6.5-1.23,12.98-1.79,19.47-.13,1.46-.25,2.92-.36,4.38-.1,1.29-.43,2.73.54,3.78.8.87,1.95.83,3.05.91,1.24.09,2.49.17,3.73.25,5.25.31,10.58.59,15.82.1s10.1-1.83,13.82-5.66c3.97-4.08,4.99-9.3,5.93-14.71.04-.26.33-1.15.23-1.38h-1.64c.04.23.07.46.11.69.14.83.28,1.66.44,2.49.26,1.4.55,2.8.88,4.18.57,2.42,1.54,4.71,3.03,6.72,1.58,2.13,3.61,4.08,5.99,5.28s5.05,1.78,7.68,2.16c5.05.73,10.25.5,15.33.25,1.45-.07,2.91-.16,4.36-.26,1.16-.08,2.59.03,3.7-.35,1.67-.58,1.77-2.18,1.66-3.68-.13-1.65-.26-3.31-.4-4.96-.63-7.34-1.47-14.67-1.98-22.02-.13-1.92-3.13-1.93-3,0h0Z"/>
          <path class="cls-12" d="m330.49,295.32c1.93,0,1.93-3,0-3s-1.93,3,0,3h0Z"/>
          <path class="cls-12" d="m270.32,216.02c-7.08,2.24-14.31,4.52-20.39,8.92-3.2,2.32-5.66,5.36-7.45,8.87-2.18,4.26-3.17,8.99-4.26,13.63-2.12,9.02-3.33,18.15-3.81,27.4-.22,4.22-.48,8.44-.32,12.67s.45,9.15,2.13,13.26c1.78,4.36,4.96,7.84,9.37,9.53,4.03,1.55,8.85,2.17,13.15,1.87,1.92-.13,1.93-3.13,0-3-3.65.25-7.52-.23-11.02-1.3-3.77-1.16-6.43-3.57-8.23-7.09s-2.13-7.97-2.35-11.94-.06-8.21.17-12.32c.47-8.56,1.31-16.99,3.14-25.38,1.73-7.95,3.25-16.86,9.65-22.53,5.8-5.14,13.81-7.42,21.02-9.7,1.83-.58,1.05-3.48-.8-2.89h0Z"/>
          <path class="cls-12" d="m318.23,219.22c5.05,1.46,10.01,3.25,14.55,5.94s7.55,6.06,10.02,10.46,3.94,9.58,4.87,14.67,1.54,10.67,1.91,16.02c.39,5.68.44,11.39.22,17.08-.17,4.44-.51,8.9-2.18,13.06-.75,1.85-1.66,3.72-3.06,5.17-1.54,1.59-3.41,2.8-5.38,3.78-4.5,2.23-9.52,2.43-14.45,2.59-5.8.19-11.61-.12-17.4-.44-6.11-.33-12.24-.75-18.3-1.58-.81-.11-1.6.2-1.85,1.05-.2.7.25,1.74,1.05,1.85,5.72.78,11.48,1.24,17.24,1.58s11.07.65,16.61.6c5.23-.04,10.91-.03,15.87-1.87,4.13-1.53,8.46-4.11,10.72-8.03s3.44-8.5,3.86-13.11c.54-5.9.52-11.9.27-17.82s-.84-11.51-1.66-17.22c-.78-5.38-1.96-10.7-4.16-15.7-2.38-5.42-6-10.38-10.98-13.66s-11.05-5.59-16.97-7.31c-1.86-.54-2.65,2.36-.8,2.89h0Z"/>
          <path class="cls-12" d="m285.82,258.86c-4.5-6.82-9.07-13.59-13.61-20.38-.62-.93-1.25-1.87-1.86-2.81-.18-.27-.35-.56-.53-.83-.39-.56-.07-.11-.13.48-.1.94.22.12.52-.25.42-.52.86-1.02,1.3-1.53.78-.89,1.56-1.81,2.44-2.61.57-.53.59-1.6,0-2.12-1.85-1.66-3.74-3.27-5.57-4.95-.3-.27-.61-.69-.95-.91-.05-.05-.1-.11-.16-.17.33.36.41.82.23,1.38.09-.04.15-.33.22-.43.57-.84,1.09-1.7,1.72-2.5,1.64-2.06,3.45-4,5.36-5.82.79-.76,1.6-1.52,2.47-2.19.3-.23.61-.44.92-.64.13-.08.29-.13.4-.22-.22.17.2.03-.24.05l-1.45-1.1c2.63,15.16,7.28,29.88,12.86,44.2.63,1.63,1.28,3.25,1.96,4.85.55,1.32,1.47,2.34,3.03,2.21,1.78-.14,2.31-1.64,2.9-3.07.65-1.58,1.28-3.17,1.9-4.77,2.98-7.73,5.65-15.6,8.01-23.54,1.93-6.51,3.4-13.2,4.55-19.89l-1.45,1.1c-.43-.03-.01.12-.24-.05.1.08.24.11.34.18.33.22.66.43.98.67.84.65,1.62,1.38,2.38,2.1,1.94,1.85,3.79,3.82,5.46,5.91.61.77,1.2,1.57,1.68,2.42.06.12.16.44.26.51-.18-.56-.1-1.02.23-1.38-.04.04-.07.08-.11.12-.33.22-.62.61-.91.88-1.85,1.72-3.77,3.35-5.65,5.03-.59.53-.57,1.59,0,2.12.84.77,1.59,1.65,2.34,2.51.47.54.94,1.08,1.4,1.63.12.15.4.68.58.76-.22-.48-.21-.93.02-1.35-.01.03-.03.06-.05.08-.07.07-.11.19-.16.26-.17.25-.32.51-.49.76-.63.96-1.27,1.92-1.9,2.87-4.54,6.79-9.11,13.56-13.61,20.38-1.07,1.62,1.53,3.12,2.59,1.51,3.93-5.96,7.91-11.88,11.88-17.8,1.22-1.82,2.44-3.63,3.63-5.46.67-1.03,1.28-1.89.47-3.08-1.26-1.86-2.94-3.7-4.58-5.21v2.12c1.7-1.52,3.42-3,5.11-4.53.55-.5,1.15-.98,1.62-1.56.69-.86.49-1.63,0-2.55-.96-1.81-2.38-3.43-3.73-4.97-1.54-1.76-3.18-3.45-4.92-5.02-1.24-1.11-2.85-2.78-4.63-2.89-.6-.04-1.34.49-1.45,1.1-2.22,12.85-5.95,25.3-10.37,37.55-1.18,3.28-2.42,6.55-3.74,9.78-.17.42-.71,1.28-.71,1.73,0,.36.05-.22.27.12-.15-.23-.23-.54-.34-.8-.65-1.58-1.28-3.16-1.9-4.75-2.72-7.03-5.16-14.18-7.37-21.39s-3.96-14.73-5.26-22.23c-.11-.61-.84-1.14-1.45-1.1-1.54.1-2.89,1.39-3.99,2.33-1.74,1.49-3.35,3.13-4.89,4.83s-2.94,3.31-4.08,5.17c-.45.74-1.03,1.64-.68,2.52.25.62.88,1.11,1.36,1.56,1.87,1.75,3.83,3.4,5.74,5.11v-2.12c-1.48,1.37-2.83,2.98-4.08,4.56-.51.65-1.13,1.32-.9,2.23.1.39.38.76.59,1.09,2.77,4.33,5.71,8.56,8.57,12.83,2.42,3.61,4.83,7.23,7.22,10.86,1.06,1.6,3.66.1,2.59-1.51h0Z"/>
          <path class="cls-5" d="m308.84,270.77c1.34,6.69,2.54,15.32,3.61,22.06"/>
          <path class="cls-12" d="m306.14,207.87c.12,1.34.32,2.68.54,4.01.12.71.18,1.44.4,2.14.26.83.7,1.63,1.35,2.22.37.33.78.62,1.21.84.28.14.57.26.87.38.61.23-.32-.17-.1-.05,1.91,1,3.92,1.85,5.87,2.77.89.42,1.78.86,2.69,1.24.75.31,1.65-.34,1.85-1.05.24-.87-.3-1.53-1.05-1.85.76.32-.09-.06-.27-.14-.42-.2-.84-.39-1.25-.59-1.13-.53-2.26-1.07-3.39-1.6-.87-.41-1.75-.83-2.62-1.24-.29-.14-.64-.27-.91-.39-.18-.08-.36-.18-.53-.28-.03-.02-.29-.2-.17-.1.11.08-.07-.06-.08-.07-.05-.05-.4-.44-.22-.19-.11-.15-.2-.32-.29-.49-.08-.15.02.05.03.07-.04-.12-.08-.23-.12-.35-.05-.16-.09-.33-.12-.49-.08-.39-.13-.78-.19-1.18-.18-1.21-.38-2.4-.49-3.62-.07-.81-.64-1.5-1.5-1.5-.75,0-1.57.69-1.5,1.5h0Z"/>
          <path class="cls-12" d="m279.72,222.61c4.63,2.16,9.74,3.14,14.84,3.12,2.57-.01,5.15-.25,7.68-.72,1.23-.23,2.45-.52,3.64-.9.57-.18,1.13-.38,1.68-.6.24-.1.48-.2.72-.3.33-.14,1.1-.27.29-.27,1.93,0,1.93-3,0-3-.88,0-1.89.72-2.72,1.02-1.1.39-2.22.69-3.36.94-2.39.52-4.83.77-7.28.82-4.76.09-9.63-.68-13.97-2.7-1.74-.81-3.26,1.77-1.51,2.59h0Z"/>
          <path class="cls-12" d="m289.23,195.96c1.73.91,3.58,1.3,5.53,1.28s4-.41,5.6-1.66c.62-.48.55-1.62,0-2.12-.66-.61-1.46-.52-2.12,0,.46-.36.12-.09,0-.02-.11.07-.22.14-.34.2-.06.03-.12.06-.18.09-.16.08-.15-.02.07-.03-.13,0-.34.13-.47.17-.43.14-.87.23-1.31.3.23-.03,0,0-.11,0-.13.01-.26.02-.39.03-.31.02-.62.03-.93.03-.28,0-.56-.01-.84-.03-.13,0-.26-.02-.38-.03-.03,0-.49-.08-.17-.02-.41-.07-.82-.15-1.23-.27-.17-.05-.34-.11-.51-.17-.38-.13.24.12-.1-.04-.21-.1-.42-.2-.62-.31-.69-.37-1.66-.2-2.05.54-.37.69-.2,1.66.54,2.05h0Z"/>
          <path class="cls-12" d="m293.97,182.96c.24.91.47,1.84.61,2.78l-.05-.4c.02.13.02.25.01.38l.05-.4c0,.06-.02.12-.04.17l.15-.36s-.04.07-.06.11l.23-.3s-.06.06-.09.09l.3-.23c-.07.05-.14.08-.22.12l.36-.15c-.12.05-.24.09-.37.11l.4-.05c-.12.01-.23.01-.35,0l.4.05c-.13-.02-.26-.05-.39-.07-.2-.06-.4-.07-.6-.03-.2,0-.39.07-.56.18-.31.18-.61.54-.69.9-.09.38-.07.81.15,1.16.2.3.52.64.9.69.31.04.6.12.91.13.48.02.93-.13,1.35-.32.53-.24.95-.73,1.09-1.3.12-.48.07-.9-.01-1.39-.15-.89-.36-1.78-.59-2.66-.09-.36-.37-.71-.69-.9s-.8-.27-1.16-.15c-.78.25-1.26,1.03-1.05,1.85h0Z"/>
          <path class="cls-12" d="m279.35,175.07c-.46,1.51-.16,4.98,2.69,5.27,3.77-.02,3.98-4.22,2.71-6.19-1.04-1.61-4.1-2.29-5.4.92Z"/>
          <path class="cls-12" d="m309.58,175.07c.46,1.51.16,4.98-2.69,5.27-3.77-.02-3.98-4.22-2.71-6.19,1.04-1.61,4.1-2.29,5.4.92Z"/>
          <path class="cls-13" d="m268.85,171.64l-2.43.56c-.9-.85-2.1-1.16-3.13-1.13-1.7.06-2.66.76-3.22,1.41-4.51-15.95.52-28.3,7.96-35.43,4.46-4.27,14.51-10.09,25.81-10.09,6.38,0,11.01,1.07,15.35,2.73,7.86,4.12,7.7,4.05,11.3,7.52,5.65,5.45,9.57,15.25,10.2,24.03.18,2.53.16,9.11-.24,13.67,0,5.16,2.62,11.87,3.95,14.93,3.92,9,2.66,19.35-4,26.68-2.1,2.31-4.78,4.54-5.12,7.62-.17,1.46.26,2.98,1.16,4.15-4.22-.52-9.71-2.53-12.64-5.21-2.18-1.99-4-3.46-5.61-5.91-1.63-2.48-2.55-6.06-2-8.95,7.29-2.86,13.22-13,14.23-15.75l.68-1.86c-.09-.82-.1-1.36-.1-1.36.62-9.23-.29-18-5.71-25.81-4.96-7.13-13-12.12-21.91-10.97l-4.63.5c-5.21,5.39-10.89,10.48-16.57,15.57-1.04.93-2.09,1.87-3.13,2.8-.06.06-.12.11-.19.17"/>
          <path class="cls-5" d="m322.48,172.23c.9-.87,2.12-1.2,3.17-1.16,2.27.08,3.24,1.31,3.65,2.03,1.24,2.15,1.19,6.12.36,8.57-.59,1.74-1.56,4.39-3.88,6.3-.96.79-2.37,1.3-3.72,1.07"/>
          <path class="cls-5" d="m275.74,133.07c5.16-3.37,11.16-5.49,18.69-5.49,7.9,0,14.61,2.38,19.98,6.38,6.23,4.64,13.29,12.9,13.86,26.26.13,3.19-.27,6.86-1.24,10.57"/>
          <path class="cls-5" d="m261.81,170.78c-.97-3.91-1.37-6.92-1.22-10.57.48-11.27,5.37-18.9,10.8-23.8"/>
          <path class="cls-12" d="m267.51,171.17c-1.86-1.66-4.5-2.05-6.78-1.02-1.67.76-2.67,2.31-3.14,4.03-1.11,4.09-.05,8.85,2.29,12.34,1.57,2.33,4.01,4.41,7,4.02.8-.1,1.5-.61,1.5-1.5,0-.73-.69-1.6-1.5-1.5-4.07.53-6.38-5.39-6.66-8.66-.15-1.72-.15-3.87.9-5.34-.15.21.14-.16.15-.17.05-.05.21-.21.24-.23.31-.24.67-.39,1.05-.48.99-.23,2.05-.06,2.82.63,1.44,1.28,3.57-.83,2.12-2.12h0Z"/>
          <path class="cls-12" d="m265.19,187.22c2.39,10.46,10.22,21.87,21.54,23.57.81.12,1.6-.2,1.85-1.05.2-.71-.25-1.72-1.05-1.85-10.34-1.56-17.26-11.93-19.44-21.48-.43-1.88-3.32-1.09-2.89.8h0Z"/>
          <path class="cls-12" d="m304.88,210.18c3.76-.87,6.96-3.41,9.56-6.17,2.41-2.56,4.52-5.48,6.2-8.57.3-.54.58-1.09.83-1.66.1-.24.31-.75.34-.79.17-.4.54-1.28.74-1.86.65-1.82-2.25-2.61-2.89-.8-.22.62-.49,1.2-.72,1.81-.15.39.09-.19-.03.08-.05.1-.09.2-.14.3-.3.65-.64,1.28-.99,1.9-.97,1.72-2.07,3.38-3.29,4.94-2.64,3.39-6.07,6.92-10.4,7.93-1.88.44-1.08,3.33.8,2.89h0Z"/>
          <path class="cls-12" d="m314.51,134.27c5.83,3.49,9.86,9.54,12.17,15.81,1.25,3.4,2.13,6.97,2.45,10.58.26,2.98.19,6,.1,8.98-.05,1.7-.19,3.4-.27,5.1s.21,3.4.54,5.03c.64,3.19,1.71,6.29,2.95,9.29s2.39,6.21,2.61,9.62-.28,6.84-1.52,10.04c-.72,1.85-1.73,3.62-2.92,5.2s-2.61,2.87-3.89,4.33c-2.68,3.07-4.19,7.14-1.58,10.79l1.3-2.26c-4.65-.62-9.06-2.5-12.54-5.64-3.56-3.21-7.1-7.23-6.29-12.43.29-1.89-2.6-2.7-2.89-.8-.45,2.87.05,5.72,1.26,8.35s3.34,4.78,5.49,6.73,4.23,3.44,6.86,4.57,5.3,1.85,8.11,2.22c1.1.15,1.91-1.39,1.3-2.26-2.47-3.46.45-6.51,2.81-8.98,2.48-2.61,4.48-5.49,5.81-8.85,2.67-6.73,2.09-14.15-.71-20.72-1.22-2.86-2.28-5.82-2.99-8.85-.4-1.69-.76-3.47-.7-5.21s.23-3.38.28-5.07c.21-6.77-.12-13.33-2.37-19.79-2.54-7.31-7.06-14.33-13.83-18.37-1.66-.99-3.17,1.6-1.51,2.59h0Z"/>
          <path class="cls-12" d="m310.62,128.66c-11.46-4.6-24.2-4.14-35.21,1.5-4.12,2.11-7.93,4.87-10.88,8.46-3.23,3.93-5.53,8.57-6.7,13.53-1.59,6.76-1.11,13.78.7,20.44.51,1.86,3.4,1.07,2.89-.8-2.78-10.26-1.95-21.41,4.52-30.14,5.71-7.7,15.87-12.35,25.27-13.08,6.38-.5,12.7.61,18.61,2.98,1.79.72,2.57-2.18.8-2.89h0Z"/>
          <path class="cls-12" d="m287.68,151.9c-6.31,6.51-13.14,12.49-19.89,18.54-1.44,1.29.69,3.41,2.12,2.12,6.75-6.05,13.58-12.03,19.89-18.54,1.34-1.39-.77-3.51-2.12-2.12h0Z"/>
          <path class="cls-12" d="m293.37,153.97c8.81-1.06,16.72,4.05,21.34,11.31,2.52,3.97,4.01,8.48,4.6,13.14.29,2.26.37,4.54.34,6.81-.02,1.51-.24,3.05-.13,4.55.22,3.18.8,7.07,3.22,9.37,1.4,1.33,3.52-.79,2.12-2.12-1.84-1.75-2.29-5.11-2.36-7.54-.06-1.9.18-3.82.15-5.73-.03-2.33-.21-4.65-.57-6.96-1.4-9.1-6.4-17.79-14.4-22.62-4.29-2.59-9.32-3.82-14.32-3.22-1.89.23-1.92,3.23,0,3h0Z"/>
          <path class="cls-2" d="m263.22,188.06c2.32,0,3.93,1.63,3.93,3.55,0,2.14-1.64,3.61-3.93,3.61s-3.93-1.49-3.93-3.61c0-1.93,1.61-3.55,3.93-3.55Z"/>
          <path class="cls-12" d="m263.22,189.56c.12,0,.24,0,.35.01.28,0-.01-.02-.06-.02.18,0,.37.07.54.12.1.03.2.07.31.1.28.09-.06-.03-.07-.03.11-.02.44.24.53.3l.08.06c.11.08.11.08,0,0-.1-.17.01.02.07.07.02.02.35.33.33.36-.01.02-.19-.3-.04-.03.04.07.09.13.13.2s.07.15.11.21c.05.1.03.06-.06-.14.02.06.04.12.06.18.02.07.08.45.12.47-.02,0-.03-.39-.02-.11,0,.1.01.2.01.29,0,.07,0,.14,0,.21v.1c-.02.17-.02.14.01-.09.03,0-.11.49-.13.53,0,.03-.09.22-.08.23-.06-.06.16-.31.01-.06-.08.13-.18.27-.25.4-.09.17.25-.27.03-.05-.04.04-.08.09-.13.14-.07.07-.14.13-.21.19-.23.22.28-.17,0,0-.14.09-.27.17-.42.25l-.09.04c-.15.07-.12.06.08-.03,0,.01-.2.07-.19.07-.16.05-.33.1-.5.13l-.1.02c-.17.03-.14.02.08,0-.08.04-.25.02-.33.03-.19,0-.38,0-.57,0-.03,0-.19,0-.22-.02l.18.03c-.07-.01-.14-.02-.21-.04-.17-.03-.34-.08-.5-.13.01,0-.19-.06-.19-.07.2.09.23.1.09.04-.06-.03-.12-.06-.17-.09-.06-.03-.38-.26-.4-.25.02,0,.28.25.08.06-.07-.06-.14-.12-.2-.19-.04-.04-.08-.09-.13-.13-.22-.22.13.23.04.05-.08-.15-.19-.28-.26-.43-.15-.3.04-.04,0,.02,0,0-.05-.15-.06-.18-.05-.15-.08-.31-.11-.47-.07-.34,0,.35,0,0,0-.07,0-.14,0-.2,0-.1,0-.2,0-.3,0-.05,0-.1.01-.15.01-.12,0-.07-.02.16.03-.01.13-.51.15-.56.08-.27-.02.1-.04.09,0,0,.16-.31.18-.34.03-.05.07-.11.1-.16.15-.24-.23.22.03-.04.04-.04.33-.4.39-.37l-.15.11c.05-.04.11-.08.16-.12.08-.06.17-.11.26-.16.07-.04.16-.07.23-.12.1-.05.06-.03-.12.05.07-.03.13-.05.2-.07.21-.07.42-.12.63-.16.14-.03.13-.09-.06,0,.11-.06.35-.02.47-.02.78,0,1.54-.68,1.5-1.5s-.66-1.51-1.5-1.5c-2.3.03-4.38,1.3-5.18,3.5-.74,2.06.11,4.38,1.81,5.65s4.25,1.28,6.11.36c2.01-.99,2.95-3.25,2.58-5.4-.43-2.54-2.9-4.08-5.33-4.11-.78,0-1.54.7-1.5,1.5s.66,1.49,1.5,1.5Z"/>
        </g>
      </g>
      <rect class="cls-1" x="51.56" y="257.39" width="78.93" height="78.93" rx="7.71" ry="7.71"/>
      <g>
        <path class="cls-2" d="m249.48,279.68c0,15.63-.01,35.89-.02,51.64,0,2.88,2.33,5.21,5.21,5.21,18.11,0,56.68.02,75.61.03,2.88,0,5.21-2.33,5.21-5.21,0-15.75,0-36,.02-51.64,0-2.88-2.33-5.21-5.21-5.21-15.88,0-57.92-.02-75.62-.03-2.88,0-5.21,2.33-5.21,5.21Z"/>
        <path class="cls-12" d="m247.7,279.81c0,11.86,0,23.71-.01,35.57,0,2.99,0,5.98,0,8.96,0,1.36,0,2.72,0,4.08s-.11,2.79.14,4.14c.46,2.47,2.24,4.48,4.57,5.36,1.85.71,4.02.45,5.97.45,18.83,0,37.66.01,56.5.02,4.23,0,8.46,0,12.68,0,2.1,0,4.18.14,6.09-.93,2.28-1.27,3.56-3.69,3.65-6.26.2-5.69,0-11.42,0-17.12,0-6.17,0-12.35,0-18.52,0-2.84,0-5.68,0-8.52s.32-5.71-.11-8.43c-.41-2.54-2.21-4.62-4.59-5.53-1.65-.63-3.51-.45-5.24-.45-7.99,0-15.98,0-23.97,0-9.52,0-19.03,0-28.55,0-4.14,0-8.27,0-12.41,0-1.77,0-3.55,0-5.32,0-2.1,0-4.17-.08-6.02,1.09-2.12,1.34-3.3,3.61-3.38,6.09s3.92,2.57,4,0c.13-4.05,5.08-3.18,7.83-3.18,3.71,0,7.42,0,11.13,0,8.84,0,17.68,0,26.53,0,8.27,0,16.53,0,24.8,0,1.6,0,3.2,0,4.8,0,1.33,0,3-.26,4.28.15,2.17.69,2.23,2.67,2.23,4.6,0,2.65,0,5.31,0,7.96,0,11.32,0,22.65-.01,33.97,0,2.62.12,5.27,0,7.89-.09,1.87-1.45,3.14-3.31,3.18-3.68.08-7.37,0-11.06,0-18.2,0-36.4-.01-54.59-.02-1.81,0-3.62,0-5.43,0-1.56,0-3.66.36-5.13-.19-2.06-.77-2.08-2.69-2.07-4.56,0-2.74,0-5.48,0-8.22,0-11.32,0-22.64.01-33.96,0-2.54,0-5.09,0-7.63s-4-2.58-4,0Z"/>
        <path class="cls-12" d="m256.47,286.35c8.86,7.84,17.87,15.52,27.04,23.01,1.02.83,2.04,1.66,3.07,2.49,1.12.9,2.25,2.04,3.51,2.73,1.1.61,2.47.74,3.68.39,1.4-.41,2.53-1.56,3.64-2.44,4.98-3.93,9.88-7.97,14.72-12.07,5.53-4.68,10.98-9.44,16.38-14.26,1.93-1.72-.91-4.54-2.83-2.83-8.96,7.98-18.04,15.83-27.38,23.36-1.11.9-2.23,1.79-3.35,2.67-.68.54-1.88,2.01-2.85,1.71-.87-.27-1.82-1.4-2.53-1.97-1.08-.87-2.16-1.75-3.23-2.62-4.34-3.54-8.64-7.14-12.92-10.77-4.75-4.03-9.46-8.11-14.12-12.24-1.92-1.7-4.76,1.12-2.83,2.83h0Z"/>
      </g>
      <g>
        <path class="cls-2" d="m174.24,23.54c0,8.42,0,19.32,0,27.8,0,1.55,1.25,2.8,2.8,2.81,9.75,0,30.51.01,40.71.01,1.55,0,2.81-1.25,2.8-2.8,0-8.48,0-19.38,0-27.8,0-1.55-1.25-2.81-2.8-2.81-8.55,0-31.18-.01-40.71-.01-1.55,0-2.81,1.25-2.81,2.8Z"/>
        <path class="cls-12" d="m172.85,23.61c0,6.49,0,12.97,0,19.46,0,1.61,0,3.22,0,4.83,0,1.41-.23,3.03.13,4.41.32,1.24,1.17,2.27,2.32,2.82,1.05.51,2.19.43,3.32.43,10.48,0,20.97,0,31.45.01,2.27,0,4.54,0,6.81,0,2.7,0,4.9-1.39,5.04-4.29.16-3.14,0-6.34,0-9.49,0-3.34,0-6.67,0-10.01,0-1.6,0-3.21,0-4.81,0-1.4.23-3.02-.12-4.39-.68-2.64-2.98-3.25-5.37-3.25-4.39,0-8.79,0-13.18,0-5.87,0-11.74,0-17.61,0-2.39,0-4.78,0-7.18,0-1.25,0-2.47-.04-3.58.64-1.3.79-1.95,2.17-2.04,3.65-.11,1.93,2.89,1.92,3,0s3.07-1.29,4.34-1.29c2.03,0,4.05,0,6.08,0,4.64,0,9.27,0,13.91,0,4.3,0,8.59,0,12.89,0,.83,0,1.66,0,2.48,0,.73,0,1.62-.14,2.33.02,1.19.26,1.05,1.48,1.05,2.43,0,1.49,0,2.97,0,4.46,0,5.88,0,11.76,0,17.65,0,1.34.02,2.67,0,4.01-.01,1.24-.6,1.66-1.79,1.68-1.92.02-3.85,0-5.77,0-9.69,0-19.38,0-29.07-.01-1.09,0-2.18,0-3.28,0-.82,0-2.15.26-2.79-.38-.47-.47-.38-1.08-.38-1.69,0-.8,0-1.59,0-2.39,0-1.53,0-3.07,0-4.6,0-6.63,0-13.26,0-19.89,0-1.93-3-1.93-3,0Z"/>
        <path class="cls-12" d="m177.7,27.43c3.11,2.75,6.25,5.46,9.43,8.14,1.61,1.35,3.23,2.7,4.86,4.03.79.64,1.57,1.28,2.37,1.92.69.55,1.37,1.25,2.26,1.47,1.97.49,3.56-1.32,4.95-2.43,1.75-1.4,3.49-2.83,5.21-4.27,3.49-2.92,6.91-5.91,10.31-8.93,1.44-1.29-.68-3.4-2.12-2.12-3.03,2.7-6.09,5.37-9.19,7.99-1.54,1.3-3.09,2.59-4.65,3.86-.8.65-1.61,1.3-2.41,1.94-.32.25-.74.76-1.11.88-.43.13-.32.12-.78-.24-5.83-4.57-11.44-9.45-16.98-14.35-1.44-1.28-3.57.84-2.12,2.12h0Z"/>
      </g>
      <g class="cls-14">
        <image width="1318" height="366" transform="translate(64.46 262.98) scale(.18)" xlink:href="../4fc787f29dc6de217b7df7deb9d97e79.png"/>
      </g>
      <circle class="cls-7" cx="128.51" cy="266.95" r="17.09"/>
      <circle class="cls-7" cx="335.51" cy="279.46" r="17.09"/>
      <path class="cls-7" d="m305.46,110.24c-3.84-4.68-7.92-9.98-12.98-13.64-.43-.31-.15-.98.37-.9l5.54.83c.37.06.67-.29.56-.64-3.88-12.68-14.85-27.51-25.4-37.79-.52-.51.13-1.34.75-.96,6.71,4.05,12.68,8.94,18.34,15.31,5.73,6.45,10.18,12.21,12.47,19.91.1.33.49.46.76.25,1.28-1.01,3.14-2.33,4.87-3.63.36-.27.87.04.79.49-1.07,6.04-3.43,14.79-5.22,20.61-.12.38-.61.48-.86.17Z"/>
      <path class="cls-7" d="m76.1,110.24c3.84-4.68,7.92-9.98,12.98-13.64.43-.31.15-.98-.37-.9l-5.54.83c-.37.06-.67-.29-.56-.64,3.88-12.68,14.85-27.51,25.4-37.79.52-.51-.13-1.34-.75-.96-6.71,4.05-12.68,8.94-18.34,15.31-5.73,6.45-10.18,12.21-12.47,19.91-.1.33-.49.46-.76.25-1.28-1.01-3.14-2.33-4.87-3.63-.36-.27-.87.04-.79.49,1.07,6.04,3.43,14.79,5.22,20.61.12.38.61.48.86.17Z"/>
    </g>
  </g>
</svg>