<svg xmlns="http://www.w3.org/2000/svg" xmlns:xlink="http://www.w3.org/1999/xlink" width="355.507" height="289.149" viewBox="0 0 355.507 289.149">
  <defs>
    <clipPath id="clip-path">
      <rect id="長方形_123" data-name="長方形 123" width="147.549" height="77.541" fill="none"/>
    </clipPath>
  </defs>
  <g id="グループ_305" data-name="グループ 305" transform="translate(-589 -7768.223)">
    <path id="パス_2459" data-name="パス 2459" d="M321.894,112.244,261.442,7.818A15.4,15.4,0,0,0,248.153,0H11.59C5.188,0,0,4.747,0,10.6V237.858c0,5.858,5.188,10.6,11.59,10.6H248.261a15.393,15.393,0,0,0,13.2-7.672l60.284-101.684a26.318,26.318,0,0,0,.145-26.863" transform="translate(619 7808.91)" fill="#ffe8d9"/>
    <g id="グループ_270" data-name="グループ 270" transform="translate(713.226 7894.371)">
      <g id="グループ_269" data-name="グループ 269" transform="translate(0 0)" clip-path="url(#clip-path)">
        <path id="パス_2377" data-name="パス 2377" d="M2.174,8.525c.039,18.227.088,41.846.127,60.214A6.071,6.071,0,0,0,8.389,74.8c21.117-.045,66.08-.133,88.161-.182a6.069,6.069,0,0,0,6.06-6.088c-.046-18.363-.094-41.978-.127-60.211A6.067,6.067,0,0,0,96.4,2.257L8.236,2.439A6.07,6.07,0,0,0,2.174,8.525" transform="translate(0.223 0.232)" fill="#f60"/>
        <path id="パス_2378" data-name="パス 2378" d="M.009,8.911Q.052,29.694.1,50.477q.012,4.946.021,9.891c.007,3.23-.354,6.718.161,9.91A8.722,8.722,0,0,0,5.949,77c2.187.788,4.73.492,7.022.487q32.891-.069,65.782-.135l14.688-.031c2.616-.006,5.265.172,7.594-1.262a8.917,8.917,0,0,0,4.187-7.664c.108-13.809-.064-27.626-.092-41.435q-.01-5.042-.019-10.082c-.007-3.141.342-6.526-.159-9.631A8.716,8.716,0,0,0,99.286.525C97.3-.189,95.076.032,93,.036L65.123.094,32.188.161,17.517.192,11.373.205C8.885.209,6.411.1,4.2,1.463A8.9,8.9,0,0,0,.009,8.911c-.1,3.407,5.2,3.4,5.293,0,.13-4.5,5.992-3.413,9.023-3.42l12.919-.026L57.935,5.4l28.879-.06,5.569-.011a23.472,23.472,0,0,1,4.8.078c2.509.544,2.62,2.915,2.625,5.013q.008,4.608.017,9.215.038,19.8.084,39.6c.007,3.1.2,6.269.022,9.367a3.451,3.451,0,0,1-3.382,3.411c-4.284.262-8.663.019-12.956.028l-63.72.13-6.311.013-2.855.006a8.929,8.929,0,0,1-3-.183c-2.336-.841-2.272-3.044-2.276-5.142L5.4,57.59q-.043-19.912-.084-39.826-.01-4.426-.019-8.853C5.3,5.506,0,5.5.009,8.911" transform="translate(0 0)" fill="#f60"/>
        <path id="パス_2379" data-name="パス 2379" d="M9.457,15.618Q24.968,29.278,41,42.332q1.886,1.532,3.78,3.054a30.731,30.731,0,0,0,4.008,3.1,6.065,6.065,0,0,0,4.531.485c1.791-.512,3.25-2.032,4.675-3.166q8.54-6.787,16.833-13.876,9.645-8.206,19.062-16.675c2.543-2.278-1.211-6.011-3.743-3.744-10.4,9.315-20.949,18.472-31.8,27.263Q56.41,40.345,54.457,41.9c-.7.555-2.064,2.2-3.045,2-.374-.079-.734-.53-1.029-.766q-.931-.741-1.86-1.486-1.894-1.522-3.78-3.054Q37.119,32.4,29.624,26.047,21.342,19.042,13.2,11.876c-2.547-2.244-6.306,1.485-3.743,3.743" transform="translate(0.884 1.11)" fill="#fff"/>
        <path id="パス_2380" data-name="パス 2380" d="M134.339,21.556l-24.553.06-3.546.008c-3.405.009-3.412,5.3,0,5.293l24.553-.058,3.546-.009c3.405-.008,3.412-5.3,0-5.293" transform="translate(10.653 2.215)" fill="#f60"/>
        <path id="パス_2381" data-name="パス 2381" d="M124.8,34.933l-16.193.039-2.33.006a2.647,2.647,0,0,0,0,5.293l16.192-.039,2.331-.006a2.647,2.647,0,0,0,0-5.293" transform="translate(10.648 3.589)" fill="#f60"/>
        <path id="パス_2382" data-name="パス 2382" d="M115.671,48.31l-8.179.02-1.178,0a2.647,2.647,0,0,0,0,5.293l8.179-.019,1.178,0a2.647,2.647,0,1,0,0-5.293" transform="translate(10.651 4.964)" fill="#f60"/>
      </g>
    </g>
    <g id="グループ_301" data-name="グループ 301" transform="translate(588.819 7768.223)">
      <ellipse id="楕円形_27" data-name="楕円形 27" cx="28.5" cy="29" rx="28.5" ry="29" transform="translate(0.181 21.777)" fill="#f60"/>
      <path id="パス_2464" data-name="パス 2464" d="M2.367,17.268l3.285-.319a4.007,4.007,0,0,0,1.2,2.429,3.638,3.638,0,0,0,2.446.776,3.76,3.76,0,0,0,2.458-.69,2.053,2.053,0,0,0,.827-1.614,1.522,1.522,0,0,0-.348-1.009,2.78,2.78,0,0,0-1.215-.724q-.593-.205-2.7-.73a9.17,9.17,0,0,1-3.809-1.654,4.35,4.35,0,0,1-1.54-3.364A4.3,4.3,0,0,1,3.7,7.978,4.534,4.534,0,0,1,5.783,6.285,8.365,8.365,0,0,1,9.073,5.7a7.058,7.058,0,0,1,4.739,1.38,4.871,4.871,0,0,1,1.671,3.684l-3.376.148a2.867,2.867,0,0,0-.929-1.853A3.4,3.4,0,0,0,9.039,8.5a3.857,3.857,0,0,0-2.3.6A1.218,1.218,0,0,0,6.2,10.14a1.284,1.284,0,0,0,.5,1.015,8.875,8.875,0,0,0,3.1,1.118,16.371,16.371,0,0,1,3.644,1.2,4.7,4.7,0,0,1,1.848,1.7,5.263,5.263,0,0,1-.131,5.355,4.784,4.784,0,0,1-2.258,1.865A9.47,9.47,0,0,1,9.267,23,7.243,7.243,0,0,1,4.4,21.539,6.375,6.375,0,0,1,2.367,17.268Zm20.2,5.44V8.817H17.6V5.988H30.891V8.817h-4.95V22.708Zm10.5,0V5.988h12.4V8.817H36.445v3.707h8.394V15.34H36.445v4.551h9.341v2.817Zm15.579,0V5.988h5.417a19.645,19.645,0,0,1,4.015.251,4.384,4.384,0,0,1,2.406,1.637,5.19,5.19,0,0,1,.969,3.256,5.455,5.455,0,0,1-.559,2.589,4.584,4.584,0,0,1-1.42,1.648,4.893,4.893,0,0,1-1.751.793,19.27,19.27,0,0,1-3.5.24h-2.2v6.307ZM52.024,8.817v4.744h1.848A8.729,8.729,0,0,0,56.54,13.3a2.217,2.217,0,0,0,1.055-.821,2.247,2.247,0,0,0,.382-1.3,2.16,2.16,0,0,0-.536-1.505,2.334,2.334,0,0,0-1.357-.741,16.226,16.226,0,0,0-2.429-.114Z" transform="translate(-0.639 -5.703)" fill="#303030"/>
      <path id="パス_2467" data-name="パス 2467" d="M48.873,36.771v5.581H27.81a14.506,14.506,0,0,1,2.053-6,39.915,39.915,0,0,1,6.757-7.517A42.5,42.5,0,0,0,41.6,23.705a6.611,6.611,0,0,0,1.24-3.678,4.181,4.181,0,0,0-1.08-3.09,4.031,4.031,0,0,0-2.983-1.08,4,4,0,0,0-2.994,1.133A5.821,5.821,0,0,0,34.5,20.754l-5.988-.6q.535-4.961,3.357-7.121a11.273,11.273,0,0,1,7.057-2.16,10.2,10.2,0,0,1,7.292,2.5A8.206,8.206,0,0,1,48.873,19.6a10.833,10.833,0,0,1-.759,4.031,16.392,16.392,0,0,1-2.406,4.01,38.5,38.5,0,0,1-3.935,4q-2.844,2.609-3.6,3.464a10.373,10.373,0,0,0-1.23,1.668Z" transform="translate(-11.161 23.556)" fill="#fff"/>
    </g>
  </g>
</svg>
