<svg xmlns="http://www.w3.org/2000/svg" xmlns:xlink="http://www.w3.org/1999/xlink" width="1920" height="106.45" viewBox="0 0 1920 106.45">
  <defs>
    <clipPath id="clip-path">
      <rect id="長方形_19" data-name="長方形 19" width="644.202" height="106.45" fill="none"/>
    </clipPath>
    <clipPath id="clip-path-2">
      <rect id="長方形_19-2" data-name="長方形 19" width="640.158" height="106.45" fill="none"/>
    </clipPath>
  </defs>
  <g id="グループ_37" data-name="グループ 37" transform="translate(0 -973.549)">
    <g id="グループ_28" data-name="グループ 28" transform="translate(0 973.549)" clip-path="url(#clip-path)">
      <path id="パス_10" data-name="パス 10" d="M631.43,67.944V47.082l2.063.448.931-6.5-32.568-7.073-.926,6.467,2.986.764,0,26.759h-10.8V0H550.095V67.944H535.234l-.375-6.36a5.453,5.453,0,0,0,1.368-.667,5.088,5.088,0,0,0,.643.042,5.324,5.324,0,0,0,3.525-9.284c.005-.1.007-.2.007-.293a5.271,5.271,0,0,0-3.035-5.081c-.294-2.579-1.951-4.5-4.013-4.5-2.079,0-3.746,1.949-4.02,4.56a5.285,5.285,0,0,0-3.028,5.017c0,.1,0,.194.007.292a5.324,5.324,0,0,0,3.524,9.284,5.026,5.026,0,0,0,.647-.042,5.561,5.561,0,0,0,1.415.673l-.376,6.355H516.612V24.2l-30.9-16.2V67.944h-7.936V7.722H444.8v4.856h-.043v-2.05h-5.805V27.071h5.805v-2.05h.043V67.944h-8.07V39.035h2.893l-2.681-6.789h-55.6l-2.681,6.789h2.893V50.051l-20.738-8.534-22.61,9.3H346.1V67.944H335.4V53.872h3.07l-3.787-5.53h-1.253V36.476h3.59l-4-4.532h-1.393L316.512,22.53,301.4,31.944h-1.393l-4,4.532H299.6V48.342h-1.254l-3.788,5.53h3.07V67.944h-13.6l-.247-4.821a3.623,3.623,0,0,0,1.457-.862,3.535,3.535,0,0,0,3.19-.3,3.085,3.085,0,0,0,1.145-2.411,2.629,2.629,0,0,0-.217-1.034,3.521,3.521,0,0,0,1.02-1.781,4.271,4.271,0,0,0-.982-4.014l-.07-.061a4.318,4.318,0,0,0-.167-3.832A2.864,2.864,0,0,0,286.6,47.4h-.027a3.412,3.412,0,0,0-1.025-2.27,4.144,4.144,0,0,0-4.454-.942,3.077,3.077,0,0,0-1.745,2.118,2.826,2.826,0,0,0-2.377,1.119,2.792,2.792,0,0,0-.514,2.217,3.65,3.65,0,0,0-2.676,2.684,3.427,3.427,0,0,0,1.4,3.566,3.7,3.7,0,0,0-.718,3.121,3.769,3.769,0,0,0,2.64,2.773,2.714,2.714,0,0,0,1.365.006,3.886,3.886,0,0,0,1.948,1.341l-.29,4.808H263.117l-.333-5.549c4.85-.611,5.909-3.871,5.909-6.6,0-5.147-6-12.186-6.255-12.483l-.814-.947-.813.947c-.255.3-6.256,7.337-6.256,12.483,0,2.614.975,5.772,5.433,6.53l-.336,5.618H246.208V43.225h4.274L235.649,21.162,220.817,43.225h4.274V67.944h-8.106V48.925l4.261-1.385-14.82-14.71-14.82,14.71,4.321,1.4v19h-9.483V52.567h-7.861V47.074h2.069V41.805H148.311v5.268h2.482v20.87H136.5l-.384-6.408a6.162,6.162,0,0,0,1.6-.676,5.146,5.146,0,0,0,.661.043A5.247,5.247,0,0,0,141.9,51.73c0-.093.006-.185.006-.277a5.2,5.2,0,0,0-3.037-5.02c-.3-2.541-1.953-4.429-4.011-4.429-2.075,0-3.74,1.92-4.018,4.493a5.216,5.216,0,0,0-3.029,4.957c0,.092,0,.184.007.277a5.247,5.247,0,0,0,3.525,9.172,5.156,5.156,0,0,0,.669-.044,6.341,6.341,0,0,0,1.651.682l-.384,6.4h-11.87V37.337H106.6V19.3H71.274v18.04H56.461V67.944H49.884V48.139h5.4L34.49,37.825l-20.8,10.314h5.4v1.9H11.589L9.135,55.751h2V67.944H0V106.45H644.2V67.944Zm-188.816-43h-1.525V12.656h1.525ZM16.822,60.577H13.97V57.063h2.852Zm13.185-3.514h-7.5v-6.93h7.5ZM36.9,69.432h-6V61.99h6Zm8.392-12.369H37.8v-6.93h7.5Zm18.519-2.5H59.767v-4.4h4.043Zm0-7.349H59.767v-4.4h4.043Zm6.678,7.349H66.445v-4.4h4.043Zm0-7.349H66.445v-4.4h4.043ZM88.53,26.776a3.987,3.987,0,1,1-4.012,3.987,4,4,0,0,1,4.012-3.987M77.166,54.564H73.122v-4.4h4.043Zm0-7.349H73.122v-4.4h4.043Zm17.31,22.217H82.583v-15H94.476Zm9.461-14.868H99.893v-4.4h4.043Zm0-7.349H99.893v-4.4h4.043Zm6.677,7.349H106.57v-4.4h4.043Zm0-7.349H106.57v-4.4h4.043Zm6.678,7.349h-4.043v-4.4h4.043Zm0-7.349h-4.043v-4.4h4.043Zm43.54,7.755h-5.189V48.788h5.189Zm4.741,14.462h-4.4V59.1h4.4Zm7.438-14.462h-5.189V48.788h5.189Zm9.788,8.946H177.61V57.734H182.8ZM199.658,45.9h4.221V49.89h-4.221Zm0,7.823h4.221v3.987h-4.221Zm9.285,15.706h-5.065v-7.2h5.065Zm4.221-11.719h-4.221V53.725h4.221Zm0-7.823h-4.221V45.9h4.221Zm18.248-11.609,4.326-5.68,4.312,5.68v3.026h-8.638ZM228.979,45.9H233.2V49.89h-4.221Zm0,7.823H233.2v3.987h-4.221Zm9.285,15.706H233.2v-7.2h5.065Zm4.221-11.719h-4.221V53.725h4.221Zm0-7.823h-4.221V45.9h4.221Zm64.088,11.255h-4.688V56.592h4.688Zm6.409-14.311h-7.325V39.72h7.325Zm6.959,22.6h-6.153V58.869h6.153Zm.806-22.6V39.72h7.324v7.114h-7.324Zm11.1,14.311h-4.688V56.592h4.688Zm25.811-6.2v3.415h-6.593V51.526h6.593Zm6.092,14.491h-5.274V62.887h5.274Zm7.825-14.491v3.415h-6.593V51.526h6.593Zm9.984,13h-6.016V50.821h6.016Zm24.9-25.4h6.006V47.38h-6.006Zm0,9.407h6.006v4.837h-6.006Zm-14.424,4.837h-6.006V51.95h6.006Zm0-9.407h-6.006V42.542h6.006Zm10.215,9.407h-6.006V51.95h6.006Zm0-9.407h-6.006V42.542h6.006Zm12.83,21.91H404.528V62.745h10.547Zm7.6-12.5h-6.006V51.95h6.006Zm0-9.407h-6.006V42.542h6.006Zm10.215,9.407h-6.006V51.95h6.006Zm0-9.407h-6.006V42.542h6.006Zm26.255-34.772H465.1V17.75h-5.951Zm0,7.889H465.1V25.64h-5.951Zm0,7.889H465.1v5.142h-5.951Zm0,7.889H465.1v5.142h-5.951Zm0,7.889H465.1v5.142h-5.951Zm0,7.889H465.1V57.2h-5.951ZM455.823,57.2h-5.951V52.054h5.951Zm0-7.889h-5.951V44.165h5.951Zm0-7.889h-5.951V36.276h5.951Zm0-7.889h-5.951V28.387h5.951Zm0-7.889h-5.951V20.5h5.951Zm0-7.889h-5.951V12.608h5.951Zm10.12,51.541h-8.369V62.059h8.369ZM474.367,57.2h-5.951V52.054h5.951Zm0-7.889h-5.951V44.165h5.951Zm0-7.889h-5.951V36.276h5.951Zm0-7.889h-5.951V28.387h5.951Zm0-7.889h-5.951V20.5h5.951Zm0-7.889h-5.951V12.608h5.951Zm25.1,9.019h5.316v6.874h-5.316Zm0,9.348h5.316v6.874h-5.316Zm0,9.349h5.316v6.874h-5.316Zm-3.612,6.874h-5.316V45.466h5.316Zm0-9.348h-5.316V36.118h5.316Zm0-9.349h-5.316V26.769h5.316Zm11.489,35.789H496.91V59.284h10.438Zm6.367-17.091H508.4V45.466h5.316Zm0-9.348H508.4V36.118h5.316Zm0-9.349H508.4V26.769h5.316ZM570.7,8.018h4.207v8.115H570.7Zm0,13.128h4.207v8.115H570.7Zm0,13.128h4.207v8.115H570.7ZM559.924,8.018h4.207v8.115h-4.207Zm0,13.128h4.207v8.115h-4.207Zm0,13.128h4.207v8.115h-4.207Zm22.107,34.958H563.586v-14.8h18.446Zm3.661-26.843h-4.207V34.273h4.207Zm0-13.128h-4.207V21.146h4.207Zm0-13.128h-4.207V8.018h4.207Zm27.54,36.081h-4V47.352h4Zm7.844,0h-3.995V47.352h3.995Zm5.4,17.016h-3.57V60.848h3.57Zm2.443-17.016h-4V47.352h4Z" fill="#06c"/>
    </g>
    <g id="グループ_30" data-name="グループ 30" transform="translate(640.481 973.549)">
      <g id="グループ_28-2" data-name="グループ 28" clip-path="url(#clip-path-2)">
        <path id="パス_10-2" data-name="パス 10" d="M629.1,67.944V47.082l2.055.448.927-6.5-32.447-7.073-.923,6.467,2.975.764,0,26.759h-10.76V0H548.061V67.944H533.256l-.374-6.36a5.425,5.425,0,0,0,1.363-.667,5.049,5.049,0,0,0,.64.042,5.328,5.328,0,0,0,3.512-9.284c.005-.1.007-.2.007-.293A5.273,5.273,0,0,0,535.38,46.3c-.293-2.579-1.944-4.5-4-4.5-2.071,0-3.732,1.949-4,4.56a5.286,5.286,0,0,0-3.016,5.017c0,.1,0,.194.007.292a5.329,5.329,0,0,0,3.511,9.284,4.988,4.988,0,0,0,.644-.042,5.533,5.533,0,0,0,1.41.673l-.374,6.355H514.7V24.2l-30.787-16.2V67.944h-7.907V7.722H443.153v4.856h-.043v-2.05h-5.784V27.071h5.784v-2.05h.043V67.944h-8.04V39.035H438l-2.672-6.789h-55.39l-2.672,6.789h2.883V50.051l-20.661-8.534-22.527,9.3h7.859V67.944h-10.66V53.872h3.058l-3.773-5.53h-1.248V36.476h3.576l-3.982-4.532H330.4L315.342,22.53l-15.056,9.413H298.9l-3.983,4.532h3.578V48.342h-1.249l-3.774,5.53h3.059V67.944H282.977l-.247-4.821a3.606,3.606,0,0,0,1.452-.862,3.51,3.51,0,0,0,3.178-.3,3.09,3.09,0,0,0,1.141-2.411,2.637,2.637,0,0,0-.216-1.034,3.524,3.524,0,0,0,1.017-1.781,4.282,4.282,0,0,0-.978-4.014l-.07-.061a4.333,4.333,0,0,0-.166-3.832,2.851,2.851,0,0,0-2.544-1.43h-.027a3.418,3.418,0,0,0-1.021-2.27,4.118,4.118,0,0,0-4.438-.942,3.075,3.075,0,0,0-1.738,2.118,2.809,2.809,0,0,0-2.881,3.336,3.644,3.644,0,0,0-2.666,2.684,3.433,3.433,0,0,0,1.391,3.566,3.712,3.712,0,0,0-.715,3.121,3.763,3.763,0,0,0,2.63,2.773,2.694,2.694,0,0,0,1.36.006,3.872,3.872,0,0,0,1.941,1.341l-.289,4.808H262.144l-.331-5.549c4.832-.611,5.888-3.871,5.888-6.6,0-5.147-5.978-12.186-6.232-12.483l-.811-.947-.81.947c-.254.3-6.232,7.337-6.232,12.483,0,2.614.971,5.772,5.413,6.53l-.335,5.618H245.3V43.225h4.258L234.778,21.162,220,43.225h4.258V67.944h-8.076V48.925l4.246-1.385L205.663,32.83,190.9,47.54l4.3,1.4v19h-9.448V52.567h-7.831V47.074h2.061V41.805H147.763v5.268h2.473v20.87H135.992l-.382-6.408a6.128,6.128,0,0,0,1.6-.676,5.108,5.108,0,0,0,.659.043,5.251,5.251,0,0,0,3.512-9.172c0-.093.006-.185.006-.277a5.2,5.2,0,0,0-3.025-5.02c-.3-2.541-1.946-4.429-4-4.429-2.067,0-3.727,1.92-4,4.493a5.217,5.217,0,0,0-3.018,4.957c0,.092,0,.184.007.277A5.251,5.251,0,0,0,130.86,60.9a5.119,5.119,0,0,0,.667-.044,6.3,6.3,0,0,0,1.645.682l-.383,6.4H120.963V37.337H106.207V19.3H71.01v18.04H56.252V67.944H49.7V48.139h5.384L34.362,37.825,13.641,48.139h5.383v1.9H11.546L9.1,55.751h2V67.944H0V106.45H641.821V67.944Zm-188.118-43h-1.519V12.656h1.519ZM16.76,60.577H13.919V57.063H16.76ZM29.9,57.063H22.428v-6.93H29.9Zm6.867,12.369H30.789V61.99h5.974Zm8.361-12.369H37.656v-6.93h7.468Zm18.451-2.5H59.546v-4.4h4.028Zm0-7.349H59.546v-4.4h4.028Zm6.653,7.349H66.2v-4.4h4.028Zm0-7.349H66.2v-4.4h4.028ZM88.2,26.776a3.987,3.987,0,1,1-4,3.987,3.992,3.992,0,0,1,4-3.987M76.88,54.564H72.852v-4.4H76.88Zm0-7.349H72.852v-4.4H76.88ZM94.127,69.432H82.278v-15H94.127Zm9.426-14.868H99.524v-4.4h4.028Zm0-7.349H99.524v-4.4h4.028Zm6.652,7.349h-4.028v-4.4h4.028Zm0-7.349h-4.028v-4.4h4.028Zm6.653,7.349H112.83v-4.4h4.028Zm0-7.349H112.83v-4.4h4.028Zm43.379,7.755h-5.17V48.788h5.17Zm4.723,14.462h-4.383V59.1h4.383Zm7.411-14.462H167.2V48.788h5.17Zm9.752,8.946h-5.17V57.734h5.17ZM198.92,45.9h4.205V49.89H198.92Zm0,7.823h4.205v3.987H198.92Zm9.251,15.706h-5.046v-7.2h5.046Zm4.205-11.719h-4.205V53.725h4.205Zm0-7.823h-4.205V45.9h4.205Zm18.181-11.609,4.31-5.68,4.3,5.68v3.026h-8.606ZM228.132,45.9h4.205V49.89h-4.205Zm0,7.823h4.205v3.987h-4.205Zm9.251,15.706h-5.046v-7.2h5.046Zm4.205-11.719h-4.205V53.725h4.205Zm0-7.823h-4.205V45.9h4.205Zm63.851,11.255h-4.671V56.592h4.671Zm6.385-14.311h-7.3V39.72h7.3Zm6.933,22.6h-6.13V58.869h6.13Zm.8-22.6V39.72h7.3v7.114h-7.3Zm11.056,14.311h-4.671V56.592h4.671Zm25.716-6.2v3.415h-6.568V51.526h6.568ZM362.4,69.432h-5.254V62.887H362.4Zm7.8-14.491v3.415h-6.568V51.526H370.2Zm9.947,13h-5.994V50.821h5.994Zm24.806-25.4h5.984V47.38h-5.984Zm0,9.407h5.984v4.837h-5.984Zm-14.37,4.837H384.6V51.95h5.984Zm0-9.407H384.6V42.542h5.984Zm10.177,9.407h-5.984V51.95h5.984Zm0-9.407h-5.984V42.542h5.984Zm12.783,21.91H403.032V62.745h10.508Zm7.571-12.5h-5.984V51.95h5.984Zm0-9.407h-5.984V42.542h5.984Zm10.177,9.407h-5.984V51.95h5.984Zm0-9.407h-5.984V42.542h5.984Zm26.158-34.772h5.929V17.75h-5.929Zm0,7.889h5.929V25.64h-5.929Zm0,7.889h5.929v5.142h-5.929Zm0,7.889h5.929v5.142h-5.929Zm0,7.889h5.929v5.142h-5.929Zm0,7.889h5.929V57.2h-5.929ZM454.139,57.2h-5.929V52.054h5.929Zm0-7.889h-5.929V44.165h5.929Zm0-7.889h-5.929V36.276h5.929Zm0-7.889h-5.929V28.387h5.929Zm0-7.889h-5.929V20.5h5.929Zm0-7.889h-5.929V12.608h5.929Zm10.083,51.541h-8.338V62.059h8.338ZM472.614,57.2h-5.929V52.054h5.929Zm0-7.889h-5.929V44.165h5.929Zm0-7.889h-5.929V36.276h5.929Zm0-7.889h-5.929V28.387h5.929Zm0-7.889h-5.929V20.5h5.929Zm0-7.889h-5.929V12.608h5.929Zm25.011,9.019h5.3v6.874h-5.3Zm0,9.348h5.3v6.874h-5.3Zm0,9.349h5.3v6.874h-5.3Zm-3.6,6.874h-5.3V45.466h5.3Zm0-9.348h-5.3V36.118h5.3Zm0-9.349h-5.3V26.769h5.3Zm11.446,35.789h-10.4V59.284h10.4Zm6.344-17.091h-5.3V45.466h5.3Zm0-9.348h-5.3V36.118h5.3Zm0-9.349h-5.3V26.769h5.3ZM568.6,8.018h4.192v8.115H568.6Zm0,13.128h4.192v8.115H568.6Zm0,13.128h4.192v8.115H568.6ZM557.855,8.018h4.192v8.115h-4.192Zm0,13.128h4.192v8.115h-4.192Zm0,13.128h4.192v8.115h-4.192ZM579.88,69.231H561.5v-14.8H579.88Zm3.648-26.843h-4.191V34.273h4.191Zm0-13.128h-4.191V21.146h4.191Zm0-13.128h-4.191V8.018h4.191Zm27.438,36.081h-3.98V47.352h3.98Zm7.815,0H614.8V47.352h3.98Zm5.381,17.016H620.6V60.848h3.557ZM626.6,52.215h-3.98V47.352h3.98Z" transform="translate(-1.664)" fill="#06c"/>
      </g>
    </g>
    <g id="グループ_31" data-name="グループ 31" transform="translate(1279.842 973.549)">
      <g id="グループ_28-3" data-name="グループ 28" clip-path="url(#clip-path-2)">
        <path id="パス_10-3" data-name="パス 10" d="M627.465,67.944V47.082l2.05.448.925-6.5-32.363-7.073-.92,6.467,2.967.764,0,26.759H589.393V0H546.641V67.944H531.873l-.373-6.36a5.406,5.406,0,0,0,1.359-.667,5.023,5.023,0,0,0,.639.042,5.3,5.3,0,0,0,5.257-5.32A5.352,5.352,0,0,0,537,51.674c.005-.1.007-.2.007-.293a5.274,5.274,0,0,0-3.016-5.081c-.292-2.579-1.939-4.5-3.988-4.5-2.066,0-3.723,1.949-3.994,4.56A5.288,5.288,0,0,0,523,51.381c0,.1,0,.194.007.292a5.35,5.35,0,0,0-1.754,3.964,5.294,5.294,0,0,0,5.256,5.32,4.962,4.962,0,0,0,.642-.042,5.512,5.512,0,0,0,1.407.673l-.373,6.355H513.368V24.2l-30.707-16.2V67.944h-7.886V7.722H442v4.856h-.043v-2.05h-5.769V27.071h5.769v-2.05H442V67.944h-8.019V39.035h2.875L434.2,32.246H378.949l-2.665,6.789h2.875V50.051l-20.608-8.534-22.468,9.3h7.839V67.944H333.289V53.872h3.05l-3.764-5.53h-1.245V36.476H334.9l-3.972-4.532h-1.384L314.524,22.53l-15.017,9.413h-1.384l-3.973,4.532h3.568V48.342h-1.246l-3.764,5.53h3.051V67.944H282.243L282,63.123a3.6,3.6,0,0,0,1.448-.862,3.493,3.493,0,0,0,3.17-.3,3.093,3.093,0,0,0,1.138-2.411,2.643,2.643,0,0,0-.216-1.034,3.526,3.526,0,0,0,1.014-1.781,4.29,4.29,0,0,0-.976-4.014l-.07-.061a4.343,4.343,0,0,0-.166-3.832A2.842,2.842,0,0,0,284.8,47.4h-.027a3.422,3.422,0,0,0-1.018-2.27,4.1,4.1,0,0,0-4.426-.942,3.073,3.073,0,0,0-1.734,2.118,2.806,2.806,0,0,0-2.873,3.336,3.639,3.639,0,0,0-2.659,2.684,3.438,3.438,0,0,0,1.387,3.566,3.719,3.719,0,0,0-.714,3.121,3.758,3.758,0,0,0,2.624,2.773,2.68,2.68,0,0,0,1.356.006,3.862,3.862,0,0,0,1.936,1.341l-.288,4.808h-16.9l-.331-5.549c4.82-.611,5.872-3.871,5.872-6.6,0-5.147-5.962-12.186-6.216-12.483l-.809-.947-.808.947c-.254.3-6.216,7.337-6.216,12.483,0,2.614.969,5.772,5.4,6.53l-.334,5.618h-13.36V43.225h4.247L234.17,21.162,219.431,43.225h4.247V67.944h-8.055V48.925l4.235-1.385L205.13,32.83,190.4,47.54l4.293,1.4v19h-9.423V52.567h-7.811V47.074h2.056V41.805H147.38v5.268h2.467v20.87H135.639l-.381-6.408a6.1,6.1,0,0,0,1.594-.676,5.082,5.082,0,0,0,.657.043,5.254,5.254,0,0,0,3.5-9.172c0-.093.006-.185.006-.277A5.2,5.2,0,0,0,138,46.433C137.7,43.892,136.06,42,134.015,42c-2.062,0-3.717,1.92-3.993,4.493a5.218,5.218,0,0,0-3.01,4.957c0,.092,0,.184.007.277a5.254,5.254,0,0,0,3.5,9.172,5.092,5.092,0,0,0,.665-.044,6.28,6.28,0,0,0,1.641.682l-.382,6.4h-11.8V37.337H105.931V19.3H70.826v18.04H56.106V67.944H49.571V48.139h5.37L34.273,37.825,13.606,48.139h5.37v1.9h-7.46L9.078,55.751h1.99V67.944H0V106.45H640.158V67.944Zm-187.63-43h-1.516V12.656h1.516ZM16.716,60.577H13.883V57.063h2.834Zm13.1-3.514H22.37v-6.93h7.449Zm6.849,12.369H30.709V61.99h5.959Zm8.339-12.369H37.559v-6.93h7.449Zm18.4-2.5H59.392v-4.4H63.41Zm0-7.349H59.392v-4.4H63.41Zm6.636,7.349H66.028v-4.4h4.018Zm0-7.349H66.028v-4.4h4.018ZM87.974,26.776a3.987,3.987,0,1,1-3.987,3.987,3.987,3.987,0,0,1,3.987-3.987M76.681,54.564H72.663v-4.4h4.018Zm0-7.349H72.663v-4.4h4.018Zm17.2,22.217H82.065v-15H93.883Zm9.4-14.868H99.266v-4.4h4.018Zm0-7.349H99.266v-4.4h4.018Zm6.635,7.349H105.9v-4.4h4.018Zm0-7.349H105.9v-4.4h4.018Zm6.636,7.349h-4.018v-4.4h4.018Zm0-7.349h-4.018v-4.4h4.018Zm43.266,7.755h-5.156V48.788h5.156Zm4.711,14.462h-4.372V59.1h4.372Zm7.392-14.462h-5.156V48.788h5.156Zm9.726,8.946h-5.156V57.734h5.156ZM198.4,45.9H202.6V49.89H198.4Zm0,7.823H202.6v3.987H198.4Zm9.227,15.706H202.6v-7.2h5.033Zm4.194-11.719h-4.194V53.725h4.194Zm0-7.823h-4.194V45.9h4.194ZM229.96,38.281l4.3-5.68,4.284,5.68v3.026H229.96ZM227.541,45.9h4.194V49.89h-4.194Zm0,7.823h4.194v3.987h-4.194Zm9.227,15.706h-5.033v-7.2h5.033Zm4.194-11.719h-4.194V53.725h4.194Zm0-7.823h-4.194V45.9h4.194Zm63.686,11.255h-4.659V56.592h4.659Zm6.369-14.311h-7.279V39.72h7.279Zm6.915,22.6h-6.114V58.869h6.114Zm.8-22.6V39.72h7.278v7.114h-7.278Zm11.027,14.311H325.1V56.592h4.659Zm25.649-6.2v3.415h-6.551V51.526h6.551Zm6.054,14.491h-5.241V62.887h5.241Zm7.776-14.491v3.415h-6.551V51.526h6.551Zm9.921,13h-5.978V50.821h5.978Zm24.742-25.4h5.968V47.38H403.9Zm0,9.407h5.968v4.837H403.9Zm-14.333,4.837H383.6V51.95h5.968Zm0-9.407H383.6V42.542h5.968Zm10.151,9.407H393.75V51.95h5.968Zm0-9.407H393.75V42.542h5.968Zm12.75,21.91H401.988V62.745h10.481Zm7.552-12.5h-5.968V51.95h5.968Zm0-9.407h-5.968V42.542h5.968Zm10.151,9.407H424.2V51.95h5.968Zm0-9.407H424.2V42.542h5.968Zm26.09-34.772h5.914V17.75h-5.914Zm0,7.889h5.914V25.64h-5.914Zm0,7.889h5.914v5.142h-5.914Zm0,7.889h5.914v5.142h-5.914Zm0,7.889h5.914v5.142h-5.914Zm0,7.889h5.914V57.2h-5.914Zm-3.3,5.142h-5.914V52.054h5.914Zm0-7.889h-5.914V44.165h5.914Zm0-7.889h-5.914V36.276h5.914Zm0-7.889h-5.914V28.387h5.914Zm0-7.889h-5.914V20.5h5.914Zm0-7.889h-5.914V12.608h5.914Zm10.057,51.541H454.7V62.059h8.317Zm8.37-12.094h-5.914V52.054h5.914Zm0-7.889h-5.914V44.165h5.914Zm0-7.889h-5.914V36.276h5.914Zm0-7.889h-5.914V28.387h5.914Zm0-7.889h-5.914V20.5h5.914Zm0-7.889h-5.914V12.608h5.914Zm24.946,9.019h5.282v6.874h-5.282Zm0,9.348h5.282v6.874h-5.282Zm0,9.349h5.282v6.874h-5.282Zm-3.59,6.874h-5.282V45.466h5.282Zm0-9.348h-5.282V36.118h5.282Zm0-9.349h-5.282V26.769h5.282Zm11.417,35.789H493.79V59.284h10.372Zm6.327-17.091h-5.282V45.466h5.282Zm0-9.348h-5.282V36.118h5.282Zm0-9.349h-5.282V26.769h5.282ZM567.122,8.018H571.3v8.115h-4.181Zm0,13.128H571.3v8.115h-4.181Zm0,13.128H571.3v8.115h-4.181ZM556.409,8.018h4.181v8.115h-4.181Zm0,13.128h4.181v8.115h-4.181Zm0,13.128h4.181v8.115h-4.181Zm21.968,34.958h-18.33v-14.8h18.33Zm3.638-26.843h-4.181V34.273h4.181Zm0-13.128h-4.181V21.146h4.181Zm0-13.128h-4.181V8.018h4.181Zm27.367,36.081h-3.97V47.352h3.97Zm7.794,0h-3.97V47.352h3.97Zm5.367,17.016H619V60.848h3.548Zm2.428-17.016H621V47.352h3.97Z" fill="#06c"/>
      </g>
    </g>
  </g>
</svg>
