<?xml version="1.0" encoding="UTF-8"?>
<svg id="_レイヤー_2" data-name="レイヤー_2" xmlns="http://www.w3.org/2000/svg" viewBox="0 0 871.48 454.24">
  <defs>
    <style>
      .cls-1 {
        fill: #d7134a;
      }
    </style>
  </defs>
  <g id="_レイヤー_1-2" data-name="レイヤー_1">
    <g>
      <path class="cls-1" d="M702.29,43.62c.92-1.81,1.87-3.68,2.9-5.43,2.61-4.45,5.48-9.1,8.78-14.22,2.55-3.97,5.27-7.98,8.07-11.91,1.84-2.58,2.61-5.39,2.31-8.36-.13-1.3-1.03-2.68-2.18-3.37-1.43-.85-3.1.12-3.98.77-.7.52-1.06,1.23-1.33,1.75-.05.1-.1.19-.15.29-.76,1.35-1.5,2.71-2.24,4.07-1.58,2.9-3.22,5.9-4.96,8.74-1.01,1.65-2.13,3.2-3.31,4.85-1.21,1.68-2.46,3.41-3.56,5.24-1.11,1.83-2.1,3.73-3.05,5.57-1.22,2.36-2.37,4.58-3.76,6.67-1.25,1.88-2.17,3.89-3.06,5.83-1.16,2.54-2.26,4.95-4.01,6.92-.54.61-.77,1.31-.95,1.82-.06.17-.11.34-.18.49-.2.4-.39.8-.58,1.2-.55,1.14-1.07,2.21-1.68,3.2-1.66,2.67-3.4,5.36-5.08,7.96-.72,1.12-1.45,2.24-2.17,3.36-.34.54-.69,1.07-1.04,1.6-.84,1.28-1.71,2.61-2.51,3.98-.98,1.68-1.94,3.37-2.89,5.07-.74,1.31-1.47,2.63-2.23,3.93-.21.37-.48.75-.77,1.14-.32.44-.65.9-.95,1.41-.81,1.38-1.61,2.77-2.41,4.16-.87,1.52-1.75,3.04-2.64,4.55-.68,1.15-1.39,2.29-2.09,3.42-.74,1.19-1.47,2.38-2.19,3.58-.46.78-.89,1.59-1.32,2.39-.56,1.04-1.09,2.03-1.68,2.97-1,1.57-2.1,3.13-3.16,4.65-.59.84-1.17,1.68-1.75,2.52-1.52,2.22-3.03,4.44-4.54,6.66-1.59,2.34-3.18,4.67-4.77,7l-1.69,2.47c-2.38,3.49-4.84,7.09-7.3,10.6l-.36.52c-1.05,1.5-2.04,2.92-3.23,4.04-1.82,1.7-3.64,2.46-5.68,2.38-1.84-.07-3.67.04-5.44.14-1.66.09-3.23.18-4.8.14-2.57-.07-4.7-.38-6.53-.97-4.48-1.44-7.77-4.7-11.24-8.15-.68-.67-1.35-1.34-2.04-2-.4-.38-.75-1-1.12-1.66-.28-.49-.56-1-.92-1.5-2.34-3.33-4.46-6.33-6.67-9.34-2.3-3.13-5.68-6.65-11.46-6.14-3.14.28-5.35,2.05-6.91,3.57-2.12,2.05-4.32,4.26-5.92,6.82-.45.72-1.03,1.41-1.65,2.14-1.22,1.44-2.61,3.07-3.21,5.35-.19.7-.69,1.48-1.23,2.29-.27.41-.54.82-.78,1.23-.7,1.19-1.51,2.56-2.36,3.89-.32.5-.63,1-.94,1.5-.57.92-1.12,1.81-1.7,2.65.01-.11.03-.22.04-.33.17-1.42.35-2.9.3-4.42-.04-1.07.03-2.17.1-3.34.18-2.92.39-6.22-1.27-9.4,0-.29-.03-.7-.23-1.12-.22-.47-.48-.85-.71-1.2-.07-.11-.15-.22-.22-.33-.36-.57-.98-.91-1.65-.92-.01,0-.02,0-.03,0-.66,0-1.28.32-1.65.87-.06.09-.14.18-.22.27-.34.41-.81.97-.98,1.79-.46,2.1-.9,4.41-1.35,7.04-.35,2.03-.66,4.06-.98,6.1l-.43,2.74c-.04.22-.06.44-.09.66-.04.34-.08.66-.15.86-1.1,3.12-1.32,6.27-1.53,9.32-.08,1.12-.16,2.28-.28,3.39-.08.68-.11,1.36-.15,2.05-.03.56-.06,1.1-.11,1.62-.13-.56-.25-1.1-.33-1.63-.34-2.22-.65-4.45-.96-6.67-.4-2.81-.81-5.72-1.26-8.58-.48-3.04-1.07-6.15-1.77-9.25-.57-2.54-2.7-3.94-5.29-3.5-3.05.52-3.36,3.31-3.49,4.5,0,.04,0,.08-.01.12-.05-.04-.09-.08-.14-.13-4.99-4.71-11.51-4.89-16.24-.44-4.28,4.03-7.01,9.25-8.58,16.43l-.04.19c-.83,3.79-1.69,7.71-.7,11.87,0,.03,0,.06,0,.09-.49,5.19,1.25,9.78,5.02,13.27,2.07,1.92,2.6,4.21,1.81,7.89-1.12,5.25,1.25,9.29,3.13,11.86,2.63,3.61,6.45,5.55,10.84,5.55.39,0,.79-.02,1.19-.05,5.51.37,9.71-1.72,13.21-6.6,3.58-4.99,4.51-10.81,4.98-16.36.31-3.67,0-7.36-.33-10.95,1.42,1.27,2.91,1.93,4.3,1.86,1.11-.05,2.11-.52,2.88-1.37,1.14-1.25,2.16-2.8,3.19-4.87.86-1.72,1.68-3.49,2.47-5.2.96-2.08,1.96-4.24,3.03-6.28,1-1.93,2.15-3.86,3.27-5.72.82-1.37,1.66-2.78,2.46-4.21,1.02-1.83,1.97-3.72,2.89-5.55.34-.67.67-1.34,1.01-2.01,1.92-3.77,4.9-6.72,8.04-9.66,1.39-1.3,2.06-1.47,4.16-.22,1.62.97,2.54,2.67,3.51,4.47.18.33.35.65.53.97,2.85,5.1,6.38,9.5,9.76,13.57,3,3.62,6.84,5.79,10.55,7.9.52.3,1.04.59,1.55.89,4.37,2.53,8.5,3.19,12.29,1.97.54-.17,1.19-.26,1.88-.35l.5-.07c1.52-.21,3.04-.41,4.51-.6-.1.64-.54,1.33-1.35,2.41-1.34,1.78-2.58,3.65-3.68,5.56-.41.71-.63,1.44-.83,2.08-.16.52-.31,1.01-.5,1.31l-.52.79c-1.39,2.13-2.83,4.34-4.51,6.13-4.87,5.17-8.64,10.13-11.54,15.15-.95,1.65-2.2,3.09-3.52,4.61-1.47,1.69-2.99,3.44-4.17,5.59-1.98,3.59-4.62,6.98-7.17,10.27-.59.77-1.19,1.53-1.77,2.29-.35.46-.96.89-1.61,1.35-.59.42-1.26.89-1.85,1.47-1.14,1.12-2.42,2.48-3.33,4.08-.66,1.18-1.2,2.4-1.73,3.58-.43.98-.84,1.9-1.31,2.78-.02.01-.03.02-.05.03-.7-.21-1.41-.5-2.16-.8-.79-.32-1.61-.65-2.48-.92-1.09-.33-2.73-.74-4.34-.49l-.14.02c-2.62.4-5.32.81-8.02,1.63-2.27.69-4.09,1.8-5.73,3.48-.97,1-1.91,2.01-2.86,3.02-.67.72-1.34,1.43-2.02,2.14-.55.58-1.13.85-2.31.42-.23-.08-.46-.18-.7-.27-1.02-.41-2.15-.86-3.46-.86-3.58.03-7.65.07-11.6.58-3.98.51-7.16,1.69-9.73,3.61-.16.12-.33.24-.5.36l-.69-5.75c0-.05-.01-.1-.02-.15.32-.18.58-.45.76-.79.28-.53.31-1.16.08-1.71-.05-.13-.09-.26-.13-.38-.16-.5-.37-1.17-.99-1.72-.22-.19-.44-.41-.66-.62-.97-.93-2.07-1.99-3.59-2.3-2.13-.44-4.28,2.04-4.85,3.5-.85,2.21-.67,4.2.48,5.65-.4.65-.67,1.46-.67,2.5,0,2.24.05,4.19.14,5.98.08,1.59.18,3.17.28,4.76.17,2.65.34,5.4.4,8.08.1,4.21,0,8.33-.12,12.89-.04,1.61-.16,3.26-.28,4.86-.08,1.16-.17,2.32-.23,3.48-.11,2.11-.22,4.57-.21,7.02,0,2.83,2.51,5.08,5.69,5.11h.05c2.73,0,4.91-2.12,5.07-4.96.04-.75.08-1.5.12-2.26.08-1.57.16-3.19.3-4.76.34-3.91.7-7.82,1.06-11.73.39-4.23.78-8.45,1.15-12.68.27-3.09,1.45-5.29,3.6-6.73.78-.52,1.73-.91,2.73-1.33.55-.23,1.11-.46,1.65-.71,3.61-1.69,7.48-1.38,11.59-1.04.05,0,.1,0,.15.01-.03.07-.05.14-.08.22-.42,1.15-.86,2.33-1.06,3.64-.35,2.29-.59,4.6-.82,6.84-.15,1.46-.3,2.91-.48,4.36-.54,4.39.47,8.11,3.11,11.36,3.63,4.48,10.8,6.07,15.35,3.41,4.89-2.87,8.06-5.79,10.24-9.46.07-.1.17-.18.26-.27.2-.19.44-.43.67-.74.48-.64.98-1.26,1.48-1.89,1.27-1.58,2.58-3.21,3.56-5.1,1.24-2.39,2.27-4.89,3.27-7.31.61-1.48,1.24-3,1.9-4.46.11-.25.25-.49.42-.75.02.04.03.07.04.11.86,2.43,1.66,4.96,2.42,7.4l.34,1.07c1.22,3.89,2.59,7.6,5.83,10.33.92.78,2.79,2.11,4.95,2.35,3.66.4,5.59-2.03,7-3.8.31-.39.62-.78.95-1.14.6-.66.7-1.64.23-2.4l-.28-.45c-.48-.77-1.41-1.12-2.27-.86l-.66.2c-.48.15-.96.29-1.44.43-1.05.3-1.89.21-2.18.08-1.07-2.97-1.96-5.96-2.75-8.75-.34-1.2-.58-2.44-.84-3.75-.1-.49-.19-.98-.29-1.47-.25-1.23-.52-2.45-.78-3.68-.7-3.24-1.42-6.58-1.94-9.88-.19-1.22,0-2.69.49-3.57,1.85-3.41,4.13-6.77,6.14-9.73,3.56-5.23,7.21-10.39,9.99-14.3,3.51-4.93,7.13-9.9,10.63-14.72l.72-.99c.71-.97,1.43-1.93,2.16-2.89.92-1.21,1.83-2.42,2.71-3.65,2.61-3.66,5.2-7.34,7.79-11.01,1.4-1.99,2.8-3.97,4.2-5.95,1.54-2.18,3.09-4.36,4.64-6.54,3.25-4.57,6.6-9.3,9.86-13.98,1.2-1.73,2.35-3.51,3.47-5.23,1.13-1.75,2.31-3.57,3.51-5.29,1.05-1.5,2.22-3,3.35-4.44.89-1.14,1.82-2.32,2.7-3.52,1.42-1.94,2.85-4.05,4.26-6.28,1.75-2.77,3.46-5.57,5.18-8.37l2.1-3.42c.75-1.22,1.51-2.44,2.26-3.66,1.68-2.71,3.42-5.52,5.09-8.31,3.24-5.41,6.7-11.22,10.04-17.04,1.13-1.96,2.19-3.99,3.22-5.94.78-1.49,1.57-2.97,2.38-4.44,1.48-2.68,2.99-5.35,4.49-8.02,1.7-3.01,3.4-6.03,5.07-9.06.76-1.38,1.49-2.8,2.19-4.17ZM512.59,148.56c.52-.75.68-1.57.81-2.23.03-.14.06-.29.09-.42.43.02.86-.08,1.22-.32,1.13-.74,2.31-.72,4.08.06.38.17.71.42.85.56.51,2.54,1.69,4.83,3.69,7.16.04.06.13.27.22.97.35,2.65-.57,5.18-1.55,7.87l-.39,1.08c-.34.95-.16,1.86-.04,2.53.04.23.09.47.09.61,0,.38.02.78.01,1.19-.46-.05-.92,0-1.36.12-1.01.29-1.86,1.04-2.33,2.04-.47,1.01-1.34,1.74-2.35,2.6-.74.62-1.5,1.26-2.18,2.08,0,0-.18.19-.8.4.25-1.09.09-2-.49-2.69-.66-.79-1.55-.96-2.29-.96-.31,0-.59.03-.82.05-.43.04-.67.03-.77,0-.04-.1-.12-.32-.18-.75-.09-.6-.16-1.19-.24-1.79-.2-1.55-.41-3.15-.76-4.74-.25-1.13.12-2.27.55-3.58.32-.97.64-1.96.77-3.08.38-3.33,2.21-5.96,4.15-8.75ZM513.43,184.77c4.17-.45,7.33-2.45,9.42-5.95,1.32-2.22,2.75-4.43,4.17-6.59.2.93.38,1.84.55,2.75-.01.07-.03.14-.05.2-.1.4-.23.94-.16,1.58.11.96.31,1.88.5,2.76.06.3.13.6.19.91.03.16.08.32.14.49-.24.89-.47,1.78-.7,2.67-.72,2.79-1.41,5.43-2.42,7.95-.85,2.13-3.07,3.2-4.78,3.72-.79.24-1.5.61-2.13.94-.28-.14-.58-.28-.9-.4-2.44-.95-4.24-2.38-5.36-4.24-1.19-1.98-1.55-4.37-1.75-6.73,1.23.08,2.29.06,3.28-.04ZM546.21,261.68h0c-.28,0-.47-.03-.58-.05-.03-.29.03-.81.06-1.15.06-.56.12-1.14.05-1.73-.22-2.08-.04-4.48.57-7.38.42-2.02.83-3.93,2.33-5.03.67-.49.96-1.18,1.12-1.59.03-.07.06-.14.09-.21.57-1.03.74-1.17.97-1.18.67.12,1.34.24,2,.36,1.69.31,3.44.63,5.19.87,1.71.23,3.41.31,4.9.34-.2,1.61-.67,3.16-1.16,4.8-.14.48-.29.96-.43,1.44-.11.4-.48.9-.87,1.44-.56.76-1.19,1.62-1.49,2.72-.34,1.21-.55,1.51-.64,1.57-2.41.43-4.03,1.86-5.47,3.12-1.12.98-2.08,1.83-3.24,2.1-.31.07-.63.17-.94.28-.23.08-.56.18-.76.22-.01-.02-.03-.04-.04-.06-.37-.55-.99-.87-1.65-.87ZM562.31,237.75c-.42.03-.87.06-1.34.11-.33.04-.63.15-.89.33-.15,0-.3-.01-.45-.02-2.1-.07-3.55-.16-4.66-.96,1.64-1.66,3.72-2.73,6.19-3.17.52-.09,1.43.21,2.3.51.55.19,1.11.38,1.7.52.1.02.2.05.3.08.17.05.37.11.59.15-.12.38-.15.74-.16,1.03-.72.56-1.37.96-1.97,1.19-.36.14-.94.18-1.61.22Z"/>
      <path class="cls-1" d="M159.2,181.3c.72-1.92,1.33-3.57,2.76-4.61.7-.51,1.44-.84,1.91-.86,4.94-.14,8.9,1.46,12.07,4.9.63.68,1.32,1.24,1.98,1.78.27.22.54.44.8.66.7.6,1.72.65,2.47.11l.51-.37c.75-.54,1.04-1.53.68-2.39-.15-.37-.3-.75-.44-1.12-.34-.9-.7-1.83-1.19-2.74-1.42-2.68-3.62-4.37-5.74-6-.63-.48-1.25-.96-1.86-1.47-.85-.71-1.93-.96-2.69-1.04l-1.59-.17c-2.16-.24-4.4-.48-6.65-.54-3.98-.09-7.35,1.91-9.56,5.66-2.39,4.05-4.34,8.39-6.05,12.22-1.79,4-3.35,8.01-4.75,11.75-1.8,4.78-3.66,9.92-5.86,16.19-1.22,3.49-2.38,7.05-3.5,10.5l-.42,1.29c-.55,1.68-1.08,3.37-1.61,5.06-.61,1.92-1.21,3.84-1.84,5.76-.35,1.06-.73,2.11-1.1,3.16-.45,1.26-.92,2.56-1.34,3.88-.65,2.06-1.23,4.16-1.8,6.19l-.5,1.79c-.18.64-.35,1.28-.51,1.92-.2.79-.41,1.57-.64,2.35l-.53,1.79c-.84,2.87-1.72,5.83-2.65,8.71-.38,1.16-1.42,4.37.17,6.93l-1.38,3.77c-.5-1.05-.99-2.09-1.46-3.14-.11-.23-.22-.47-.33-.7-.58-1.18-.77-1.68-.55-2.28.37-.98-.07-1.76-.5-2.26,0-1.8-.9-3.17-1.65-4.31-.61-.93-1.02-1.58-1.11-2.3.66-1.5-.01-2.95-.47-3.81.3-.69.71-1.63.21-2.67-.36-.75-.87-1.32-1.37-1.87l.35-2.61c.06-.44-.03-.89-.25-1.26.02-.3-.03-.6-.15-.89-.63-1.51-.98-3.06-1.35-4.7-.52-2.3-1.05-4.66-2.39-6.81.05-.43-.04-.86-.26-1.24l-.67-1.14c.18-.69.27-1.58-.14-2.44-.56-1.2-1.17-2.39-1.75-3.53-.52-1.02-1.04-2.04-1.53-3.08-.08-.17-.17-.34-.25-.52-.17-.34-.45-.9-.51-1.17.58-2.16-.51-3.66-1.17-4.57-.25-.35-.52-.71-.56-.93-.19-1.06-.79-1.88-1.27-2.54-.23-.31-.44-.61-.55-.84-.23-.49-.42-1.03-.63-1.61-.3-.84-.6-1.7-1.07-2.56-.53-.97-1.21-1.76-1.86-2.53-.23-.27-.45-.53-.67-.8v-.7c0-.71-.37-1.36-.98-1.72-.07-.04-.15-.08-.23-.12-.38-.88-.78-1.78-1.26-2.67-1.47-2.75-3.93-4.3-6.14-5.46-1.1-.57-3.69-1.07-5,.3l-.25.27c-1.54,1.6-3.28,3.42-4.13,5.68-1.6,4.24-2.93,8.63-4.21,12.88-.31,1.03-.62,2.06-.94,3.1-1.9,6.18-3.61,11.93-5.24,17.56-.54,1.85-1.02,3.73-1.49,5.55-.39,1.52-.79,3.05-1.21,4.56-.16.57-.38,1.15-.62,1.76-.31.81-.63,1.64-.85,2.55-.55,2.3-1.06,4.64-1.55,6.9-.35,1.63-.71,3.26-1.08,4.89-.23,1.02-.5,2.04-.77,3.06-.29,1.1-.57,2.19-.82,3.29-.42,1.86-.81,3.73-1.19,5.59-.22,1.05-.43,2.1-.66,3.15-.14.66-.28,1.33-.42,1.99-.37,1.8-.76,3.66-1.22,5.44-.33,1.3-.73,2.57-1.15,3.91-.31.98-.61,1.95-.89,2.93-.33,1.15-.55,2.28-.66,3.34-.08.77-.14,1.54-.2,2.31-.16-.25-.32-.49-.48-.74-.8-1.24-1.63-2.51-1.78-3.6-.25-1.92-.95-3.34-1.77-4.47.02-.07.05-.14.07-.22.32-1.24-.37-2.19-.7-2.66-.02-.03-.04-.06-.07-.09-.17-1.68-.48-3.44-.94-5.35-.26-1.05-.8-1.93-1.27-2.7l-.16-.26c-.32-.55-1.01-2.98-1-3.65.01-1.29-.58-2.55-1.6-3.39-.03-.03-.06-.05-.1-.08.24-1.03.38-2.19-.25-3.26-.62-1.04-.94-2.21-1.29-3.44l-.21-.74c-.24-.85-.54-1.68-.83-2.48-.13-.35-.25-.71-.38-1.07-.02-.06-.05-.12-.07-.19.02-.16.02-.32,0-.48-.08-.64-.46-1.21-1.02-1.52-.09-.4-.17-.81-.25-1.22-.3-1.56-.61-3.18-1.5-4.64-.68-1.11-.95-1.93-.95-2.84,0-1.3-.42-2.24-1.26-2.79.03-.76-.12-1.54-.64-2.2-.26-.33-.65-.68-1.23-.91l-1.43-5.69c-.14-.55-.51-1.01-.99-1.27.02-.42-.1-.84-.35-1.21-.1-.15-.22-.3-.34-.45-.03-.04-.06-.07-.09-.11-.28-.98-.69-1.85-1.08-2.68-.49-1.03-.91-1.92-1-2.85-.12-1.22-1.09-2.3-1.99-2.82-.15-.09-.51-.3-.78-.47.05-.15.13-.37.24-.66.54-1.4.91-3.24-1.03-5.18-.62-.61-1.09-1.58-1.59-2.59-.24-.48-.47-.95-.73-1.41-.06-.11-.16-.39-.24-.59-.31-.84-.83-2.24-2.32-2.39-.12-.01-.21-.03-.27-.04-.04-.21-.06-.58-.08-.84-.01-.22-.03-.43-.05-.65-.04-.42-.06-.86-.08-1.3-.09-1.9-.19-4.06-1.5-5.58-1.68-1.95-2.44-3.49-2.64-5.34-.1-.89-.3-1.62-.62-2.26-.53-1.06-1.1-2.1-1.73-3.24l-.78-1.43c-.45-.83-1.42-1.23-2.32-.97-.16-.32-.31-.67-.47-1.02-.68-1.57-1.53-3.52-3.7-4.67-.87-.46-1.94-.23-2.53.55-.07.09-.12.15-.17.21-.17.2-.39.47-.55.88-1.08,2.82.12,5.2.99,6.94.21.41.41.81.58,1.22,1.1,2.62,2.39,5.18,3.63,7.65.9,1.79,1.84,3.64,2.68,5.48.52,1.13.91,2.34,1.33,3.62.37,1.13.75,2.29,1.23,3.44.61,1.46,1.11,2.97,1.64,4.56.88,2.67,1.79,5.42,3.31,8.01.01.04.02.07.03.11.03.13.07.25.11.38.25.78.49,1.57.73,2.35,1.07,3.46,2.17,7.04,4,10.48,1.54,2.89,2.61,6.02,3.75,9.32.49,1.43,1,2.91,1.55,4.36.29.76.58,1.51.87,2.27.58,1.51,1.18,3.06,1.72,4.6.56,1.58,1.08,3.17,1.61,4.75.46,1.39.92,2.78,1.4,4.16.31.9.65,1.79,1,2.68.53,1.39,1.03,2.69,1.42,4.04.47,1.62.89,3.31,1.29,4.94.42,1.71.85,3.47,1.36,5.2.78,2.65,1.73,5.27,2.65,7.8l.34.93c.58,1.58,1.17,2.96,1.83,4.2l.42.79c1.38,2.61,2.81,5.31,4.41,7.89,1.46,2.34,2.83,4.05,4.32,5.38.94.84,2.01,1.28,3.09,1.28.29,0,.59-.03.88-.1,1.45-.33,2.62-1.43,3.31-3.09.21-.5.34-1.01.45-1.47.09-.34.22-.86.29-.98,1.28-1.25,1.5-2.53,1.43-3.68.57-.28.98-.82,1.09-1.46l2.63-15.11c.16-.23.39-.59.54-1.13.49-1.81,1-3.68,1.31-5.61.16-.99.22-1.96.27-2.9.06-.96.11-1.86.27-2.72.43-2.43.96-4.91,1.47-7.3.24-1.15.49-2.31.73-3.46.17-.81.36-1.78.51-2.79.06-.4.09-.8.12-1.2.04-.52.08-1.02.19-1.4.15-.52.43-1.08.72-1.67.16-.32.31-.64.46-.96.11-.25.17-.51.18-.79l.43-1.9c.02-.07.03-.14.04-.22.08-.7.2-1.44.38-2.26.02-.1.06-.2.09-.31.11-.34.26-.81.28-1.37.04-1.38.41-2.75,1.22-4.59.7-1.6,1-3.27,1.29-4.88.11-.62.22-1.24.36-1.85.06-.25.09-.53.11-.8,0-.06,0-.13.02-.19.96-1.5,1.2-3.08,1.4-4.47.1-.71.2-1.38.39-1.97.46-1.45.86-2.92,1.26-4.35.45-1.65.92-3.36,1.46-4.99,1.12-3.37,2.39-6.77,3.62-10.07l.59-1.58c.23-.62.48-1.23.76-1.88.36.63.73,1.26,1.09,1.89,1.71,2.95,3.48,6,4.93,9.08,1.44,3.07,2.63,6.37,3.78,9.57l.77,2.13c1.23,3.38,2.43,6.9,3.66,10.75,1.1,3.46,2.26,7.15,3.2,10.78.71,2.74,1.37,5.54,2.02,8.26.76,3.21,1.55,6.53,2.42,9.79.76,2.88,1.83,5.67,2.86,8.37l.29.76c1.43,3.77,2.83,7.23,4.28,10.58,1.39,3.22,4.72,3.13,5.82,3.11,1.27-.03,3.56-.55,4.58-3.68,1.1-3.38,2-6.8,2.65-9.4.24-.96,0-2.47-.81-3.4.93-1.09,1.15-2.42,1.32-3.42.22-1.31.32-1.48.68-1.64.77-.34,1.2-1.01,1.29-2.08l4.16-15.78c.32-1.2.63-2.41.95-3.61.27-1.02.53-2.05.79-3.08.58-2.28,1.17-4.64,1.9-6.88,1-3.09,2.17-6.21,3.29-9.23.35-.94.7-1.88,1.05-2.83.06-.16.19-.39.33-.63.32-.55.72-1.24.83-2.11.5-3.79,1.84-7.32,3.25-11.05.65-1.73,1.33-3.51,1.91-5.32.59-1.83,1.29-3.69,1.97-5.49.3-.79.59-1.57.88-2.36.37-1,.73-2,1.09-3,.86-2.39,1.75-4.86,2.71-7.24,1.32-3.29,2.59-6.12,3.86-8.65.47-.93.82-1.88,1.16-2.8Z"/>
      <path class="cls-1" d="M249.47,252.95c1.2-.87,2.34-1.84,3.4-2.88,2.36-2.33,4.13-4.17,5.75-5.94l.66-.73c2.9-3.19,5.9-6.5,8.71-9.89,1.55-1.87,2.95-3.85,4.31-5.78.53-.75,1.06-1.5,1.59-2.24,4.6-6.35,7.09-13.55,7.41-21.39.12-3.06-.2-5.35-1.01-7.23-1.3-3.01-3.91-4.65-6.22-6.1-.63-.4-1.26-.79-1.85-1.21-.65-.46-1.36-.67-1.93-.84l-.36-.11c-5.85-1.91-11.72-2.07-18.74-1.73-3.06.15-5.56,1.21-7.44,3.15l-1.29,1.33c-.73.75-1.48,1.51-2.23,2.31l-.04-.22c-.25-1.5-.51-3.04-.67-4.54-.24-2.26-.42-4.54-.54-6.79-.05-.95-.06-1.91-.07-2.87-.01-1.39-.03-2.83-.16-4.28-.12-1.33-.33-2.64-.53-3.91-.29-1.81-.56-3.52-.59-5.22-.06-3.42.2-6.94.49-10.43.62-.06,1.2-.42,1.53-.99,2.24-3.86,1.24-9.32-2.31-12.69-.74-.7-1.89-.74-2.67-.08l-2.25,1.9c-.4.34-.66.83-.7,1.36-.03.32-.04.62-.04.89-.67.46-1.34,1.12-1.49,2.13-.1.67.07,1.27.34,1.77-.9,1.62-.8,3.02-.44,4.08-.29.35-.55.72-.77,1.14-1,1.92-1.04,4.29-1.08,6.02l-.02.99c-.1,5.1-.19,10.38.02,15.58.11,2.57.39,5.14.67,7.62.23,2.09.47,4.26.6,6.36.12,2.12.17,4.56-.44,6.63-.62,2.09-1.63,4.1-2.71,6.22-.33.65-.66,1.3-.97,1.95l-.93,1.92c-1.28,2.66-2.6,5.4-4.09,7.95l-.82,1.41c-2.91,4.99-5.92,10.15-9.28,14.9-2.23,3.16-4.88,6.17-7.44,9.08-1.03,1.17-2.06,2.35-3.07,3.53-1.29,1.51-2.67,2.97-3.85,4.2-1.19,1.24-2.48,2.56-3.84,3.78-2.33,2.11-4.5,4-6.64,5.77-.2.17-.4.34-.6.51-1.01.88-1.62,1.38-2.48,1.45-.94.07-1.79.36-2.54.61-.34.12-.69.23-1.04.32-3.84.96-6.18.49-8.1-1.6-.14-.16-.28-.33-.43-.49-.52-.62-1.14-1.36-2-1.85.04-.39-.04-.79-.23-1.15l-.65-1.2c.18-.3.28-.65.28-1.02,0-.81,0-1.62-.02-2.43-.02-1.87-.04-3.63.04-5.41l.02-.54c.07-1.62.14-3.29.6-4.64.46-1.33,1.01-2.66,1.59-3.97.08.42.23.87.47,1.34,2,3.79,6.91,5.68,11.02,4.2.18-.07.46-.16.53-.17,2.31.06,4.46-.66,6.59-2.18.2-.11.42-.21.63-.31.69-.32,1.48-.68,2.16-1.35,2.84-2.76,5.67-5.62,8.4-8.39l1.2-1.22c.36-.36.74-.72,1.12-1.07,1.11-1.03,2.27-2.09,3.07-3.5.45-.79.92-1.58,1.39-2.36,1.65-2.75,3.35-5.58,4.33-8.93.79-2.71,1.47-6.33-.3-10.24-.11-.24-.23-.49-.36-.74-.16-.3-.42-.81-.43-.96.18-3.24-2.18-4.65-3.31-5.32-.51-.3-1-.61-1.5-.93-.53-.33-1.06-.67-1.6-.99-3.66-2.18-7.64-2.68-11.2-1.41-2.48.88-4.54,2.56-6.52,4.19l-.89.72c-1.67,1.34-3.13,2.89-4.55,4.39l-2.09,2.2c-2.46,2.58-5,5.24-7.36,8.03-1.13,1.33-1.93,2.83-2.71,4.28-.26.49-.53.98-.8,1.46l-.6,1.04c-.87,1.51-1.78,3.06-2.54,4.71-.85,1.84-1.59,3.73-2.3,5.56-.24.62-.49,1.25-.73,1.87-.25.62-.52,1.24-.8,1.86-.7,1.58-1.42,3.22-1.79,5.01-1.31,6.29-1.7,12-1.19,17.46.26,2.8,1.41,5.49,2.49,7.75,1.69,3.52,4.62,5.68,7.27,7.32,2.89,1.8,5.93,2.68,9.35,2.68,1.55,0,3.18-.18,4.91-.55,2.14-.45,4.34-1.42,6.19-2.74,2.55-1.81,5.2-4,8.11-6.7,2.58-2.39,4.91-4.99,6.66-6.98,1.08-1.24,2.11-2.53,3.1-3.78,1.65-2.07,3.2-4.03,4.99-5.76,3.44-3.31,6.36-7.24,9.47-12.75,2.19-3.86,4.21-7.87,6.17-11.75.72-1.43,1.44-2.85,2.17-4.28.97-1.89,1.82-3.65,2.6-5.37.4-.88.79-1.76,1.18-2.66.29,1.92.56,3.84.84,5.76.43,3.02.87,6.15,1.39,9.22.49,2.91,1.11,5.82,1.7,8.64.23,1.1.46,2.19.69,3.29.24,1.15.46,2.3.68,3.45.56,2.88,1.14,5.86,1.9,8.77.61,2.32,2.09,4.05,4.08,4.76,2.02.72,4.33.31,6.31-1.12ZM243.72,204.47c-.16-1.65.28-2.35.69-2.78,2.53-2.67,4.89-4.91,8.25-5.2.32-.03.64-.07.96-.11.45-.06.89-.12,1.26-.12.14,0,.26,0,.38.03.74.12,1.49.23,2.23.35,3.23.5,6.58,1.02,9.73,1.85,2.33.62,3.74,2.4,3.89,4.9.11,1.88-.23,4-.94,5.83-1.41,3.64-3.07,7.09-4.93,10.26-1.54,2.64-3.49,5.3-5.79,7.91-3.55,4.04-7.3,8.06-10.92,11.94-.65.69-1.29,1.39-1.94,2.08-.17-.91-.33-1.8-.47-2.69-.18-1.15-.33-2.3-.49-3.44-.17-1.23-.33-2.47-.53-3.69-.24-1.49-.5-2.98-.76-4.46-.34-1.93-.68-3.93-.97-5.89l-.09-.63c-.41-2.76-.83-5.62-.94-8.38-.02-.55.22-1.28.48-2.06.2-.6.41-1.22.55-1.89.23-1.14.47-2.46.34-3.8ZM172.31,232.1s.06-.08.09-.11c.18-.22.45-.56.64-1.02.35-.88.66-1.77.96-2.63.58-1.7,1.13-3.3,1.98-4.63,2.56-3.98,5.43-7.67,8.65-11.73,1.16-1.47,2.56-3.08,4.08-3.9.99-.53,1.9-1.15,2.79-1.75,1.95-1.32,3.64-2.47,5.73-2.53.35-.01.72-.06,1.09-.1.26-.03.63-.08.81-.08,1.64.94,3.01,4.23,2.52,6.08-.86,3.17-2.44,6.15-4.59,8.62-2.27,2.62-4.73,5.18-7.11,7.66-1.37,1.42-2.73,2.84-4.07,4.28-.52.56-.94,1.15-1.33,1.73-.46-.08-.98-.09-1.52.08-.04.01-.08.02-.11.03-.06-.07-.18-.21-.36-.51-.21-.35-.41-.71-.62-1.11l-.38-.69c-.48-.87-1.53-1.25-2.46-.9-.14.05-.28.1-.42.14-.46.15-1.03.33-1.59.67l-.92.55c-1.35.8-2.75,1.64-4.02,2.7-.09.08-.2.17-.32.27.17-.37.33-.74.5-1.11Z"/>
      <path class="cls-1" d="M361.73,298.41c-1.31-4.51-3.23-9.65-7.56-13.59-2.72-2.47-5.65-4.72-8.5-6.9l-1.2-.92c-.54-.42-1.08-.84-1.62-1.27-2.03-1.62-4.14-3.29-6.55-4.48-5.64-2.8-10.53-4.42-15.4-5.1l-.53-.07c-1.64-.23-3.34-.47-5.09-.46-1.53.01-3.04.16-4.5.3-.78.07-1.56.15-2.33.2-.69.05-1.38.08-2.08.11-.91.04-1.81.08-2.71.15-.92.08-1.72.46-2.24.75-4.45,2.44-8.5,5.54-12.03,9.22-.34.35-1.34.75-2.24.75-4.02.02-5.88.73-7,5.07-.46,1.8-.72,3.63-.97,5.4-.1.72-.2,1.43-.31,2.15-.24,1.48-.48,2.95-.72,4.42-.59,3.63-1.21,7.39-1.74,11.1-.36,2.52-.69,5.05-1.01,7.58-.44,3.46-.89,7.03-1.46,10.52-.51,3.17-1.15,6.39-1.76,9.51-.57,2.91-1.16,5.91-1.66,8.9-1.1,6.59-1.98,12.72-2.68,18.72-.17,1.44-.59,1.49-1.12,1.57-3.31.45-6.6.77-9.79.94-.23,0-.67-.12-1.06-.24-.7-.21-1.58-.48-2.55-.4-2.91.24-5.75.67-8.44,1.29-1.6.37-2.94,1.98-3.39,3.31-.28.83-.62,2.43.24,3.81.55.87,1.47,1.43,2.6,1.57,2.03.25,4.06.29,6.03.32h.8c.63.03,1.22-.03,1.79-.09.49-.05.95-.09,1.34-.08.08,0,.31.08.46.13.45.15,1.04.35,1.76.34,1.76-.04,3.52-.11,5.28-.17,1.77-.07,3.54-.13,5.31-.17.03,2.37.04,4.94-.17,7.43-.18,2.22-.45,4.49-.7,6.68-.37,3.17-.74,6.44-.91,9.71-.3,5.95-.4,12.3-.32,20.58.04,4.2.24,8.45.43,12.55.07,1.46.14,2.92.2,4.37-.26.39-.37.86-.31,1.33.15,1.26.3,2.52.44,3.77.43,3.72.88,7.56,1.46,11.33.29,1.83,2.21,3.26,3.48,3.69.46.16.94.23,1.4.23.86,0,1.7-.26,2.42-.78,1.21-.87,1.94-2.38,1.94-4.03,0-3.65-.02-7.3-.04-10.95l-.03-4.98c0-.78,0-1.55,0-2.33,0-1.57.01-3.19-.04-4.8-.05-1.52-.13-3.05-.21-4.57-.12-2.34-.25-4.77-.25-7.12,0-1.84.13-3.66.27-5.59.1-1.48.21-3.01.26-4.54.08-2.75.08-5.54.09-8.24,0-1.3,0-2.6.02-3.9v-1.1c0-1.08,0-2.11.08-3.12.13-1.98.29-3.97.44-5.95.25-3.24.51-6.6.68-9.92.03-.55.08-1.52.17-1.94.4-.12,1.32-.24,2.15-.34l.64-.08c2.99-.38,6.38-.8,9.41-2.82,1.06-.71,2.34-1.21,3.69-1.75.54-.21,1.08-.43,1.61-.66,1.17-.5,2.36-.98,3.54-1.45l1.18-.47c.42-.17.84-.33,1.27-.47.9-.28,1.81-.54,2.72-.8,2.08-.59,4.22-1.21,6.28-2.12,2.2-.98,4.26-2.2,6.26-3.39.93-.55,1.85-1.1,2.79-1.63,1.45-.81,2.91-1.6,4.37-2.39,3.14-1.7,6.39-3.47,9.5-5.4,3.12-1.94,6.26-4.31,9.35-7.04,2.19-1.94,4.09-4.16,5.93-6.31l.88-1.02c.55-.64,1.13-1.28,1.7-1.92,1.88-2.09,3.82-4.24,5.22-6.78,2.38-4.31,4.96-9.4,5.47-15.25.04-.5.1-1,.15-1.5.28-2.67.56-5.44-.29-8.38ZM287.6,292.38c.59-.96,1.16-1.87,1.73-2.74h.02s.15-.05.15-.05c.92-.25,3.36-.91,3.39-3.76.02-1.49.79-2.5,2.94-3.88.62-.4,1.25-.78,1.88-1.17,1.39-.85,2.82-1.72,4.18-2.73,2.06-1.52,4.18-2.2,6.67-2.14.76.01,1.44-.13,2.04-.25.44-.09.84-.18,1.13-.17.74.04,1.48.08,2.21.11,2.86.13,5.55.26,8.17.79,1.78.36,3.54,1.12,5.4,1.92.9.39,1.79.77,2.7,1.12,4.53,1.73,8.19,4.82,12.17,8.38l.64.57c2.78,2.48,5.66,5.05,7.26,8.39,2.02,4.2,2.17,8.19.47,12.19-.27.65-.47,1.28-.65,1.9-.18.59-.35,1.15-.57,1.63-.66,1.43-1.37,2.88-2.06,4.28-.56,1.13-1.12,2.27-1.66,3.41-.31.67-.56,1.33-.79,1.97-.15.4-.3.81-.46,1.21-.07.18-.12.25-.11.24-.31.27-.63.54-.94.81-2.09,1.78-4.25,3.61-5.77,6.3-.13.23-.86.65-1.3.9-.32.18-.64.37-.93.56l-3.06,2c-3.73,2.44-7.58,4.96-11.41,7.35-3.1,1.94-6.49,3.93-10.65,6.25-2.26,1.26-4.31,2.25-6.26,3.03-1.43.57-2.89,1.04-4.43,1.53-1.25.41-2.55.82-3.82,1.3-1.36.51-2.71,1.06-4.01,1.6-1.84.76-3.58,1.48-5.38,2.08-2.2.73-4.55,1.28-6.83,1.81-.33.08-.67.15-1,.23.32-2.41.62-4.82.92-7.23.08-.64.15-1.29.21-1.93l.18-1.72c.04-.44.09-.89.17-1.32.47-2.45.94-4.91,1.42-7.36.39-1.99.77-3.98,1.15-5.97.6-3.16,1.21-6.33,1.78-9.5.38-2.1.71-4.17,1-6.14.37-2.55.7-5.15,1-7.57.59-4.75,1.17-9.49,1.74-14.24.09-.78.32-2.64-.65-4Z"/>
      <path class="cls-1" d="M334.09,142.83c.08,1.83.12,3.71.15,5.53.06,3.31.13,6.73.47,10.11.34,3.39.93,6.78,1.5,10.06.36,2.09.74,4.25,1.04,6.37.27,1.88.42,3.85.56,5.75.08,1.03.16,2.07.26,3.1.21,2.2.42,4.47.7,6.77.23,1.92.53,4,.9,6.37.16,1.02.34,2.04.52,3.06.23,1.27.45,2.54.64,3.81.13.92.23,1.84.32,2.76.14,1.42.29,2.89.58,4.35.53,2.7,1.17,5.4,1.8,8.01.26,1.11.53,2.21.78,3.32l.55,2.38c.76,3.3,1.52,6.59,2.28,9.89l.02.11c.08.35.19.88.55,1.4,1.14,1.63,2.29,3.26,3.44,4.88l1.72,2.43c.95,1.34,2.29,2.06,3.72,2.06.55,0,1.12-.11,1.69-.33,2.09-.82,2.99-3.01,2.16-5.2-.28-.75-.71-1.34-1.08-1.86-.24-.33-.46-.64-.57-.89-.19-.42-.34-.92-.5-1.45-.29-.96-.61-2.04-1.28-3.01-.63-.9-.65-1.49.46-3.16.21-.32.43-.64.65-.95.83-1.18,1.64-2.36,2.46-3.54,1.82-2.64,3.69-5.36,5.64-7.94,2.33-3.09,4.84-6.15,7.26-9.12.81-.99,1.61-1.97,2.41-2.96,1.68-2.08,3.4-4.15,5.06-6.15.84,1.7,1.63,3.33,2.38,4.98-2.15.8-3.7,2.99-4.02,5.76-.08.68.2,1.35.73,1.78.53.43,1.24.56,1.89.34.39-.13.77-.26,1.13-.39.74-.26,1.38-.49,2.02-.65.33-.08.67-.18,1.01-.27.96-.27,1.87-.53,2.56-.44.44.05,1.16.53,1.78.95.3.2.59.39.88.57,3.48,2.12,7.36,3.29,11.87,3.6,1.01.07,1.85-.04,2.58-.33l.68-.27c6.63-2.63,13.49-5.36,19.21-10.31,1.49-1.29,2.99-2.57,4.48-3.86,2.61-2.24,5.31-4.55,7.94-6.88.8-.71,1.34-1.57,1.81-2.33.18-.28.36-.57.55-.84.18-.25.28-.53.33-.82.03-.02.05-.04.07-.06.19.09.51.33.74.5l.18.13c.14.1.27.22.41.34l.27.23c2.58,2.2,5.66,3.89,9.54,5.25-.26.11-.54.23-.83.35-.35.15-.73.26-1.1.38-.9.28-1.92.6-2.83,1.26-1.77,1.29-3.35,2.1-5.32,1.88-.91-.1-1.62.28-2.09.54-.08.04-.17.09-.25.13-.88.33-1.72.72-2.53,1.09-1.82.85-3.4,1.59-5.17,1.53-2.65-.1-4.69,2.53-4.84,4.92-.17,2.76,1.52,4.75,4.22,4.95.59.04,1.24.08,1.92.08,1.16,0,2.42-.11,3.6-.46,1.92-.58,3.76-1.35,5.54-2.1.77-.32,1.54-.65,2.32-.95,1.43-.56,2.86-1.12,4.28-1.68,3.25-1.27,6.61-2.57,9.89-3.96,1.57-.66,3.01-1.53,4.4-2.36.5-.3,1-.6,1.51-.89.39-.22.69-.48.93-.68.11-.09.21-.19.33-.26,3.76-2.28,3.38-4.69,2.82-5.93-.77-1.7-2.52-3.32-4.46-4.15-2.45-1.04-4.97-1.95-7.41-2.84-1.81-.65-3.68-1.33-5.48-2.05-1.4-.56-2.61-1.68-3.68-3.41-.07-.12-.18-.48-.26-.7-.04-.12-.08-.25-.13-.38.64.22,1.37.11,1.92-.35,1.65-1.36,3.13-2.87,4.54-4.62l1.38-1.71c2.26-2.8,4.6-5.69,6.73-8.7,2.5-3.54,3.91-6.94,4.3-10.4.17-1.48-.05-3.61-1.15-5.14-1.04-1.44-2.37-2.56-3.65-3.65-.29-.25-.59-.5-.88-.75-.6-.53-1.29-.73-1.79-.87-.12-.04-.25-.07-.36-.11-.54-.2-1.12-.17-1.62.09-1.28-.73-3.06-1.07-5.53-.73-1.71.24-3.32.9-4.38,1.38-2.97,1.34-6.04,2.73-9.02,4.35-3.36,1.82-4.91,5.15-6.16,7.83-1.38,2.96-2.73,6.53-2.27,10.56.87,7.69,3.45,13.63,7.87,18.14l.21.21c.21.21.5.51.66.71-.03.04-.07.08-.12.13-.1.09-.2.19-.3.29-.03.03-.04.06-.07.08,0,0,0,0-.01,0-2.8,1.07-4.76,3.01-6.66,4.88l-.89.88c-.56.55-1.08,1.08-1.61,1.41-.62.39-1.3.73-2.02,1.09-.88.45-1.79.91-2.67,1.49-.5.33-.99.67-1.48,1-2.31,1.58-4.49,3.07-7.04,3.7-.14.03-.29.06-.43.1-.73.15-1.64.34-2.43.95-1.85,1.42-4.17,1.77-6.63,2.13-.8.12-1.6.24-2.38.39-.43.08-1.02-.01-1.64-.17.37-.12.76-.24,1.15-.36,1.32-.41,2.69-.83,3.99-1.51,3.6-1.88,6.76-3.78,9.65-5.79,3.27-2.27,7.04-4.96,10.29-8.06,2.36-2.25,4-5.08,4.38-7.56.73-4.77-.36-8.85-3.15-11.82l-.02-.05c-.13-.29-.34-.77-.8-1.18-.64-.59-1.27-1.21-1.89-1.83-1.68-1.67-3.42-3.4-5.56-4.62-2.55-1.46-6.1-1.4-9.25.14-2.02.99-4.45,2.05-7.15,2.48-.61.1-1.2.24-1.78.4.24-1.34.47-2.63.72-3.91.94-4.88.55-9.3-1.18-13.49-1.71-4.14-4.61-6.97-7.22-9.19-3.03-2.58-6.54-3.95-9.94-5.26-.97-.38-1.93-.75-2.88-1.15-6.37-2.7-13.45-3.74-21.64-3.16-4.59.32-8.54,1.72-12.09,4.27-1.15.83-2.33,2.57-2.25,4.16.05.91.5,1.67,1.25,2.1.21.12.28.19.28.19.03.17-.1.69-.17,1-.12.5-.25,1.06-.28,1.67,0,.15-.07.4-.13.66-.16.66-.36,1.48-.15,2.4.24,1.04.96,1.75,1.48,2.26.14.13.28.27.39.4.45.53,1.14.79,1.83.69.69-.1,1.27-.56,1.54-1.2.06-.14.14-.28.22-.42.33-.6.84-1.5.68-2.58-.37-2.45-.18-2.91.8-3.43.35-.18.58-.43.75-.65.41-.24.81-.49,1.2-.74.83-.53,1.78-1.14,2.35-1.14,6.08-.07,10.66.18,14.84.81,6.44.97,12.13,3.62,16.9,7.88,2.37,2.12,3.54,4.64,3.78,8.19.37,5.44-1.83,10.37-4.12,14.95-1.7,3.41-3.91,6.53-6.24,9.84-1.01,1.44-2.06,2.92-3.05,4.42-.26.39-.5.79-.75,1.19-.42.7-.82,1.35-1.27,1.89-.55.65-1.17,1.27-1.82,1.92-.75.75-1.53,1.53-2.24,2.4-2.69,3.28-5.28,6.6-8.35,10.56-1.83,2.36-3.97,5.17-6.02,8.06-.56.79-.99,1.61-1.41,2.41-.34.65-.67,1.27-1.04,1.82-.93,1.38-1.92,2.75-2.98,4.17-.11-.8-.22-1.63-.39-2.46-.26-1.27-.56-2.53-.87-3.79-.49-2.05-.96-3.98-1.26-5.95-.4-2.62-.64-5.34-.88-7.98-.12-1.32-.24-2.64-.38-3.96-.18-1.7-.37-3.4-.55-5.1-.16-1.44-.32-2.89-.47-4.33-.11-1.06-.21-2.12-.31-3.17-.2-2.13-.4-4.33-.72-6.5-.19-1.29-.46-2.55-.73-3.77-.45-2.03-.87-3.94-.87-5.88,0-1.63-.23-3.23-.44-4.6-.21-1.38-.45-2.76-.68-4.13-.3-1.78-.62-3.62-.87-5.43-.06-.46-.04-1-.02-1.58.03-.67.06-1.42-.04-2.2l-.08-.68c-.19-1.6-.41-3.42-1.25-5.02-.5-.94-1.39-1.35-2.3-1.58,1.34-1.34,1.85-3.08,1.51-5.19l-.04-.25c-.17-1.1-.48-3.16-2.87-3.82-2.04-.56-3.66.32-4.83,2.63-.42.83-.62,1.82-.56,2.71.07.9.17,1.8.27,2.7.13,1.12.25,2.18.3,3.24ZM391.12,190.65c.21-1.26,1.06-2.64,1.87-3.98l.4-.66c.96-1.6,1.9-2.86,2.88-3.86,3.27-3.33,6.18-5.9,9.75-7.67,3.05-1.51,6.28-1.79,9.6-1.79.62,0,1.24,0,1.86.02.69.02,1.61.2,2.05,1.02,2.23,4.16,2.69,5.76-.39,8.75-3.51,3.41-6.7,5.89-10.03,7.81-.68.39-1.44.9-1.92,1.73-.33.58-.95.85-2.02,1.27-.38.15-.75.3-1.11.47-2.61,1.23-5.41,2.46-8.8,3.87-.78.32-1.63.59-2.53.86,0-.01-.01-.03-.02-.04-.47-.94-.87-1.75-1.04-2.5-.39-1.74-.83-3.71-.56-5.31ZM447.83,173.64c-.02.13-.04.27-.07.36-.28.75-.6,1.56-1.03,2.53-.04.08-.1.15-.16.23-.08.11-.16.22-.23.33-.24.37-.35.79-.32,1.2-.26-.13-.57-.22-.93-.25-.1-.05-.33-.4-.47-.61-.32-.48-.73-1.08-1.38-1.56-1.06-.78-1.5-1.68-1.46-2.91.03-.74-.28-1.31-.45-1.62l-.05-.1c-.98-2.04-1.36-4.18-1.07-6.03.73-4.55,2.35-7.58,5.15-9.58.83-.59,1.68-1.2,2.46-1.46,1.89-.61,3.88-1.11,5.81-1.6l1.48-.38c.15.03.3.05.45.06l1.35.1c.31.43.62.86.95,1.29.35.46.4.61.38.71-.46,1.19-.89,2.4-1.32,3.6l-.43,1.21c-.2.56-.4,1.12-.62,1.75l-.11.31c-.3.22-.53.52-.67.86-.15.34-.29.66-.41.94-.25.58-.45,1.04-.67,1.46l-.14.26c-.4.77-.78,1.49-1.23,2.09-.55.73-.91,1.53-1.23,2.24-.65,1.44-.96,1.97-1.81,2.17-1.44.34-1.68,1.73-1.79,2.4Z"/>
      <path class="cls-1" d="M871.42,89.74c-.04-.68-.43-1.29-1.02-1.62-.6-.33-1.32-.34-1.92-.01-.17.09-.34.17-.5.24-.5.22-1.11.5-1.62,1.07-.99,1.14-1.96,2.3-2.93,3.46-.72.87-1.44,1.73-2.18,2.59-.59.69-1.17,1.38-1.74,2.08-1.49,1.79-2.9,3.49-4.48,5.01-5.96,5.73-12.11,11.46-18.27,17.02-2.27,2.05-4.48,4.2-6.62,6.29-3.03,2.96-6.17,6.01-9.46,8.75-2.73,2.27-5.23,4.84-7.64,7.33-.83.85-1.65,1.7-2.49,2.54-.7.71-1.33,1.45-1.94,2.17-.51.61-1,1.18-1.51,1.71-1.34,1.4-2.7,2.78-4.05,4.17-1.97,2.01-4.01,4.1-5.98,6.2-1.28,1.37-2.52,2.8-3.72,4.17-1.62,1.87-3.3,3.8-5.05,5.55-2.06,2.07-4.58,4.27-7.72,5.12-.23-1.27-.39-2.64-.47-4.07-.15-2.64-.28-5.22-.17-7.76.06-1.5.38-2.17.48-2.28,2.87-2.66,2.57-5.7,2.1-7.76-.02-.11-.06-.21-.1-.31.33-.29.57-.69.65-1.15.01-.06.03-.12.05-.19.1-.4.26-1.01.16-1.71l-.39-2.9c-.65-4.78-1.31-9.72-2.12-14.57-.27-1.64-1.18-3.39-2.43-4.67-1.69-1.73-3.56-3.26-5.37-4.74l-.79-.64c-2.34-1.92-9-2.19-11.3-.45-5.11,3.85-10.22,8.21-11.71,15.32,0,.02-.04.1-.12.21-2.27,3.19-3.07,6.77-3.85,10.22-.13.59-.26,1.17-.4,1.75-.49,2.04-.59,4.11-.69,6.11-.06,1.11-.11,2.15-.22,3.19-.39,3.54.36,6.81,1.09,9.97.2.88.4,1.75.58,2.63.21,1.05.86,1.87,1.33,2.46l.1.12c.84,1.07,1.65,2.01,2.48,2.88,3.08,3.25,7.64,3.95,10.38,1.6,4.41-3.79,7.39-7.76,9.13-12.14.07-.18.21-.38.38-.6.31.24.6.48.9.72.14.84.29,1.68.44,2.53.42,2.36.85,4.8,1.13,7.18.13,1.1.14,2.24.15,3.45.02,1.44.03,2.92.25,4.42.37,2.49-.27,4.48-2.06,6.44-.49.54-1,1.06-1.5,1.58-.82.84-1.67,1.72-2.46,2.66-1.56,1.88-3.09,3.82-4.56,5.7l-1.59,2.02c-.23.29-.47.57-.71.85-.65.76-1.39,1.61-1.91,2.64l-1.1,2.12c-1.87,3.6-3.81,7.33-5.38,11.19-.96,2.36-1.44,4.86-1.91,7.27-.16.81-.31,1.62-.49,2.42-.24,1.09.24,2.51,1.11,3.28.67.6,1.38,1.09,2.19,1.66.33.23.69.48,1.08.76.56.4,1.29.49,1.93.23.64-.26,1.1-.83,1.21-1.51,1.85-10.83,6.83-20.47,15.63-30.17.14.16.26.31.35.46.06.11.12.5.16.75.06.38.13.82.27,1.27.96,3.06,1.08,6.05.38,9.14-.38,1.67-.38,3.45-.02,5.01.2.86.02,1.61-.33,2.84l-.15.54c-.47,1.76-.65,3.55-.83,5.28-.05.49-.1.97-.15,1.46-.06.54-.05,1.05-.04,1.5,0,.37.02.72-.02.98-.07.53-.2,1.08-.32,1.66-.22.98-.44,2-.48,3.1-.11,3.09-.85,6.14-1.56,9.08-.77,3.21-1.63,5.32-3.74,6.6-1.57.95-2.22,1.06-2.5.98-.22-.06-.51-.41-.77-.93-.83-1.61-1.78-3.15-2.69-4.64l-.58-.94c-1.22-1.99-3.15-3-5.65-2.94-1.03.03-1.86.83-1.94,1.85-.21,2.88-.18,6.58,2.03,9.69,2.09,2.94,4.61,5.48,6.8,7.57,1.31,1.25,2.98,1.92,4.76,1.92.15,0,.31,0,.47-.02,2.13-.14,4.17-1.23,5.58-2.99,3.15-3.92,6.18-8.34,7.09-14.04l.57-3.58c.56-3.46,1.13-7.04,1.64-10.58.14-.95.15-1.87.16-2.76,0-.7.02-1.36.08-1.98.13-1.18.3-2.35.47-3.53.26-1.77.53-3.6.65-5.45.14-2.08.16-4.17.17-6.2,0-1.31.02-2.62.06-3.93.03-1,.13-2.01.24-3.07.22-2.15.44-4.38.08-6.62-.82-5.15.83-9.61,2.73-13.66.34-.73,1.05-1.45,1.8-2.21.42-.42.83-.85,1.21-1.29.95-1.1,1.9-2.21,2.85-3.32,2.2-2.57,4.47-5.23,6.76-7.78,1.28-1.43,2.65-2.85,3.97-4.22,1.32-1.37,2.69-2.79,3.99-4.24,1.24-1.38,2.44-2.82,3.6-4.21,1.7-2.03,3.46-4.13,5.31-6.02,5.68-5.79,11.65-11.5,17.42-17.02l.3-.28c1.98-1.9,4.06-3.78,6.07-5.6,1.67-1.52,3.35-3.03,4.99-4.58,2.14-2.01,4.26-4.08,6.32-6.09,1.1-1.07,2.2-2.15,3.31-3.22,1.38-1.33,2.76-2.67,4.13-4.01,3.6-3.5,7.32-7.11,11.05-10.58,3.61-3.36,3.87-7.43,3.65-10.97ZM765.67,155c-.39.89-.79,1.8-1.15,2.75-.3.79-.24,1.56-.19,2.12,0,.09.02.17.02.26-.22.35-.42.79-.47,1.31-.04.42-.05.5-1.33,1.05l-.41.18c-1.02.45-1.86,1.13-2.6,1.72-.5.4-.97.78-1.43,1.04-1.15.65-2.42,1.22-3.64,1.78-.05.02-.09.04-.14.06-1.23-1.77-1.88-2.99-1.67-4.54.14-1.03-.29-1.93-.59-2.54-.43-.88-.26-1.82.03-3.28.14-.68.28-1.39.34-2.14.14-1.78.69-3.58,1.28-5.5l.28-.91c.43-1.42.93-2.8,1.46-4.25.31-.84.61-1.69.9-2.54.14-.42.25-.85.36-1.28.13-.52.25-1.01.43-1.36.46-.88,1-1.73,1.58-2.63.34-.53.68-1.06,1-1.6l.38-.63c.59-.96,1.19-1.96,1.69-3.05.45-.98,3.48-2.69,4.67-2.69.07,0,.13,0,.18.02l.44.12c1.17.3,2.5.65,3.13,1.23.67.62,1.24,1.88,1.25,2.73.02,3.18-.55,6.48-1.71,9.83-.58,1.68-1.04,3.39-1.49,5.05-.4,1.47-.77,2.86-1.22,4.24-.38,1.15-.87,2.27-1.39,3.46Z"/>
      <path class="cls-1" d="M495.7,293.3c-.09-6.44-.34-13.15-.75-19.95-.26-4.32-.74-8.76-1.46-13.59-.23-1.52-.52-3.04-.81-4.5-.61-3.14-1.19-6.1-1.16-9.14.03-3.3.01-6.64,0-9.87l-.02-3.65c0-2.88-1.95-5-4.95-5.39-1.88-.25-4.17.73-4.97,4.2-.33,1.42-.69,2.83-1.07,4.3-.17-.08-.33-.17-.5-.25-.84-.42-1.72-.86-2.71-1.17-2.51-.77-6.28-1.59-10.05.18-1.34.63-2.55,1.42-3.72,2.18-.66.43-1.31.86-1.99,1.25-4.61,2.69-7.73,6.01-9.52,10.16-.77,1.78-1.29,3.64-1.78,5.43l-.21.75c-.15.55-.31,1.09-.48,1.64-.97,3.28-1.97,6.68-1.53,10.46.05.42.03.91,0,1.43-.01.37-.03.74-.02,1.11,0,.62-.03,1.25-.06,1.88-.09,1.72-.18,3.5.39,5.25.87,2.66,2.51,5.05,4.16,7.24,1.42,1.88,3.71,4.45,7.3,5.12,4.61.85,8.97-.68,12.59-4.44,5.15-5.35,8.17-10.09,9.78-15.37.39-1.27.98-2.5,1.64-3.79.71,4.19.93,8.07.67,11.8-.06.12-.2.32-.3.47-.04.06-.08.12-.12.18-.07.03-.14.07-.2.1-.6.29-1.29.62-1.93,1.1-.82.6-1.59,1.24-2.35,1.86-.65.53-1.3,1.07-1.97,1.58-1.21.92-2.45,1.81-3.68,2.7-2.37,1.72-4.82,3.49-7.12,5.43-3.85,3.25-7.52,6.69-10.9,10.21-2.95,3.08-4.49,6.85-4.44,10.9.05,3.84,1.57,7.46,4.69,11.12.28.34,1.03,1.25,2.28,1.06.11-.02.16-.01.17-.02.16.12.42.68.57.99.09.19.17.37.26.54l.13.26c1.26,2.45,2.69,5.22,6.16,6.49.91.33,1.81.79,2.76,1.27,1.36.68,2.76,1.39,4.33,1.81,1.59.43,3.18.4,4.71.37.73-.01,1.41-.03,2.07.01.23.01.45.02.67.02,4.58,0,8.46-2.63,10.7-7.3,2.2-4.57,3.7-9.85,4.35-15.26.64-5.34.53-10.8.44-16.07-.02-1.03-.04-2.07-.05-3.1ZM484.57,284.63c0,.29,0,.58.01.87.04,1.44.07,2.89.11,4.33.08,3.18.17,6.36.22,9.54.04,2.4.06,4.95-.1,7.5-.32,5.18-1.01,10.67-3.88,15.67-.74,1.29-1.78,2.12-3.1,2.46-.34.09-1.08.07-2.66-.5-.79-.29-1.58-.69-2.42-1.12-.89-.45-1.81-.92-2.81-1.29-1.52-.56-2.73-1.63-4.03-3.55-.49-.73-.91-1.55-1.35-2.42-.21-.42-.43-.84-.65-1.25-.14-.25-.32-.47-.54-.63l-.17-2.66c-.05-.81-.58-1.49-1.32-1.75.28-1.43,1.28-2.56,2.41-3.86.5-.57,1.01-1.15,1.49-1.79.88-1.19,1.94-2.57,3.09-3.88.46-.52.99-1.02,1.55-1.55.41-.38.82-.77,1.21-1.16l3.01-3.06c3.27-3.32,6.65-6.76,9.91-10.23,0,.11,0,.22,0,.33ZM478.45,249.31c-.44,1.73-1,3.41-1.6,5.19-.22.66-.44,1.31-.66,2-.92,2.84-1.87,5.78-2.82,8.56-.05.08-.11.15-.17.23-.23.31-.55.73-.74,1.3-.06.19-.15.38-.23.57-.23.52-.65,1.51-.57,2.62-1.04.46-1.94,1.15-2.75,2.08-1.35,1.56-2.87,3.33-4.54,4.78-1,.87-1.79,1.3-2.16,1.19-.57-.18-1.49-1.23-2.31-2.17-1.49-1.71-1.64-3.54-1.4-6.3.1-1.08.15-2.17.2-3.26.09-1.9.18-3.68.49-5.42.49-2.71,1.3-5.67,2.49-9.03.08-.24.22-.49.39-.74.87.29,1.86-.05,2.35-.87.14-.23.26-.47.39-.7.17-.32.34-.65.48-.8.89-.92,1.9-1.85,3.02-2.76.95-.77,1.95-1.52,2.93-2.25.16-.12.31-.23.47-.35.1.03.21.06.31.08.99.26,2,.54,2.96.89,1.06.4,2,.88,2.78,1.43.85.61,1.27,1.44.69,3.74Z"/>
      <path class="cls-1" d="M446.7,271.03c-.32-1.02-.63-1.98-.87-2.95-.69-2.82-2.25-5.26-4.76-7.47-.81-.71-1.73-1.19-2.62-1.65-.37-.19-.75-.39-1.14-.61-.54-.31-1.19-.35-1.76-.11-.57.24-1,.73-1.17,1.33-.19.7-.21,1.34-.23,1.86,0,.08,0,.17,0,.26-.5.17-.93.55-1.17,1.03-.23.46-.35,1.22-.27,1.94-.41-.01-.77.01-1.08.03-.26.02-.53.04-.78.03-1.43-.05-2.28.51-2.73,1-.12.13-.25.3-.36.49-.33-.24-.69-.42-1.07-.55-1.31-.43-2.78-.18-4.5.78-.31.17-.61.38-.91.58-.27.19-.57.4-.73.45-4.67,1.4-7.13,4.97-9.07,8.21-.1.17-.18.26-.22.31-.04,0-.09-.01-.16-.03-.9-.19-1.8-.42-2.71-.64-2.27-.57-4.62-1.16-7.05-1.26-3.74-.15-7.5.1-11.14.34-1.01.07-2.01.13-3.02.19-1.09.06-1.97.6-2.67,1.03l-.26.16c-2.16,1.29-4.31,2.59-6.63,4l-.07.04c-.14-1.08-.3-2.12-.54-3.17-.26-1.11-1.28-3.02-2.94-3.43-1.85-.47-3.78.02-5.16,1.28-1.29,1.18-1.9,2.87-1.63,4.52.19,1.17.22,2.4.25,3.7l.03,1.29c.04,1.52.09,2.96-.01,4.39-.06.82.06,1.57.16,2.22.15.97.22,1.51-.07,2.08-.19.38-.39.76-.59,1.15-1.71,3.29-3.47,6.69-3.41,10.86l-.18.52c-.21.6-.42,1.2-.64,1.8-.85,2.34-.67,4.66-.5,6.7.09,1.18.18,2.3.08,3.36-.4,4.22.59,8.22,1.67,12.04.27.97.65,2.3,1.64,3.2,1,.91,2.52,1.96,4.12,1.96.07,0,.14,0,.2,0,2.42-.14,4.04-1.24,4.8-3.27.9-2.41,1.2-4.81,1.48-7.14.11-.89.22-1.78.36-2.66,1.07-6.54,2.17-13.3,1.88-20.32-.02-.57.16-1.29.35-2.05.07-.27.13-.53.19-.8.28-1.23.59-2.45.92-3.77l.46-1.85c.12-.47.06-.96-.15-1.37.64-.56,1.31-1.11,2.01-1.68.76-.62,1.54-1.26,2.3-1.93,2.87-2.57,6.55-3.93,11.24-4.17,2.6-.13,5.21.09,7.97.33,1.01.08,2.02.17,3.02.24-.12.39-.24.78-.36,1.17-.58,1.91-1.19,3.88-1.59,5.91-.69,3.52-1.55,7.89.31,12.21.24.56.48,1.13.71,1.7.65,1.58,1.32,3.21,2.19,4.76,3.59,6.38,9.76,9.95,17.84,10.32,4.95.21,9.54-2.29,12.93-7.07,1.7-2.4,3.15-4.98,4.55-7.47l.54-.97c1.65-2.92,3.89-7.38,4.27-12.29.35-4.61.31-9.66-.14-15.03-.18-2.11-.81-4.1-1.42-6.02ZM432.64,274.81c.09-.02.31.02.42.07.73.37,1.44.79,2.19,1.24.69.41,1.38.83,2.09,1.2.12.06.45.23.63.36,0,.01,0,.03-.01.05-.28,1.07.22,1.97.53,2.51.05.09.1.18.14.26.52,1.13.33,2.44.1,3.96l-.04.28c-.53,3.67-.99,7.37-1.36,10.51-.06.47-.39.9-.93,1.57-.35.44-.76.93-1.09,1.52-.37.65-.77,1.28-1.17,1.91-.53.84-1.09,1.71-1.58,2.63-2.06,3.88-4.22,5.62-7.22,5.81-.6.03-1.55-.41-2.39-.8-.38-.18-.75-.35-1.12-.5-.75-.31-1.5-.73-2.19-1.23-.05-.09-.09-.2-.14-.3-.12-.25-.24-.51-.4-.78-.18-.32-.44-.58-.76-.75-.14-.08-.31-.16-.5-.24-.04-.02-.08-.03-.12-.05-3.3-4.46-2.61-12.1,0-16.99.87-1.64,1.79-2.16,3.49-1.99.88.08,1.66-.12,2.29-.28.9-.23.94-.2,1.05-.09.81.74,1.71.59,2.38.32.51.38,1.17.49,1.78.3.66-.21,1.17-.74,1.34-1.41l.65-2.53c.26-1.03-.32-2.08-1.33-2.4l-.54-.17c-.63-.2-1.3-.07-1.81.31-.67-.17-1.36-.34-2.07-.47-.28-.05-.56-.1-.85-.14,1.19-1.1,2.33-2.16,3.48-3.17.02-.01.04-.03.07-.05,1.79.6,3.33.08,4.48-.31.18-.06.37-.12.52-.17Z"/>
      <path class="cls-1" d="M664.61,222.23c-.4-4.95-.56-9.92-.66-13.69-.07-2.6-.36-5.66-1.97-8.67-1.06-1.98-2.85-3.25-4.9-3.47-2.01-.22-3.98.61-5.4,2.27l-.61.73c-.85,1.01-1.66,1.97-2.56,2.76-1.4,1.23-2.89,2.4-4.47,3.63-.23-.62-.44-1.19-.68-1.77-1.23-3.04-3.59-5.01-6.47-5.42-1.98-.29-3.76,1.44-5.09,2.74-1.44,1.4-2.69,2.93-4.12,4.78-.55.71-1.17,1.39-1.83,2.11-1.9,2.07-4.05,4.41-4.53,7.93-.81.93-1.63,1.86-2.45,2.78-.01-1.1-.01-2.2.01-3.28.01-.52.11-1.09.21-1.7.06-.37.12-.73.17-1.1l.04-.21c.11-.61.36-2.05-.91-2.83-.43-.27-1.57-.86-2.83-.62-1.06.2-2,.85-2.64,1.85-.69,1.07-.92,2.35-.64,3.52.05.21.07.28-.47.88-1.4,1.57-2.22,3.49-2.65,4.83-.42,1.31-.9,3.32-.77,5.45.15,2.37-.15,4.73-.48,7.23-.32,2.5-.65,5.07-.52,7.74.15,2.9.21,5.87.27,8.74.02,1.04.04,2.09.07,3.13.04,1.45.69,3.39,3.62,4.34.54.18,1.07.26,1.58.26,1.7,0,3.13-.96,3.78-2.67.74-1.95,1.27-3.56,1.65-5.07.66-2.61,1.21-5.26,1.75-7.83l.03-.14c.12-.58.26-1.16.39-1.74.41-1.76.84-3.57.89-5.48.02-.82.42-1.52.92-2.4.35-.62.75-1.31,1.04-2.12.16-.46.32-.93.47-1.39.39-1.2.77-2.33,1.29-3.33,1.85-3.55,3.94-7.57,6.29-11.28l.23-.37c.81-1.28,1.58-2.52,2.62-3.43.13.19.23.36.24.46.52,2.99,1.03,6.17,1.12,9.26.08,2.8-.04,5.68-.16,8.47-.06,1.34-.11,2.67-.15,4.01-.05,2,.58,3.68,1.79,4.72,1.06.92,2.49,1.28,4.01,1.01,2.39-.42,4.04-2.71,4.08-5.69.11-6.73,1.28-12.51,3.58-17.68,1.03-2.32,2.56-4.5,4.66-6.66.28.58.51,1.16.57,1.69.3,2.36.5,4.81.69,7.17.1,1.2.19,2.41.3,3.61.06.67.15,1.34.23,2.01.09.73.19,1.46.24,2.2.03.44,0,.93-.1,1.38-.35,1.55.61,5.99,2.46,7.09.91.54,2.13.74,3.19.52,2.4-.51,3.02-2.5,3.4-3.69l.11-.35c.68-2.09.44-4.05.22-5.77-.06-.48-.12-.97-.16-1.46Z"/>
      <path class="cls-1" d="M726.48,186.93c-.27-2.33-.56-4.74-.67-7.11-.25-5.48-3.4-9.05-6.12-11.54-3.41-3.13-7.49-4.68-11.04-5.89-3.06-1.04-5.4-.46-6.95,1.72-.38.54-.78,1.07-1.18,1.6-.75.99-1.52,2.01-2.2,3.12-.6.98-1.34,2.5-1.44,4.15-.23,3.73-.37,7.73-.41,12.22v.19c-.02,2.08-.04,4.22.49,6.33.77,3.05,1.71,6.09,2.61,9.02.44,1.42.87,2.83,1.29,4.25.64,2.18,2.37,3.45,4.75,3.48.03,0,.05,0,.08,0,2.78,0,5.36-2.08,6.03-4.88.76-3.16-.67-5.54-1.82-7.46-.38-.64-.74-1.24-1.01-1.83-.4-.88-.78-1.78-1.15-2.67-.08-.19-.13-.38-.19-.58-.15-.51-.35-1.14-.74-1.74-.29-.44-.33-.64-.34-.64.01-.03.09-.2.42-.52l.21-.2c.59-.56,1.39-1.33,1.68-2.43.17-.65.45-1.31.75-2.01.62-1.45,1.32-3.09,1.24-5.09-.05-1.3.15-2.71.35-3.93,1.56.28,4.06,1.64,4.42,2.38,2.26,5.12,2.52,10.56,2.48,15.67,0,.44-.1.96-.2,1.5-.15.84-.32,1.78-.23,2.79.25,2.81-.41,5.53-1.11,8.42l-.14.6c-.87,3.64-.17,6.89,2.02,9.41.71.82,1.85,1.1,2.74,1.1.06,0,.13,0,.19,0,.46-.02,1.3-.22,1.86-1.29.26-.5.79-1.78.1-2.87-.59-.94-.39-1.76.25-3.56.13-.35.25-.7.36-1.06.17-.55.39-1.1.6-1.64.45-1.17.92-2.39,1.12-3.73.4-2.75.65-5.45.92-8.3.1-1.14.21-2.29.33-3.45.01-.14.01-.27,0-.41-.11-1.03-.23-2.07-.35-3.13Z"/>
      <path class="cls-1" d="M692.96,217.84c-.14-.02-.29-.04-.43-.07-.44-.08-.97-.17-1.57-.13.2-5.19.34-10.45.48-15.54.1-3.64.2-7.27.31-10.91,0-.24.12-.6.24-.98.17-.56.37-1.19.41-1.92.05-.89-.13-1.69-.28-2.4-.05-.24-.11-.48-.15-.72-.13-.75-.67-1.37-1.4-1.58-.73-.22-1.52,0-2.04.56l-.3.32c-.48.52-.95,1.04-1.43,1.56-.21.24-.46.62-.52,1.17-.25.9-.5,1.81-.76,2.71-.64,2.27-1.3,4.62-1.86,6.97-.49,2.08-.7,4.24-.84,6.07-.06.8.05,1.54.15,2.2.06.42.12.82.12,1.15,0,.62-.04,1.27-.09,1.95-.06.83-.12,1.68-.1,2.56.02,1.04.16,2.03.3,3,0,.06.02.11.02.17-.28.53-.32,1.19-.05,1.78.27.58.52,1.17.78,1.75.63,1.44,1.28,2.94,2.13,4.36.65,1.09,1.78,1.85,3.11,2.1.31.06.62.09.93.09,1.02,0,1.98-.31,2.74-.91.72-.56,1.08-1.31,1.35-1.87.07-.15.15-.3.23-.44.35-.58.38-1.3.08-1.91-.3-.61-.89-1.02-1.56-1.1Z"/>
      <path class="cls-1" d="M487.79,200.04c.74.66,1.59.99,2.34,1.28.25.1.49.19.72.3.27.13.57.19.85.19.63,0,1.24-.3,1.63-.84l.36-.5c.47-.66.5-1.55.06-2.24-.08-.13-.16-.27-.24-.41-.24-.42-.54-.94-.99-1.42-1.19-1.24-1.72-2.71-1.75-4.77-.01-1.25-.08-2.51-.14-3.72-.19-3.71-.37-7.22.82-10.57.37-1.04.91-2.07,1.34-2.84.12-.22.36-.49.61-.78.16-.18.32-.37.47-.56.43-.54.55-1.27.32-1.92l-.21-.58c-.34-.96-1.36-1.51-2.35-1.27-.3.07-.6.14-.89.2-.77.17-1.56.34-2.36.62-.55.19-1.01.45-1.42.69-.25.15-.64.36-.78.39-2.18.25-3.69,1.73-3.94,3.85-.44,3.86-.7,7.05-.81,10.06-.21,5.89,1.93,10.88,6.35,14.83Z"/>
      <path class="cls-1" d="M692.05,148.75c.84-2.48-.96-5.57-3.49-6.15-2.77-.63-5.26.84-6.15,3.49-4.13,12.26-7.21,24.84-9.2,37.62-.4,2.57.65,5.5,3.49,6.15,2.39.54,5.72-.73,6.15-3.49,1.99-12.78,5.07-25.37,9.2-37.62Z"/>
      <path class="cls-1" d="M494.29,118.7c.84-2.48-.96-5.57-3.49-6.15-2.77-.63-5.26.84-6.15,3.49-4.13,12.26-7.21,24.84-9.2,37.62-.4,2.57.65,5.5,3.49,6.15,2.39.54,5.72-.73,6.15-3.49,1.99-12.78,5.07-25.37,9.2-37.62Z"/>
    </g>
  </g>
</svg>