<?xml version="1.0" encoding="UTF-8"?>
<svg id="_レイヤー_2" data-name="レイヤー_2" xmlns="http://www.w3.org/2000/svg" viewBox="0 0 1879.05 1037.22">
  <defs>
    <style>
      .cls-1 {
        fill: #d7134a;
      }
    </style>
  </defs>
  <g id="_レイヤー_1-2" data-name="レイヤー_1">
    <g>
      <path class="cls-1" d="M835.55,421.49c7.53-4.84,16.3-10.67,24.29-17.28,7.16-5.92,13.86-12.48,19.94-19.5,11.33-13.1,22.21-26.6,33.28-40.43,1.78-2.22,3.16-4.57,4.49-6.84,1.59-2.7,3.09-5.25,4.85-6.76,6.92-5.91,10.93-12.98,13.02-22.91,1.56-7.41,3.37-14.96,5.13-22.25,1.89-7.86,3.85-15.99,5.52-24.09.66-3.18,1.25-6.4,1.83-9.51,2.16-11.64,4.2-22.64,9.27-32.84,1.29-2.59,2.56-5.18,3.82-7.77,7.72-15.81,15.02-30.75,26.64-43.36,5.1-5.52,9.56-9.89,14.77-13.24,4.12-2.65,12.22-4.45,16.44,1.98,5.87,8.95,12.24,17.68,18.4,26.13,1.62,2.22,3.24,4.44,4.85,6.66,1.65,2.28,3.39,4.48,5.07,6.6,2.02,2.55,3.92,4.95,5.66,7.46.49.71.95,1.84,1.44,3.05.63,1.57,1.35,3.34,2.48,5.09,6.14,9.55,12.54,19.14,18.72,28.41l2.33,3.49c2.9,4.36,5.9,8.87,9.16,13.19,1.37,1.82,2.85,3.36,4.28,4.84,1.48,1.54,2.88,3,3.82,4.45l.19.3c6.97,10.74,14.86,22.91,30.67,27.28,10.56,2.92,21.11-.02,27.53-7.67,6.24-7.42,10.08-15.72,13.14-24.53.48,13.95,6.67,25.55,18.43,34.47,3.6,2.73,8.03,4.22,12.56,4.5,6.67.41,13.57-1.79,18.45-6.46,1.61-1.55,2.32-3.81,1.87-6-.45-2.19-1.99-3.99-4.08-4.78-.79-.3-1.55-.59-2.29-.88-1.68-.65-3.27-1.27-4.97-1.83-8.18-2.71-12.18-7.74-11.91-14.95.6-15.6,3.34-28.61,8.39-39.8,4.77-10.58,7.55-20.56,8.51-30.54.2-2.07,2.08-5.12,2.98-6.59,5.36-8.69,3.86-20.77-3.43-27.48-1.86-1.71-4.54-2.19-6.88-1.23s-3.91,3.19-4.02,5.71c-.18,3.88-1.99,6.6-6.26,9.38-3.34,2.18-5.62,4.68-6.77,7.45-.93,2.22-1.48,4.46-1.97,6.45-.41,1.67-.8,3.25-1.34,4.54-1.9,4.55-3.98,9.17-5.99,13.64-1.98,4.39-4.02,8.93-5.93,13.49l-.27.64c-1.8,4.28-3.85,9.13-4.4,14.35-.02.22-.04.44-.06.67-1.92-.51-4.01-.12-5.64,1.14-.8.62-1.56,1.15-2.29,1.66-1.66,1.16-3.37,2.37-4.8,4.15-2.74,3.42-5.44,6.93-8.04,10.32-3.12,4.05-6.34,8.24-9.6,12.23-.82.26-2.63.02-3.25-.47l-1.67-2.24c-5.39-7.25-10.97-14.74-16.22-22.22-2.89-4.13-5.72-8.48-8.45-12.69-1.74-2.68-3.53-5.44-5.34-8.16-5.94-8.89-12.04-17.88-17.73-26.26-2.5-3.69-5.03-7.35-7.56-11.02-1.41-2.04-2.82-4.08-4.22-6.13-1.01-1.47-2-2.95-3-4.43-2.18-3.24-4.43-6.59-6.84-9.84-1.37-1.84-2.84-3.48-4.27-5.06-2.05-2.28-3.99-4.43-5-6.56-3.03-6.43-7.74-10.79-11.9-14.64-.73-.68-1.47-1.36-2.2-2.05-.33-.32-.66-.64-.99-.96-2.21-2.14-4.71-4.57-7.95-6.23-13.25-6.8-27.92-5.83-43.59,2.87-11.6,6.45-21.96,16.66-30.8,30.37-7.06,10.96-13.28,22.57-19.29,33.8-1.28,2.4-2.57,4.8-3.86,7.19-.8,1.48-1.55,2.96-2.27,4.46.92-7.14,1.4-13.09,1.52-18.6l.03-1.46c.24-11.71.48-23.81-.18-35.79-.73-13.22-1.82-26.6-2.88-39.54-.53-6.54-1.09-13.31-1.59-19.96-.11-1.48-.12-3.03-.14-4.67-.02-2.35-.04-4.77-.35-7.31-1.3-10.76-2.73-21.23-4.25-31.13-.53-3.41-1.38-6.67-2.07-9.29-.25-.94-.48-1.81-.66-2.57-.12-.51-.3-1-.54-1.46.72-1.26,1.01-2.73.79-4.18-.2-1.35-.35-2.83-.52-4.38-.44-4.19-.93-8.94-2.57-13.53-1.94-5.42-7.62-9.31-11.9-10.99-5.4-2.12-9.92,2.51-13.55,6.24l-.1.1c-2.69,2.76-2.74,6.63-2.54,9.31.89,11.88,1.97,25.91,3.19,39.81.55,6.23,1.22,12.53,1.87,18.62.29,2.73.58,5.46.86,8.19.32,3.09.66,6.18.99,9.27.74,6.81,1.52,13.85,2.04,20.74.8,10.57,1.35,21.22,1.63,31.65.13,5.06.02,10.28-.1,15.34-.07,3.04-.14,6.19-.16,9.31-.03,5.38-.02,10.85-.01,16.2-4.28-2.3-9.1-4.02-14.66-5.25-10.57-2.34-24.61-4.77-39.5-2.73-12.73,1.75-23.99,8.16-34.43,19.61-3.98,4.36-6.77,9.39-9.47,14.26l-.99,1.78c-2.82,5.05-5.74,10.26-7.46,16.12-1.2,4.07-1.63,8.12-2.05,12.04-.28,2.61-.54,5.07-1.01,7.4-1.94,9.58-.65,18.64.61,27.41.29,2.01.58,4.04.83,6.09.27,2.2,1.65,4.12,3.66,5.07,1.15.55,2.41.74,3.63.58,0,.2-.01.4-.02.6-.33,10.35-.39,20.83-.44,30.07-.05,8.68,0,15.8.18,22.42.11,4.34.27,8.67.43,13,.25,6.96.51,14.15.58,21.2h0c-3.59,1.48-7.36,2.58-11.21,3.28-3.63.65-7.74,1.4-10.97.89-11.83-1.87-20.52-10.29-29.12-19.51-1.61-1.72-2.81-4.83-2.74-5.94,2.33-8.58-.25-15.84-2.33-21.68-.49-1.37-.95-2.67-1.34-3.94-1.16-3.74-3.45-6.67-5.48-9.26-.79-1.01-1.54-1.97-2.14-2.88-.72-1.08-1.48-2.04-2.21-2.97-.77-.97-2.05-2.6-2.2-3.2-1.48-9.3-8.87-11.1-11.3-11.69-3.62-.88-7.27-1.63-10.8-2.35-2.27-.46-4.54-.93-6.8-1.43-1.38-.31-2.81-.7-4.31-1.13-5.43-1.52-12.1-3.39-19.38-1-9.4-1.06-17.62,2.08-24.43,5.33-6.35,3.02-12.78,6.7-19.66,11.23-4.82,3.18-9.65,7.06-14.34,11.53-2.73,2.61-5.1,5.43-7.38,8.16-.79.95-1.56,1.86-2.33,2.75-5.22-4.11-11.23-5.66-16.63-7.04-1.99-.51-3.88-1-5.64-1.58-5.62-1.87-11.2-1.22-16.12-.64-2.09.25-4.07.48-5.88.51-12.27.17-23,3.95-33.38,7.61-3,1.06-6.1,2.15-9.14,3.11-7.02,2.22-14.29,5.81-21.62,10.65-6.9,4.57-12.95,10.17-18.45,15.55-2.1,2.06-3.89,4.27-5.56,6.48-3.23-15.24-8.6-29.84-14.3-44.65-1.43-3.73-5.01-6.81-9.82-8.46-4.76-1.64-9.42-1.42-12.79.6-2.73,1.64-4.1,4.65-4.46,6.92-.92,5.73-1.76,11.35-2.65,17.29l-.79,5.31c-.35,2.34.59,4.68,2.46,6.12,2.08,1.6,4.32,1.92,5.95,2.07.63,3.1,1.32,6.18,2.01,9.23-.1-.22-.19-.44-.27-.63-1.04-2.68-3.73-4.36-6.6-4.12-1.16.1-2.23.27-3.18.43-.74.12-1.83.3-2.27.29-8.11-2.37-15.26-.28-21.34,1.88-3.15,1.12-6.29,2.27-9.43,3.42-4.7,1.72-9.57,3.5-14.35,5.13-4.58,1.55-9.28,3.07-13.84,4.53-6.47,2.08-13.17,4.23-19.73,6.57-6.4,2.28-12.74,4.84-18.88,7.32-3.41,1.38-6.94,2.8-10.41,4.15-2.19.85-4.43,1.6-6.81,2.4-4.96,1.66-10.09,3.38-14.92,6.11-12.15,6.86-23.94,13.73-34.73,22.29-13.05,10.36-21.65,23.05-25.57,37.71-1.34,5.02-.44,10.22,2.49,14.26,2.95,4.07,7.67,6.57,12.93,6.85,2.76.15,5.31-1.45,6.36-4l1.05-2.54c2.01-4.85,4.02-9.72,6.04-14.59,1.41-1.32,2.77-2.68,4.1-3.99,3.26-3.24,6.33-6.31,9.71-8.42,4.06-2.54,8-5.29,11.81-7.95,9.74-6.79,18.94-13.19,29.83-16.37,4.6-1.34,9.05-2.96,13.7-4.67l-.03,1.08c-.11,4.35-.22,8.84-.53,13.17-.12,1.78-.14,3.56-.15,5.27-.03,3.48-.06,7.08-1.1,9.14-3.63,7.14-8.06,13.82-12.75,20.9-1.89,2.85-3.84,5.79-5.71,8.74-.14.22-.27.45-.38.68-.22.4-.44.8-.66,1.2-.58,1.06-1.12,2.07-1.66,2.73-1.67,2.07-3.46,4.16-5.2,6.19-2.84,3.32-5.78,6.75-8.48,10.42-3.74,5.1-7.39,10.34-10.91,15.42-3.99,5.74-8.12,11.68-12.34,17.33-2.97,3.99-6.38,7.68-9.99,11.59-1.36,1.48-2.73,2.96-4.07,4.45-2.23,2.49-4.45,4.98-6.67,7.48-6.11,6.87-12.42,13.98-18.84,20.69-7.94,8.29-15.89,15.97-23.63,22.83-6.06,5.37-13.3,11.52-21.09,16.43-7.66,4.83-16.13,8.73-24.86,12.63-5.26,2.35-10.66,4.27-16.38,6.3-2.11.75-4.22,1.5-6.32,2.27-2.37.87-5.37.5-8.84.09-5.02-.61-11.13-1.34-17.17,1.78-1.55-.2-3.09-.4-4.64-.61-4.78-.64-9.73-1.3-14.72-1.67-8.78-.64-15.97-5.62-23.58-10.9-1.81-1.26-3.68-2.55-5.58-3.8-7.09-4.63-14.13-10.09-17.66-18.58-1.13-2.73-2.55-5.15-3.91-7.5-1.22-2.1-2.38-4.09-3.18-6.05-4.93-11.99-8.92-22.1-12.38-32.5-.88-2.65-1.04-5.95-1.21-9.43-.06-1.21-.12-2.41-.2-3.6-.11-1.58-.1-3.26-.08-5.04.03-3.36.06-6.84-.73-10.46-2.16-9.93-1-19.92.23-30.51.37-3.17.75-6.44,1.03-9.7.73-8.43,1.99-17.05,3.21-25.39.59-4.01,1.19-8.17,1.74-12.27.14-1.07.13-2,.12-2.76,0-.3-.01-.7,0-.76.36-1.76.76-3.5,1.2-5.35.46-1.96.94-4,1.35-6.06.44-2.22.76-4.41,1.07-6.53.15-1.02.3-2.04.46-3.06.08-.48.14-.97.2-1.45.09-.7.19-1.49.31-1.83.07-.19.37-.69.59-1.06.64-1.07,1.51-2.54,1.97-4.39.69-2.74,1.17-5.49,1.65-8.16.4-2.28.78-4.43,1.26-6.41,1.12-4.69,3.73-9.35,6.5-14.28,1.36-2.42,2.76-4.93,4.03-7.52,1.02-2.09,1.48-4.15,1.88-5.96l.15-.67c.36-1.59.65-3.16.92-4.67.5-2.75.97-5.34,1.8-7.59,1.25-3.41,3.38-6.85,5.49-10.07,2.39-3.65,3.85-7.51,5.26-11.24,2.05-5.43,3.81-10.12,8.04-12.81,1.31-.84,2.25-2.05,2.81-3.62,2.31-3.87,4.62-7.74,6.94-11.6l4.26-7.13c.29-.49.57-.98.85-1.47.21-.36.42-.73.63-1.09,1.27-2.15,2.51-4.32,3.75-6.49,2.8-4.91,5.44-9.55,8.48-13.94,3.02-4.37,6.39-8.46,9.96-12.8,1.72-2.1,3.51-4.26,5.23-6.45,1.51-1.92,3-3.86,4.48-5.8,2.87-3.76,5.59-7.31,8.53-10.71,1.24-1.44,2.86-2.8,4.57-4.25,1.51-1.27,3.06-2.59,4.57-4.11,3.21-3.25,6.38-6.61,9.44-9.85,5.58-5.91,11.36-12.02,17.36-17.49,6.12-5.58,12.98-10.77,19.63-15.78,2.49-1.88,4.98-3.76,7.44-5.67,3.22-2.49,6.24-4.65,9.19-6.56,1.03.64,2.03.96,2.85,1.12,3.75.72,6.51-1.26,7.84-2.21.15-.1.29-.21.38-.27,2.41-1.34,4.62-2.82,6.96-4.38.73-.49,1.48-.99,2.25-1.5.88.8,1.97,1.36,3.17,1.59,2.18.42,4.42-.3,5.94-1.91l6.47-6.83c.98-1.03,1.58-2.35,1.74-3.73.39,1.75,1.16,3.26,2.31,4.51,3.01,3.3,7.15,3.29,9.62,3.28.28,0,.55,0,.82,0,2.59.04,5.06-.12,7.68-.3.75-.05,1.52-.1,2.31-.15.31.1.62.2.95.31,1.99.66,4.46,1.48,7.12,1.97,1.2.22,2.41.43,3.61.64,9.4,1.6,14.87,2.83,17.97,9.39.85,1.81,2.18,2.79,2.88,3.29,8.09,8.71,13.28,19.36,18.78,30.63l.83,1.69c2.12,4.34,3.73,9,5.44,13.93.77,2.23,1.57,4.54,2.42,6.82.94,2.51,1.89,5.01,2.85,7.52,2.14,5.61,4.36,11.41,6.28,17.14.65,1.94.98,4.25,1.34,6.69.86,5.98,1.93,13.32,8.39,18.87.65,1.87,2.13,3.34,4.01,3.99,1.9.66,3.99.4,5.68-.7,6.93-4.52,9.66-10.7,8.11-18.39-.69-3.42-1.17-6.88-1.68-10.55-.52-3.74-1.05-7.6-1.84-11.46-1.49-7.34-3.59-14.53-5.44-20.87-.55-1.89-1.34-3.61-2.03-5.12-.7-1.53-1.43-3.12-1.52-4.15l-.06-.72c-.51-6-1.19-14.14-9.91-18.63-.27-1.04-.51-2.12-.77-3.25-.64-2.82-1.29-5.74-2.51-8.68-1.87-4.52-4.44-10.7-8.77-15.33l-.34-.37c-.25-.27-.56-.59-.81-.88.38-1.51.2-3.12-.51-4.52-.84-1.65-2.33-2.86-4.12-3.34-.08-.02-.17-.04-.25-.06-2.08-3.53-5.18-5.58-7.59-7.17-.97-.64-1.89-1.24-2.56-1.83-1.13-.98-2.26-1.97-3.38-2.97-4.03-3.56-8.2-7.25-12.92-10.35-22.33-14.67-47.16-16.69-73.8-6.01-12.01,4.81-24,11.57-36.67,20.65-12.21,8.75-22.77,17.33-32.28,26.22-19.87,18.58-39.03,37.04-54.94,58.48-2.79,3.76-5.71,7.56-8.54,11.24-6.18,8.03-12.58,16.34-18.24,25.08-8.47,13.09-16.79,27.64-24.72,43.24-8.07,15.87-15.09,31.45-20.88,46.3-6.42,16.49-13.06,33.54-17.04,51.39-5.44,24.38-8.79,49.68-11.76,72-2.12,15.95-2.17,28.35-.16,40.19.75,4.46,1.21,8.94,1.7,13.69.97,9.51,1.98,19.34,5.53,29.02,1.06,2.89,1.97,5.85,2.93,8.97,1.44,4.7,2.93,9.57,5.02,14.29,4.1,9.29,8.63,17.71,13.48,25.02,3.77,5.69,8.84,11.25,15.07,16.53,5.1,4.33,11.16,8.32,18.51,12.21,6.75,3.57,13.75,6.71,20.53,9.74,1.97.88,3.93,1.76,5.89,2.65,2.56,1.17,5.17,2.24,7.68,3.29,4.8,1.99,9.34,3.87,13.51,6.26,2.68,1.54,5.61,2.86,8.74,3.05,3.62.22,7.5-1.06,11.58-5.28,1.4-1.44,4-4.13,5.85-4.71,7.95-2.52,15.93-4.36,25.53-6.49,16.57-3.68,31.82-10.52,45.32-20.34,1.67-1.22,3.35-2.42,5.04-3.63,6.68-4.79,13.6-9.75,19.94-15.4.89-.79,1.89-1.59,2.95-2.43,4.44-3.54,10.4-8.29,11.76-16.61.15-.11.29-.22.43-.33.82-.65,1.75-1.29,2.73-1.96,2.09-1.44,4.45-3.07,6.49-5.29,1.87-2.03,3.31-4.17,4.7-6.23,1.13-1.68,2.19-3.26,3.34-4.53,2.87-3.18,5.96-6.35,8.95-9.41,3.15-3.22,6.4-6.56,9.51-10.01,3.39-3.77,6.57-7.72,9.64-11.54,1.66-2.06,3.38-4.2,5.08-6.25,1.29-1.54,2.6-3.04,3.99-4.63,2.37-2.71,4.83-5.51,7.1-8.52,4.59-6.09,8.97-12.41,13.21-18.53l1.35-1.95c3.61-5.21,7.2-10.43,10.79-15.66,1.87-2.72,3.74-5.45,5.61-8.17.93,7.12,1.91,14.44,3.37,21.66.99,4.88,2.41,9.6,3.79,14.17,1.54,5.1,2.99,9.92,3.83,14.79.41,2.38.77,4.85,1.13,7.24,1.49,10.05,3.02,20.43,8.43,30.18,1.24,2.23,2.2,4.81,3.22,7.54,2.45,6.56,5.22,14,12.9,19.25,4.93,3.37,12.01,4.25,18.04,2.24,5.07-1.69,8.86-5.27,10.41-9.82,2.3-6.77,3.59-13.64,4.92-21.27.61-3.48.72-6.86.83-10.14.05-1.33.09-2.66.17-3.99.15-2.5-1.14-4.87-3.33-6.08-2.19-1.22-4.88-1.07-6.92.39-2.01,1.43-3.19,3.24-3.97,4.44-.01.02-.03.05-.04.07-4.34,1.98-6.25,5.19-7.15,8.25-.07-.23-.13-.46-.2-.69-.53-1.89-1.11-3.77-1.67-5.58-1.5-4.87-2.92-9.46-3.41-13.98-1.48-13.6-4.24-26.5-7.92-41.67-3.56-14.66-5.11-30.3-6.6-45.42l-.07-.75c-1.25-12.67-1.9-25.69-2.52-38.28-.18-3.69-.36-7.38-.56-11.07-.09-1.63.18-2.71.33-2.97,1.52-2.61,3.75-4.2,7.22-5.18,5.54-1.55,11.44-3.85,18.55-7.24l1.25-.6c11.46-5.46,22.28-10.62,34.61-9.53,4.79.43,8.59-.7,11.29-3.33,2.18-2.13,3.41-4.97,3.72-8.63.96,4.34,1.87,8.72,2.6,13.04,1.77,10.44,2.91,21.27,4.02,31.74l.51,4.76c.73,6.76,1.15,13.42,1.26,19.79.1,5.52-.06,11.21-.21,16.71-.06,2.2-.12,4.39-.17,6.59v.64c-.05,1.67-.08,3.24-.25,4.68-.22,1.86-.53,3.75-.87,5.74-.71,4.25-1.44,8.64-1.33,13.25.28,11.4,1.25,22.86,2.2,33.95l.23,2.67c.32,3.8,2.32,7.46,5.47,10.06,3.16,2.61,7.02,3.81,10.88,3.39,3.74-.4,10.89-2.51,13.93-7.87,3.11-5.47,3.88-11.96,3.99-16.45.23-9.79.09-19.69-.03-29.27-.04-3.39-.09-6.78-.12-10.17-.04-4.46-.13-8.97-.23-13.33-.2-9.53-.41-19.39-.03-28.96.09-2.39.11-4.8.12-7.12.05-8.63.09-16.79,4.14-23.67.84-1.42,1.66-2.87,2.49-4.32,3.36-5.9,6.54-11.47,10.69-15.75,9.7-10.03,19.46-16.59,29.83-20.08,10.61-3.56,22.25-6.71,34.62-9.34,7.89-1.68,15.57-2.93,22.76-.16-12.86,16.64-21.92,35.34-30.8,54.63-3.37,7.32-5.37,15.07-7.3,22.57l-.06.24c-2.67,10.35-3.04,20.26-1.11,29.47,1.12,5.35,3.31,10.18,5.43,14.86l.28.61c1.36,3.01,3.14,5.56,4.85,8.03.31.44.62.89.92,1.33,9.63,14.06,31.93,22.18,47.36,12,8.82-5.82,17.2-12.38,25.3-18.73l3.63-2.85c3.03-2.36,5.98-5.46,9.04-9.48,2.62-3.44,5.1-6.99,7.5-10.43,1.72-2.47,3.51-5.02,5.29-7.46,2.58-3.52,5.26-7.08,7.86-10.52,4.57-6.06,9.3-12.32,13.71-18.73,8.78-12.75,14.9-26.82,20.83-40.43.81-1.85,1.61-3.71,2.43-5.56,1.25-2.83,2.55-5.68,3.89-8.51,5.98,15.45,19.46,25.73,33.73,34.5,13.19,8.1,27.31,10.84,41.69,8.2.09.46.16.93.23,1.4.32,2.06.72,4.62,2,7.09.78,1.5,1.89,2.54,3.03,3.29.18,4.26,2.56,8.73,8.19,12.07.06.07.14.16.2.26-.03,14.7-.38,29.51-.73,43.44-.18,7.32-.41,14.65-.64,21.97-.43,13.8-.87,28.06-1.01,42.13-.08,7.94,1.05,15.77,2.13,23.34l.19,1.32c.92,6.47,4.74,11.32,9.97,13.29-1.63,1.61-3.26,3.23-4.91,4.82,0,0,0,0-.02.01-.07-.08-.14-.16-.2-.24-1.22-1.47-2.39-3.01-3.63-4.64-4.19-5.52-8.93-11.77-16.46-15.65-1.22-.63-2.5-1.56-3.87-2.56-1.08-.78-2.19-1.6-3.42-2.37-2.08-1.31-4.12-2.71-6.27-4.2-5.3-3.64-10.77-7.41-17.05-9.9-7.61-3.02-15.49-5.29-23.11-7.49-5.22-1.51-10.63-3.06-15.77-4.82-14.11-4.82-28.53-5.78-42.47-6.71l-3.73-.25c-11.71-.81-22.54-1.3-33.1-1.5-2.28-.04-4.55-.15-6.97-.26-7.97-.36-16.21-.73-24.26,1.11-9.26,2.12-18.05,5.78-26.54,9.31-3.21,1.34-6.53,2.72-9.77,3.97-.45.17-.91.34-1.39.5-2.74.96-6.49,2.28-8.82,5.55-2.25,3.16-3.75,6.55-5.34,10.13-.64,1.45-1.31,2.94-2.04,4.47-1.13,2.35-.74,5.16.98,7.12.5.57,1.08,1.03,1.72,1.38-.39,2.34-.16,4.87,1.93,7,.6.62.96,1.44,1.58,2.96.28.69.57,1.39.9,2.1,1.63,3.51,1.75,6.64.41,10.82l-1.07,3.31c-2.54,7.88-5.18,16.03-7.19,24.3-2.09,8.58-3.91,17.32-5.67,25.77-1.03,4.95-2.1,10.08-3.21,15.08-1.02,4.64-2.15,9.38-3.23,13.95-2.04,8.59-4.14,17.47-5.75,26.37-1.56,8.62-2.51,17.39-3.43,25.86-.37,3.37-.73,6.74-1.14,10.11-.34,2.8-.63,5.6-.93,8.41-.39,3.7-.8,7.53-1.29,11.24-.79,5.95-1.62,11.89-2.45,17.83-1.35,9.64-2.74,19.61-3.92,29.47-.46,3.84-.55,7.63-.63,11.3-.07,3-.13,5.83-.38,8.61-.44,4.75-1.04,9.62-1.61,14.33-.63,5.18-1.29,10.53-1.76,15.86-.46,5.26-.67,10.55-.86,15.67-.12,3.06-.24,6.22-.42,9.3-.22,3.93-.6,7.99-.97,11.92-.83,8.93-1.7,18.16-.96,27.41.65,8.15-1.86,12.32-9.93,16.53l-.32.16c-.36.17-.85.41-1.38.74-1.25.76-2.51,1.5-3.77,2.25-3.18,1.89-6.46,3.84-9.66,5.98-5.14,3.45-7.08,9.1-5.34,15.52,2.2,8.09,9.39,8.39,12.46,8.52h.15c6.6.28,12.16-1.61,17.14-4.28-.12,2.09-.21,4.16-.22,6.24l-.02,3.68c-.06,12.58-.12,25.6.41,38.45.24,5.84,1.39,11.47,2.5,16.91.3,1.46.6,2.92.87,4.37.64,3.37,3.22,5.73,5.27,7.11,1.43.97,3.63,2.08,6.35,2.24,2.57.16,5.6-.52,8.9-2.94,6.72-4.93,5.16-11.84,4.42-15.16l-.12-.54c-.33-1.5-.88-2.8-1.32-3.84-.19-.44-.46-1.08-.55-1.39.13-6.98.53-14.12.92-21.03l.27-4.81c.23-4.33.5-8.66.76-12.98.49-8.14,1-16.56,1.32-24.88.36-9.52,3.47-12.43,8.36-14.04,2.01-.66,3.54-1.8,4.65-2.64l.5-.37c2.69-1.95,5.35-3.93,8.02-5.91,5.41-4.02,11.01-8.19,16.64-11.92,5.04-3.34,10.36-6.56,15.5-9.67,4.9-2.97,9.97-6.03,14.88-9.26,2.9-1.9,5.36-4.1,7.75-6.23,1.67-1.49,3.24-2.9,4.86-4.1,2.83-2.11,5.83-4.18,8.74-6.19,3.98-2.75,8.1-5.58,12.03-8.7,18.62-14.74,36.85-29.6,50.65-40.9l.86-.7c7.05-5.77,14.33-11.73,21-18.32,10.36-10.25,20.28-21.06,29.03-30.59l2.34-2.55c6.93-7.54,14.1-15.33,20.53-23.64,5.46-7.04,10.55-14.44,15.47-21.59,2.59-3.76,5.26-7.64,7.93-11.4,1.37-1.93,2.87-3.84,4.35-5.72,2.91,1.83,5.69,3.55,8.68,5.07,5.17,2.63,11.31,5.63,17.73,7.97l.65.24c6.33,2.31,12.88,4.7,19.9,5.52,9.96,1.17,18.38,1.12,25.73-.13,9.79-1.67,19.85-4.55,29.9-8.58,6.01-2.41,11.51-5.68,16.83-8.84,2.38-1.41,4.62-2.75,6.89-4,.16-.08.33-.14.5-.2.44-.17,1-.39,1.61-.7,2.39-1.21,4.79-2.4,7.19-3.59,5.82-2.88,11.85-5.86,17.67-9.14,4.56-2.56,8.91-5.43,13.12-8.2.4-.26.81-.53,1.21-.8,4.29,12.23,13.35,15.18,25.37,15.45,15.51.34,29.62-4.37,43.26-8.93,1.72-.57,3.44-1.15,5.16-1.71,4.76-1.56,9.29-3.58,13.67-5.54,5.01-2.24,9.74-4.35,14.59-5.71,23.56-6.62,44.81-17.12,63.15-31.23,7-5.38,12.7-12.09,18.22-18.58l1.49-1.75c3.17-3.71,4.57-9.64,3.56-15.09-.94-5.07-3.81-9.16-8.1-11.49-3.65-1.99-8.18-4.47-13.15-5.42-8.26-1.58-16.65-2.68-24.77-3.74l-4.26-.56c-1.89-.25-3.73-.27-5.34-.29-1.29-.01-2.51-.02-3.58-.15-10.77-1.27-20.17-2.48-28.75-3.68-3.71-.52-7.62-1.12-11.1-2.2-11.17-3.46-20.58-10.34-30.54-17.63-.53-.39-1.1-.76-1.68-1.13-.22-.14-.5-.32-.75-.49.28-2.55-.91-5.07-3.41-7.18-1.5-1.27-2.96-1.77-4.21-1.9-.13-.32-.27-.65-.44-.98l-.55-1.07c-1.33-2.59-2.59-5.05-3.39-7.47l-.31-.92c-.49-1.43-1.39-4.1-1.23-4.98,1.53-6.92,6.53-12.45,11.82-18.31.72-.8,1.44-1.6,2.16-2.4,1.03-1.16,2.54-2.27,4.14-3.46,1.07-.79,2.17-1.6,3.28-2.53,1.26-1.06,2.36-2.18,3.41-3.26,1.24-1.28,2.79-2.87,3.69-3.18,3.14-1.09,6.37-2.15,9.49-3.17,7.23-2.36,14.71-4.81,22.05-8,6.51-2.83,14.86-3.28,22.93-3.72l1.56-.08c2.87-.16,6.02.28,9.34.75,3.71.52,7.54,1.07,11.59.88,2.03-.09,2.34-.11,4.44,4.12.15.29.29.6.43.9.84,1.78,1.98,4.23,4.17,6.11,2.64,2.27,6.92,4.38,10.98,3.5,5.94-1.28,7.55-8.92,7.71-9.78,2.34-12.41-4.88-21.63-9.2-27.15-6.37-8.14-23.06-13.39-33.06-10.39-2.04.61-4.46,1.01-7.63,1.26-1.96.16-4.01.17-6.18.19-4.41.04-8.97.08-13.58,1.28-14.93,3.87-27.83,7.91-39.44,12.34-12.76,4.87-23.66,12.81-31.73,19.19-8.41,6.65-13.42,14.99-18.26,23.06-.94,1.57-1.88,3.13-2.85,4.68-1.16,1.87-2.11,3.78-2.84,5.72-.6-.67-1.23-1.32-1.89-1.96-1.2-1.16-2.44-2.14-3.64-3.08-1.47-1.15-3.13-2.46-3.59-3.37-4.47-8.75-12.18-10.21-17.82-11.28-2.03-.38-3.94-.75-5.4-1.37-2.05-.87-4.21-.71-6.42.49-1.29.28-2.54.61-3.75.93-2.63.7-5.12,1.36-6.9,1.15-23.32-2.7-42.76,7.33-59.92,16.19-11.38,5.87-21.35,13.85-28.77,20.15-1.55,1.31-3.07,2.66-4.58,4.01.09-8.4.02-17.1-.25-25.97-.62-20.62-1-40.78,1.04-60.77,1.21-11.82,1.6-23.82,1.99-35.41.1-2.94.19-5.89.3-8.83.05-1.31.07-1.86,2.47-3.4ZM928.16,544.19c1.63.75,3.26,1.48,4.86,2.19,5.36,2.39,10.43,4.65,15.12,7.46,1.94,1.17,2.39,2.91,2.42,4.17.06,2.22-1.09,4.34-3.07,5.68-2.88,1.94-5.87,3.87-8.76,5.75-6.21,4.02-12.63,8.18-18.68,12.83-8.23,6.32-17.46,10.7-27.23,15.33l-2.94,1.4c-5.22,2.49-10.04,5.3-15.36,8.46-1.7,1.01-4.6,3.52-5.18,9.01l-22.04,9.97-.71-.93c-1.9-2.47-5.28-3.24-8.06-1.85l-16.9,8.45c-.08-2.22-.25-4.41-.41-6.53-.29-3.81-.57-7.4-.33-10.83.17-2.46,1.23-5.31,2.59-6.92,9.16-10.88,18.75-21.15,26.09-28.88,1.39-1.47,3.31-2.81,5.33-4.23,1.36-.96,2.78-1.95,4.17-3.07,1.26-1.01,2.38-2.05,3.47-3.06,1.43-1.32,2.78-2.58,4.11-3.44,2.02-1.31,4.25-2.46,6.61-3.68,1.79-.92,3.64-1.88,5.48-2.95,1.79-1.04,3.35-2.25,4.99-3.52.3-.23.61-.47.93-.72l6.93-.51c1.71-.12,3.3-.92,4.42-2.21,3.44-3.95,9.87-5.29,17.31-6.85l.18-.04c1.38-.29,3.02-.13,4.92.04,2.78.26,6.14.58,9.74-.5ZM730.55,751.49c-.43.6-.78,1.16-1.09,1.66l-.32.51c-.28.44-.5.9-.67,1.37-1.5.68-2.78,1.73-3.64,2.75-10.58,12.57-23.69,23.57-35.26,33.27-8.7,7.3-17.66,14.62-26.33,21.69-4.9,4-9.81,8.01-14.7,12.03-2.64,2.17-5.27,4.41-7.81,6.58-4.63,3.94-9.42,8.02-14.27,11.69-17.21,13.01-34.52,25.64-49.19,36.27-6.31,4.58-12.87,9.1-19.22,13.47-3.1,2.13-6.2,4.27-9.28,6.42-2.5,1.74-5,3.49-7.56,5.28.53-6.85,1.08-13.7,1.62-20.55.73-9.12,1.45-18.24,2.15-27.36.5-6.51.94-13.11,1.38-19.5.75-11.05,1.53-22.47,2.57-33.65,1.53-16.52,3.64-33.31,5.68-49.56l.21-1.66c1.82-14.53,3.71-29.55,6.14-44.17,2.11-12.71,4.83-25.61,7.46-38.09l.87-4.14c1.24-5.92,2.65-11.95,4-17.78,1.19-5.12,2.42-10.42,3.55-15.67,1.18-5.47,2.31-11.03,3.4-16.41,1.57-7.7,3.19-15.67,4.96-23.42,1.33-5.81-.17-9.73-2.6-12.38,2.55-1.69,4.46-3.83,6.03-6l1.44.85c.91.53,1.9.82,2.89.89,1.8.11,3.62-.53,4.97-1.87l6.22-6.15c1.28-1.26,1.97-2.99,1.93-4.79-.05-1.79-.83-3.49-2.17-4.68l-4.99-4.45c-.24-.21-.5-.4-.76-.58,3.63-1.1,7.26-2.08,10.87-2.81,4.64-.93,9.83-.62,15.33-.28,1.92.12,3.9.24,5.89.3,3.44.11,6.88.2,10.33.29,10.55.27,21.47.54,31.99,1.62,6.35.65,12.59,1.82,19.2,3.07,6.69,1.26,13.6,2.56,20.6,3.26,3.99.4,7.69,2.14,11.6,3.99,2.81,1.33,5.72,2.7,8.97,3.71,1.41.44,2.73.55,3.69.62.22.02.51.04.71.06,1.52.79,3.06,1.56,4.6,2.33,4.88,2.43,9.48,4.72,13.3,7.71,6.49,5.08,12.77,10.85,18.84,16.43,2.58,2.37,5.24,4.82,7.91,7.2.54.49.94.87,1.24,1.21,2.04,2.31,2.32,3.05,2.34,3.11,0,.77-1.28,3.61-1.82,4.83-1.05,2.34-2.14,4.69-3.23,7.04-4.75,10.23-9.66,20.81-12.02,32.11-3.35,15.99-1.39,29.73,5.82,40.84.1.15.16.26.19.33-.22.61-1.21,1.89-1.81,2.68-.42.55-.83,1.09-1.22,1.63-9.85,13.83-19.98,27.83-29.77,41.37-3.73,5.15-7.45,10.3-11.17,15.46ZM853.51,222.46c1.16-1.31,1.75-3.03,1.63-4.77-.12-1.75-.94-3.37-2.27-4.5-.76-.65-1.57-1.35-2.41-2.09-1.04-.91-2.15-1.88-3.32-2.87,5.98-2.45,12.7-1.79,20.28-1.06,8.94.87,14.59,2.99,18.89,7.07,1.63,1.55,3.33,2.89,4.96,4.17,1.96,1.54,3.81,3,5.19,4.56.37.78.57,3.07.69,4.32,1.11,12.6,2.13,25.6,3.02,38.64l.14,2.11c.61,8.93,1.25,18.16,1.38,27.17.15,9.95-2.73,18.28-8.81,25.49-4,4.74-7.89,9.64-11.65,14.39-4.83,6.09-9.82,12.39-14.99,18.25-8.3,9.41-17.33,18.58-26.06,27.44l-3.98,4.04c-.76.77-1.56,1.53-2.41,2.28-.12-2.02-.22-3.96-.26-5.89-.09-3.71-.07-7.54-.04-11.25.02-3.42.05-6.96-.02-10.48-.09-4.89-.26-9.84-.41-14.63-.26-7.86-.53-15.98-.48-23.91.04-7.4.3-14.98.55-22.3.28-8.35.58-16.98.56-25.53-.02-12.24-.75-24.59-1.44-36.53l-.23-3.9c-.05-.87-.13-2.17-.03-2.65.03-.03.09-.08.17-.15.98-.77,1.73-1.64,2.34-2.54,5.43,1.69,12.72,2.15,19.01-4.9ZM582.98,450.6c.13-.47.21-.95.24-1.43.75-13.82,4.88-26.92,13.41-42.49l1.77-3.25c4.78-8.76,9.72-17.82,15.52-25.77.56-.77,1.08-1.57,1.58-2.34,2.18-3.38,2.93-4.06,3.91-4.06.24.09.69.29,1.03.44.58.26,1.16.52,1.74.74.94.35,1.87.71,2.8,1.08l1.28.5c1.66.64,3.5.57,5.11-.18,1.61-.76,2.83-2.14,3.4-3.82.13-.4.36-.92.6-1.48.85-1.98,2.02-4.69,1.65-7.86-.32-2.72-1.78-5.3-4.44-7.82,1.9-1.92,3.62-3.93,5.29-5.9,4.91-5.74,9.15-10.7,16.2-11.69,3.69-.52,6.35-2.71,8.48-4.48.91-.75,1.93-1.6,2.52-1.84,1.05-.44,2.62-.65,4.28-.87,1.74-.24,3.72-.51,5.73-1.11,2.84-.85,5.26-2.28,7.39-3.54.42-.25.84-.5,1.26-.74,2.85-1.64,5.76-.96,10.52.48l-.04.12c-4.31,11.46-8.77,23.31-13.77,34.6-5.93,13.39-11.79,25.3-17.92,36.42-2.17,3.94-5.04,7.64-8.07,11.55-1.84,2.37-3.74,4.83-5.52,7.39-3.61,5.2-7.09,10.55-10.47,15.72-1.02,1.56-2.04,3.13-3.06,4.69-1.1,1.68-2.18,3.38-3.25,5.09-2.18,3.46-4.25,6.73-6.53,9.81-.28.34-1.41,1.03-2.17,1.49-.81.5-1.74,1.06-2.65,1.74-2.23,1.65-4.42,3.36-6.54,5.01-4.58,3.58-8.91,6.97-13.56,9.68-4.74,2.77-6.98,2.97-8.03,2.65-1.46-.45-3.2-2.62-4.89-6.11-.61-1.27-1.26-2.47-1.88-3.64-2.19-4.09-3.47-6.72-2.89-8.74ZM978.77,570.58c.71,1.85,1.48,3.7,2.34,5.53,2.87,6.09,6.44,13.68,14.49,18.36,3.29,1.92,6.47,3.97,9.83,6.15,4.03,2.61,8.2,5.31,12.56,7.72,5.51,3.05,12.37,6.85,19.8,8.3,2.51.49,5.05,1.26,7.73,2.07,5.84,1.77,12.46,3.77,19.99,3.02,2.8-.28,6.1.39,9.59,1.09,2.43.49,4.93,1,7.56,1.26,7.25.72,14.6,1.3,21.72,1.87,1.13.09,2.26.18,3.39.27-1.15.88-2.37,1.74-3.61,2.63-4.14,2.94-8.76,6.23-12.29,11.08-.21.05-.44.11-.67.18-.71.21-1.53.41-2.41.61-2.51.58-5.35,1.23-8.02,2.99-4.67,3.07-10.05,4.83-15.75,6.69-1.42.47-2.85.93-4.28,1.42-2.17.74-4.46,1.34-6.89,1.98-6.93,1.82-14.77,3.88-21.23,9.96-.33.16-1.05.39-1.55.55l-.68.22c-3.12,1.05-6.35,2.06-9.47,3.04-6.74,2.12-13.71,4.31-20.46,7.06-4.35,1.77-8.93,1.39-14.23.93-.36-.03-.71-.06-1.07-.09-.08-.22-.16-.43-.23-.62-.32-.86-.64-1.74-1.01-2.59,1.88-1.46,3.76-2.91,5.64-4.36,5.59-4.31,11.38-8.76,16.91-13.45.51-.44,1.04-.87,1.57-1.3,5.08-4.17,12.76-10.46,11.2-22.86-.33-2.65-2.26-4.83-4.85-5.49-2.6-.66-5.32.34-6.88,2.52l-3.36,4.69c-1.92.02-4.39.29-6.46,2.23-2.99,2.8-6.6,5.07-10.42,7.47-4.59,2.89-9.32,5.86-13.48,10.06-.42.15-.91.37-1.41.67-.97.58-1.95,1.15-2.93,1.72-2.86,1.67-5.82,3.4-8.7,5.36-2.03,1.38-3.9,2.87-5.71,4.31-2.75,2.18-5.34,4.24-8.02,5.58-13.16,6.58-26.81,12.85-40.02,18.91l-6.22,2.86c-1.6.73-3.38,1.34-5.26,1.99-2.23.76-4.53,1.55-6.85,2.65-7.43,3.52-15.8,5.42-27.13,6.15-16.15,1.05-30.48-2.89-43.74-12.04.37-.53.67-1.13.88-1.77.81-2.56-.03-5.35-2.13-7.03-.82-.66-1.57-1.2-2.17-1.63-.42-.3-.93-.67-1.15-.87-.16-.25-.28-.46-.36-.62.43-2.15,1.09-4.36,1.78-6.68.34-1.15.69-2.31,1.01-3.46.37-1.34.79-2.04,2.45-2.9,1.84-.96,3.21-2.37,4.27-3.88.05,0,.1-.02.15-.02,6.24-1.1,12.2-2.87,18.22-5.39,8.91-3.73,19.39-8.21,29.64-13.07,8.79-4.17,17.47-8.77,25.86-13.22l1.26-.67c2.44-1.29,4.79-2.69,7.06-4.05,3.06-1.82,5.95-3.55,8.93-4.95,15.24-7.18,30.18-16.17,44.41-26.72,1.34-.99,2.5-2.07,3.52-3.03,1.02-.95,1.98-1.85,2.85-2.4,6.5-4.15,11.54-10.15,14.47-16.98Z"/>
      <path class="cls-1" d="M1368.18,460.67l-.63-3.31c-1.84-9.62-3.18-19.59-4.48-29.24-.4-2.97-.8-5.95-1.22-8.92-.99-7.09-1.79-14.37-2.57-21.42l-.11-1.01c-.48-4.35-.93-8.7-1.39-13.05-.68-6.56-1.39-13.34-2.19-20.02-1.25-10.52-8.81-16.61-19.27-15.53-3.34.35-6.45,2.11-8.76,4.97-2.99,3.71-4.44,9.05-3.86,14.28.22,1.99.42,4.02.6,6.04-9.45-1.65-19.33-2.52-29.45-.56-1.75.34-3.57.58-5.48.84-2.59.35-5.28.71-8.01,1.34l-1.12.26c-4.19.95-8.95,2.04-13.24,4.37-15.14,8.24-26.64,20.42-34.18,36.18-1.27,2.66-2.18,5.33-3.05,7.91-.38,1.12-.76,2.23-1.16,3.34-4.06,10.99-5.43,20.39-4.33,29.58.67,5.54,1.58,12.08,3.31,18.58.26.99.51,2,.77,3.03,1.37,5.54,2.93,11.82,6.87,16.73,6.8,8.49,14.7,16.45,26.32,18.64-.6.77-1.2,1.53-1.81,2.3-1.92,2.43-3.9,4.95-5.83,7.47-.86,1.12-1.52,2.27-2.11,3.28-.42.73-1.06,1.83-1.32,2.07-2.16,1.53-4.31,3.08-6.46,4.62-11.84,8.52-23.02,16.56-35.81,22.1l-.69.3c-7,3.04-11.55,4.8-16.69,2.87-.04-.02-.09-.04-.13-.06.05-.11.1-.23.15-.34,1.18-2.66,2.29-5.18,3.7-7.15,6.9-9.65,8.5-20.23,10.04-30.45.36-2.38.7-4.63,1.11-6.89.14-.75.29-1.5.45-2.26.5-2.45,1.07-5.22,1.09-8.16.08-13.8-.02-25.19-.31-35.83-.14-4.95-.46-9.91-.78-14.7-.26-3.99-.53-8.12-.68-12.15-.18-4.76.02-9.63.27-14.18.2-3.72.48-7.53.74-11.22.32-4.54.66-9.23.88-13.9.11-2.32-.31-4.16-.96-5.59.94-1.37,1.34-3.07,1.04-4.78-.18-1.03-.3-2.05-.43-3.03-.3-2.44-.61-4.97-1.72-7.48-1.53-3.47-3.85-8.72-8.69-10.84-6.25-2.73-14.89-1.98-19.32,4.74-2.17,3.29-2.41,8.01-.72,14.03,1.11,3.95,2.45,7.81,3.75,11.53.94,2.69,1.82,5.24,2.63,7.83-.03.24-.09.55-.13.79-.1.6-.22,1.27-.29,2.03-.16,1.7-.38,3.42-.62,5.24-.56,4.3-1.14,8.74-.86,13.37.41,6.58,1.53,13.05,2.61,19.3.31,1.79.62,3.57.91,5.35.37,2.28.86,4.5,1.33,6.64.69,3.14,1.33,6.11,1.58,9,1.06,12.15,1.79,25.09-1.91,37.82-4.08,14.05-9.15,26.04-15.49,36.67-5.62,9.42-8.07,23.85,3.51,33.53,7.62,6.36,16.39,8.05,26.83,5.17,3.27-.9,6.23-2.2,9.1-3.46,2.18-.95,4.24-1.86,6.27-2.51,9.59-3.1,18.5-7.93,27.08-14.69,1.26,29.1,11.98,51.87,28.67,59.61,1.82.84,3.86.78,5.58-.05.17.32.33.64.48.97,1.65,3.48,5.08,4.62,7.13,5.3.37.12.9.3,1.19.42,4.57,4.23,10.14,8.66,18.55,8.66.43,0,1.43.3,2.23.53,1.08.32,2.3.67,3.68.89,2.73.42,5.54.77,8.38.94,11.57.71,23.69-1.44,33.46-13.08l.65-.78c6.1-7.26,12.41-14.77,14.94-25.32,1.02-4.27,2.24-8.64,3.42-12.87,2.26-8.11,4.6-16.5,5.86-25.12,1.74-11.83,1.31-23.76.72-34.96-1.19-22.6-5.48-44.95-9.63-66.56ZM1278.74,404.53c.13.1.27.19.41.28,3.76,2.41,7.43,1.25,9.72.09.74.69,1.64,1.21,2.64,1.49,1.87.54,3.89.21,5.49-.9,3.49-2.42,7.05-1.81,13.04-.53,2.9.62,5.91,1.25,9.12,1.38,2.6.09,5.55.73,9.03,1.91.14,6.3.19,13.44-.56,20.18-.48,4.31-2.11,8.88-3.75,13.2-4.33,11.45-9.26,20-15.5,26.92l-.67.75c-2.96,3.3-5.3,5.9-8.79,7.09-4.04,1.37-7.69,3.28-11.22,5.13-2.11,1.1-4.1,2.15-6.11,3.05-5.77,2.58-14.01-.5-19.17-7.18-1.87-2.42-3.33-5.63-4.01-8.81-1.74-8.13-1.85-16.69-.34-26.12,4.46-4.34,5.47-9.97,6.24-14.23.55-3.05.97-5.15,1.95-6.56,1.13.18,2.3.06,3.4-.37,4.49-1.77,8.79-6.58,9.78-10.96.47-2.08.22-4.12-.68-5.82ZM1272.15,545.78c1.58-5.53,4.38-8.37,10.08-12.65,4.44-3.33,8.06-7.34,11.58-11.22,1.84-2.03,3.58-3.95,5.4-5.75l1.3-1.29c3.38-3.35,6.58-6.52,10.08-8.98,8.02-5.61,14.47-12.06,19.73-19.72,2.63-3.83,5.21-7.69,7.85-11.67.97,4.67,1.88,9.49,2.76,14.65.34,1.99.54,4.06.76,6.25.12,1.26.25,2.52.4,3.78.5,4.14,1.08,8.31,1.65,12.34,1.23,8.74,2.5,17.78,2.85,26.55.54,13.69.12,29.64-7.02,44.14-2.14,4.34-3.84,8.81-5.48,13.14-.55,1.46-1.11,2.91-1.68,4.36-1.45,3.69-8.95,8.82-12.74,8.72-1.51-.04-3,0-4.43.02-3.04.06-5.92.12-8.07-.54-4.31-1.33-8.52-3.87-12.99-6.55l-1.2-.72c-4.33-2.59-8.87-5.46-12.73-8.88-2.57-2.28-4.56-4.93-5.45-7.27-5.35-13.97-6.18-26.27-2.64-38.72Z"/>
      <path class="cls-1" d="M1875.78,290.35c-2.6-2.32-6.53-5.83-11.39-6.79-20.48-4.02-40.6.66-58.35,4.79-14.99,3.49-28.5,5.21-41.3,5.28-7.94.04-16.55-.87-26.34-2.79-2.3-.45-4.61-.85-6.86-1.24-6.37-1.1-12.39-2.14-17.86-4.22-6.13-2.34-12.07-6.78-17.81-11.08l-.32-.24c-6.19-4.63-12.33-9.69-18.26-14.58-2.86-2.36-5.71-4.71-8.59-7.04-2.11-1.7-4.27-3.32-6.37-4.88-4.32-3.22-8.4-6.27-11.74-9.82-8.91-9.46-18.99-19.08-32.4-25.35-.58-.27-1.18-.54-1.78-.8-1.58-.7-3.21-1.42-4.05-2.17-6.93-6.17-15.8-8.56-24.32-6.54-7.44,1.76-15.03,5.09-21.95,9.65-12.97,8.55-22.01,16.53-29.33,25.88-4.99,6.38-10.6,12.2-16.54,18.36-4.57,4.74-9.29,9.63-13.68,14.79-9.46,11.11-17.42,21.61-24.35,32.08-9.38,14.18-18.92,29.8-29.17,47.74-2.58,4.52-4.46,9.25-6.27,13.84-1.4,3.54-2.73,6.89-4.32,10.04-1.11,2.2-2.37,4.34-3.73,6.48-.1-1.18-.28-2.38-.58-3.58-2.33-9.41-.56-18.8,1.32-28.73.87-4.63,1.77-9.41,2.27-14.29.33-3.29.87-6.57,1.44-10.03,1.26-7.67,2.56-15.61,1.6-24.09-.54-4.81-.52-9.19.07-13.03,1.29-8.34-2.46-15.52-9.31-17.86-4.1-1.4-8.57-1.03-12.25,1-3.74,2.07-6.36,5.58-7.38,9.91-1.24,5.24-1.75,9.53-1.62,13.52.09,2.96,1.17,5.51,2.09,7.59-.35.88-.7,1.77-1.04,2.71-.22.62-.6,1.42-1.01,2.27-1.38,2.89-3.28,6.84-1.96,11.03.79,2.52.18,4.8-.98,8.62-.46,1.53-.94,3.1-1.3,4.82-2.57,12.21-5.23,26.48-4.1,41.35.37,4.92.5,10.03.63,14.97l.03,1.07c.1,3.87.17,7.75.24,11.62.1,5.79.21,11.77.42,17.68.38,10.61,9.66,14.52,12.71,15.81,1.45.61,2.88.96,4.29,1.05,4.55.28,8.85-2.19,12.84-7.37,5.42-7.05,10.54-14.42,15.49-21.55,1.9-2.74,3.81-5.48,5.73-8.2.4-.57.82-1.12,1.24-1.67,1.02-1.33,2.17-2.85,3.14-4.61,9.38-17.04,19.75-33.96,29.78-50.32l4.64-7.58c1.21-1.97,2.4-3.96,3.6-5.94,1.88-3.13,3.83-6.36,5.79-9.48,1.72-2.74,3.67-5.85,5.79-8.47.92-1.13,2.05-2.26,3.25-3.45,1.47-1.46,2.99-2.97,4.41-4.77,2.54-3.21,5-6.52,7.38-9.72,4.13-5.55,8.03-10.79,12.38-15.71,6.35-7.17,13.87-14.65,23.66-23.53,7.09-6.43,14.69-12.54,22.6-18.19,5.24-3.74,6.96-2.56,7.88-1.92,6.45,4.45,12.81,9.26,18.91,14.3,3.6,2.97,7.16,6.24,10.6,9.4,2.38,2.18,4.83,4.43,7.33,6.62,3.41,2.99,6.91,5.95,10.3,8.81,2.62,2.21,5.23,4.42,7.82,6.66,1.67,1.44,3.28,2.92,4.99,4.48,3.26,2.98,6.62,6.06,10.35,8.82,2.84,2.11,5.81,3.86,8.69,5.56,3.31,1.95,6.43,3.8,9.06,5.99,8.72,7.27,18.66,10.34,28.28,13.32.91.28,1.82.56,2.73.85,6.08,1.91,12.3,2.87,18.31,3.79,2.95.45,5.73.88,8.51,1.42,12.97,2.49,28.35,4.52,44.15.63,15.34-3.78,30.62-6.9,44.85-9.71,8.59-1.7,17.41-3.18,25.94-4.61,4.21-.71,8.42-1.41,12.62-2.15,1.06-.18,2.04-.43,2.91-.65.42-.11.84-.21,1.26-.31,3.8-.86,6.47-3.24,7.33-6.53.83-3.19-.29-6.55-3-8.97Z"/>
      <path class="cls-1" d="M1430.07,208.37c5.07-4.46,10.82-9.52,14.29-16.98,2.4-5.17,1.47-8.87.27-11.05-.91-1.65-3.17-4.52-8.11-5.16-2.12-.28-9.36-.85-13.55,3.41-4.7,4.79-9.11,9.87-13.37,14.79-1.24,1.43-2.5,2.88-3.77,4.33-.65-.25-1.33-.4-2.07-.43-1.8-.08-3.55.59-4.84,1.85l-9.04,8.87-1.02-.57c-2.97-1.66-6.72-.75-8.6,2.09-.17.25-.59.76-.93,1.17-1.63,1.94-4.34,5.17-3.24,9.34-.39.29-.94.65-1.36.92-.57.37-1.22.79-1.86,1.27-2.77,2.07-5.76,3.91-8.93,5.86-3.29,2.02-6.69,4.11-9.94,6.55-13.24,9.91-28.05,16.41-44.02,19.33-11.95,2.18-21.44.7-30.77-4.81-9.94-5.87-15.76-14.79-20.13-22.74-5.68-10.32-7.72-22.94-6.41-39.73.14-1.74.33-3.5.54-5.36.52-4.64,1.06-9.44.65-14.41-.6-7.27,1.45-14.29,3.63-21.72.32-1.11.65-2.22.96-3.33,3.12-10.97,7.22-22,11.18-32.66l1.33-3.6c1.08-2.92,3.13-5.8,4.8-7.98,1.23-1.61,2.83-3.16,4.53-4.8.85-.82,1.7-1.64,2.52-2.48,1.23-1.26,1.9-2.97,1.85-4.73-.02-.79-.19-1.55-.48-2.27,4.43-5.08,8.59-3.97,10.44-3.47,2.82.75,5.56,1.1,8.2,1.44,4.26.54,7.93,1,10.85,3.03,2.16,1.49,4.45,2.52,6.47,3.42,1.53.68,2.97,1.33,4.11,2.06.9.58,1.89,1.52,2.94,2.51,1.38,1.31,2.95,2.79,4.89,4.03,1.48.95,4.95,3.16,9.22,2.17.24-.06.5-.13.77-.22l.16,1.19c.26,1.94,1.37,3.67,3.04,4.69.84.52,1.77.83,2.73.93.7,1.23,1.71,2.3,3.19,3.07,1.06.55,2.1.83,3.13.89,2.97.18,5.94-1.39,9.45-3.26,1.63-.87,2.82-2.39,3.26-4.19.44-1.8.1-3.69-.94-5.22-.59-.87-1.15-1.76-1.72-2.64-1.53-2.41-3.11-4.9-5.27-7.21-2.02-2.16-4.36-3.61-6.43-4.9-.23-.14-.44-.28-.66-.42-.45-.94-1.15-2.09-2.32-3.07-1.28-1.08-2.65-1.97-3.86-2.76-1.1-.72-2.77-1.81-3.1-2.33-4.67-9.06-13.31-12.74-19.61-15.42l-1.5-.64c-10.01-4.27-21.35-9.12-34.17-7.47-.99.13-1.99.23-2.99.32-5.07.5-11.38,1.12-17.05,5.56-9.26,7.25-16.67,16.36-22.65,27.85-4.45,8.55-7.56,17.52-10.57,26.19-1.61,4.64-3.27,9.43-5.09,13.99-4.03,10.09-5.47,20.36-6.86,30.29-.45,3.22-.92,6.56-1.47,9.77-2.14,12.61-2.65,26.84-1.5,42.3,1.31,17.53,6.02,31.51,14.41,42.71,1.45,1.94,2.79,3.96,4.21,6.1,3.3,4.98,6.71,10.13,11.84,14.65,9.2,8.1,20.32,13.78,33.98,17.36.54.14,1.08.29,1.63.44,2.42.67,5.06,1.41,7.87,1.58,1.19.07,2.41.05,3.66-.13,5.89-.84,11.64-2.26,17.19-3.63,1.77-.44,3.55-.88,5.32-1.29,7.26-1.71,14.61-3.52,21.72-5.27l1.82-.45c1.47-.36,2.68-1.01,3.57-1.54,1.96-1.16,3.96-2.29,5.95-3.42,4.74-2.69,9.64-5.47,14.28-8.76,8.64-6.14,17.06-12.75,25.21-19.15l3.98-3.13c3.27-2.56,6.59-5.55,9.85-8.88,2.77-2.83,5.5-5.74,8.14-8.56,3.65-3.89,7.41-7.91,11.24-11.65,1.53-1.49,3.15-2.92,4.87-4.44Z"/>
      <path class="cls-1" d="M1163.71,61.77l2.84,5.89c.88,1.83,1.75,3.67,2.61,5.52,2.44,5.2,4.97,10.58,7.92,15.75,1.79,3.13,4.25,5.61,6.41,7.8.87.88,1.7,1.71,2.43,2.54,1.18,1.32,2.79,2.06,4.45,2.16,1.34.08,2.7-.25,3.9-1.01l1.47-.94c2.07-1.33,3.22-3.72,2.96-6.17-.05-.48-.09-.97-.13-1.46-.11-1.31-.23-2.8-.55-4.36l-.04-.21c-.81-3.87-1.64-7.87-2.77-11.84-.54-1.92-1.08-3.84-1.62-5.75-2.64-9.39-5.37-19.1-8.53-28.57l-.21-.62s0-.02,0-.03c3.56-3.73,3.86-7.24,3.45-9.6-.44-2.51-2.09-5.99-7.46-8.33-2.99-1.3-6.31-1.86-9.34-1.59-.52-2.08-2.06-3.83-4.17-4.56-2.76-.96-5.82.04-7.48,2.45-.71,1.03-1.25,1.97-1.68,2.74-2.97,1.1-5.09,2.91-6.31,5.4-2.33,4.77-.08,9.65.88,11.73,3.58,7.75,7.34,15.54,10.99,23.08Z"/>
    </g>
  </g>
</svg>