<?xml version="1.0" encoding="UTF-8"?>
<svg xmlns="http://www.w3.org/2000/svg" version="1.1" viewBox="0 0 582 580.8">
  <defs>
    <style>
      .cls-1 {
        fill: #fff;
      }
    </style>
  </defs>
  <!-- Generator: Adobe Illustrator 28.7.4, SVG Export Plug-In . SVG Version: 1.2.0 Build 166)  -->
  <g>
    <g id="_レイヤー_1" data-name="レイヤー_1">
      <g id="_x32_">
        <path class="cls-1" d="M534,0H48C21.5,0,0,25.6,0,57.2v435.8c0,31.6,21.5,57.2,48,57.2h486c26.5,0,48-25.6,48-57.2V57.2C582,25.6,560.5,0,534,0ZM514.7,41.7c10.5,0,19,10.1,19,22.6s-8.5,22.6-19,22.6-19-10.1-19-22.6,8.5-22.6,19-22.6ZM444.2,41.7c10.5,0,19,10.1,19,22.6s-8.5,22.6-19,22.6-19-10.1-19-22.6,8.5-22.6,19-22.6ZM373.7,41.7c10.5,0,19,10.1,19,22.6s-8.5,22.6-19,22.6-19-10.1-19-22.6,8.5-22.6,19-22.6ZM552,493c0,5.2-13.6,21.4-18,21.4H48c-4.4,0-18-16.2-18-21.4V123.8h522v369.2Z"/>
      </g>
      <g>
        <path class="cls-1" d="M159,326.5l37,11.2c-2.5,10.4-6.4,19.1-11.7,26-5.4,6.9-11.9,12.2-19.9,15.8-8,3.6-18,5.4-30.3,5.4s-27-2.1-36.4-6.4-17.5-11.9-24.4-22.8c-6.8-10.9-10.3-24.8-10.3-41.8s6-40,18-52.2c12.1-12.2,29-18.3,51.1-18.3s30.8,3.5,40.6,10.5c9.9,6.9,17.2,17.7,22,32.1l-37.2,8.4c-1.3-4.2-2.6-7.2-4.1-9.2-2.4-3.2-5.3-5.7-8.7-7.4-3.5-1.8-7.3-2.6-11.5-2.6-9.5,0-16.9,3.8-22,11.6-3.8,5.7-5.7,14.7-5.7,27s2.3,25.5,6.9,31.2,11.1,8.5,19.3,8.5,14.2-2.3,18.4-6.8c4.2-4.5,7.2-11.1,9-19.8v-.2Z"/>
        <path class="cls-1" d="M216,245.6h55.5l21.4,83.2,21.2-83.2h55.5v136.7h-34.6v-104.2l-26.6,104.2h-31.3l-26.6-104.2v104.2h-34.6v-136.7h.1Z"/>
        <path class="cls-1" d="M389.5,337.2l40.2-2.5c.8,6.6,2.6,11.5,5.4,14.9,4.3,5.5,10.6,8.4,18.6,8.4s10.6-1.4,14-4.3c3.2-2.9,4.9-6.1,4.9-9.8s-1.6-6.7-4.7-9.5c-3.1-2.7-10.3-5.5-21.6-7.9-18.5-4.2-31.8-9.7-39.6-16.6-8-6.9-11.9-15.8-11.9-26.4s2-13.6,6.1-19.9c4.1-6.2,10.1-11.1,18.4-14.7,8.1-3.6,19.3-5.4,33.7-5.4s30.8,3.2,40,9.8c9.2,6.4,14.7,16.8,16.4,31l-39.9,2.4c-1.1-6.2-3.2-10.6-6.7-13.4-3.3-2.7-8.1-4.2-14.1-4.2s-8.6,1.1-11.1,3.1c-2.5,2-3.7,4.7-3.7,7.6s1.1,4.2,3.1,5.8c2,1.8,6.7,3.5,14.2,5,18.5,3.9,31.6,8,39.6,12.1,8,4.1,13.8,9.1,17.4,15.2s5.5,12.8,5.5,20.3-2.4,16.8-7.3,24.2c-4.9,7.4-11.6,13-20.3,16.8-8.7,3.8-19.7,5.7-32.9,5.7-23.3,0-39.4-4.5-48.3-13.4s-14-20.3-15.2-34.1v-.4Z"/>
      </g>
    </g>
  </g>
</svg>