<?xml version="1.0" encoding="UTF-8"?>
<svg xmlns="http://www.w3.org/2000/svg" version="1.1" viewBox="0 0 512 512">
  <defs>
    <style>
      .cls-1 {
        fill: #fff;
      }
    </style>
  </defs>
  <!-- Generator: Adobe Illustrator 28.7.4, SVG Export Plug-In . SVG Version: 1.2.0 Build 166)  -->
  <g>
    <g id="_x32_">
      <g>
        <path class="cls-1" d="M231.1,410.6c-37.3,0-71.1-10.2-96.9-28-25.8-18-43.8-43.1-50.8-74.5-2-9-3-18.2-3-27.4,0-30.7,10.8-62.3,30.5-90.7-8.5-6.1-16.5-13.8-23.6-22.7-24.7,34-39.1,73.4-39.2,113.4,0,11.5,1.2,23,3.7,34.4,8.7,39.6,32.1,72.1,63.9,94.1,31.9,22,72.1,33.8,115.3,33.8s48-3.5,72.6-10.8l-21.3-27.6c-17.5,4.2-34.7,6.2-51.3,6.2Z"/>
        <path class="cls-1" d="M452.1,133.1c-15.8-23.6-38.3-41.9-64.6-54.1-26.4-12.2-56.6-18.5-88.4-18.5-24.5,0-50.1,3.7-75.6,11.6-10.8,3.3-21.2,7.2-31.2,11.7.1.2.3.3.4.5,6.3,8.9,11.4,18.3,15,27.8,8.1-3.5,16.5-6.5,25.1-9.2,22.5-6.8,44.9-10.1,66.2-10.1s53.2,5.5,74.8,15.6c21.7,10,39.3,24.5,51.4,42.7,4.6,6.8,6.3,12.8,6.3,17.3,0,3-.6,5.4-2.2,8.1-1.2,2-2.9,4.2-5.6,6.4-4,3.4-10.2,6.9-19,9.8-8.8,2.9-20.1,5.2-34.2,6.5-16.8,1.4-30.8,7.6-40.6,17.2-9.8,9.6-14.7,22.4-14.7,34.9s5.8,27.4,16.5,37.3c10.7,10,26.1,16,43.9,16,1.1,0,2.2,0,3.4,0h.1c1,0,2.1,0,3.2,0,6.6,0,11.4.8,14.9,2,5.1,1.7,7.1,3.7,8.5,5.7,1.3,1.9,2.1,4.5,2.1,7.6s-.5,4.9-1.2,7c-.7,2.1-1.7,3.7-2.1,4.2-10.5,12.2-22.7,23.6-36.4,33.6l17.9,26.9c16.1-11.6,30.5-25,43-39.5,3.7-4.3,6.3-9.2,8.2-14.6,1.8-5.4,3-11.3,3-17.6s-.9-11.4-3.1-17.1c-3.3-8.7-9.9-17-19.4-22.3-9.5-5.5-21.2-8.1-35.1-8.1s-3,0-4.7.1h-1.9c-10.9,0-17.6-3.4-21.9-7.3-4.3-4-6.2-9-6.3-13.7,0-4.3,1.5-8.4,5.2-12,3.6-3.6,9.8-7,20.7-8,28.3-2.5,49.8-8.8,65.5-19.4,7.8-5.3,14.1-11.8,18.5-19.3,4.4-7.5,6.5-15.9,6.5-24.3,0-12.6-4.6-24.5-11.8-35.3Z"/>
        <path class="cls-1" d="M393.5,176.7c5.3-5.3,8.3-12.6,8.3-20.1s-3-14.8-8.3-20.1c-5.3-5.3-12.6-8.3-20.1-8.3s-14.8,3-20.1,8.3c-5.3,5.3-8.3,12.6-8.3,20.1s3,14.8,8.3,20.1c5.3,5.3,12.6,8.3,20.1,8.3,7.5,0,14.8-3,20.1-8.3Z"/>
        <path class="cls-1" d="M159.8,245.3c4.3-12.9-2.7-26.7-15.6-31-12.9-4.3-26.7,2.7-31,15.6-4.3,12.9,2.7,26.7,15.6,31,12.9,4.3,26.7-2.7,31-15.6Z"/>
        <path class="cls-1" d="M160.1,342.6c8.8-9.3,8.4-24-.9-32.9-9.3-8.8-24-8.4-32.9.9-8.8,9.3-8.4,24,.9,32.9,9.3,8.8,24,8.4,32.9-.9Z"/>
        <path class="cls-1" d="M281.9,162.9c14.9-1.7,25.5-15.2,23.8-30.1-1.7-14.9-15.2-25.5-30.1-23.8-14.9,1.7-25.5,15.2-23.8,30.1,1.7,14.9,15.2,25.5,30.1,23.8Z"/>
        <path class="cls-1" d="M99.4,151.1c15.1,21.1,36.7,35.2,56.3,36.8h.8c0,0,36.9-26.4,36.9-26.4l.2-.8c4.8-19.1-1.6-44.1-16.8-65.2-14.4-20-31.1-33.7-47.3-47-11-9.1-22.5-18.4-33.1-29.8-8.8-9.4-11.8-14-11.8-14.1L81.8,0l-2.4,2.8c-11.1,13.2-15.6,36.9-12.2,65,3.5,29.6,15,59.2,32.2,83.2ZM107.6,116.1c12,13.6,17.6,4.7,10.4-9.2-9.1-17.4,0-18,5.7-12.6,5.6,5.4,12.5,17.5,18.5,14,3.6-2.1-.3-9.6-5.4-20.9-2.9-6.5-.4-16.2,14.7-3.2,5.5,5.5,10.7,11.5,15.6,18.3,10.6,14.7,15.6,32.4,13.1,46.3l-31.6,22.6c-14-2.1-29.1-12.6-39.7-27.3-4-5.7-7.8-11.8-11.1-18.2-.4-.9-.8-1.9-1.2-2.9-5.3-11.6-1.1-20.5,10.9-6.9Z"/>
        <path class="cls-1" d="M215.4,183.9c-7.7-3.1-15-2.8-20.3,1l-17,12.2c-5.2,3.7-7.9,10.6-7.4,18.9.5,8.3,4.2,17.4,10.1,25.1l26.9,34.8,52.6-37.7-24.4-36.6c-5.4-8.1-12.8-14.4-20.5-17.6Z"/>
        <path class="cls-1" d="M269,251l-51.7,37.1,160.2,207.7c11.1,14.4,27.5,20.2,37.3,13.2h.1c9.8-7.1,9.6-24.5-.5-39.7l-145.4-218.3Z"/>
      </g>
    </g>
  </g>
</svg>